<?xml version="1.0" encoding="utf-8"?>
<!-- Generator: Adobe Illustrator 21.1.0, SVG Export Plug-In . SVG Version: 6.00 Build 0)  -->
<svg version="1.1" id="Layer_1" xmlns="http://www.w3.org/2000/svg" xmlns:xlink="http://www.w3.org/1999/xlink" x="0px" y="0px"
	 viewBox="0 0 792 612" style="enable-background:new 0 0 792 612;" xml:space="preserve">
<style type="text/css">
	.st0{fill:none;stroke:#000000;stroke-linecap:round;stroke-linejoin:round;stroke-miterlimit:1.5;}
	.st1{fill:none;stroke:#000000;stroke-width:0.76;stroke-linecap:round;stroke-linejoin:round;stroke-miterlimit:1.5;}
	.st2{fill:#FFFFFF;stroke:#231F20;stroke-width:1.25;stroke-linecap:round;stroke-miterlimit:10;}
	.st3{fill:#231F20;}
	.st4{fill:none;stroke:#FFFFFF;stroke-width:1.25;stroke-linecap:round;stroke-miterlimit:10;}
	.st5{fill:none;stroke:#231F20;stroke-width:1.25;stroke-linecap:round;stroke-miterlimit:10;}
	.st6{font-family:'Helvetica';}
	.st7{font-size:18px;}
</style>
<path class="st0" d="M250.3,499.8l159.5-31.2"/>
<path class="st0" d="M187.8,267.2l62.6,232.6"/>
<path class="st0" d="M307.7,281.2l-119.4-13.2"/>
<path class="st0" d="M191.5,269.2l-67.3-149.4L54.3,239.4L191.5,269.2z"/>
<path class="st0" d="M309,281.2l100.9-161.9"/>
<path class="st0" d="M591.6,279.4L409.9,119.4"/>
<path class="st0" d="M601.2,161.6l-191.4-42.2"/>
<path class="st0" d="M700.9,326.3l-110.1-47.2"/>
<path class="st0" d="M691.3,501.5L579.6,455"/>
<path class="st0" d="M98.8,409.3l151.5,90.5"/>
<g transform="matrix(1.56561,0,0,0.988376,-443.838,4.53584)">
	<path class="st1" d="M481,281.5c0,0,102.1,95.4,101.9,93.5"/>
</g>
<path class="st0" d="M583.1,462.9l-114.3-87.7"/>
<path class="st0" d="M412.5,466.4l56.3-91.3"/>
<path class="st0" d="M586.9,280.6l-118.2,94.6"/>
<g transform="matrix(1,0,0,1,459.609,-181.611)">
	<path class="st2" d="M39.6,592.8c0,1.5-1.2,2.7-2.7,2.7h-59.6c-1.5,0-2.7-1.2-2.7-2.7v-70c0-1.5,1.2-2.7,2.7-2.7h59.6
		c1.5,0,2.7,1.2,2.7,2.7V592.8z"/>
</g>
<g transform="matrix(1,0,0,1,459.609,-181.611)">
	<rect x="-18.5" y="524.4" class="st2" width="51.2" height="12.2"/>
</g>
<g transform="matrix(1,0,0,1,459.609,-181.611)">
	<path class="st3" d="M-12.8,530.5c0-0.9-0.6-1.6-1.4-1.6c-0.8,0-1.4,0.7-1.4,1.6c0,0.9,0.6,1.6,1.4,1.6
		C-13.4,532-12.8,531.3-12.8,530.5"/>
</g>
<g transform="matrix(1,0,0,1,459.609,-181.611)">
	<path class="st4" d="M-12.8,530.5c0-0.9-0.6-1.6-1.4-1.6c-0.8,0-1.4,0.7-1.4,1.6c0,0.9,0.6,1.6,1.4,1.6
		C-13.4,532-12.8,531.3-12.8,530.5z"/>
</g>
<g transform="matrix(1,0,0,1,459.609,-181.611)">
	<path class="st3" d="M-7.8,530.5c0-0.9-0.6-1.6-1.4-1.6c-0.8,0-1.4,0.7-1.4,1.6c0,0.9,0.6,1.6,1.4,1.6
		C-8.4,532-7.8,531.3-7.8,530.5"/>
</g>
<g transform="matrix(1,0,0,1,459.609,-181.611)">
	<path class="st4" d="M-7.8,530.5c0-0.9-0.6-1.6-1.4-1.6c-0.8,0-1.4,0.7-1.4,1.6c0,0.9,0.6,1.6,1.4,1.6
		C-8.4,532-7.8,531.3-7.8,530.5z"/>
</g>
<g transform="matrix(1,0,0,1,459.609,-181.611)">
	<path class="st3" d="M-3.1,530.5c0-0.9-0.6-1.6-1.4-1.6c-0.8,0-1.4,0.7-1.4,1.6c0,0.9,0.6,1.6,1.4,1.6
		C-3.7,532-3.1,531.3-3.1,530.5"/>
</g>
<g transform="matrix(1,0,0,1,459.609,-181.611)">
	<path class="st4" d="M-3.1,530.5c0-0.9-0.6-1.6-1.4-1.6c-0.8,0-1.4,0.7-1.4,1.6c0,0.9,0.6,1.6,1.4,1.6
		C-3.7,532-3.1,531.3-3.1,530.5z"/>
</g>
<g transform="matrix(1,0,0,1,459.609,-181.611)">
	<rect x="-18.5" y="542.2" class="st2" width="51.2" height="12.2"/>
</g>
<g transform="matrix(1,0,0,1,459.609,-181.611)">
	<path class="st3" d="M-12.8,548.3c0-0.9-0.6-1.6-1.4-1.6c-0.8,0-1.4,0.7-1.4,1.6c0,0.9,0.6,1.6,1.4,1.6
		C-13.4,549.9-12.8,549.2-12.8,548.3"/>
</g>
<g transform="matrix(1,0,0,1,459.609,-181.611)">
	<path class="st4" d="M-12.8,548.3c0-0.9-0.6-1.6-1.4-1.6c-0.8,0-1.4,0.7-1.4,1.6c0,0.9,0.6,1.6,1.4,1.6
		C-13.4,549.9-12.8,549.2-12.8,548.3z"/>
</g>
<g transform="matrix(1,0,0,1,459.609,-181.611)">
	<path class="st3" d="M-7.8,548.3c0-0.9-0.6-1.6-1.4-1.6c-0.8,0-1.4,0.7-1.4,1.6c0,0.9,0.6,1.6,1.4,1.6
		C-8.4,549.9-7.8,549.2-7.8,548.3"/>
</g>
<g transform="matrix(1,0,0,1,459.609,-181.611)">
	<path class="st4" d="M-7.8,548.3c0-0.9-0.6-1.6-1.4-1.6c-0.8,0-1.4,0.7-1.4,1.6c0,0.9,0.6,1.6,1.4,1.6
		C-8.4,549.9-7.8,549.2-7.8,548.3z"/>
</g>
<g transform="matrix(1,0,0,1,459.609,-181.611)">
	<path class="st3" d="M-3.1,548.3c0-0.9-0.6-1.6-1.4-1.6c-0.8,0-1.4,0.7-1.4,1.6c0,0.9,0.6,1.6,1.4,1.6
		C-3.7,549.9-3.1,549.2-3.1,548.3"/>
</g>
<g transform="matrix(1,0,0,1,459.609,-181.611)">
	<path class="st4" d="M-3.1,548.3c0-0.9-0.6-1.6-1.4-1.6c-0.8,0-1.4,0.7-1.4,1.6c0,0.9,0.6,1.6,1.4,1.6
		C-3.7,549.9-3.1,549.2-3.1,548.3z"/>
</g>
<g transform="matrix(1,0,0,1,459.609,-181.611)">
	<rect x="-18.5" y="558.8" class="st2" width="51.2" height="12.2"/>
</g>
<g transform="matrix(1,0,0,1,459.609,-181.611)">
	<path class="st3" d="M-12.8,564.9c0-0.9-0.6-1.6-1.4-1.6c-0.8,0-1.4,0.7-1.4,1.6s0.6,1.6,1.4,1.6
		C-13.4,566.5-12.8,565.8-12.8,564.9"/>
</g>
<g transform="matrix(1,0,0,1,459.609,-181.611)">
	<path class="st4" d="M-12.8,564.9c0-0.9-0.6-1.6-1.4-1.6c-0.8,0-1.4,0.7-1.4,1.6s0.6,1.6,1.4,1.6
		C-13.4,566.5-12.8,565.8-12.8,564.9z"/>
</g>
<g transform="matrix(1,0,0,1,459.609,-181.611)">
	<path class="st3" d="M-7.8,564.9c0-0.9-0.6-1.6-1.4-1.6c-0.8,0-1.4,0.7-1.4,1.6s0.6,1.6,1.4,1.6C-8.4,566.5-7.8,565.8-7.8,564.9"/>
</g>
<g transform="matrix(1,0,0,1,459.609,-181.611)">
	<path class="st4" d="M-7.8,564.9c0-0.9-0.6-1.6-1.4-1.6c-0.8,0-1.4,0.7-1.4,1.6s0.6,1.6,1.4,1.6C-8.4,566.5-7.8,565.8-7.8,564.9z"
		/>
</g>
<g transform="matrix(1,0,0,1,459.609,-181.611)">
	<path class="st3" d="M-3.1,564.9c0-0.9-0.6-1.6-1.4-1.6c-0.8,0-1.4,0.7-1.4,1.6s0.6,1.6,1.4,1.6C-3.7,566.5-3.1,565.8-3.1,564.9"/>
</g>
<g transform="matrix(1,0,0,1,459.609,-181.611)">
	<path class="st4" d="M-3.1,564.9c0-0.9-0.6-1.6-1.4-1.6c-0.8,0-1.4,0.7-1.4,1.6s0.6,1.6,1.4,1.6C-3.7,566.5-3.1,565.8-3.1,564.9z"
		/>
</g>
<g transform="matrix(1,0,0,1,459.609,-181.611)">
	<rect x="-18.5" y="575.4" class="st2" width="51.2" height="12.2"/>
</g>
<g transform="matrix(1,0,0,1,459.609,-181.611)">
	<path class="st3" d="M-12.8,581.5c0-0.9-0.6-1.6-1.4-1.6c-0.8,0-1.4,0.7-1.4,1.6c0,0.9,0.6,1.6,1.4,1.6
		C-13.4,583.1-12.8,582.3-12.8,581.5"/>
</g>
<g transform="matrix(1,0,0,1,459.609,-181.611)">
	<path class="st4" d="M-12.8,581.5c0-0.9-0.6-1.6-1.4-1.6c-0.8,0-1.4,0.7-1.4,1.6c0,0.9,0.6,1.6,1.4,1.6
		C-13.4,583.1-12.8,582.3-12.8,581.5z"/>
</g>
<g transform="matrix(1,0,0,1,459.609,-181.611)">
	<path class="st3" d="M-7.8,581.5c0-0.9-0.6-1.6-1.4-1.6c-0.8,0-1.4,0.7-1.4,1.6c0,0.9,0.6,1.6,1.4,1.6
		C-8.4,583.1-7.8,582.3-7.8,581.5"/>
</g>
<g transform="matrix(1,0,0,1,459.609,-181.611)">
	<path class="st4" d="M-7.8,581.5c0-0.9-0.6-1.6-1.4-1.6c-0.8,0-1.4,0.7-1.4,1.6c0,0.9,0.6,1.6,1.4,1.6
		C-8.4,583.1-7.8,582.3-7.8,581.5z"/>
</g>
<g transform="matrix(1,0,0,1,459.609,-181.611)">
	<path class="st3" d="M-3.1,581.5c0-0.9-0.6-1.6-1.4-1.6c-0.8,0-1.4,0.7-1.4,1.6c0,0.9,0.6,1.6,1.4,1.6
		C-3.7,583.1-3.1,582.3-3.1,581.5"/>
</g>
<g transform="matrix(1,0,0,1,459.609,-181.611)">
	<path class="st4" d="M-3.1,581.5c0-0.9-0.6-1.6-1.4-1.6c-0.8,0-1.4,0.7-1.4,1.6c0,0.9,0.6,1.6,1.4,1.6
		C-3.7,583.1-3.1,582.3-3.1,581.5z"/>
</g>
<g transform="matrix(1,0,0,1,459.609,-181.611)">
	<path class="st5" d="M11.8,524.4h4.8"/>
</g>
<g transform="matrix(1,0,0,1,389.609,-181.611)">
	<path class="st2" d="M-49.7,500.6c0,1.5-1.2,2.7-2.7,2.7H-112c-1.5,0-2.7-1.2-2.7-2.7v-70c0-1.5,1.2-2.7,2.7-2.7h59.6
		c1.5,0,2.7,1.2,2.7,2.7V500.6z"/>
</g>
<g transform="matrix(1,0,0,1,389.609,-181.611)">
	<rect x="-107.8" y="432.2" class="st2" width="51.2" height="12.2"/>
</g>
<g transform="matrix(1,0,0,1,389.609,-181.611)">
	<path class="st3" d="M-102.2,438.3c0-0.9-0.6-1.6-1.4-1.6c-0.8,0-1.4,0.7-1.4,1.6c0,0.9,0.6,1.6,1.4,1.6
		C-102.8,439.9-102.2,439.2-102.2,438.3"/>
</g>
<g transform="matrix(1,0,0,1,389.609,-181.611)">
	<path class="st4" d="M-102.2,438.3c0-0.9-0.6-1.6-1.4-1.6c-0.8,0-1.4,0.7-1.4,1.6c0,0.9,0.6,1.6,1.4,1.6
		C-102.8,439.9-102.2,439.2-102.2,438.3z"/>
</g>
<g transform="matrix(1,0,0,1,389.609,-181.611)">
	<path class="st3" d="M-97.1,438.3c0-0.9-0.6-1.6-1.4-1.6c-0.8,0-1.4,0.7-1.4,1.6c0,0.9,0.6,1.6,1.4,1.6
		C-97.8,439.9-97.1,439.2-97.1,438.3"/>
</g>
<g transform="matrix(1,0,0,1,389.609,-181.611)">
	<path class="st4" d="M-97.1,438.3c0-0.9-0.6-1.6-1.4-1.6c-0.8,0-1.4,0.7-1.4,1.6c0,0.9,0.6,1.6,1.4,1.6
		C-97.8,439.9-97.1,439.2-97.1,438.3z"/>
</g>
<g transform="matrix(1,0,0,1,389.609,-181.611)">
	<path class="st3" d="M-92.4,438.3c0-0.9-0.6-1.6-1.4-1.6c-0.8,0-1.4,0.7-1.4,1.6c0,0.9,0.6,1.6,1.4,1.6
		C-93.1,439.9-92.4,439.2-92.4,438.3"/>
</g>
<g transform="matrix(1,0,0,1,389.609,-181.611)">
	<path class="st4" d="M-92.4,438.3c0-0.9-0.6-1.6-1.4-1.6c-0.8,0-1.4,0.7-1.4,1.6c0,0.9,0.6,1.6,1.4,1.6
		C-93.1,439.9-92.4,439.2-92.4,438.3z"/>
</g>
<g transform="matrix(1,0,0,1,389.609,-181.611)">
	<rect x="-107.8" y="450.1" class="st2" width="51.2" height="12.2"/>
</g>
<g transform="matrix(1,0,0,1,389.609,-181.611)">
	<path class="st3" d="M-102.2,456.2c0-0.9-0.6-1.6-1.4-1.6c-0.8,0-1.4,0.7-1.4,1.6s0.6,1.6,1.4,1.6
		C-102.8,457.8-102.2,457.1-102.2,456.2"/>
</g>
<g transform="matrix(1,0,0,1,389.609,-181.611)">
	<path class="st4" d="M-102.2,456.2c0-0.9-0.6-1.6-1.4-1.6c-0.8,0-1.4,0.7-1.4,1.6s0.6,1.6,1.4,1.6
		C-102.8,457.8-102.2,457.1-102.2,456.2z"/>
</g>
<g transform="matrix(1,0,0,1,389.609,-181.611)">
	<path class="st3" d="M-97.1,456.2c0-0.9-0.6-1.6-1.4-1.6c-0.8,0-1.4,0.7-1.4,1.6s0.6,1.6,1.4,1.6
		C-97.8,457.8-97.1,457.1-97.1,456.2"/>
</g>
<g transform="matrix(1,0,0,1,389.609,-181.611)">
	<path class="st4" d="M-97.1,456.2c0-0.9-0.6-1.6-1.4-1.6c-0.8,0-1.4,0.7-1.4,1.6s0.6,1.6,1.4,1.6
		C-97.8,457.8-97.1,457.1-97.1,456.2z"/>
</g>
<g transform="matrix(1,0,0,1,389.609,-181.611)">
	<path class="st3" d="M-92.4,456.2c0-0.9-0.6-1.6-1.4-1.6c-0.8,0-1.4,0.7-1.4,1.6s0.6,1.6,1.4,1.6
		C-93.1,457.8-92.4,457.1-92.4,456.2"/>
</g>
<g transform="matrix(1,0,0,1,389.609,-181.611)">
	<path class="st4" d="M-92.4,456.2c0-0.9-0.6-1.6-1.4-1.6c-0.8,0-1.4,0.7-1.4,1.6s0.6,1.6,1.4,1.6
		C-93.1,457.8-92.4,457.1-92.4,456.2z"/>
</g>
<g transform="matrix(1,0,0,1,389.609,-181.611)">
	<rect x="-107.8" y="466.6" class="st2" width="51.2" height="12.2"/>
</g>
<g transform="matrix(1,0,0,1,389.609,-181.611)">
	<path class="st3" d="M-102.2,472.7c0-0.9-0.6-1.6-1.4-1.6c-0.8,0-1.4,0.7-1.4,1.6c0,0.9,0.6,1.6,1.4,1.6
		C-102.8,474.3-102.2,473.6-102.2,472.7"/>
</g>
<g transform="matrix(1,0,0,1,389.609,-181.611)">
	<path class="st4" d="M-102.2,472.7c0-0.9-0.6-1.6-1.4-1.6c-0.8,0-1.4,0.7-1.4,1.6c0,0.9,0.6,1.6,1.4,1.6
		C-102.8,474.3-102.2,473.6-102.2,472.7z"/>
</g>
<g transform="matrix(1,0,0,1,389.609,-181.611)">
	<path class="st3" d="M-97.1,472.7c0-0.9-0.6-1.6-1.4-1.6c-0.8,0-1.4,0.7-1.4,1.6c0,0.9,0.6,1.6,1.4,1.6
		C-97.8,474.3-97.1,473.6-97.1,472.7"/>
</g>
<g transform="matrix(1,0,0,1,389.609,-181.611)">
	<path class="st4" d="M-97.1,472.7c0-0.9-0.6-1.6-1.4-1.6c-0.8,0-1.4,0.7-1.4,1.6c0,0.9,0.6,1.6,1.4,1.6
		C-97.8,474.3-97.1,473.6-97.1,472.7z"/>
</g>
<g transform="matrix(1,0,0,1,389.609,-181.611)">
	<path class="st3" d="M-92.4,472.7c0-0.9-0.6-1.6-1.4-1.6c-0.8,0-1.4,0.7-1.4,1.6c0,0.9,0.6,1.6,1.4,1.6
		C-93.1,474.3-92.4,473.6-92.4,472.7"/>
</g>
<g transform="matrix(1,0,0,1,389.609,-181.611)">
	<path class="st4" d="M-92.4,472.7c0-0.9-0.6-1.6-1.4-1.6c-0.8,0-1.4,0.7-1.4,1.6c0,0.9,0.6,1.6,1.4,1.6
		C-93.1,474.3-92.4,473.6-92.4,472.7z"/>
</g>
<g transform="matrix(1,0,0,1,389.609,-181.611)">
	<rect x="-107.8" y="483.2" class="st2" width="51.2" height="12.2"/>
</g>
<g transform="matrix(1,0,0,1,389.609,-181.611)">
	<path class="st3" d="M-102.2,489.3c0-0.9-0.6-1.6-1.4-1.6c-0.8,0-1.4,0.7-1.4,1.6c0,0.9,0.6,1.6,1.4,1.6
		C-102.8,490.9-102.2,490.2-102.2,489.3"/>
</g>
<g transform="matrix(1,0,0,1,389.609,-181.611)">
	<path class="st4" d="M-102.2,489.3c0-0.9-0.6-1.6-1.4-1.6c-0.8,0-1.4,0.7-1.4,1.6c0,0.9,0.6,1.6,1.4,1.6
		C-102.8,490.9-102.2,490.2-102.2,489.3z"/>
</g>
<g transform="matrix(1,0,0,1,389.609,-181.611)">
	<path class="st3" d="M-97.1,489.3c0-0.9-0.6-1.6-1.4-1.6c-0.8,0-1.4,0.7-1.4,1.6c0,0.9,0.6,1.6,1.4,1.6
		C-97.8,490.9-97.1,490.2-97.1,489.3"/>
</g>
<g transform="matrix(1,0,0,1,389.609,-181.611)">
	<path class="st4" d="M-97.1,489.3c0-0.9-0.6-1.6-1.4-1.6c-0.8,0-1.4,0.7-1.4,1.6c0,0.9,0.6,1.6,1.4,1.6
		C-97.8,490.9-97.1,490.2-97.1,489.3z"/>
</g>
<g transform="matrix(1,0,0,1,389.609,-181.611)">
	<path class="st3" d="M-92.4,489.3c0-0.9-0.6-1.6-1.4-1.6c-0.8,0-1.4,0.7-1.4,1.6c0,0.9,0.6,1.6,1.4,1.6
		C-93.1,490.9-92.4,490.2-92.4,489.3"/>
</g>
<g transform="matrix(1,0,0,1,389.609,-181.611)">
	<path class="st4" d="M-92.4,489.3c0-0.9-0.6-1.6-1.4-1.6c-0.8,0-1.4,0.7-1.4,1.6c0,0.9,0.6,1.6,1.4,1.6
		C-93.1,490.9-92.4,490.2-92.4,489.3z"/>
</g>
<g transform="matrix(1,0,0,1,389.609,-181.611)">
	<path class="st5" d="M-77.5,432.2h4.8"/>
</g>
<g transform="matrix(1,0,0,1,726.609,-90.6111)">
	<path class="st2" d="M-112.2,589.1c0,1.5-1.2,2.7-2.7,2.7h-59.6c-1.5,0-2.7-1.2-2.7-2.7v-70c0-1.5,1.2-2.7,2.7-2.7h59.6
		c1.5,0,2.7,1.2,2.7,2.7V589.1z"/>
</g>
<g transform="matrix(1,0,0,1,736.168,-279.758)">
	<path class="st2" d="M-112.6,596.7c0,1.5-1.2,2.7-2.7,2.7h-59.6c-1.5,0-2.7-1.2-2.7-2.7v-70c0-1.5,1.2-2.7,2.7-2.7h59.6
		c1.5,0,2.7,1.2,2.7,2.7V596.7z"/>
</g>
<g transform="matrix(1,0,0,1,726.974,-88.9833)">
	<rect x="-170.3" y="520.6" class="st2" width="51.2" height="12.2"/>
</g>
<g transform="matrix(1,0,0,1,736.533,-278.13)">
	<rect x="-170.7" y="528.2" class="st2" width="51.2" height="12.2"/>
</g>
<g transform="matrix(1,0,0,1,726.974,-88.9833)">
	<path class="st3" d="M-164.6,526.7c0-0.9-0.6-1.6-1.4-1.6c-0.8,0-1.4,0.7-1.4,1.6c0,0.9,0.6,1.6,1.4,1.6
		C-165.3,528.3-164.6,527.6-164.6,526.7"/>
</g>
<g transform="matrix(1,0,0,1,736.533,-278.13)">
	<path class="st3" d="M-165,534.3c0-0.9-0.6-1.6-1.4-1.6c-0.8,0-1.4,0.7-1.4,1.6c0,0.9,0.6,1.6,1.4,1.6
		C-165.6,535.9-165,535.2-165,534.3"/>
</g>
<g transform="matrix(1,0,0,1,726.974,-88.9833)">
	<path class="st4" d="M-164.6,526.7c0-0.9-0.6-1.6-1.4-1.6c-0.8,0-1.4,0.7-1.4,1.6c0,0.9,0.6,1.6,1.4,1.6
		C-165.3,528.3-164.6,527.6-164.6,526.7z"/>
</g>
<g transform="matrix(1,0,0,1,736.533,-278.13)">
	<path class="st4" d="M-165,534.3c0-0.9-0.6-1.6-1.4-1.6c-0.8,0-1.4,0.7-1.4,1.6c0,0.9,0.6,1.6,1.4,1.6
		C-165.6,535.9-165,535.2-165,534.3z"/>
</g>
<g transform="matrix(1,0,0,1,726.974,-88.9833)">
	<path class="st3" d="M-159.6,526.7c0-0.9-0.6-1.6-1.4-1.6c-0.8,0-1.4,0.7-1.4,1.6c0,0.9,0.6,1.6,1.4,1.6
		C-160.2,528.3-159.6,527.6-159.6,526.7"/>
</g>
<g transform="matrix(1,0,0,1,736.533,-278.13)">
	<path class="st3" d="M-160,534.3c0-0.9-0.6-1.6-1.4-1.6c-0.8,0-1.4,0.7-1.4,1.6c0,0.9,0.6,1.6,1.4,1.6
		C-160.6,535.9-160,535.2-160,534.3"/>
</g>
<g transform="matrix(1,0,0,1,726.974,-88.9833)">
	<path class="st4" d="M-159.6,526.7c0-0.9-0.6-1.6-1.4-1.6c-0.8,0-1.4,0.7-1.4,1.6c0,0.9,0.6,1.6,1.4,1.6
		C-160.2,528.3-159.6,527.6-159.6,526.7z"/>
</g>
<g transform="matrix(1,0,0,1,736.533,-278.13)">
	<path class="st4" d="M-160,534.3c0-0.9-0.6-1.6-1.4-1.6c-0.8,0-1.4,0.7-1.4,1.6c0,0.9,0.6,1.6,1.4,1.6
		C-160.6,535.9-160,535.2-160,534.3z"/>
</g>
<g transform="matrix(1,0,0,1,726.974,-88.9833)">
	<path class="st3" d="M-154.9,526.7c0-0.9-0.6-1.6-1.4-1.6c-0.8,0-1.4,0.7-1.4,1.6c0,0.9,0.6,1.6,1.4,1.6
		C-155.6,528.3-154.9,527.6-154.9,526.7"/>
</g>
<g transform="matrix(1,0,0,1,736.533,-278.13)">
	<path class="st3" d="M-155.3,534.3c0-0.9-0.6-1.6-1.4-1.6c-0.8,0-1.4,0.7-1.4,1.6c0,0.9,0.6,1.6,1.4,1.6
		C-155.9,535.9-155.3,535.2-155.3,534.3"/>
</g>
<g transform="matrix(1,0,0,1,726.974,-88.9833)">
	<path class="st4" d="M-154.9,526.7c0-0.9-0.6-1.6-1.4-1.6c-0.8,0-1.4,0.7-1.4,1.6c0,0.9,0.6,1.6,1.4,1.6
		C-155.6,528.3-154.9,527.6-154.9,526.7z"/>
</g>
<g transform="matrix(1,0,0,1,736.533,-278.13)">
	<path class="st4" d="M-155.3,534.3c0-0.9-0.6-1.6-1.4-1.6c-0.8,0-1.4,0.7-1.4,1.6c0,0.9,0.6,1.6,1.4,1.6
		C-155.9,535.9-155.3,535.2-155.3,534.3z"/>
</g>
<g transform="matrix(1,0,0,1,726.974,-88.9833)">
	<rect x="-170.3" y="538.5" class="st2" width="51.2" height="12.2"/>
</g>
<g transform="matrix(1,0,0,1,736.533,-278.13)">
	<rect x="-170.7" y="546.1" class="st2" width="51.2" height="12.2"/>
</g>
<g transform="matrix(1,0,0,1,726.974,-88.9833)">
	<path class="st3" d="M-164.6,544.6c0-0.9-0.6-1.6-1.4-1.6c-0.8,0-1.4,0.7-1.4,1.6c0,0.9,0.6,1.6,1.4,1.6
		C-165.3,546.2-164.6,545.5-164.6,544.6"/>
</g>
<g transform="matrix(1,0,0,1,736.533,-278.13)">
	<path class="st3" d="M-165,552.2c0-0.9-0.6-1.6-1.4-1.6c-0.8,0-1.4,0.7-1.4,1.6c0,0.9,0.6,1.6,1.4,1.6
		C-165.6,553.8-165,553.1-165,552.2"/>
</g>
<g transform="matrix(1,0,0,1,726.974,-88.9833)">
	<path class="st4" d="M-164.6,544.6c0-0.9-0.6-1.6-1.4-1.6c-0.8,0-1.4,0.7-1.4,1.6c0,0.9,0.6,1.6,1.4,1.6
		C-165.3,546.2-164.6,545.5-164.6,544.6z"/>
</g>
<g transform="matrix(1,0,0,1,736.533,-278.13)">
	<path class="st4" d="M-165,552.2c0-0.9-0.6-1.6-1.4-1.6c-0.8,0-1.4,0.7-1.4,1.6c0,0.9,0.6,1.6,1.4,1.6
		C-165.6,553.8-165,553.1-165,552.2z"/>
</g>
<g transform="matrix(1,0,0,1,726.974,-88.9833)">
	<path class="st3" d="M-159.6,544.6c0-0.9-0.6-1.6-1.4-1.6c-0.8,0-1.4,0.7-1.4,1.6c0,0.9,0.6,1.6,1.4,1.6
		C-160.2,546.2-159.6,545.5-159.6,544.6"/>
</g>
<g transform="matrix(1,0,0,1,736.533,-278.13)">
	<path class="st3" d="M-160,552.2c0-0.9-0.6-1.6-1.4-1.6c-0.8,0-1.4,0.7-1.4,1.6c0,0.9,0.6,1.6,1.4,1.6
		C-160.6,553.8-160,553.1-160,552.2"/>
</g>
<g transform="matrix(1,0,0,1,726.974,-88.9833)">
	<path class="st4" d="M-159.6,544.6c0-0.9-0.6-1.6-1.4-1.6c-0.8,0-1.4,0.7-1.4,1.6c0,0.9,0.6,1.6,1.4,1.6
		C-160.2,546.2-159.6,545.5-159.6,544.6z"/>
</g>
<g transform="matrix(1,0,0,1,736.533,-278.13)">
	<path class="st4" d="M-160,552.2c0-0.9-0.6-1.6-1.4-1.6c-0.8,0-1.4,0.7-1.4,1.6c0,0.9,0.6,1.6,1.4,1.6
		C-160.6,553.8-160,553.1-160,552.2z"/>
</g>
<g transform="matrix(1,0,0,1,726.974,-88.9833)">
	<path class="st3" d="M-154.9,544.6c0-0.9-0.6-1.6-1.4-1.6c-0.8,0-1.4,0.7-1.4,1.6c0,0.9,0.6,1.6,1.4,1.6
		C-155.6,546.2-154.9,545.5-154.9,544.6"/>
</g>
<g transform="matrix(1,0,0,1,736.533,-278.13)">
	<path class="st3" d="M-155.3,552.2c0-0.9-0.6-1.6-1.4-1.6c-0.8,0-1.4,0.7-1.4,1.6c0,0.9,0.6,1.6,1.4,1.6
		C-155.9,553.8-155.3,553.1-155.3,552.2"/>
</g>
<g transform="matrix(1,0,0,1,726.974,-88.9833)">
	<path class="st4" d="M-154.9,544.6c0-0.9-0.6-1.6-1.4-1.6c-0.8,0-1.4,0.7-1.4,1.6c0,0.9,0.6,1.6,1.4,1.6
		C-155.6,546.2-154.9,545.5-154.9,544.6z"/>
</g>
<g transform="matrix(1,0,0,1,736.533,-278.13)">
	<path class="st4" d="M-155.3,552.2c0-0.9-0.6-1.6-1.4-1.6c-0.8,0-1.4,0.7-1.4,1.6c0,0.9,0.6,1.6,1.4,1.6
		C-155.9,553.8-155.3,553.1-155.3,552.2z"/>
</g>
<g transform="matrix(1,0,0,1,726.974,-88.9833)">
	<rect x="-170.3" y="555.1" class="st2" width="51.2" height="12.2"/>
</g>
<g transform="matrix(1,0,0,1,736.533,-278.13)">
	<rect x="-170.7" y="562.7" class="st2" width="51.2" height="12.2"/>
</g>
<g transform="matrix(1,0,0,1,726.974,-88.9833)">
	<path class="st3" d="M-164.6,561.2c0-0.9-0.6-1.6-1.4-1.6c-0.8,0-1.4,0.7-1.4,1.6c0,0.9,0.6,1.6,1.4,1.6
		C-165.3,562.8-164.6,562.1-164.6,561.2"/>
</g>
<g transform="matrix(1,0,0,1,736.533,-278.13)">
	<path class="st3" d="M-165,568.8c0-0.9-0.6-1.6-1.4-1.6c-0.8,0-1.4,0.7-1.4,1.6c0,0.9,0.6,1.6,1.4,1.6
		C-165.6,570.4-165,569.6-165,568.8"/>
</g>
<g transform="matrix(1,0,0,1,726.974,-88.9833)">
	<path class="st4" d="M-164.6,561.2c0-0.9-0.6-1.6-1.4-1.6c-0.8,0-1.4,0.7-1.4,1.6c0,0.9,0.6,1.6,1.4,1.6
		C-165.3,562.8-164.6,562.1-164.6,561.2z"/>
</g>
<g transform="matrix(1,0,0,1,736.533,-278.13)">
	<path class="st4" d="M-165,568.8c0-0.9-0.6-1.6-1.4-1.6c-0.8,0-1.4,0.7-1.4,1.6c0,0.9,0.6,1.6,1.4,1.6
		C-165.6,570.4-165,569.6-165,568.8z"/>
</g>
<g transform="matrix(1,0,0,1,726.974,-88.9833)">
	<path class="st3" d="M-159.6,561.2c0-0.9-0.6-1.6-1.4-1.6c-0.8,0-1.4,0.7-1.4,1.6c0,0.9,0.6,1.6,1.4,1.6
		C-160.2,562.8-159.6,562.1-159.6,561.2"/>
</g>
<g transform="matrix(1,0,0,1,736.533,-278.13)">
	<path class="st3" d="M-160,568.8c0-0.9-0.6-1.6-1.4-1.6c-0.8,0-1.4,0.7-1.4,1.6c0,0.9,0.6,1.6,1.4,1.6
		C-160.6,570.4-160,569.6-160,568.8"/>
</g>
<g transform="matrix(1,0,0,1,726.974,-88.9833)">
	<path class="st4" d="M-159.6,561.2c0-0.9-0.6-1.6-1.4-1.6c-0.8,0-1.4,0.7-1.4,1.6c0,0.9,0.6,1.6,1.4,1.6
		C-160.2,562.8-159.6,562.1-159.6,561.2z"/>
</g>
<g transform="matrix(1,0,0,1,736.533,-278.13)">
	<path class="st4" d="M-160,568.8c0-0.9-0.6-1.6-1.4-1.6c-0.8,0-1.4,0.7-1.4,1.6c0,0.9,0.6,1.6,1.4,1.6
		C-160.6,570.4-160,569.6-160,568.8z"/>
</g>
<g transform="matrix(1,0,0,1,726.974,-88.9833)">
	<path class="st3" d="M-154.9,561.2c0-0.9-0.6-1.6-1.4-1.6c-0.8,0-1.4,0.7-1.4,1.6c0,0.9,0.6,1.6,1.4,1.6
		C-155.6,562.8-154.9,562.1-154.9,561.2"/>
</g>
<g transform="matrix(1,0,0,1,736.533,-278.13)">
	<path class="st3" d="M-155.3,568.8c0-0.9-0.6-1.6-1.4-1.6c-0.8,0-1.4,0.7-1.4,1.6c0,0.9,0.6,1.6,1.4,1.6
		C-155.9,570.4-155.3,569.6-155.3,568.8"/>
</g>
<g transform="matrix(1,0,0,1,726.974,-88.9833)">
	<path class="st4" d="M-154.9,561.2c0-0.9-0.6-1.6-1.4-1.6c-0.8,0-1.4,0.7-1.4,1.6c0,0.9,0.6,1.6,1.4,1.6
		C-155.6,562.8-154.9,562.1-154.9,561.2z"/>
</g>
<g transform="matrix(1,0,0,1,736.533,-278.13)">
	<path class="st4" d="M-155.3,568.8c0-0.9-0.6-1.6-1.4-1.6c-0.8,0-1.4,0.7-1.4,1.6c0,0.9,0.6,1.6,1.4,1.6
		C-155.9,570.4-155.3,569.6-155.3,568.8z"/>
</g>
<g transform="matrix(1,0,0,1,726.974,-88.9833)">
	<rect x="-170.3" y="571.7" class="st2" width="51.2" height="12.2"/>
</g>
<g transform="matrix(1,0,0,1,736.533,-278.13)">
	<rect x="-170.7" y="579.2" class="st2" width="51.2" height="12.2"/>
</g>
<g transform="matrix(1,0,0,1,726.974,-88.9833)">
	<path class="st3" d="M-164.6,577.8c0-0.9-0.6-1.6-1.4-1.6c-0.8,0-1.4,0.7-1.4,1.6c0,0.9,0.6,1.6,1.4,1.6
		C-165.3,579.4-164.6,578.6-164.6,577.8"/>
</g>
<g transform="matrix(1,0,0,1,736.533,-278.13)">
	<path class="st3" d="M-165,585.3c0-0.9-0.6-1.6-1.4-1.6c-0.8,0-1.4,0.7-1.4,1.6c0,0.9,0.6,1.6,1.4,1.6
		C-165.6,586.9-165,586.2-165,585.3"/>
</g>
<g transform="matrix(1,0,0,1,726.974,-88.9833)">
	<path class="st4" d="M-164.6,577.8c0-0.9-0.6-1.6-1.4-1.6c-0.8,0-1.4,0.7-1.4,1.6c0,0.9,0.6,1.6,1.4,1.6
		C-165.3,579.4-164.6,578.6-164.6,577.8z"/>
</g>
<g transform="matrix(1,0,0,1,736.533,-278.13)">
	<path class="st4" d="M-165,585.3c0-0.9-0.6-1.6-1.4-1.6c-0.8,0-1.4,0.7-1.4,1.6c0,0.9,0.6,1.6,1.4,1.6
		C-165.6,586.9-165,586.2-165,585.3z"/>
</g>
<g transform="matrix(1,0,0,1,726.974,-88.9833)">
	<path class="st3" d="M-159.6,577.8c0-0.9-0.6-1.6-1.4-1.6c-0.8,0-1.4,0.7-1.4,1.6c0,0.9,0.6,1.6,1.4,1.6
		C-160.2,579.4-159.6,578.6-159.6,577.8"/>
</g>
<g transform="matrix(1,0,0,1,736.533,-278.13)">
	<path class="st3" d="M-160,585.3c0-0.9-0.6-1.6-1.4-1.6c-0.8,0-1.4,0.7-1.4,1.6c0,0.9,0.6,1.6,1.4,1.6
		C-160.6,586.9-160,586.2-160,585.3"/>
</g>
<g transform="matrix(1,0,0,1,726.974,-88.9833)">
	<path class="st4" d="M-159.6,577.8c0-0.9-0.6-1.6-1.4-1.6c-0.8,0-1.4,0.7-1.4,1.6c0,0.9,0.6,1.6,1.4,1.6
		C-160.2,579.4-159.6,578.6-159.6,577.8z"/>
</g>
<g transform="matrix(1,0,0,1,736.533,-278.13)">
	<path class="st4" d="M-160,585.3c0-0.9-0.6-1.6-1.4-1.6c-0.8,0-1.4,0.7-1.4,1.6c0,0.9,0.6,1.6,1.4,1.6
		C-160.6,586.9-160,586.2-160,585.3z"/>
</g>
<g transform="matrix(1,0,0,1,726.974,-88.9833)">
	<path class="st3" d="M-154.9,577.8c0-0.9-0.6-1.6-1.4-1.6c-0.8,0-1.4,0.7-1.4,1.6c0,0.9,0.6,1.6,1.4,1.6
		C-155.6,579.4-154.9,578.6-154.9,577.8"/>
</g>
<g transform="matrix(1,0,0,1,736.533,-278.13)">
	<path class="st3" d="M-155.3,585.3c0-0.9-0.6-1.6-1.4-1.6c-0.8,0-1.4,0.7-1.4,1.6c0,0.9,0.6,1.6,1.4,1.6
		C-155.9,586.9-155.3,586.2-155.3,585.3"/>
</g>
<g transform="matrix(1,0,0,1,726.974,-88.9833)">
	<path class="st4" d="M-154.9,577.8c0-0.9-0.6-1.6-1.4-1.6c-0.8,0-1.4,0.7-1.4,1.6c0,0.9,0.6,1.6,1.4,1.6
		C-155.6,579.4-154.9,578.6-154.9,577.8z"/>
</g>
<g transform="matrix(1,0,0,1,736.533,-278.13)">
	<path class="st4" d="M-155.3,585.3c0-0.9-0.6-1.6-1.4-1.6c-0.8,0-1.4,0.7-1.4,1.6c0,0.9,0.6,1.6,1.4,1.6
		C-155.9,586.9-155.3,586.2-155.3,585.3z"/>
</g>
<g transform="matrix(1,0,0,1,726.974,-88.9833)">
	<path class="st5" d="M-140,520.7h4.8"/>
</g>
<g transform="matrix(1,0,0,1,736.533,-278.13)">
	<path class="st5" d="M-140.4,528.2h4.8"/>
</g>
<g transform="matrix(1,0,0,1,509.609,-181.611)">
	<path class="st2" d="M-68,686.9c0,1.5-1.2,2.7-2.7,2.7h-59.6c-1.5,0-2.7-1.2-2.7-2.7v-70c0-1.5,1.2-2.7,2.7-2.7h59.6
		c1.5,0,2.7,1.2,2.7,2.7V686.9z"/>
</g>
<g transform="matrix(1,0,0,1,328.635,-148.741)">
	<path class="st2" d="M-60.7,685.5c0,1.5-1.2,2.7-2.7,2.7H-123c-1.5,0-2.7-1.2-2.7-2.7v-70c0-1.5,1.2-2.7,2.7-2.7h59.6
		c1.5,0,2.7,1.2,2.7,2.7V685.5z"/>
</g>
<g transform="matrix(1,0,0,1,183.239,-243.686)">
	<path class="st2" d="M-54.9,689.3c0,1.5-1.2,2.7-2.7,2.7h-59.6c-1.5,0-2.7-1.2-2.7-2.7v-70c0-1.5,1.2-2.7,2.7-2.7h59.6
		c1.5,0,2.7,1.2,2.7,2.7V689.3z"/>
</g>
<g transform="matrix(1,0,0,1,141.076,-419.684)">
	<path class="st2" d="M-53.2,696.4c0,1.5-1.2,2.7-2.7,2.7h-59.6c-1.5,0-2.7-1.2-2.7-2.7v-70c0-1.5,1.2-2.7,2.7-2.7h59.6
		c1.5,0,2.7,1.2,2.7,2.7V696.4z"/>
</g>
<g transform="matrix(1,0,0,1,276.547,-389.82)">
	<path class="st2" d="M-58.7,695.2c0,1.5-1.2,2.7-2.7,2.7h-59.6c-1.5,0-2.7-1.2-2.7-2.7v-70c0-1.5,1.2-2.7,2.7-2.7h59.6
		c1.5,0,2.7,1.2,2.7,2.7V695.2z"/>
</g>
<g transform="matrix(1,0,0,1,211.4,-545.484)">
	<path class="st2" d="M-56.1,701.4c0,1.5-1.2,2.7-2.7,2.7h-59.6c-1.5,0-2.7-1.2-2.7-2.7v-70c0-1.5,1.2-2.7,2.7-2.7h59.6
		c1.5,0,2.7,1.2,2.7,2.7V701.4z"/>
</g>
<g transform="matrix(1,0,0,1,513.679,-547.793)">
	<path class="st2" d="M-68.1,701.5c0,1.5-1.2,2.7-2.7,2.7h-59.6c-1.5,0-2.7-1.2-2.7-2.7v-70c0-1.5,1.2-2.7,2.7-2.7h59.6
		c1.5,0,2.7,1.2,2.7,2.7V701.5z"/>
</g>
<g transform="matrix(1,0,0,1,707.014,-501.751)">
	<path class="st2" d="M-75.9,699.7c0,1.5-1.2,2.7-2.7,2.7h-59.6c-1.5,0-2.7-1.2-2.7-2.7v-70c0-1.5,1.2-2.7,2.7-2.7h59.6
		c1.5,0,2.7,1.2,2.7,2.7V699.7z"/>
</g>
<g transform="matrix(1,0,0,1,813.748,-330.814)">
	<path class="st2" d="M-80.2,692.8c0,1.5-1.2,2.7-2.7,2.7h-59.6c-1.5,0-2.7-1.2-2.7-2.7v-70c0-1.5,1.2-2.7,2.7-2.7h59.6
		c1.5,0,2.7,1.2,2.7,2.7V692.8z"/>
</g>
<g transform="matrix(1,0,0,1,806.652,-150.746)">
	<path class="st2" d="M-79.9,685.6c0,1.5-1.2,2.7-2.7,2.7h-59.6c-1.5,0-2.7-1.2-2.7-2.7v-70c0-1.5,1.2-2.7,2.7-2.7h59.6
		c1.5,0,2.7,1.2,2.7,2.7V685.6z"/>
</g>
<g transform="matrix(1,0,0,1,509.609,-181.611)">
	<rect x="-126.1" y="618.4" class="st2" width="51.2" height="12.2"/>
</g>
<g transform="matrix(1,0,0,1,328.635,-148.741)">
	<rect x="-118.8" y="617.1" class="st2" width="51.2" height="12.2"/>
</g>
<g transform="matrix(1,0,0,1,183.239,-243.686)">
	<rect x="-113" y="620.9" class="st2" width="51.2" height="12.2"/>
</g>
<g transform="matrix(1,0,0,1,141.076,-419.684)">
	<rect x="-111.3" y="628" class="st2" width="51.2" height="12.2"/>
</g>
<g transform="matrix(1,0,0,1,276.547,-389.82)">
	<rect x="-116.7" y="626.8" class="st2" width="51.2" height="12.2"/>
</g>
<g transform="matrix(1,0,0,1,211.4,-545.484)">
	<rect x="-114.1" y="633" class="st2" width="51.2" height="12.2"/>
</g>
<g transform="matrix(1,0,0,1,513.679,-547.793)">
	<rect x="-126.2" y="633.1" class="st2" width="51.2" height="12.2"/>
</g>
<g transform="matrix(1,0,0,1,707.014,-501.751)">
	<rect x="-134" y="631.2" class="st2" width="51.2" height="12.2"/>
</g>
<g transform="matrix(1,0,0,1,813.748,-330.814)">
	<rect x="-138.2" y="624.4" class="st2" width="51.2" height="12.2"/>
</g>
<g transform="matrix(1,0,0,1,806.652,-150.746)">
	<rect x="-138" y="617.2" class="st2" width="51.2" height="12.2"/>
</g>
<g transform="matrix(1,0,0,1,509.609,-181.611)">
	<path class="st3" d="M-120.4,624.5c0-0.9-0.6-1.6-1.4-1.6c-0.8,0-1.4,0.7-1.4,1.6c0,0.9,0.6,1.6,1.4,1.6
		C-121,626.1-120.4,625.4-120.4,624.5"/>
</g>
<g transform="matrix(1,0,0,1,328.635,-148.741)">
	<path class="st3" d="M-113.2,623.2c0-0.9-0.6-1.6-1.4-1.6c-0.8,0-1.4,0.7-1.4,1.6c0,0.9,0.6,1.6,1.4,1.6
		C-113.8,624.8-113.2,624.1-113.2,623.2"/>
</g>
<g transform="matrix(1,0,0,1,183.239,-243.686)">
	<path class="st3" d="M-107.3,627c0-0.9-0.6-1.6-1.4-1.6c-0.8,0-1.4,0.7-1.4,1.6c0,0.9,0.6,1.6,1.4,1.6
		C-108,628.6-107.3,627.9-107.3,627"/>
</g>
<g transform="matrix(1,0,0,1,141.076,-419.684)">
	<path class="st3" d="M-105.6,634.1c0-0.9-0.6-1.6-1.4-1.6c-0.8,0-1.4,0.7-1.4,1.6c0,0.9,0.6,1.6,1.4,1.6
		C-106.3,635.6-105.6,634.9-105.6,634.1"/>
</g>
<g transform="matrix(1,0,0,1,276.547,-389.82)">
	<path class="st3" d="M-111.1,632.9c0-0.9-0.6-1.6-1.4-1.6c-0.8,0-1.4,0.7-1.4,1.6c0,0.9,0.6,1.6,1.4,1.6
		C-111.7,634.5-111.1,633.7-111.1,632.9"/>
</g>
<g transform="matrix(1,0,0,1,211.4,-545.484)">
	<path class="st3" d="M-108.5,639.1c0-0.9-0.6-1.6-1.4-1.6c-0.8,0-1.4,0.7-1.4,1.6c0,0.9,0.6,1.6,1.4,1.6
		C-109.1,640.7-108.5,640-108.5,639.1"/>
</g>
<g transform="matrix(1,0,0,1,513.679,-547.793)">
	<path class="st3" d="M-120.6,639.2c0-0.9-0.6-1.6-1.4-1.6c-0.8,0-1.4,0.7-1.4,1.6c0,0.9,0.6,1.6,1.4,1.6
		C-121.2,640.8-120.6,640.1-120.6,639.2"/>
</g>
<g transform="matrix(1,0,0,1,707.014,-501.751)">
	<path class="st3" d="M-128.3,637.3c0-0.9-0.6-1.6-1.4-1.6c-0.8,0-1.4,0.7-1.4,1.6c0,0.9,0.6,1.6,1.4,1.6
		C-128.9,638.9-128.3,638.2-128.3,637.3"/>
</g>
<g transform="matrix(1,0,0,1,813.748,-330.814)">
	<path class="st3" d="M-132.6,630.5c0-0.9-0.6-1.6-1.4-1.6c-0.8,0-1.4,0.7-1.4,1.6c0,0.9,0.6,1.6,1.4,1.6
		C-133.2,632.1-132.6,631.4-132.6,630.5"/>
</g>
<g transform="matrix(1,0,0,1,806.652,-150.746)">
	<path class="st3" d="M-132.3,623.3c0-0.9-0.6-1.6-1.4-1.6c-0.8,0-1.4,0.7-1.4,1.6c0,0.9,0.6,1.6,1.4,1.6
		C-132.9,624.9-132.3,624.2-132.3,623.3"/>
</g>
<g transform="matrix(1,0,0,1,509.609,-181.611)">
	<path class="st4" d="M-120.4,624.5c0-0.9-0.6-1.6-1.4-1.6c-0.8,0-1.4,0.7-1.4,1.6c0,0.9,0.6,1.6,1.4,1.6
		C-121,626.1-120.4,625.4-120.4,624.5z"/>
</g>
<g transform="matrix(1,0,0,1,328.635,-148.741)">
	<path class="st4" d="M-113.2,623.2c0-0.9-0.6-1.6-1.4-1.6c-0.8,0-1.4,0.7-1.4,1.6c0,0.9,0.6,1.6,1.4,1.6
		C-113.8,624.8-113.2,624.1-113.2,623.2z"/>
</g>
<g transform="matrix(1,0,0,1,183.239,-243.686)">
	<path class="st4" d="M-107.3,627c0-0.9-0.6-1.6-1.4-1.6c-0.8,0-1.4,0.7-1.4,1.6c0,0.9,0.6,1.6,1.4,1.6
		C-108,628.6-107.3,627.9-107.3,627z"/>
</g>
<g transform="matrix(1,0,0,1,141.076,-419.684)">
	<path class="st4" d="M-105.6,634.1c0-0.9-0.6-1.6-1.4-1.6c-0.8,0-1.4,0.7-1.4,1.6c0,0.9,0.6,1.6,1.4,1.6
		C-106.3,635.6-105.6,634.9-105.6,634.1z"/>
</g>
<g transform="matrix(1,0,0,1,276.547,-389.82)">
	<path class="st4" d="M-111.1,632.9c0-0.9-0.6-1.6-1.4-1.6c-0.8,0-1.4,0.7-1.4,1.6c0,0.9,0.6,1.6,1.4,1.6
		C-111.7,634.5-111.1,633.7-111.1,632.9z"/>
</g>
<g transform="matrix(1,0,0,1,211.4,-545.484)">
	<path class="st4" d="M-108.5,639.1c0-0.9-0.6-1.6-1.4-1.6c-0.8,0-1.4,0.7-1.4,1.6c0,0.9,0.6,1.6,1.4,1.6
		C-109.1,640.7-108.5,640-108.5,639.1z"/>
</g>
<g transform="matrix(1,0,0,1,513.679,-547.793)">
	<path class="st4" d="M-120.6,639.2c0-0.9-0.6-1.6-1.4-1.6c-0.8,0-1.4,0.7-1.4,1.6c0,0.9,0.6,1.6,1.4,1.6
		C-121.2,640.8-120.6,640.1-120.6,639.2z"/>
</g>
<g transform="matrix(1,0,0,1,707.014,-501.751)">
	<path class="st4" d="M-128.3,637.3c0-0.9-0.6-1.6-1.4-1.6c-0.8,0-1.4,0.7-1.4,1.6c0,0.9,0.6,1.6,1.4,1.6
		C-128.9,638.9-128.3,638.2-128.3,637.3z"/>
</g>
<g transform="matrix(1,0,0,1,813.748,-330.814)">
	<path class="st4" d="M-132.6,630.5c0-0.9-0.6-1.6-1.4-1.6c-0.8,0-1.4,0.7-1.4,1.6c0,0.9,0.6,1.6,1.4,1.6
		C-133.2,632.1-132.6,631.4-132.6,630.5z"/>
</g>
<g transform="matrix(1,0,0,1,806.652,-150.746)">
	<path class="st4" d="M-132.3,623.3c0-0.9-0.6-1.6-1.4-1.6c-0.8,0-1.4,0.7-1.4,1.6c0,0.9,0.6,1.6,1.4,1.6
		C-132.9,624.9-132.3,624.2-132.3,623.3z"/>
</g>
<g transform="matrix(1,0,0,1,509.609,-181.611)">
	<path class="st3" d="M-115.4,624.5c0-0.9-0.6-1.6-1.4-1.6c-0.8,0-1.4,0.7-1.4,1.6c0,0.9,0.6,1.6,1.4,1.6
		C-116,626.1-115.4,625.4-115.4,624.5"/>
</g>
<g transform="matrix(1,0,0,1,328.635,-148.741)">
	<path class="st3" d="M-108.1,623.2c0-0.9-0.6-1.6-1.4-1.6c-0.8,0-1.4,0.7-1.4,1.6c0,0.9,0.6,1.6,1.4,1.6
		C-108.8,624.8-108.1,624.1-108.1,623.2"/>
</g>
<g transform="matrix(1,0,0,1,183.239,-243.686)">
	<path class="st3" d="M-102.3,627c0-0.9-0.6-1.6-1.4-1.6c-0.8,0-1.4,0.7-1.4,1.6c0,0.9,0.6,1.6,1.4,1.6
		C-102.9,628.6-102.3,627.9-102.3,627"/>
</g>
<g transform="matrix(1,0,0,1,141.076,-419.684)">
	<path class="st3" d="M-100.6,634.1c0-0.9-0.6-1.6-1.4-1.6c-0.8,0-1.4,0.7-1.4,1.6c0,0.9,0.6,1.6,1.4,1.6
		C-101.3,635.6-100.6,634.9-100.6,634.1"/>
</g>
<g transform="matrix(1,0,0,1,276.547,-389.82)">
	<path class="st3" d="M-106,632.9c0-0.9-0.6-1.6-1.4-1.6c-0.8,0-1.4,0.7-1.4,1.6c0,0.9,0.6,1.6,1.4,1.6
		C-106.7,634.5-106,633.7-106,632.9"/>
</g>
<g transform="matrix(1,0,0,1,211.4,-545.484)">
	<path class="st3" d="M-103.4,639.1c0-0.9-0.6-1.6-1.4-1.6c-0.8,0-1.4,0.7-1.4,1.6c0,0.9,0.6,1.6,1.4,1.6
		C-104.1,640.7-103.4,640-103.4,639.1"/>
</g>
<g transform="matrix(1,0,0,1,513.679,-547.793)">
	<path class="st3" d="M-115.5,639.2c0-0.9-0.6-1.6-1.4-1.6c-0.8,0-1.4,0.7-1.4,1.6c0,0.9,0.6,1.6,1.4,1.6
		C-116.2,640.8-115.5,640.1-115.5,639.2"/>
</g>
<g transform="matrix(1,0,0,1,707.014,-501.751)">
	<path class="st3" d="M-123.3,637.3c0-0.9-0.6-1.6-1.4-1.6c-0.8,0-1.4,0.7-1.4,1.6c0,0.9,0.6,1.6,1.4,1.6
		C-123.9,638.9-123.3,638.2-123.3,637.3"/>
</g>
<g transform="matrix(1,0,0,1,813.748,-330.814)">
	<path class="st3" d="M-127.5,630.5c0-0.9-0.6-1.6-1.4-1.6c-0.8,0-1.4,0.7-1.4,1.6c0,0.9,0.6,1.6,1.4,1.6
		C-128.2,632.1-127.5,631.4-127.5,630.5"/>
</g>
<g transform="matrix(1,0,0,1,806.652,-150.746)">
	<path class="st3" d="M-127.2,623.3c0-0.9-0.6-1.6-1.4-1.6c-0.8,0-1.4,0.7-1.4,1.6c0,0.9,0.6,1.6,1.4,1.6
		C-127.9,624.9-127.2,624.2-127.2,623.3"/>
</g>
<g transform="matrix(1,0,0,1,509.609,-181.611)">
	<path class="st4" d="M-115.4,624.5c0-0.9-0.6-1.6-1.4-1.6c-0.8,0-1.4,0.7-1.4,1.6c0,0.9,0.6,1.6,1.4,1.6
		C-116,626.1-115.4,625.4-115.4,624.5z"/>
</g>
<g transform="matrix(1,0,0,1,328.635,-148.741)">
	<path class="st4" d="M-108.1,623.2c0-0.9-0.6-1.6-1.4-1.6c-0.8,0-1.4,0.7-1.4,1.6c0,0.9,0.6,1.6,1.4,1.6
		C-108.8,624.8-108.1,624.1-108.1,623.2z"/>
</g>
<g transform="matrix(1,0,0,1,183.239,-243.686)">
	<path class="st4" d="M-102.3,627c0-0.9-0.6-1.6-1.4-1.6c-0.8,0-1.4,0.7-1.4,1.6c0,0.9,0.6,1.6,1.4,1.6
		C-102.9,628.6-102.3,627.9-102.3,627z"/>
</g>
<g transform="matrix(1,0,0,1,141.076,-419.684)">
	<path class="st4" d="M-100.6,634.1c0-0.9-0.6-1.6-1.4-1.6c-0.8,0-1.4,0.7-1.4,1.6c0,0.9,0.6,1.6,1.4,1.6
		C-101.3,635.6-100.6,634.9-100.6,634.1z"/>
</g>
<g transform="matrix(1,0,0,1,276.547,-389.82)">
	<path class="st4" d="M-106,632.9c0-0.9-0.6-1.6-1.4-1.6c-0.8,0-1.4,0.7-1.4,1.6c0,0.9,0.6,1.6,1.4,1.6
		C-106.7,634.5-106,633.7-106,632.9z"/>
</g>
<g transform="matrix(1,0,0,1,211.4,-545.484)">
	<path class="st4" d="M-103.4,639.1c0-0.9-0.6-1.6-1.4-1.6c-0.8,0-1.4,0.7-1.4,1.6c0,0.9,0.6,1.6,1.4,1.6
		C-104.1,640.7-103.4,640-103.4,639.1z"/>
</g>
<g transform="matrix(1,0,0,1,513.679,-547.793)">
	<path class="st4" d="M-115.5,639.2c0-0.9-0.6-1.6-1.4-1.6c-0.8,0-1.4,0.7-1.4,1.6c0,0.9,0.6,1.6,1.4,1.6
		C-116.2,640.8-115.5,640.1-115.5,639.2z"/>
</g>
<g transform="matrix(1,0,0,1,707.014,-501.751)">
	<path class="st4" d="M-123.3,637.3c0-0.9-0.6-1.6-1.4-1.6c-0.8,0-1.4,0.7-1.4,1.6c0,0.9,0.6,1.6,1.4,1.6
		C-123.9,638.9-123.3,638.2-123.3,637.3z"/>
</g>
<g transform="matrix(1,0,0,1,813.748,-330.814)">
	<path class="st4" d="M-127.5,630.5c0-0.9-0.6-1.6-1.4-1.6c-0.8,0-1.4,0.7-1.4,1.6c0,0.9,0.6,1.6,1.4,1.6
		C-128.2,632.1-127.5,631.4-127.5,630.5z"/>
</g>
<g transform="matrix(1,0,0,1,806.652,-150.746)">
	<path class="st4" d="M-127.2,623.3c0-0.9-0.6-1.6-1.4-1.6c-0.8,0-1.4,0.7-1.4,1.6c0,0.9,0.6,1.6,1.4,1.6
		C-127.9,624.9-127.2,624.2-127.2,623.3z"/>
</g>
<g transform="matrix(1,0,0,1,509.609,-181.611)">
	<path class="st3" d="M-110.7,624.5c0-0.9-0.6-1.6-1.4-1.6c-0.8,0-1.4,0.7-1.4,1.6c0,0.9,0.6,1.6,1.4,1.6
		C-111.3,626.1-110.7,625.4-110.7,624.5"/>
</g>
<g transform="matrix(1,0,0,1,328.635,-148.741)">
	<path class="st3" d="M-103.4,623.2c0-0.9-0.6-1.6-1.4-1.6c-0.8,0-1.4,0.7-1.4,1.6c0,0.9,0.6,1.6,1.4,1.6
		C-104.1,624.8-103.4,624.1-103.4,623.2"/>
</g>
<g transform="matrix(1,0,0,1,183.239,-243.686)">
	<path class="st3" d="M-97.6,627c0-0.9-0.6-1.6-1.4-1.6c-0.8,0-1.4,0.7-1.4,1.6c0,0.9,0.6,1.6,1.4,1.6
		C-98.3,628.6-97.6,627.9-97.6,627"/>
</g>
<g transform="matrix(1,0,0,1,141.076,-419.684)">
	<path class="st3" d="M-95.9,634.1c0-0.9-0.6-1.6-1.4-1.6c-0.8,0-1.4,0.7-1.4,1.6c0,0.9,0.6,1.6,1.4,1.6
		C-96.6,635.6-95.9,634.9-95.9,634.1"/>
</g>
<g transform="matrix(1,0,0,1,276.547,-389.82)">
	<path class="st3" d="M-101.4,632.9c0-0.9-0.6-1.6-1.4-1.6c-0.8,0-1.4,0.7-1.4,1.6c0,0.9,0.6,1.6,1.4,1.6
		C-102,634.5-101.4,633.7-101.4,632.9"/>
</g>
<g transform="matrix(1,0,0,1,211.4,-545.484)">
	<path class="st3" d="M-98.8,639.1c0-0.9-0.6-1.6-1.4-1.6c-0.8,0-1.4,0.7-1.4,1.6c0,0.9,0.6,1.6,1.4,1.6
		C-99.4,640.7-98.8,640-98.8,639.1"/>
</g>
<g transform="matrix(1,0,0,1,513.679,-547.793)">
	<path class="st3" d="M-110.9,639.2c0-0.9-0.6-1.6-1.4-1.6c-0.8,0-1.4,0.7-1.4,1.6c0,0.9,0.6,1.6,1.4,1.6
		C-111.5,640.8-110.9,640.1-110.9,639.2"/>
</g>
<g transform="matrix(1,0,0,1,707.014,-501.751)">
	<path class="st3" d="M-118.6,637.3c0-0.9-0.6-1.6-1.4-1.6c-0.8,0-1.4,0.7-1.4,1.6c0,0.9,0.6,1.6,1.4,1.6
		C-119.2,638.9-118.6,638.2-118.6,637.3"/>
</g>
<g transform="matrix(1,0,0,1,813.748,-330.814)">
	<path class="st3" d="M-122.9,630.5c0-0.9-0.6-1.6-1.4-1.6c-0.8,0-1.4,0.7-1.4,1.6c0,0.9,0.6,1.6,1.4,1.6
		C-123.5,632.1-122.9,631.4-122.9,630.5"/>
</g>
<g transform="matrix(1,0,0,1,806.652,-150.746)">
	<path class="st3" d="M-122.6,623.3c0-0.9-0.6-1.6-1.4-1.6c-0.8,0-1.4,0.7-1.4,1.6c0,0.9,0.6,1.6,1.4,1.6
		C-123.2,624.9-122.6,624.2-122.6,623.3"/>
</g>
<g transform="matrix(1,0,0,1,509.609,-181.611)">
	<path class="st4" d="M-110.7,624.5c0-0.9-0.6-1.6-1.4-1.6c-0.8,0-1.4,0.7-1.4,1.6c0,0.9,0.6,1.6,1.4,1.6
		C-111.3,626.1-110.7,625.4-110.7,624.5z"/>
</g>
<g transform="matrix(1,0,0,1,328.635,-148.741)">
	<path class="st4" d="M-103.4,623.2c0-0.9-0.6-1.6-1.4-1.6c-0.8,0-1.4,0.7-1.4,1.6c0,0.9,0.6,1.6,1.4,1.6
		C-104.1,624.8-103.4,624.1-103.4,623.2z"/>
</g>
<g transform="matrix(1,0,0,1,183.239,-243.686)">
	<path class="st4" d="M-97.6,627c0-0.9-0.6-1.6-1.4-1.6c-0.8,0-1.4,0.7-1.4,1.6c0,0.9,0.6,1.6,1.4,1.6
		C-98.3,628.6-97.6,627.9-97.6,627z"/>
</g>
<g transform="matrix(1,0,0,1,141.076,-419.684)">
	<path class="st4" d="M-95.9,634.1c0-0.9-0.6-1.6-1.4-1.6c-0.8,0-1.4,0.7-1.4,1.6c0,0.9,0.6,1.6,1.4,1.6
		C-96.6,635.6-95.9,634.9-95.9,634.1z"/>
</g>
<g transform="matrix(1,0,0,1,276.547,-389.82)">
	<path class="st4" d="M-101.4,632.9c0-0.9-0.6-1.6-1.4-1.6c-0.8,0-1.4,0.7-1.4,1.6c0,0.9,0.6,1.6,1.4,1.6
		C-102,634.5-101.4,633.7-101.4,632.9z"/>
</g>
<g transform="matrix(1,0,0,1,211.4,-545.484)">
	<path class="st4" d="M-98.8,639.1c0-0.9-0.6-1.6-1.4-1.6c-0.8,0-1.4,0.7-1.4,1.6c0,0.9,0.6,1.6,1.4,1.6
		C-99.4,640.7-98.8,640-98.8,639.1z"/>
</g>
<g transform="matrix(1,0,0,1,513.679,-547.793)">
	<path class="st4" d="M-110.9,639.2c0-0.9-0.6-1.6-1.4-1.6c-0.8,0-1.4,0.7-1.4,1.6c0,0.9,0.6,1.6,1.4,1.6
		C-111.5,640.8-110.9,640.1-110.9,639.2z"/>
</g>
<g transform="matrix(1,0,0,1,707.014,-501.751)">
	<path class="st4" d="M-118.6,637.3c0-0.9-0.6-1.6-1.4-1.6c-0.8,0-1.4,0.7-1.4,1.6c0,0.9,0.6,1.6,1.4,1.6
		C-119.2,638.9-118.6,638.2-118.6,637.3z"/>
</g>
<g transform="matrix(1,0,0,1,813.748,-330.814)">
	<path class="st4" d="M-122.9,630.5c0-0.9-0.6-1.6-1.4-1.6c-0.8,0-1.4,0.7-1.4,1.6c0,0.9,0.6,1.6,1.4,1.6
		C-123.5,632.1-122.9,631.4-122.9,630.5z"/>
</g>
<g transform="matrix(1,0,0,1,806.652,-150.746)">
	<path class="st4" d="M-122.6,623.3c0-0.9-0.6-1.6-1.4-1.6c-0.8,0-1.4,0.7-1.4,1.6c0,0.9,0.6,1.6,1.4,1.6
		C-123.2,624.9-122.6,624.2-122.6,623.3z"/>
</g>
<g transform="matrix(1,0,0,1,509.609,-181.611)">
	<rect x="-126.1" y="636.3" class="st2" width="51.2" height="12.2"/>
</g>
<g transform="matrix(1,0,0,1,328.635,-148.741)">
	<rect x="-118.8" y="635" class="st2" width="51.2" height="12.2"/>
</g>
<g transform="matrix(1,0,0,1,183.239,-243.686)">
	<rect x="-113" y="638.8" class="st2" width="51.2" height="12.2"/>
</g>
<g transform="matrix(1,0,0,1,141.076,-419.684)">
	<rect x="-111.3" y="645.8" class="st2" width="51.2" height="12.2"/>
</g>
<g transform="matrix(1,0,0,1,276.547,-389.82)">
	<rect x="-116.7" y="644.6" class="st2" width="51.2" height="12.2"/>
</g>
<g transform="matrix(1,0,0,1,211.4,-545.484)">
	<rect x="-114.1" y="650.9" class="st2" width="51.2" height="12.2"/>
</g>
<g transform="matrix(1,0,0,1,513.679,-547.793)">
	<rect x="-126.2" y="651" class="st2" width="51.2" height="12.2"/>
</g>
<g transform="matrix(1,0,0,1,707.014,-501.751)">
	<rect x="-134" y="649.1" class="st2" width="51.2" height="12.2"/>
</g>
<g transform="matrix(1,0,0,1,813.748,-330.814)">
	<rect x="-138.2" y="642.3" class="st2" width="51.2" height="12.2"/>
</g>
<g transform="matrix(1,0,0,1,806.652,-150.746)">
	<rect x="-138" y="635.1" class="st2" width="51.2" height="12.2"/>
</g>
<g transform="matrix(1,0,0,1,509.609,-181.611)">
	<path class="st3" d="M-120.4,642.4c0-0.9-0.6-1.6-1.4-1.6c-0.8,0-1.4,0.7-1.4,1.6c0,0.9,0.6,1.6,1.4,1.6
		C-121,644-120.4,643.3-120.4,642.4"/>
</g>
<g transform="matrix(1,0,0,1,328.635,-148.741)">
	<path class="st3" d="M-113.2,641.1c0-0.9-0.6-1.6-1.4-1.6c-0.8,0-1.4,0.7-1.4,1.6s0.6,1.6,1.4,1.6
		C-113.8,642.7-113.2,642-113.2,641.1"/>
</g>
<g transform="matrix(1,0,0,1,183.239,-243.686)">
	<path class="st3" d="M-107.3,644.9c0-0.9-0.6-1.6-1.4-1.6c-0.8,0-1.4,0.7-1.4,1.6c0,0.9,0.6,1.6,1.4,1.6
		C-108,646.5-107.3,645.8-107.3,644.9"/>
</g>
<g transform="matrix(1,0,0,1,141.076,-419.684)">
	<path class="st3" d="M-105.6,651.9c0-0.9-0.6-1.6-1.4-1.6c-0.8,0-1.4,0.7-1.4,1.6c0,0.9,0.6,1.6,1.4,1.6
		C-106.3,653.5-105.6,652.8-105.6,651.9"/>
</g>
<g transform="matrix(1,0,0,1,276.547,-389.82)">
	<path class="st3" d="M-111.1,650.7c0-0.9-0.6-1.6-1.4-1.6c-0.8,0-1.4,0.7-1.4,1.6s0.6,1.6,1.4,1.6
		C-111.7,652.3-111.1,651.6-111.1,650.7"/>
</g>
<g transform="matrix(1,0,0,1,211.4,-545.484)">
	<path class="st3" d="M-108.5,657c0-0.9-0.6-1.6-1.4-1.6c-0.8,0-1.4,0.7-1.4,1.6s0.6,1.6,1.4,1.6
		C-109.1,658.6-108.5,657.9-108.5,657"/>
</g>
<g transform="matrix(1,0,0,1,513.679,-547.793)">
	<path class="st3" d="M-120.6,657.1c0-0.9-0.6-1.6-1.4-1.6c-0.8,0-1.4,0.7-1.4,1.6c0,0.9,0.6,1.6,1.4,1.6
		C-121.2,658.7-120.6,657.9-120.6,657.1"/>
</g>
<g transform="matrix(1,0,0,1,707.014,-501.751)">
	<path class="st3" d="M-128.3,655.2c0-0.9-0.6-1.6-1.4-1.6c-0.8,0-1.4,0.7-1.4,1.6c0,0.9,0.6,1.6,1.4,1.6
		C-128.9,656.8-128.3,656.1-128.3,655.2"/>
</g>
<g transform="matrix(1,0,0,1,813.748,-330.814)">
	<path class="st3" d="M-132.6,648.4c0-0.9-0.6-1.6-1.4-1.6c-0.8,0-1.4,0.7-1.4,1.6c0,0.9,0.6,1.6,1.4,1.6
		C-133.2,650-132.6,649.3-132.6,648.4"/>
</g>
<g transform="matrix(1,0,0,1,806.652,-150.746)">
	<path class="st3" d="M-132.3,641.2c0-0.9-0.6-1.6-1.4-1.6c-0.8,0-1.4,0.7-1.4,1.6c0,0.9,0.6,1.6,1.4,1.6
		C-132.9,642.8-132.3,642.1-132.3,641.2"/>
</g>
<g transform="matrix(1,0,0,1,509.609,-181.611)">
	<path class="st4" d="M-120.4,642.4c0-0.9-0.6-1.6-1.4-1.6c-0.8,0-1.4,0.7-1.4,1.6c0,0.9,0.6,1.6,1.4,1.6
		C-121,644-120.4,643.3-120.4,642.4z"/>
</g>
<g transform="matrix(1,0,0,1,328.635,-148.741)">
	<path class="st4" d="M-113.2,641.1c0-0.9-0.6-1.6-1.4-1.6c-0.8,0-1.4,0.7-1.4,1.6s0.6,1.6,1.4,1.6
		C-113.8,642.7-113.2,642-113.2,641.1z"/>
</g>
<g transform="matrix(1,0,0,1,183.239,-243.686)">
	<path class="st4" d="M-107.3,644.9c0-0.9-0.6-1.6-1.4-1.6c-0.8,0-1.4,0.7-1.4,1.6c0,0.9,0.6,1.6,1.4,1.6
		C-108,646.5-107.3,645.8-107.3,644.9z"/>
</g>
<g transform="matrix(1,0,0,1,141.076,-419.684)">
	<path class="st4" d="M-105.6,651.9c0-0.9-0.6-1.6-1.4-1.6c-0.8,0-1.4,0.7-1.4,1.6c0,0.9,0.6,1.6,1.4,1.6
		C-106.3,653.5-105.6,652.8-105.6,651.9z"/>
</g>
<g transform="matrix(1,0,0,1,276.547,-389.82)">
	<path class="st4" d="M-111.1,650.7c0-0.9-0.6-1.6-1.4-1.6c-0.8,0-1.4,0.7-1.4,1.6s0.6,1.6,1.4,1.6
		C-111.7,652.3-111.1,651.6-111.1,650.7z"/>
</g>
<g transform="matrix(1,0,0,1,211.4,-545.484)">
	<path class="st4" d="M-108.5,657c0-0.9-0.6-1.6-1.4-1.6c-0.8,0-1.4,0.7-1.4,1.6s0.6,1.6,1.4,1.6
		C-109.1,658.6-108.5,657.9-108.5,657z"/>
</g>
<g transform="matrix(1,0,0,1,513.679,-547.793)">
	<path class="st4" d="M-120.6,657.1c0-0.9-0.6-1.6-1.4-1.6c-0.8,0-1.4,0.7-1.4,1.6c0,0.9,0.6,1.6,1.4,1.6
		C-121.2,658.7-120.6,657.9-120.6,657.1z"/>
</g>
<g transform="matrix(1,0,0,1,707.014,-501.751)">
	<path class="st4" d="M-128.3,655.2c0-0.9-0.6-1.6-1.4-1.6c-0.8,0-1.4,0.7-1.4,1.6c0,0.9,0.6,1.6,1.4,1.6
		C-128.9,656.8-128.3,656.1-128.3,655.2z"/>
</g>
<g transform="matrix(1,0,0,1,813.748,-330.814)">
	<path class="st4" d="M-132.6,648.4c0-0.9-0.6-1.6-1.4-1.6c-0.8,0-1.4,0.7-1.4,1.6c0,0.9,0.6,1.6,1.4,1.6
		C-133.2,650-132.6,649.3-132.6,648.4z"/>
</g>
<g transform="matrix(1,0,0,1,806.652,-150.746)">
	<path class="st4" d="M-132.3,641.2c0-0.9-0.6-1.6-1.4-1.6c-0.8,0-1.4,0.7-1.4,1.6c0,0.9,0.6,1.6,1.4,1.6
		C-132.9,642.8-132.3,642.1-132.3,641.2z"/>
</g>
<g transform="matrix(1,0,0,1,509.609,-181.611)">
	<path class="st3" d="M-115.4,642.4c0-0.9-0.6-1.6-1.4-1.6c-0.8,0-1.4,0.7-1.4,1.6c0,0.9,0.6,1.6,1.4,1.6
		C-116,644-115.4,643.3-115.4,642.4"/>
</g>
<g transform="matrix(1,0,0,1,328.635,-148.741)">
	<path class="st3" d="M-108.1,641.1c0-0.9-0.6-1.6-1.4-1.6c-0.8,0-1.4,0.7-1.4,1.6s0.6,1.6,1.4,1.6
		C-108.8,642.7-108.1,642-108.1,641.1"/>
</g>
<g transform="matrix(1,0,0,1,183.239,-243.686)">
	<path class="st3" d="M-102.3,644.9c0-0.9-0.6-1.6-1.4-1.6c-0.8,0-1.4,0.7-1.4,1.6c0,0.9,0.6,1.6,1.4,1.6
		C-102.9,646.5-102.3,645.8-102.3,644.9"/>
</g>
<g transform="matrix(1,0,0,1,141.076,-419.684)">
	<path class="st3" d="M-100.6,651.9c0-0.9-0.6-1.6-1.4-1.6c-0.8,0-1.4,0.7-1.4,1.6c0,0.9,0.6,1.6,1.4,1.6
		C-101.3,653.5-100.6,652.8-100.6,651.9"/>
</g>
<g transform="matrix(1,0,0,1,276.547,-389.82)">
	<path class="st3" d="M-106,650.7c0-0.9-0.6-1.6-1.4-1.6c-0.8,0-1.4,0.7-1.4,1.6s0.6,1.6,1.4,1.6C-106.7,652.3-106,651.6-106,650.7"
		/>
</g>
<g transform="matrix(1,0,0,1,211.4,-545.484)">
	<path class="st3" d="M-103.4,657c0-0.9-0.6-1.6-1.4-1.6c-0.8,0-1.4,0.7-1.4,1.6s0.6,1.6,1.4,1.6
		C-104.1,658.6-103.4,657.9-103.4,657"/>
</g>
<g transform="matrix(1,0,0,1,513.679,-547.793)">
	<path class="st3" d="M-115.5,657.1c0-0.9-0.6-1.6-1.4-1.6c-0.8,0-1.4,0.7-1.4,1.6c0,0.9,0.6,1.6,1.4,1.6
		C-116.2,658.7-115.5,657.9-115.5,657.1"/>
</g>
<g transform="matrix(1,0,0,1,707.014,-501.751)">
	<path class="st3" d="M-123.3,655.2c0-0.9-0.6-1.6-1.4-1.6c-0.8,0-1.4,0.7-1.4,1.6c0,0.9,0.6,1.6,1.4,1.6
		C-123.9,656.8-123.3,656.1-123.3,655.2"/>
</g>
<g transform="matrix(1,0,0,1,813.748,-330.814)">
	<path class="st3" d="M-127.5,648.4c0-0.9-0.6-1.6-1.4-1.6c-0.8,0-1.4,0.7-1.4,1.6c0,0.9,0.6,1.6,1.4,1.6
		C-128.2,650-127.5,649.3-127.5,648.4"/>
</g>
<g transform="matrix(1,0,0,1,806.652,-150.746)">
	<path class="st3" d="M-127.2,641.2c0-0.9-0.6-1.6-1.4-1.6c-0.8,0-1.4,0.7-1.4,1.6c0,0.9,0.6,1.6,1.4,1.6
		C-127.9,642.8-127.2,642.1-127.2,641.2"/>
</g>
<g transform="matrix(1,0,0,1,509.609,-181.611)">
	<path class="st4" d="M-115.4,642.4c0-0.9-0.6-1.6-1.4-1.6c-0.8,0-1.4,0.7-1.4,1.6c0,0.9,0.6,1.6,1.4,1.6
		C-116,644-115.4,643.3-115.4,642.4z"/>
</g>
<g transform="matrix(1,0,0,1,328.635,-148.741)">
	<path class="st4" d="M-108.1,641.1c0-0.9-0.6-1.6-1.4-1.6c-0.8,0-1.4,0.7-1.4,1.6s0.6,1.6,1.4,1.6
		C-108.8,642.7-108.1,642-108.1,641.1z"/>
</g>
<g transform="matrix(1,0,0,1,183.239,-243.686)">
	<path class="st4" d="M-102.3,644.9c0-0.9-0.6-1.6-1.4-1.6c-0.8,0-1.4,0.7-1.4,1.6c0,0.9,0.6,1.6,1.4,1.6
		C-102.9,646.5-102.3,645.8-102.3,644.9z"/>
</g>
<g transform="matrix(1,0,0,1,141.076,-419.684)">
	<path class="st4" d="M-100.6,651.9c0-0.9-0.6-1.6-1.4-1.6c-0.8,0-1.4,0.7-1.4,1.6c0,0.9,0.6,1.6,1.4,1.6
		C-101.3,653.5-100.6,652.8-100.6,651.9z"/>
</g>
<g transform="matrix(1,0,0,1,276.547,-389.82)">
	<path class="st4" d="M-106,650.7c0-0.9-0.6-1.6-1.4-1.6c-0.8,0-1.4,0.7-1.4,1.6s0.6,1.6,1.4,1.6C-106.7,652.3-106,651.6-106,650.7z
		"/>
</g>
<g transform="matrix(1,0,0,1,211.4,-545.484)">
	<path class="st4" d="M-103.4,657c0-0.9-0.6-1.6-1.4-1.6c-0.8,0-1.4,0.7-1.4,1.6s0.6,1.6,1.4,1.6
		C-104.1,658.6-103.4,657.9-103.4,657z"/>
</g>
<g transform="matrix(1,0,0,1,513.679,-547.793)">
	<path class="st4" d="M-115.5,657.1c0-0.9-0.6-1.6-1.4-1.6c-0.8,0-1.4,0.7-1.4,1.6c0,0.9,0.6,1.6,1.4,1.6
		C-116.2,658.7-115.5,657.9-115.5,657.1z"/>
</g>
<g transform="matrix(1,0,0,1,707.014,-501.751)">
	<path class="st4" d="M-123.3,655.2c0-0.9-0.6-1.6-1.4-1.6c-0.8,0-1.4,0.7-1.4,1.6c0,0.9,0.6,1.6,1.4,1.6
		C-123.9,656.8-123.3,656.1-123.3,655.2z"/>
</g>
<g transform="matrix(1,0,0,1,813.748,-330.814)">
	<path class="st4" d="M-127.5,648.4c0-0.9-0.6-1.6-1.4-1.6c-0.8,0-1.4,0.7-1.4,1.6c0,0.9,0.6,1.6,1.4,1.6
		C-128.2,650-127.5,649.3-127.5,648.4z"/>
</g>
<g transform="matrix(1,0,0,1,806.652,-150.746)">
	<path class="st4" d="M-127.2,641.2c0-0.9-0.6-1.6-1.4-1.6c-0.8,0-1.4,0.7-1.4,1.6c0,0.9,0.6,1.6,1.4,1.6
		C-127.9,642.8-127.2,642.1-127.2,641.2z"/>
</g>
<g transform="matrix(1,0,0,1,509.609,-181.611)">
	<path class="st3" d="M-110.7,642.4c0-0.9-0.6-1.6-1.4-1.6c-0.8,0-1.4,0.7-1.4,1.6c0,0.9,0.6,1.6,1.4,1.6
		C-111.3,644-110.7,643.3-110.7,642.4"/>
</g>
<g transform="matrix(1,0,0,1,328.635,-148.741)">
	<path class="st3" d="M-103.4,641.1c0-0.9-0.6-1.6-1.4-1.6c-0.8,0-1.4,0.7-1.4,1.6s0.6,1.6,1.4,1.6
		C-104.1,642.7-103.4,642-103.4,641.1"/>
</g>
<g transform="matrix(1,0,0,1,183.239,-243.686)">
	<path class="st3" d="M-97.6,644.9c0-0.9-0.6-1.6-1.4-1.6c-0.8,0-1.4,0.7-1.4,1.6c0,0.9,0.6,1.6,1.4,1.6
		C-98.3,646.5-97.6,645.8-97.6,644.9"/>
</g>
<g transform="matrix(1,0,0,1,141.076,-419.684)">
	<path class="st3" d="M-95.9,651.9c0-0.9-0.6-1.6-1.4-1.6c-0.8,0-1.4,0.7-1.4,1.6c0,0.9,0.6,1.6,1.4,1.6
		C-96.6,653.5-95.9,652.8-95.9,651.9"/>
</g>
<g transform="matrix(1,0,0,1,276.547,-389.82)">
	<path class="st3" d="M-101.4,650.7c0-0.9-0.6-1.6-1.4-1.6c-0.8,0-1.4,0.7-1.4,1.6s0.6,1.6,1.4,1.6
		C-102,652.3-101.4,651.6-101.4,650.7"/>
</g>
<g transform="matrix(1,0,0,1,211.4,-545.484)">
	<path class="st3" d="M-98.8,657c0-0.9-0.6-1.6-1.4-1.6c-0.8,0-1.4,0.7-1.4,1.6s0.6,1.6,1.4,1.6C-99.4,658.6-98.8,657.9-98.8,657"/>
</g>
<g transform="matrix(1,0,0,1,513.679,-547.793)">
	<path class="st3" d="M-110.9,657.1c0-0.9-0.6-1.6-1.4-1.6c-0.8,0-1.4,0.7-1.4,1.6c0,0.9,0.6,1.6,1.4,1.6
		C-111.5,658.7-110.9,657.9-110.9,657.1"/>
</g>
<g transform="matrix(1,0,0,1,707.014,-501.751)">
	<path class="st3" d="M-118.6,655.2c0-0.9-0.6-1.6-1.4-1.6c-0.8,0-1.4,0.7-1.4,1.6c0,0.9,0.6,1.6,1.4,1.6
		C-119.2,656.8-118.6,656.1-118.6,655.2"/>
</g>
<g transform="matrix(1,0,0,1,813.748,-330.814)">
	<path class="st3" d="M-122.9,648.4c0-0.9-0.6-1.6-1.4-1.6c-0.8,0-1.4,0.7-1.4,1.6c0,0.9,0.6,1.6,1.4,1.6
		C-123.5,650-122.9,649.3-122.9,648.4"/>
</g>
<g transform="matrix(1,0,0,1,806.652,-150.746)">
	<path class="st3" d="M-122.6,641.2c0-0.9-0.6-1.6-1.4-1.6c-0.8,0-1.4,0.7-1.4,1.6c0,0.9,0.6,1.6,1.4,1.6
		C-123.2,642.8-122.6,642.1-122.6,641.2"/>
</g>
<g transform="matrix(1,0,0,1,509.609,-181.611)">
	<path class="st4" d="M-110.7,642.4c0-0.9-0.6-1.6-1.4-1.6c-0.8,0-1.4,0.7-1.4,1.6c0,0.9,0.6,1.6,1.4,1.6
		C-111.3,644-110.7,643.3-110.7,642.4z"/>
</g>
<g transform="matrix(1,0,0,1,328.635,-148.741)">
	<path class="st4" d="M-103.4,641.1c0-0.9-0.6-1.6-1.4-1.6c-0.8,0-1.4,0.7-1.4,1.6s0.6,1.6,1.4,1.6
		C-104.1,642.7-103.4,642-103.4,641.1z"/>
</g>
<g transform="matrix(1,0,0,1,183.239,-243.686)">
	<path class="st4" d="M-97.6,644.9c0-0.9-0.6-1.6-1.4-1.6c-0.8,0-1.4,0.7-1.4,1.6c0,0.9,0.6,1.6,1.4,1.6
		C-98.3,646.5-97.6,645.8-97.6,644.9z"/>
</g>
<g transform="matrix(1,0,0,1,141.076,-419.684)">
	<path class="st4" d="M-95.9,651.9c0-0.9-0.6-1.6-1.4-1.6c-0.8,0-1.4,0.7-1.4,1.6c0,0.9,0.6,1.6,1.4,1.6
		C-96.6,653.5-95.9,652.8-95.9,651.9z"/>
</g>
<g transform="matrix(1,0,0,1,276.547,-389.82)">
	<path class="st4" d="M-101.4,650.7c0-0.9-0.6-1.6-1.4-1.6c-0.8,0-1.4,0.7-1.4,1.6s0.6,1.6,1.4,1.6
		C-102,652.3-101.4,651.6-101.4,650.7z"/>
</g>
<g transform="matrix(1,0,0,1,211.4,-545.484)">
	<path class="st4" d="M-98.8,657c0-0.9-0.6-1.6-1.4-1.6c-0.8,0-1.4,0.7-1.4,1.6s0.6,1.6,1.4,1.6C-99.4,658.6-98.8,657.9-98.8,657z"
		/>
</g>
<g transform="matrix(1,0,0,1,513.679,-547.793)">
	<path class="st4" d="M-110.9,657.1c0-0.9-0.6-1.6-1.4-1.6c-0.8,0-1.4,0.7-1.4,1.6c0,0.9,0.6,1.6,1.4,1.6
		C-111.5,658.7-110.9,657.9-110.9,657.1z"/>
</g>
<g transform="matrix(1,0,0,1,707.014,-501.751)">
	<path class="st4" d="M-118.6,655.2c0-0.9-0.6-1.6-1.4-1.6c-0.8,0-1.4,0.7-1.4,1.6c0,0.9,0.6,1.6,1.4,1.6
		C-119.2,656.8-118.6,656.1-118.6,655.2z"/>
</g>
<g transform="matrix(1,0,0,1,813.748,-330.814)">
	<path class="st4" d="M-122.9,648.4c0-0.9-0.6-1.6-1.4-1.6c-0.8,0-1.4,0.7-1.4,1.6c0,0.9,0.6,1.6,1.4,1.6
		C-123.5,650-122.9,649.3-122.9,648.4z"/>
</g>
<g transform="matrix(1,0,0,1,806.652,-150.746)">
	<path class="st4" d="M-122.6,641.2c0-0.9-0.6-1.6-1.4-1.6c-0.8,0-1.4,0.7-1.4,1.6c0,0.9,0.6,1.6,1.4,1.6
		C-123.2,642.8-122.6,642.1-122.6,641.2z"/>
</g>
<g transform="matrix(1,0,0,1,509.609,-181.611)">
	<rect x="-126.1" y="652.9" class="st2" width="51.2" height="12.2"/>
</g>
<g transform="matrix(1,0,0,1,328.635,-148.741)">
	<rect x="-118.8" y="651.6" class="st2" width="51.2" height="12.2"/>
</g>
<g transform="matrix(1,0,0,1,183.239,-243.686)">
	<rect x="-113" y="655.4" class="st2" width="51.2" height="12.2"/>
</g>
<g transform="matrix(1,0,0,1,141.076,-419.684)">
	<rect x="-111.3" y="662.4" class="st2" width="51.2" height="12.2"/>
</g>
<g transform="matrix(1,0,0,1,276.547,-389.82)">
	<rect x="-116.7" y="661.2" class="st2" width="51.2" height="12.2"/>
</g>
<g transform="matrix(1,0,0,1,211.4,-545.484)">
	<rect x="-114.1" y="667.4" class="st2" width="51.2" height="12.2"/>
</g>
<g transform="matrix(1,0,0,1,513.679,-547.793)">
	<rect x="-126.2" y="667.5" class="st2" width="51.2" height="12.2"/>
</g>
<g transform="matrix(1,0,0,1,707.014,-501.751)">
	<rect x="-134" y="665.7" class="st2" width="51.2" height="12.2"/>
</g>
<g transform="matrix(1,0,0,1,813.748,-330.814)">
	<rect x="-138.2" y="658.9" class="st2" width="51.2" height="12.2"/>
</g>
<g transform="matrix(1,0,0,1,806.652,-150.746)">
	<rect x="-138" y="651.6" class="st2" width="51.2" height="12.2"/>
</g>
<g transform="matrix(1,0,0,1,509.609,-181.611)">
	<path class="st3" d="M-120.4,659c0-0.9-0.6-1.6-1.4-1.6c-0.8,0-1.4,0.7-1.4,1.6c0,0.9,0.6,1.6,1.4,1.6
		C-121,660.6-120.4,659.9-120.4,659"/>
</g>
<g transform="matrix(1,0,0,1,328.635,-148.741)">
	<path class="st3" d="M-113.2,657.7c0-0.9-0.6-1.6-1.4-1.6c-0.8,0-1.4,0.7-1.4,1.6c0,0.9,0.6,1.6,1.4,1.6
		C-113.8,659.3-113.2,658.5-113.2,657.7"/>
</g>
<g transform="matrix(1,0,0,1,183.239,-243.686)">
	<path class="st3" d="M-107.3,661.5c0-0.9-0.6-1.6-1.4-1.6c-0.8,0-1.4,0.7-1.4,1.6c0,0.9,0.6,1.6,1.4,1.6
		C-108,663.1-107.3,662.3-107.3,661.5"/>
</g>
<g transform="matrix(1,0,0,1,141.076,-419.684)">
	<path class="st3" d="M-105.6,668.5c0-0.9-0.6-1.6-1.4-1.6c-0.8,0-1.4,0.7-1.4,1.6s0.6,1.6,1.4,1.6
		C-106.3,670.1-105.6,669.4-105.6,668.5"/>
</g>
<g transform="matrix(1,0,0,1,276.547,-389.82)">
	<path class="st3" d="M-111.1,667.3c0-0.9-0.6-1.6-1.4-1.6c-0.8,0-1.4,0.7-1.4,1.6c0,0.9,0.6,1.6,1.4,1.6
		C-111.7,668.9-111.1,668.2-111.1,667.3"/>
</g>
<g transform="matrix(1,0,0,1,211.4,-545.484)">
	<path class="st3" d="M-108.5,673.5c0-0.9-0.6-1.6-1.4-1.6c-0.8,0-1.4,0.7-1.4,1.6c0,0.9,0.6,1.6,1.4,1.6
		C-109.1,675.1-108.5,674.4-108.5,673.5"/>
</g>
<g transform="matrix(1,0,0,1,513.679,-547.793)">
	<path class="st3" d="M-120.6,673.6c0-0.9-0.6-1.6-1.4-1.6c-0.8,0-1.4,0.7-1.4,1.6s0.6,1.6,1.4,1.6
		C-121.2,675.2-120.6,674.5-120.6,673.6"/>
</g>
<g transform="matrix(1,0,0,1,707.014,-501.751)">
	<path class="st3" d="M-128.3,671.8c0-0.9-0.6-1.6-1.4-1.6c-0.8,0-1.4,0.7-1.4,1.6c0,0.9,0.6,1.6,1.4,1.6
		C-128.9,673.4-128.3,672.7-128.3,671.8"/>
</g>
<g transform="matrix(1,0,0,1,813.748,-330.814)">
	<path class="st3" d="M-132.6,665c0-0.9-0.6-1.6-1.4-1.6c-0.8,0-1.4,0.7-1.4,1.6s0.6,1.6,1.4,1.6
		C-133.2,666.5-132.6,665.8-132.6,665"/>
</g>
<g transform="matrix(1,0,0,1,806.652,-150.746)">
	<path class="st3" d="M-132.3,657.7c0-0.9-0.6-1.6-1.4-1.6c-0.8,0-1.4,0.7-1.4,1.6c0,0.9,0.6,1.6,1.4,1.6
		C-132.9,659.3-132.3,658.6-132.3,657.7"/>
</g>
<g transform="matrix(1,0,0,1,509.609,-181.611)">
	<path class="st4" d="M-120.4,659c0-0.9-0.6-1.6-1.4-1.6c-0.8,0-1.4,0.7-1.4,1.6c0,0.9,0.6,1.6,1.4,1.6
		C-121,660.6-120.4,659.9-120.4,659z"/>
</g>
<g transform="matrix(1,0,0,1,328.635,-148.741)">
	<path class="st4" d="M-113.2,657.7c0-0.9-0.6-1.6-1.4-1.6c-0.8,0-1.4,0.7-1.4,1.6c0,0.9,0.6,1.6,1.4,1.6
		C-113.8,659.3-113.2,658.5-113.2,657.7z"/>
</g>
<g transform="matrix(1,0,0,1,183.239,-243.686)">
	<path class="st4" d="M-107.3,661.5c0-0.9-0.6-1.6-1.4-1.6c-0.8,0-1.4,0.7-1.4,1.6c0,0.9,0.6,1.6,1.4,1.6
		C-108,663.1-107.3,662.3-107.3,661.5z"/>
</g>
<g transform="matrix(1,0,0,1,141.076,-419.684)">
	<path class="st4" d="M-105.6,668.5c0-0.9-0.6-1.6-1.4-1.6c-0.8,0-1.4,0.7-1.4,1.6s0.6,1.6,1.4,1.6
		C-106.3,670.1-105.6,669.4-105.6,668.5z"/>
</g>
<g transform="matrix(1,0,0,1,276.547,-389.82)">
	<path class="st4" d="M-111.1,667.3c0-0.9-0.6-1.6-1.4-1.6c-0.8,0-1.4,0.7-1.4,1.6c0,0.9,0.6,1.6,1.4,1.6
		C-111.7,668.9-111.1,668.2-111.1,667.3z"/>
</g>
<g transform="matrix(1,0,0,1,211.4,-545.484)">
	<path class="st4" d="M-108.5,673.5c0-0.9-0.6-1.6-1.4-1.6c-0.8,0-1.4,0.7-1.4,1.6c0,0.9,0.6,1.6,1.4,1.6
		C-109.1,675.1-108.5,674.4-108.5,673.5z"/>
</g>
<g transform="matrix(1,0,0,1,513.679,-547.793)">
	<path class="st4" d="M-120.6,673.6c0-0.9-0.6-1.6-1.4-1.6c-0.8,0-1.4,0.7-1.4,1.6s0.6,1.6,1.4,1.6
		C-121.2,675.2-120.6,674.5-120.6,673.6z"/>
</g>
<g transform="matrix(1,0,0,1,707.014,-501.751)">
	<path class="st4" d="M-128.3,671.8c0-0.9-0.6-1.6-1.4-1.6c-0.8,0-1.4,0.7-1.4,1.6c0,0.9,0.6,1.6,1.4,1.6
		C-128.9,673.4-128.3,672.7-128.3,671.8z"/>
</g>
<g transform="matrix(1,0,0,1,813.748,-330.814)">
	<path class="st4" d="M-132.6,665c0-0.9-0.6-1.6-1.4-1.6c-0.8,0-1.4,0.7-1.4,1.6s0.6,1.6,1.4,1.6
		C-133.2,666.5-132.6,665.8-132.6,665z"/>
</g>
<g transform="matrix(1,0,0,1,806.652,-150.746)">
	<path class="st4" d="M-132.3,657.7c0-0.9-0.6-1.6-1.4-1.6c-0.8,0-1.4,0.7-1.4,1.6c0,0.9,0.6,1.6,1.4,1.6
		C-132.9,659.3-132.3,658.6-132.3,657.7z"/>
</g>
<g transform="matrix(1,0,0,1,509.609,-181.611)">
	<path class="st3" d="M-115.4,659c0-0.9-0.6-1.6-1.4-1.6c-0.8,0-1.4,0.7-1.4,1.6c0,0.9,0.6,1.6,1.4,1.6
		C-116,660.6-115.4,659.9-115.4,659"/>
</g>
<g transform="matrix(1,0,0,1,328.635,-148.741)">
	<path class="st3" d="M-108.1,657.7c0-0.9-0.6-1.6-1.4-1.6c-0.8,0-1.4,0.7-1.4,1.6c0,0.9,0.6,1.6,1.4,1.6
		C-108.8,659.3-108.1,658.5-108.1,657.7"/>
</g>
<g transform="matrix(1,0,0,1,183.239,-243.686)">
	<path class="st3" d="M-102.3,661.5c0-0.9-0.6-1.6-1.4-1.6c-0.8,0-1.4,0.7-1.4,1.6c0,0.9,0.6,1.6,1.4,1.6
		C-102.9,663.1-102.3,662.3-102.3,661.5"/>
</g>
<g transform="matrix(1,0,0,1,141.076,-419.684)">
	<path class="st3" d="M-100.6,668.5c0-0.9-0.6-1.6-1.4-1.6c-0.8,0-1.4,0.7-1.4,1.6s0.6,1.6,1.4,1.6
		C-101.3,670.1-100.6,669.4-100.6,668.5"/>
</g>
<g transform="matrix(1,0,0,1,276.547,-389.82)">
	<path class="st3" d="M-106,667.3c0-0.9-0.6-1.6-1.4-1.6c-0.8,0-1.4,0.7-1.4,1.6c0,0.9,0.6,1.6,1.4,1.6
		C-106.7,668.9-106,668.2-106,667.3"/>
</g>
<g transform="matrix(1,0,0,1,211.4,-545.484)">
	<path class="st3" d="M-103.4,673.5c0-0.9-0.6-1.6-1.4-1.6c-0.8,0-1.4,0.7-1.4,1.6c0,0.9,0.6,1.6,1.4,1.6
		C-104.1,675.1-103.4,674.4-103.4,673.5"/>
</g>
<g transform="matrix(1,0,0,1,513.679,-547.793)">
	<path class="st3" d="M-115.5,673.6c0-0.9-0.6-1.6-1.4-1.6c-0.8,0-1.4,0.7-1.4,1.6s0.6,1.6,1.4,1.6
		C-116.2,675.2-115.5,674.5-115.5,673.6"/>
</g>
<g transform="matrix(1,0,0,1,707.014,-501.751)">
	<path class="st3" d="M-123.3,671.8c0-0.9-0.6-1.6-1.4-1.6c-0.8,0-1.4,0.7-1.4,1.6c0,0.9,0.6,1.6,1.4,1.6
		C-123.9,673.4-123.3,672.7-123.3,671.8"/>
</g>
<g transform="matrix(1,0,0,1,813.748,-330.814)">
	<path class="st3" d="M-127.5,665c0-0.9-0.6-1.6-1.4-1.6c-0.8,0-1.4,0.7-1.4,1.6s0.6,1.6,1.4,1.6
		C-128.2,666.5-127.5,665.8-127.5,665"/>
</g>
<g transform="matrix(1,0,0,1,806.652,-150.746)">
	<path class="st3" d="M-127.2,657.7c0-0.9-0.6-1.6-1.4-1.6c-0.8,0-1.4,0.7-1.4,1.6c0,0.9,0.6,1.6,1.4,1.6
		C-127.9,659.3-127.2,658.6-127.2,657.7"/>
</g>
<g transform="matrix(1,0,0,1,509.609,-181.611)">
	<path class="st4" d="M-115.4,659c0-0.9-0.6-1.6-1.4-1.6c-0.8,0-1.4,0.7-1.4,1.6c0,0.9,0.6,1.6,1.4,1.6
		C-116,660.6-115.4,659.9-115.4,659z"/>
</g>
<g transform="matrix(1,0,0,1,328.635,-148.741)">
	<path class="st4" d="M-108.1,657.7c0-0.9-0.6-1.6-1.4-1.6c-0.8,0-1.4,0.7-1.4,1.6c0,0.9,0.6,1.6,1.4,1.6
		C-108.8,659.3-108.1,658.5-108.1,657.7z"/>
</g>
<g transform="matrix(1,0,0,1,183.239,-243.686)">
	<path class="st4" d="M-102.3,661.5c0-0.9-0.6-1.6-1.4-1.6c-0.8,0-1.4,0.7-1.4,1.6c0,0.9,0.6,1.6,1.4,1.6
		C-102.9,663.1-102.3,662.3-102.3,661.5z"/>
</g>
<g transform="matrix(1,0,0,1,141.076,-419.684)">
	<path class="st4" d="M-100.6,668.5c0-0.9-0.6-1.6-1.4-1.6c-0.8,0-1.4,0.7-1.4,1.6s0.6,1.6,1.4,1.6
		C-101.3,670.1-100.6,669.4-100.6,668.5z"/>
</g>
<g transform="matrix(1,0,0,1,276.547,-389.82)">
	<path class="st4" d="M-106,667.3c0-0.9-0.6-1.6-1.4-1.6c-0.8,0-1.4,0.7-1.4,1.6c0,0.9,0.6,1.6,1.4,1.6
		C-106.7,668.9-106,668.2-106,667.3z"/>
</g>
<g transform="matrix(1,0,0,1,211.4,-545.484)">
	<path class="st4" d="M-103.4,673.5c0-0.9-0.6-1.6-1.4-1.6c-0.8,0-1.4,0.7-1.4,1.6c0,0.9,0.6,1.6,1.4,1.6
		C-104.1,675.1-103.4,674.4-103.4,673.5z"/>
</g>
<g transform="matrix(1,0,0,1,513.679,-547.793)">
	<path class="st4" d="M-115.5,673.6c0-0.9-0.6-1.6-1.4-1.6c-0.8,0-1.4,0.7-1.4,1.6s0.6,1.6,1.4,1.6
		C-116.2,675.2-115.5,674.5-115.5,673.6z"/>
</g>
<g transform="matrix(1,0,0,1,707.014,-501.751)">
	<path class="st4" d="M-123.3,671.8c0-0.9-0.6-1.6-1.4-1.6c-0.8,0-1.4,0.7-1.4,1.6c0,0.9,0.6,1.6,1.4,1.6
		C-123.9,673.4-123.3,672.7-123.3,671.8z"/>
</g>
<g transform="matrix(1,0,0,1,813.748,-330.814)">
	<path class="st4" d="M-127.5,665c0-0.9-0.6-1.6-1.4-1.6c-0.8,0-1.4,0.7-1.4,1.6s0.6,1.6,1.4,1.6
		C-128.2,666.5-127.5,665.8-127.5,665z"/>
</g>
<g transform="matrix(1,0,0,1,806.652,-150.746)">
	<path class="st4" d="M-127.2,657.7c0-0.9-0.6-1.6-1.4-1.6c-0.8,0-1.4,0.7-1.4,1.6c0,0.9,0.6,1.6,1.4,1.6
		C-127.9,659.3-127.2,658.6-127.2,657.7z"/>
</g>
<g transform="matrix(1,0,0,1,509.609,-181.611)">
	<path class="st3" d="M-110.7,659c0-0.9-0.6-1.6-1.4-1.6c-0.8,0-1.4,0.7-1.4,1.6c0,0.9,0.6,1.6,1.4,1.6
		C-111.3,660.6-110.7,659.9-110.7,659"/>
</g>
<g transform="matrix(1,0,0,1,328.635,-148.741)">
	<path class="st3" d="M-103.4,657.7c0-0.9-0.6-1.6-1.4-1.6c-0.8,0-1.4,0.7-1.4,1.6c0,0.9,0.6,1.6,1.4,1.6
		C-104.1,659.3-103.4,658.5-103.4,657.7"/>
</g>
<g transform="matrix(1,0,0,1,183.239,-243.686)">
	<path class="st3" d="M-97.6,661.5c0-0.9-0.6-1.6-1.4-1.6c-0.8,0-1.4,0.7-1.4,1.6c0,0.9,0.6,1.6,1.4,1.6
		C-98.3,663.1-97.6,662.3-97.6,661.5"/>
</g>
<g transform="matrix(1,0,0,1,141.076,-419.684)">
	<path class="st3" d="M-95.9,668.5c0-0.9-0.6-1.6-1.4-1.6c-0.8,0-1.4,0.7-1.4,1.6s0.6,1.6,1.4,1.6
		C-96.6,670.1-95.9,669.4-95.9,668.5"/>
</g>
<g transform="matrix(1,0,0,1,276.547,-389.82)">
	<path class="st3" d="M-101.4,667.3c0-0.9-0.6-1.6-1.4-1.6c-0.8,0-1.4,0.7-1.4,1.6c0,0.9,0.6,1.6,1.4,1.6
		C-102,668.9-101.4,668.2-101.4,667.3"/>
</g>
<g transform="matrix(1,0,0,1,211.4,-545.484)">
	<path class="st3" d="M-98.8,673.5c0-0.9-0.6-1.6-1.4-1.6c-0.8,0-1.4,0.7-1.4,1.6c0,0.9,0.6,1.6,1.4,1.6
		C-99.4,675.1-98.8,674.4-98.8,673.5"/>
</g>
<g transform="matrix(1,0,0,1,513.679,-547.793)">
	<path class="st3" d="M-110.9,673.6c0-0.9-0.6-1.6-1.4-1.6c-0.8,0-1.4,0.7-1.4,1.6s0.6,1.6,1.4,1.6
		C-111.5,675.2-110.9,674.5-110.9,673.6"/>
</g>
<g transform="matrix(1,0,0,1,707.014,-501.751)">
	<path class="st3" d="M-118.6,671.8c0-0.9-0.6-1.6-1.4-1.6c-0.8,0-1.4,0.7-1.4,1.6c0,0.9,0.6,1.6,1.4,1.6
		C-119.2,673.4-118.6,672.7-118.6,671.8"/>
</g>
<g transform="matrix(1,0,0,1,813.748,-330.814)">
	<path class="st3" d="M-122.9,665c0-0.9-0.6-1.6-1.4-1.6c-0.8,0-1.4,0.7-1.4,1.6s0.6,1.6,1.4,1.6
		C-123.5,666.5-122.9,665.8-122.9,665"/>
</g>
<g transform="matrix(1,0,0,1,806.652,-150.746)">
	<path class="st3" d="M-122.6,657.7c0-0.9-0.6-1.6-1.4-1.6c-0.8,0-1.4,0.7-1.4,1.6c0,0.9,0.6,1.6,1.4,1.6
		C-123.2,659.3-122.6,658.6-122.6,657.7"/>
</g>
<g transform="matrix(1,0,0,1,509.609,-181.611)">
	<path class="st4" d="M-110.7,659c0-0.9-0.6-1.6-1.4-1.6c-0.8,0-1.4,0.7-1.4,1.6c0,0.9,0.6,1.6,1.4,1.6
		C-111.3,660.6-110.7,659.9-110.7,659z"/>
</g>
<g transform="matrix(1,0,0,1,328.635,-148.741)">
	<path class="st4" d="M-103.4,657.7c0-0.9-0.6-1.6-1.4-1.6c-0.8,0-1.4,0.7-1.4,1.6c0,0.9,0.6,1.6,1.4,1.6
		C-104.1,659.3-103.4,658.5-103.4,657.7z"/>
</g>
<g transform="matrix(1,0,0,1,183.239,-243.686)">
	<path class="st4" d="M-97.6,661.5c0-0.9-0.6-1.6-1.4-1.6c-0.8,0-1.4,0.7-1.4,1.6c0,0.9,0.6,1.6,1.4,1.6
		C-98.3,663.1-97.6,662.3-97.6,661.5z"/>
</g>
<g transform="matrix(1,0,0,1,141.076,-419.684)">
	<path class="st4" d="M-95.9,668.5c0-0.9-0.6-1.6-1.4-1.6c-0.8,0-1.4,0.7-1.4,1.6s0.6,1.6,1.4,1.6
		C-96.6,670.1-95.9,669.4-95.9,668.5z"/>
</g>
<g transform="matrix(1,0,0,1,276.547,-389.82)">
	<path class="st4" d="M-101.4,667.3c0-0.9-0.6-1.6-1.4-1.6c-0.8,0-1.4,0.7-1.4,1.6c0,0.9,0.6,1.6,1.4,1.6
		C-102,668.9-101.4,668.2-101.4,667.3z"/>
</g>
<g transform="matrix(1,0,0,1,211.4,-545.484)">
	<path class="st4" d="M-98.8,673.5c0-0.9-0.6-1.6-1.4-1.6c-0.8,0-1.4,0.7-1.4,1.6c0,0.9,0.6,1.6,1.4,1.6
		C-99.4,675.1-98.8,674.4-98.8,673.5z"/>
</g>
<g transform="matrix(1,0,0,1,513.679,-547.793)">
	<path class="st4" d="M-110.9,673.6c0-0.9-0.6-1.6-1.4-1.6c-0.8,0-1.4,0.7-1.4,1.6s0.6,1.6,1.4,1.6
		C-111.5,675.2-110.9,674.5-110.9,673.6z"/>
</g>
<g transform="matrix(1,0,0,1,707.014,-501.751)">
	<path class="st4" d="M-118.6,671.8c0-0.9-0.6-1.6-1.4-1.6c-0.8,0-1.4,0.7-1.4,1.6c0,0.9,0.6,1.6,1.4,1.6
		C-119.2,673.4-118.6,672.7-118.6,671.8z"/>
</g>
<g transform="matrix(1,0,0,1,813.748,-330.814)">
	<path class="st4" d="M-122.9,665c0-0.9-0.6-1.6-1.4-1.6c-0.8,0-1.4,0.7-1.4,1.6s0.6,1.6,1.4,1.6
		C-123.5,666.5-122.9,665.8-122.9,665z"/>
</g>
<g transform="matrix(1,0,0,1,806.652,-150.746)">
	<path class="st4" d="M-122.6,657.7c0-0.9-0.6-1.6-1.4-1.6c-0.8,0-1.4,0.7-1.4,1.6c0,0.9,0.6,1.6,1.4,1.6
		C-123.2,659.3-122.6,658.6-122.6,657.7z"/>
</g>
<g transform="matrix(1,0,0,1,509.609,-181.611)">
	<rect x="-126.1" y="669.4" class="st2" width="51.2" height="12.2"/>
</g>
<g transform="matrix(1,0,0,1,328.635,-148.741)">
	<rect x="-118.8" y="668.1" class="st2" width="51.2" height="12.2"/>
</g>
<g transform="matrix(1,0,0,1,183.239,-243.686)">
	<rect x="-113" y="671.9" class="st2" width="51.2" height="12.2"/>
</g>
<g transform="matrix(1,0,0,1,141.076,-419.684)">
	<rect x="-111.3" y="679" class="st2" width="51.2" height="12.2"/>
</g>
<g transform="matrix(1,0,0,1,276.547,-389.82)">
	<rect x="-116.7" y="677.8" class="st2" width="51.2" height="12.2"/>
</g>
<g transform="matrix(1,0,0,1,211.4,-545.484)">
	<rect x="-114.1" y="684" class="st2" width="51.2" height="12.2"/>
</g>
<g transform="matrix(1,0,0,1,513.679,-547.793)">
	<rect x="-126.2" y="684.1" class="st2" width="51.2" height="12.2"/>
</g>
<g transform="matrix(1,0,0,1,707.014,-501.751)">
	<rect x="-134" y="682.3" class="st2" width="51.2" height="12.2"/>
</g>
<g transform="matrix(1,0,0,1,813.748,-330.814)">
	<rect x="-138.2" y="675.4" class="st2" width="51.2" height="12.2"/>
</g>
<g transform="matrix(1,0,0,1,806.652,-150.746)">
	<rect x="-138" y="668.2" class="st2" width="51.2" height="12.2"/>
</g>
<g transform="matrix(1,0,0,1,509.609,-181.611)">
	<path class="st3" d="M-120.4,675.5c0-0.9-0.6-1.6-1.4-1.6c-0.8,0-1.4,0.7-1.4,1.6c0,0.9,0.6,1.6,1.4,1.6
		C-121,677.1-120.4,676.4-120.4,675.5"/>
</g>
<g transform="matrix(1,0,0,1,328.635,-148.741)">
	<path class="st3" d="M-113.2,674.2c0-0.9-0.6-1.6-1.4-1.6c-0.8,0-1.4,0.7-1.4,1.6c0,0.9,0.6,1.6,1.4,1.6
		C-113.8,675.8-113.2,675.1-113.2,674.2"/>
</g>
<g transform="matrix(1,0,0,1,183.239,-243.686)">
	<path class="st3" d="M-107.3,678c0-0.9-0.6-1.6-1.4-1.6c-0.8,0-1.4,0.7-1.4,1.6c0,0.9,0.6,1.6,1.4,1.6
		C-108,679.6-107.3,678.9-107.3,678"/>
</g>
<g transform="matrix(1,0,0,1,141.076,-419.684)">
	<path class="st3" d="M-105.6,685.1c0-0.9-0.6-1.6-1.4-1.6c-0.8,0-1.4,0.7-1.4,1.6c0,0.9,0.6,1.6,1.4,1.6
		C-106.3,686.7-105.6,686-105.6,685.1"/>
</g>
<g transform="matrix(1,0,0,1,276.547,-389.82)">
	<path class="st3" d="M-111.1,683.9c0-0.9-0.6-1.6-1.4-1.6c-0.8,0-1.4,0.7-1.4,1.6c0,0.9,0.6,1.6,1.4,1.6
		C-111.7,685.5-111.1,684.8-111.1,683.9"/>
</g>
<g transform="matrix(1,0,0,1,211.4,-545.484)">
	<path class="st3" d="M-108.5,690.1c0-0.9-0.6-1.6-1.4-1.6c-0.8,0-1.4,0.7-1.4,1.6c0,0.9,0.6,1.6,1.4,1.6
		C-109.1,691.7-108.5,691-108.5,690.1"/>
</g>
<g transform="matrix(1,0,0,1,513.679,-547.793)">
	<path class="st3" d="M-120.6,690.2c0-0.9-0.6-1.6-1.4-1.6c-0.8,0-1.4,0.7-1.4,1.6c0,0.9,0.6,1.6,1.4,1.6
		C-121.2,691.8-120.6,691.1-120.6,690.2"/>
</g>
<g transform="matrix(1,0,0,1,707.014,-501.751)">
	<path class="st3" d="M-128.3,688.4c0-0.9-0.6-1.6-1.4-1.6c-0.8,0-1.4,0.7-1.4,1.6c0,0.9,0.6,1.6,1.4,1.6
		C-128.9,689.9-128.3,689.2-128.3,688.4"/>
</g>
<g transform="matrix(1,0,0,1,813.748,-330.814)">
	<path class="st3" d="M-132.6,681.5c0-0.9-0.6-1.6-1.4-1.6c-0.8,0-1.4,0.7-1.4,1.6c0,0.9,0.6,1.6,1.4,1.6
		C-133.2,683.1-132.6,682.4-132.6,681.5"/>
</g>
<g transform="matrix(1,0,0,1,806.652,-150.746)">
	<path class="st3" d="M-132.3,674.3c0-0.9-0.6-1.6-1.4-1.6c-0.8,0-1.4,0.7-1.4,1.6c0,0.9,0.6,1.6,1.4,1.6
		C-132.9,675.9-132.3,675.2-132.3,674.3"/>
</g>
<g transform="matrix(1,0,0,1,509.609,-181.611)">
	<path class="st4" d="M-120.4,675.5c0-0.9-0.6-1.6-1.4-1.6c-0.8,0-1.4,0.7-1.4,1.6c0,0.9,0.6,1.6,1.4,1.6
		C-121,677.1-120.4,676.4-120.4,675.5z"/>
</g>
<g transform="matrix(1,0,0,1,328.635,-148.741)">
	<path class="st4" d="M-113.2,674.2c0-0.9-0.6-1.6-1.4-1.6c-0.8,0-1.4,0.7-1.4,1.6c0,0.9,0.6,1.6,1.4,1.6
		C-113.8,675.8-113.2,675.1-113.2,674.2z"/>
</g>
<g transform="matrix(1,0,0,1,183.239,-243.686)">
	<path class="st4" d="M-107.3,678c0-0.9-0.6-1.6-1.4-1.6c-0.8,0-1.4,0.7-1.4,1.6c0,0.9,0.6,1.6,1.4,1.6
		C-108,679.6-107.3,678.9-107.3,678z"/>
</g>
<g transform="matrix(1,0,0,1,141.076,-419.684)">
	<path class="st4" d="M-105.6,685.1c0-0.9-0.6-1.6-1.4-1.6c-0.8,0-1.4,0.7-1.4,1.6c0,0.9,0.6,1.6,1.4,1.6
		C-106.3,686.7-105.6,686-105.6,685.1z"/>
</g>
<g transform="matrix(1,0,0,1,276.547,-389.82)">
	<path class="st4" d="M-111.1,683.9c0-0.9-0.6-1.6-1.4-1.6c-0.8,0-1.4,0.7-1.4,1.6c0,0.9,0.6,1.6,1.4,1.6
		C-111.7,685.5-111.1,684.8-111.1,683.9z"/>
</g>
<g transform="matrix(1,0,0,1,211.4,-545.484)">
	<path class="st4" d="M-108.5,690.1c0-0.9-0.6-1.6-1.4-1.6c-0.8,0-1.4,0.7-1.4,1.6c0,0.9,0.6,1.6,1.4,1.6
		C-109.1,691.7-108.5,691-108.5,690.1z"/>
</g>
<g transform="matrix(1,0,0,1,513.679,-547.793)">
	<path class="st4" d="M-120.6,690.2c0-0.9-0.6-1.6-1.4-1.6c-0.8,0-1.4,0.7-1.4,1.6c0,0.9,0.6,1.6,1.4,1.6
		C-121.2,691.8-120.6,691.1-120.6,690.2z"/>
</g>
<g transform="matrix(1,0,0,1,707.014,-501.751)">
	<path class="st4" d="M-128.3,688.4c0-0.9-0.6-1.6-1.4-1.6c-0.8,0-1.4,0.7-1.4,1.6c0,0.9,0.6,1.6,1.4,1.6
		C-128.9,689.9-128.3,689.2-128.3,688.4z"/>
</g>
<g transform="matrix(1,0,0,1,813.748,-330.814)">
	<path class="st4" d="M-132.6,681.5c0-0.9-0.6-1.6-1.4-1.6c-0.8,0-1.4,0.7-1.4,1.6c0,0.9,0.6,1.6,1.4,1.6
		C-133.2,683.1-132.6,682.4-132.6,681.5z"/>
</g>
<g transform="matrix(1,0,0,1,806.652,-150.746)">
	<path class="st4" d="M-132.3,674.3c0-0.9-0.6-1.6-1.4-1.6c-0.8,0-1.4,0.7-1.4,1.6c0,0.9,0.6,1.6,1.4,1.6
		C-132.9,675.9-132.3,675.2-132.3,674.3z"/>
</g>
<g transform="matrix(1,0,0,1,509.609,-181.611)">
	<path class="st3" d="M-115.4,675.5c0-0.9-0.6-1.6-1.4-1.6c-0.8,0-1.4,0.7-1.4,1.6c0,0.9,0.6,1.6,1.4,1.6
		C-116,677.1-115.4,676.4-115.4,675.5"/>
</g>
<g transform="matrix(1,0,0,1,328.635,-148.741)">
	<path class="st3" d="M-108.1,674.2c0-0.9-0.6-1.6-1.4-1.6c-0.8,0-1.4,0.7-1.4,1.6c0,0.9,0.6,1.6,1.4,1.6
		C-108.8,675.8-108.1,675.1-108.1,674.2"/>
</g>
<g transform="matrix(1,0,0,1,183.239,-243.686)">
	<path class="st3" d="M-102.3,678c0-0.9-0.6-1.6-1.4-1.6c-0.8,0-1.4,0.7-1.4,1.6c0,0.9,0.6,1.6,1.4,1.6
		C-102.9,679.6-102.3,678.9-102.3,678"/>
</g>
<g transform="matrix(1,0,0,1,141.076,-419.684)">
	<path class="st3" d="M-100.6,685.1c0-0.9-0.6-1.6-1.4-1.6c-0.8,0-1.4,0.7-1.4,1.6c0,0.9,0.6,1.6,1.4,1.6
		C-101.3,686.7-100.6,686-100.6,685.1"/>
</g>
<g transform="matrix(1,0,0,1,276.547,-389.82)">
	<path class="st3" d="M-106,683.9c0-0.9-0.6-1.6-1.4-1.6c-0.8,0-1.4,0.7-1.4,1.6c0,0.9,0.6,1.6,1.4,1.6
		C-106.7,685.5-106,684.8-106,683.9"/>
</g>
<g transform="matrix(1,0,0,1,211.4,-545.484)">
	<path class="st3" d="M-103.4,690.1c0-0.9-0.6-1.6-1.4-1.6c-0.8,0-1.4,0.7-1.4,1.6c0,0.9,0.6,1.6,1.4,1.6
		C-104.1,691.7-103.4,691-103.4,690.1"/>
</g>
<g transform="matrix(1,0,0,1,513.679,-547.793)">
	<path class="st3" d="M-115.5,690.2c0-0.9-0.6-1.6-1.4-1.6c-0.8,0-1.4,0.7-1.4,1.6c0,0.9,0.6,1.6,1.4,1.6
		C-116.2,691.8-115.5,691.1-115.5,690.2"/>
</g>
<g transform="matrix(1,0,0,1,707.014,-501.751)">
	<path class="st3" d="M-123.3,688.4c0-0.9-0.6-1.6-1.4-1.6c-0.8,0-1.4,0.7-1.4,1.6c0,0.9,0.6,1.6,1.4,1.6
		C-123.9,689.9-123.3,689.2-123.3,688.4"/>
</g>
<g transform="matrix(1,0,0,1,813.748,-330.814)">
	<path class="st3" d="M-127.5,681.5c0-0.9-0.6-1.6-1.4-1.6c-0.8,0-1.4,0.7-1.4,1.6c0,0.9,0.6,1.6,1.4,1.6
		C-128.2,683.1-127.5,682.4-127.5,681.5"/>
</g>
<g transform="matrix(1,0,0,1,806.652,-150.746)">
	<path class="st3" d="M-127.2,674.3c0-0.9-0.6-1.6-1.4-1.6c-0.8,0-1.4,0.7-1.4,1.6c0,0.9,0.6,1.6,1.4,1.6
		C-127.9,675.9-127.2,675.2-127.2,674.3"/>
</g>
<g transform="matrix(1,0,0,1,509.609,-181.611)">
	<path class="st4" d="M-115.4,675.5c0-0.9-0.6-1.6-1.4-1.6c-0.8,0-1.4,0.7-1.4,1.6c0,0.9,0.6,1.6,1.4,1.6
		C-116,677.1-115.4,676.4-115.4,675.5z"/>
</g>
<g transform="matrix(1,0,0,1,328.635,-148.741)">
	<path class="st4" d="M-108.1,674.2c0-0.9-0.6-1.6-1.4-1.6c-0.8,0-1.4,0.7-1.4,1.6c0,0.9,0.6,1.6,1.4,1.6
		C-108.8,675.8-108.1,675.1-108.1,674.2z"/>
</g>
<g transform="matrix(1,0,0,1,183.239,-243.686)">
	<path class="st4" d="M-102.3,678c0-0.9-0.6-1.6-1.4-1.6c-0.8,0-1.4,0.7-1.4,1.6c0,0.9,0.6,1.6,1.4,1.6
		C-102.9,679.6-102.3,678.9-102.3,678z"/>
</g>
<g transform="matrix(1,0,0,1,141.076,-419.684)">
	<path class="st4" d="M-100.6,685.1c0-0.9-0.6-1.6-1.4-1.6c-0.8,0-1.4,0.7-1.4,1.6c0,0.9,0.6,1.6,1.4,1.6
		C-101.3,686.7-100.6,686-100.6,685.1z"/>
</g>
<g transform="matrix(1,0,0,1,276.547,-389.82)">
	<path class="st4" d="M-106,683.9c0-0.9-0.6-1.6-1.4-1.6c-0.8,0-1.4,0.7-1.4,1.6c0,0.9,0.6,1.6,1.4,1.6
		C-106.7,685.5-106,684.8-106,683.9z"/>
</g>
<g transform="matrix(1,0,0,1,211.4,-545.484)">
	<path class="st4" d="M-103.4,690.1c0-0.9-0.6-1.6-1.4-1.6c-0.8,0-1.4,0.7-1.4,1.6c0,0.9,0.6,1.6,1.4,1.6
		C-104.1,691.7-103.4,691-103.4,690.1z"/>
</g>
<g transform="matrix(1,0,0,1,513.679,-547.793)">
	<path class="st4" d="M-115.5,690.2c0-0.9-0.6-1.6-1.4-1.6c-0.8,0-1.4,0.7-1.4,1.6c0,0.9,0.6,1.6,1.4,1.6
		C-116.2,691.8-115.5,691.1-115.5,690.2z"/>
</g>
<g transform="matrix(1,0,0,1,707.014,-501.751)">
	<path class="st4" d="M-123.3,688.4c0-0.9-0.6-1.6-1.4-1.6c-0.8,0-1.4,0.7-1.4,1.6c0,0.9,0.6,1.6,1.4,1.6
		C-123.9,689.9-123.3,689.2-123.3,688.4z"/>
</g>
<g transform="matrix(1,0,0,1,813.748,-330.814)">
	<path class="st4" d="M-127.5,681.5c0-0.9-0.6-1.6-1.4-1.6c-0.8,0-1.4,0.7-1.4,1.6c0,0.9,0.6,1.6,1.4,1.6
		C-128.2,683.1-127.5,682.4-127.5,681.5z"/>
</g>
<g transform="matrix(1,0,0,1,806.652,-150.746)">
	<path class="st4" d="M-127.2,674.3c0-0.9-0.6-1.6-1.4-1.6c-0.8,0-1.4,0.7-1.4,1.6c0,0.9,0.6,1.6,1.4,1.6
		C-127.9,675.9-127.2,675.2-127.2,674.3z"/>
</g>
<g transform="matrix(1,0,0,1,509.609,-181.611)">
	<path class="st3" d="M-110.7,675.5c0-0.9-0.6-1.6-1.4-1.6c-0.8,0-1.4,0.7-1.4,1.6c0,0.9,0.6,1.6,1.4,1.6
		C-111.3,677.1-110.7,676.4-110.7,675.5"/>
</g>
<g transform="matrix(1,0,0,1,328.635,-148.741)">
	<path class="st3" d="M-103.4,674.2c0-0.9-0.6-1.6-1.4-1.6c-0.8,0-1.4,0.7-1.4,1.6c0,0.9,0.6,1.6,1.4,1.6
		C-104.1,675.8-103.4,675.1-103.4,674.2"/>
</g>
<g transform="matrix(1,0,0,1,183.239,-243.686)">
	<path class="st3" d="M-97.6,678c0-0.9-0.6-1.6-1.4-1.6c-0.8,0-1.4,0.7-1.4,1.6c0,0.9,0.6,1.6,1.4,1.6
		C-98.3,679.6-97.6,678.9-97.6,678"/>
</g>
<g transform="matrix(1,0,0,1,141.076,-419.684)">
	<path class="st3" d="M-95.9,685.1c0-0.9-0.6-1.6-1.4-1.6c-0.8,0-1.4,0.7-1.4,1.6c0,0.9,0.6,1.6,1.4,1.6
		C-96.6,686.7-95.9,686-95.9,685.1"/>
</g>
<g transform="matrix(1,0,0,1,276.547,-389.82)">
	<path class="st3" d="M-101.4,683.9c0-0.9-0.6-1.6-1.4-1.6c-0.8,0-1.4,0.7-1.4,1.6c0,0.9,0.6,1.6,1.4,1.6
		C-102,685.5-101.4,684.8-101.4,683.9"/>
</g>
<g transform="matrix(1,0,0,1,211.4,-545.484)">
	<path class="st3" d="M-98.8,690.1c0-0.9-0.6-1.6-1.4-1.6c-0.8,0-1.4,0.7-1.4,1.6c0,0.9,0.6,1.6,1.4,1.6
		C-99.4,691.7-98.8,691-98.8,690.1"/>
</g>
<g transform="matrix(1,0,0,1,513.679,-547.793)">
	<path class="st3" d="M-110.9,690.2c0-0.9-0.6-1.6-1.4-1.6c-0.8,0-1.4,0.7-1.4,1.6c0,0.9,0.6,1.6,1.4,1.6
		C-111.5,691.8-110.9,691.1-110.9,690.2"/>
</g>
<g transform="matrix(1,0,0,1,707.014,-501.751)">
	<path class="st3" d="M-118.6,688.4c0-0.9-0.6-1.6-1.4-1.6c-0.8,0-1.4,0.7-1.4,1.6c0,0.9,0.6,1.6,1.4,1.6
		C-119.2,689.9-118.6,689.2-118.6,688.4"/>
</g>
<g transform="matrix(1,0,0,1,813.748,-330.814)">
	<path class="st3" d="M-122.9,681.5c0-0.9-0.6-1.6-1.4-1.6c-0.8,0-1.4,0.7-1.4,1.6c0,0.9,0.6,1.6,1.4,1.6
		C-123.5,683.1-122.9,682.4-122.9,681.5"/>
</g>
<g transform="matrix(1,0,0,1,806.652,-150.746)">
	<path class="st3" d="M-122.6,674.3c0-0.9-0.6-1.6-1.4-1.6c-0.8,0-1.4,0.7-1.4,1.6c0,0.9,0.6,1.6,1.4,1.6
		C-123.2,675.9-122.6,675.2-122.6,674.3"/>
</g>
<g transform="matrix(1,0,0,1,509.609,-181.611)">
	<path class="st4" d="M-110.7,675.5c0-0.9-0.6-1.6-1.4-1.6c-0.8,0-1.4,0.7-1.4,1.6c0,0.9,0.6,1.6,1.4,1.6
		C-111.3,677.1-110.7,676.4-110.7,675.5z"/>
</g>
<g transform="matrix(1,0,0,1,328.635,-148.741)">
	<path class="st4" d="M-103.4,674.2c0-0.9-0.6-1.6-1.4-1.6c-0.8,0-1.4,0.7-1.4,1.6c0,0.9,0.6,1.6,1.4,1.6
		C-104.1,675.8-103.4,675.1-103.4,674.2z"/>
</g>
<g transform="matrix(1,0,0,1,183.239,-243.686)">
	<path class="st4" d="M-97.6,678c0-0.9-0.6-1.6-1.4-1.6c-0.8,0-1.4,0.7-1.4,1.6c0,0.9,0.6,1.6,1.4,1.6
		C-98.3,679.6-97.6,678.9-97.6,678z"/>
</g>
<g transform="matrix(1,0,0,1,141.076,-419.684)">
	<path class="st4" d="M-95.9,685.1c0-0.9-0.6-1.6-1.4-1.6c-0.8,0-1.4,0.7-1.4,1.6c0,0.9,0.6,1.6,1.4,1.6
		C-96.6,686.7-95.9,686-95.9,685.1z"/>
</g>
<g transform="matrix(1,0,0,1,276.547,-389.82)">
	<path class="st4" d="M-101.4,683.9c0-0.9-0.6-1.6-1.4-1.6c-0.8,0-1.4,0.7-1.4,1.6c0,0.9,0.6,1.6,1.4,1.6
		C-102,685.5-101.4,684.8-101.4,683.9z"/>
</g>
<g transform="matrix(1,0,0,1,211.4,-545.484)">
	<path class="st4" d="M-98.8,690.1c0-0.9-0.6-1.6-1.4-1.6c-0.8,0-1.4,0.7-1.4,1.6c0,0.9,0.6,1.6,1.4,1.6
		C-99.4,691.7-98.8,691-98.8,690.1z"/>
</g>
<g transform="matrix(1,0,0,1,513.679,-547.793)">
	<path class="st4" d="M-110.9,690.2c0-0.9-0.6-1.6-1.4-1.6c-0.8,0-1.4,0.7-1.4,1.6c0,0.9,0.6,1.6,1.4,1.6
		C-111.5,691.8-110.9,691.1-110.9,690.2z"/>
</g>
<g transform="matrix(1,0,0,1,707.014,-501.751)">
	<path class="st4" d="M-118.6,688.4c0-0.9-0.6-1.6-1.4-1.6c-0.8,0-1.4,0.7-1.4,1.6c0,0.9,0.6,1.6,1.4,1.6
		C-119.2,689.9-118.6,689.2-118.6,688.4z"/>
</g>
<g transform="matrix(1,0,0,1,813.748,-330.814)">
	<path class="st4" d="M-122.9,681.5c0-0.9-0.6-1.6-1.4-1.6c-0.8,0-1.4,0.7-1.4,1.6c0,0.9,0.6,1.6,1.4,1.6
		C-123.5,683.1-122.9,682.4-122.9,681.5z"/>
</g>
<g transform="matrix(1,0,0,1,806.652,-150.746)">
	<path class="st4" d="M-122.6,674.3c0-0.9-0.6-1.6-1.4-1.6c-0.8,0-1.4,0.7-1.4,1.6c0,0.9,0.6,1.6,1.4,1.6
		C-123.2,675.9-122.6,675.2-122.6,674.3z"/>
</g>
<g transform="matrix(1,0,0,1,509.609,-181.611)">
	<path class="st5" d="M-95.8,618.4h4.8"/>
</g>
<g transform="matrix(1,0,0,1,328.635,-148.741)">
	<path class="st5" d="M-88.5,617.1h4.8"/>
</g>
<g transform="matrix(1,0,0,1,183.239,-243.686)">
	<path class="st5" d="M-82.7,620.9h4.8"/>
</g>
<g transform="matrix(1,0,0,1,141.076,-419.684)">
	<path class="st5" d="M-81,628h4.8"/>
</g>
<g transform="matrix(1,0,0,1,276.547,-389.82)">
	<path class="st5" d="M-86.5,626.8h4.8"/>
</g>
<g transform="matrix(1,0,0,1,211.4,-545.484)">
	<path class="st5" d="M-83.8,633h4.8"/>
</g>
<g transform="matrix(1,0,0,1,513.679,-547.793)">
	<path class="st5" d="M-95.9,633.1h4.8"/>
</g>
<g transform="matrix(1,0,0,1,707.014,-501.751)">
	<path class="st5" d="M-103.7,631.3h4.8"/>
</g>
<g transform="matrix(1,0,0,1,813.748,-330.814)">
	<path class="st5" d="M-107.9,624.4h4.8"/>
</g>
<g transform="matrix(1,0,0,1,806.652,-150.746)">
	<path class="st5" d="M-107.7,617.2h4.8"/>
</g>
<text transform="matrix(1 0 0 1 98.8019 73.5887)" class="st6 st7">AS12</text>
<text transform="matrix(1 0 0 1 188.3486 214.6935)" class="st6 st7">AS19905</text>
<text transform="matrix(1 0 0 1 272.6103 342.7418)" class="st6 st7">AS3756</text>
<text transform="matrix(1 0 0 1 35.429 305.6124)" class="st6 st7">AS14</text>
<text transform="matrix(1 0 0 1 73.0254 466.9026)" class="st6 st7">AS12</text>
<text transform="matrix(1 0 0 1 212.6034 557.037)" class="st6 st7">AS12</text>
<text transform="matrix(1 0 0 1 430.2414 332.5479)" class="st6 st7">AS2603</text>
<text transform="matrix(1 0 0 1 565.8589 347.2516)" class="st6 st7">AS224</text>
<text transform="matrix(1 0 0 1 386.3364 73.5887)" class="st6 st7">AT&amp;T</text>
</svg>
