<?xml version="1.0" encoding="utf-8"?>
<!-- Generator: Adobe Illustrator 21.1.0, SVG Export Plug-In . SVG Version: 6.00 Build 0)  -->
<svg version="1.1" id="Layer_1" xmlns="http://www.w3.org/2000/svg" xmlns:xlink="http://www.w3.org/1999/xlink" x="0px" y="0px"
	 viewBox="0 0 792 612" style="enable-background:new 0 0 792 612;" xml:space="preserve">
<style type="text/css">
	.st0{fill:none;stroke:#231F20;stroke-width:1.25;stroke-linecap:round;stroke-miterlimit:10;}
	.st1{fill:#FFFFFF;}
	.st2{fill:#FFFFFF;stroke:#231F20;stroke-width:1.25;stroke-linecap:round;stroke-miterlimit:10;}
	.st3{fill:#231F20;stroke:#FFFFFF;stroke-width:1.25;stroke-linecap:round;stroke-miterlimit:10;}
	.st4{font-family:'Helvetica';}
	.st5{font-size:18px;}
</style>
<line class="st0" x1="266.4" y1="175.4" x2="457.7" y2="285.9"/>
<line class="st0" x1="576.2" y1="212.8" x2="457" y2="285.2"/>
<line class="st0" x1="533.9" y1="65.4" x2="578.9" y2="168.1"/>
<line class="st0" x1="667.6" y1="75.1" x2="583.4" y2="165.4"/>
<line class="st0" x1="320" y1="418.5" x2="455.2" y2="290.6"/>
<line class="st0" x1="556.1" y1="411.3" x2="455.2" y2="290.6"/>
<line class="st0" x1="181.5" y1="113.6" x2="270.2" y2="175.5"/>
<line class="st0" x1="99.8" y1="111.3" x2="270.2" y2="175.5"/>
<line class="st0" x1="176.8" y1="191.9" x2="270.2" y2="175.5"/>
<line class="st0" x1="212.8" y1="392.3" x2="320.3" y2="418"/>
<line class="st0" x1="236.2" y1="481" x2="320.3" y2="418"/>
<g>
	<g>
		<path class="st1" d="M494.7,333.1c0,1.5-1.3,2.8-2.8,2.8h-73.4c-1.5,0-2.8-1.3-2.8-2.8V247c0-1.5,1.3-2.8,2.8-2.8h73.4
			c1.5,0,2.8,1.3,2.8,2.8V333.1z"/>
		<path class="st0" d="M494.7,333.1c0,1.5-1.3,2.8-2.8,2.8h-73.4c-1.5,0-2.8-1.3-2.8-2.8V247c0-1.5,1.3-2.8,2.8-2.8h73.4
			c1.5,0,2.8,1.3,2.8,2.8V333.1z"/>
	</g>
	<g>
		<rect x="424" y="249.4" class="st2" width="62.3" height="14.8"/>
		<ellipse class="st3" cx="429.2" cy="256.8" rx="1.8" ry="1.9"/>
		<ellipse class="st3" cx="435.3" cy="256.8" rx="1.8" ry="1.9"/>
		<ellipse class="st3" cx="441" cy="256.8" rx="1.8" ry="1.9"/>
	</g>
	<g>
		<rect x="424" y="271.1" class="st2" width="62.3" height="14.8"/>
		<ellipse class="st3" cx="429.2" cy="278.5" rx="1.8" ry="1.9"/>
		<ellipse class="st3" cx="435.3" cy="278.5" rx="1.8" ry="1.9"/>
		<ellipse class="st3" cx="441" cy="278.5" rx="1.8" ry="1.9"/>
	</g>
	<g>
		<rect x="424" y="291.3" class="st2" width="62.3" height="14.8"/>
		<ellipse class="st3" cx="429.2" cy="298.7" rx="1.8" ry="1.9"/>
		<ellipse class="st3" cx="435.3" cy="298.7" rx="1.8" ry="1.9"/>
		<ellipse class="st3" cx="441" cy="298.7" rx="1.8" ry="1.9"/>
	</g>
	<g>
		<rect x="424" y="311.4" class="st2" width="62.3" height="14.8"/>
		<ellipse class="st3" cx="429.2" cy="318.8" rx="1.8" ry="1.9"/>
		<ellipse class="st3" cx="435.3" cy="318.8" rx="1.8" ry="1.9"/>
		<ellipse class="st3" cx="441" cy="318.8" rx="1.8" ry="1.9"/>
	</g>
	<line class="st0" x1="460.8" y1="249.4" x2="466.7" y2="249.4"/>
</g>
<g>
	<g>
		<path class="st1" d="M305.2,218.3c0,1.5-1.3,2.8-2.8,2.8H229c-1.5,0-2.8-1.3-2.8-2.8v-86.1c0-1.5,1.3-2.8,2.8-2.8h73.4
			c1.5,0,2.8,1.3,2.8,2.8V218.3z"/>
		<path class="st0" d="M305.2,218.3c0,1.5-1.3,2.8-2.8,2.8H229c-1.5,0-2.8-1.3-2.8-2.8v-86.1c0-1.5,1.3-2.8,2.8-2.8h73.4
			c1.5,0,2.8,1.3,2.8,2.8V218.3z"/>
	</g>
	<g>
		<rect x="234.6" y="134.6" class="st2" width="62.3" height="14.8"/>
		<ellipse class="st3" cx="239.7" cy="142" rx="1.8" ry="1.9"/>
		<ellipse class="st3" cx="245.9" cy="142" rx="1.8" ry="1.9"/>
		<ellipse class="st3" cx="251.5" cy="142" rx="1.8" ry="1.9"/>
	</g>
	<g>
		<rect x="234.6" y="156.4" class="st2" width="62.3" height="14.8"/>
		<ellipse class="st3" cx="239.7" cy="163.8" rx="1.8" ry="1.9"/>
		<ellipse class="st3" cx="245.9" cy="163.8" rx="1.8" ry="1.9"/>
		<ellipse class="st3" cx="251.5" cy="163.8" rx="1.8" ry="1.9"/>
	</g>
	<g>
		<rect x="234.6" y="176.5" class="st2" width="62.3" height="14.8"/>
		<ellipse class="st3" cx="239.7" cy="183.9" rx="1.8" ry="1.9"/>
		<ellipse class="st3" cx="245.9" cy="183.9" rx="1.8" ry="1.9"/>
		<ellipse class="st3" cx="251.5" cy="183.9" rx="1.8" ry="1.9"/>
	</g>
	<g>
		<rect x="234.6" y="196.7" class="st2" width="62.3" height="14.8"/>
		<ellipse class="st3" cx="239.7" cy="204.1" rx="1.8" ry="1.9"/>
		<ellipse class="st3" cx="245.9" cy="204.1" rx="1.8" ry="1.9"/>
		<ellipse class="st3" cx="251.5" cy="204.1" rx="1.8" ry="1.9"/>
	</g>
	<line class="st0" x1="271.4" y1="134.6" x2="277.3" y2="134.6"/>
</g>
<g>
	<g>
		<path class="st1" d="M359.9,463.2c0,1.5-1.3,2.8-2.8,2.8h-73.4c-1.5,0-2.8-1.3-2.8-2.8v-86.1c0-1.5,1.3-2.8,2.8-2.8h73.4
			c1.5,0,2.8,1.3,2.8,2.8V463.2z"/>
		<path class="st0" d="M359.9,463.2c0,1.5-1.3,2.8-2.8,2.8h-73.4c-1.5,0-2.8-1.3-2.8-2.8v-86.1c0-1.5,1.3-2.8,2.8-2.8h73.4
			c1.5,0,2.8,1.3,2.8,2.8V463.2z"/>
	</g>
	<g>
		<rect x="289.3" y="379.4" class="st2" width="62.3" height="14.8"/>
		<ellipse class="st3" cx="294.4" cy="386.9" rx="1.8" ry="1.9"/>
		<ellipse class="st3" cx="300.5" cy="386.9" rx="1.8" ry="1.9"/>
		<ellipse class="st3" cx="306.2" cy="386.9" rx="1.8" ry="1.9"/>
	</g>
	<g>
		<rect x="289.3" y="401.2" class="st2" width="62.3" height="14.8"/>
		<ellipse class="st3" cx="294.4" cy="408.6" rx="1.8" ry="1.9"/>
		<ellipse class="st3" cx="300.5" cy="408.6" rx="1.8" ry="1.9"/>
		<ellipse class="st3" cx="306.2" cy="408.6" rx="1.8" ry="1.9"/>
	</g>
	<g>
		<rect x="289.3" y="421.3" class="st2" width="62.3" height="14.8"/>
		<ellipse class="st3" cx="294.4" cy="428.8" rx="1.8" ry="1.9"/>
		<ellipse class="st3" cx="300.5" cy="428.8" rx="1.8" ry="1.9"/>
		<ellipse class="st3" cx="306.2" cy="428.8" rx="1.8" ry="1.9"/>
	</g>
	<g>
		<rect x="289.3" y="441.5" class="st2" width="62.3" height="14.8"/>
		<ellipse class="st3" cx="294.4" cy="448.9" rx="1.8" ry="1.9"/>
		<ellipse class="st3" cx="300.5" cy="448.9" rx="1.8" ry="1.9"/>
		<ellipse class="st3" cx="306.2" cy="448.9" rx="1.8" ry="1.9"/>
	</g>
	<line class="st0" x1="326.1" y1="379.5" x2="331.9" y2="379.5"/>
</g>
<line class="st0" x1="570.5" y1="485.2" x2="550.7" y2="411.1"/>
<rect x="552.8" y="474.1" class="st2" width="33.9" height="98.1"/>
<rect x="557.1" y="518.5" class="st2" width="5.8" height="9.3"/>
<rect x="567.2" y="518.5" class="st2" width="5.8" height="9.3"/>
<rect x="577.4" y="518.5" class="st2" width="5.8" height="9.3"/>
<rect x="557.1" y="531.4" class="st2" width="5.8" height="9.3"/>
<rect x="567.2" y="531.4" class="st2" width="5.8" height="9.3"/>
<rect x="577.4" y="531.4" class="st2" width="5.8" height="9.3"/>
<rect x="557.1" y="544.2" class="st2" width="5.8" height="9.3"/>
<rect x="567.2" y="544.2" class="st2" width="5.8" height="9.3"/>
<rect x="577.4" y="544.2" class="st2" width="5.8" height="9.3"/>
<rect x="557.1" y="480" class="st2" width="5.8" height="9.3"/>
<rect x="567.2" y="480" class="st2" width="5.8" height="9.3"/>
<rect x="577.4" y="480" class="st2" width="5.8" height="9.3"/>
<rect x="557.1" y="492.8" class="st2" width="5.8" height="9.3"/>
<rect x="567.2" y="492.8" class="st2" width="5.8" height="9.3"/>
<rect x="577.4" y="492.8" class="st2" width="5.8" height="9.3"/>
<rect x="557.1" y="505.7" class="st2" width="5.8" height="9.3"/>
<rect x="567.2" y="505.7" class="st2" width="5.8" height="9.3"/>
<rect x="577.4" y="505.7" class="st2" width="5.8" height="9.3"/>
<rect x="557.1" y="557" class="st2" width="5.8" height="9.3"/>
<rect x="567.2" y="557" class="st2" width="5.8" height="9.3"/>
<rect x="577.4" y="557" class="st2" width="5.8" height="9.3"/>
<line class="st0" x1="480.6" y1="515" x2="550.7" y2="411.1"/>
<line class="st0" x1="641.7" y1="498.7" x2="550.7" y2="411.1"/>
<g>
	<g>
		<path class="st1" d="M618.8,215.3c0,1.5-1.3,2.8-2.8,2.8h-73.4c-1.5,0-2.8-1.3-2.8-2.8v-86.1c0-1.5,1.3-2.8,2.8-2.8H616
			c1.5,0,2.8,1.3,2.8,2.8V215.3z"/>
		<path class="st0" d="M618.8,215.3c0,1.5-1.3,2.8-2.8,2.8h-73.4c-1.5,0-2.8-1.3-2.8-2.8v-86.1c0-1.5,1.3-2.8,2.8-2.8H616
			c1.5,0,2.8,1.3,2.8,2.8V215.3z"/>
	</g>
	<g>
		<rect x="548.2" y="131.6" class="st2" width="62.3" height="14.8"/>
		<ellipse class="st3" cx="553.3" cy="139" rx="1.8" ry="1.9"/>
		<ellipse class="st3" cx="559.4" cy="139" rx="1.8" ry="1.9"/>
		<ellipse class="st3" cx="565.1" cy="139" rx="1.8" ry="1.9"/>
	</g>
	<g>
		<rect x="548.2" y="153.3" class="st2" width="62.3" height="14.8"/>
		<ellipse class="st3" cx="553.3" cy="160.7" rx="1.8" ry="1.9"/>
		<ellipse class="st3" cx="559.4" cy="160.7" rx="1.8" ry="1.9"/>
		<ellipse class="st3" cx="565.1" cy="160.7" rx="1.8" ry="1.9"/>
	</g>
	<g>
		<rect x="548.2" y="173.5" class="st2" width="62.3" height="14.8"/>
		<ellipse class="st3" cx="553.3" cy="180.9" rx="1.8" ry="1.9"/>
		<ellipse class="st3" cx="559.4" cy="180.9" rx="1.8" ry="1.9"/>
		<ellipse class="st3" cx="565.1" cy="180.9" rx="1.8" ry="1.9"/>
	</g>
	<g>
		<rect x="548.2" y="193.6" class="st2" width="62.3" height="14.8"/>
		<ellipse class="st3" cx="553.3" cy="201" rx="1.8" ry="1.9"/>
		<ellipse class="st3" cx="559.4" cy="201" rx="1.8" ry="1.9"/>
		<ellipse class="st3" cx="565.1" cy="201" rx="1.8" ry="1.9"/>
	</g>
	<line class="st0" x1="585" y1="131.6" x2="590.8" y2="131.6"/>
</g>
<g>
	<g>
		<path class="st1" d="M592.6,453.9c0,1.5-1.3,2.8-2.8,2.8h-73.4c-1.5,0-2.8-1.3-2.8-2.8v-86.1c0-1.5,1.3-2.8,2.8-2.8h73.4
			c1.5,0,2.8,1.3,2.8,2.8V453.9z"/>
		<path class="st0" d="M592.6,453.9c0,1.5-1.3,2.8-2.8,2.8h-73.4c-1.5,0-2.8-1.3-2.8-2.8v-86.1c0-1.5,1.3-2.8,2.8-2.8h73.4
			c1.5,0,2.8,1.3,2.8,2.8V453.9z"/>
	</g>
	<g>
		<rect x="522" y="370.2" class="st2" width="62.3" height="14.8"/>
		<ellipse class="st3" cx="527.2" cy="377.6" rx="1.8" ry="1.9"/>
		<ellipse class="st3" cx="533.3" cy="377.6" rx="1.8" ry="1.9"/>
		<ellipse class="st3" cx="539" cy="377.6" rx="1.8" ry="1.9"/>
	</g>
	<g>
		<rect x="522" y="392" class="st2" width="62.3" height="14.8"/>
		<ellipse class="st3" cx="527.2" cy="399.4" rx="1.8" ry="1.9"/>
		<ellipse class="st3" cx="533.3" cy="399.4" rx="1.8" ry="1.9"/>
		<ellipse class="st3" cx="539" cy="399.4" rx="1.8" ry="1.9"/>
	</g>
	<g>
		<rect x="522" y="412.1" class="st2" width="62.3" height="14.8"/>
		<ellipse class="st3" cx="527.2" cy="419.5" rx="1.8" ry="1.9"/>
		<ellipse class="st3" cx="533.3" cy="419.5" rx="1.8" ry="1.9"/>
		<ellipse class="st3" cx="539" cy="419.5" rx="1.8" ry="1.9"/>
	</g>
	<g>
		<rect x="522" y="432.3" class="st2" width="62.3" height="14.8"/>
		<ellipse class="st3" cx="527.2" cy="439.7" rx="1.8" ry="1.9"/>
		<ellipse class="st3" cx="533.3" cy="439.7" rx="1.8" ry="1.9"/>
		<ellipse class="st3" cx="539" cy="439.7" rx="1.8" ry="1.9"/>
	</g>
	<line class="st0" x1="558.8" y1="370.2" x2="564.7" y2="370.2"/>
</g>
<rect x="454.9" y="513.8" class="st0" width="61.9" height="58.4"/>
<rect x="477.1" y="518.5" class="st0" width="5.8" height="9.3"/>
<rect x="487.2" y="518.5" class="st0" width="5.8" height="9.3"/>
<rect x="497.3" y="518.5" class="st0" width="5.8" height="9.3"/>
<rect x="507.5" y="518.5" class="st0" width="5.8" height="9.3"/>
<rect x="477.1" y="531.4" class="st0" width="5.8" height="9.3"/>
<rect x="487.2" y="531.4" class="st0" width="5.8" height="9.3"/>
<rect x="497.3" y="531.4" class="st0" width="5.8" height="9.3"/>
<rect x="507.5" y="531.4" class="st0" width="5.8" height="9.3"/>
<rect x="477.1" y="544.2" class="st0" width="5.8" height="9.3"/>
<rect x="487.2" y="544.2" class="st0" width="5.8" height="9.3"/>
<rect x="497.3" y="544.2" class="st0" width="5.8" height="9.3"/>
<rect x="507.5" y="544.2" class="st0" width="5.8" height="9.3"/>
<rect x="477.1" y="557" class="st0" width="5.8" height="9.3"/>
<rect x="467.8" y="518.5" class="st0" width="5.8" height="9.3"/>
<rect x="467.8" y="531.4" class="st0" width="5.8" height="9.3"/>
<rect x="467.8" y="544.2" class="st0" width="5.8" height="9.3"/>
<rect x="467.8" y="557" class="st0" width="5.8" height="9.3"/>
<rect x="487.2" y="557" class="st0" width="5.8" height="9.3"/>
<rect x="497.3" y="557" class="st0" width="5.8" height="9.3"/>
<rect x="507.5" y="557" class="st0" width="5.8" height="9.3"/>
<rect x="651.7" y="55.3" class="st2" width="24.5" height="45.5"/>
<rect x="656.4" y="59.9" class="st2" width="5.8" height="9.3"/>
<rect x="666.5" y="59.9" class="st2" width="5.8" height="9.3"/>
<rect x="656.4" y="72.8" class="st2" width="5.8" height="9.3"/>
<rect x="666.5" y="72.8" class="st2" width="5.8" height="9.3"/>
<rect x="656.4" y="85.6" class="st2" width="5.8" height="9.3"/>
<rect x="666.5" y="85.6" class="st2" width="5.8" height="9.3"/>
<rect x="619.6" y="498.7" class="st0" width="44.4" height="73.6"/>
<rect x="624.2" y="503.3" class="st0" width="5.8" height="9.3"/>
<rect x="634.3" y="503.3" class="st0" width="5.8" height="9.3"/>
<rect x="644.5" y="503.3" class="st0" width="5.8" height="9.3"/>
<rect x="654.6" y="503.3" class="st0" width="5.8" height="9.3"/>
<rect x="624.2" y="516.2" class="st0" width="5.8" height="9.3"/>
<rect x="634.3" y="516.2" class="st0" width="5.8" height="9.3"/>
<rect x="644.5" y="516.2" class="st0" width="5.8" height="9.3"/>
<rect x="654.6" y="516.2" class="st0" width="5.8" height="9.3"/>
<rect x="493" y="52.1" class="st2" width="85.2" height="32.7"/>
<rect x="497.7" y="56.7" class="st2" width="5.8" height="9.3"/>
<rect x="507.8" y="56.7" class="st2" width="5.8" height="9.3"/>
<rect x="517.9" y="56.7" class="st2" width="5.8" height="9.3"/>
<rect x="528" y="56.7" class="st2" width="5.8" height="9.3"/>
<rect x="497.7" y="69.6" class="st2" width="5.8" height="9.3"/>
<rect x="507.8" y="69.6" class="st2" width="5.8" height="9.3"/>
<rect x="517.9" y="69.6" class="st2" width="5.8" height="9.3"/>
<rect x="528" y="69.6" class="st2" width="5.8" height="9.3"/>
<rect x="537.4" y="56.7" class="st2" width="5.8" height="9.3"/>
<rect x="547.5" y="56.7" class="st2" width="5.8" height="9.3"/>
<rect x="557.6" y="56.7" class="st2" width="5.8" height="9.3"/>
<rect x="567.7" y="56.7" class="st2" width="5.8" height="9.3"/>
<rect x="537.4" y="69.6" class="st2" width="5.8" height="9.3"/>
<rect x="547.5" y="69.6" class="st2" width="5.8" height="9.3"/>
<rect x="557.6" y="69.6" class="st2" width="5.8" height="9.3"/>
<rect x="567.7" y="69.6" class="st2" width="5.8" height="9.3"/>
<rect x="624.2" y="529" class="st0" width="5.8" height="9.3"/>
<rect x="634.3" y="529" class="st0" width="5.8" height="9.3"/>
<rect x="644.5" y="529" class="st0" width="5.8" height="9.3"/>
<rect x="654.6" y="529" class="st0" width="5.8" height="9.3"/>
<rect x="624.2" y="541.9" class="st0" width="5.8" height="9.3"/>
<rect x="634.3" y="541.9" class="st0" width="5.8" height="9.3"/>
<rect x="644.5" y="541.9" class="st0" width="5.8" height="9.3"/>
<rect x="654.6" y="541.9" class="st0" width="5.8" height="9.3"/>
<rect x="624.2" y="554.7" class="st0" width="5.8" height="9.3"/>
<rect x="634.3" y="554.7" class="st0" width="5.8" height="9.3"/>
<rect x="644.5" y="554.7" class="st0" width="5.8" height="9.3"/>
<rect x="654.6" y="554.7" class="st0" width="5.8" height="9.3"/>
<text transform="matrix(1 0 0 1 221.9072 65.9461)" class="st4 st5">172.16.12.x</text>
<text transform="matrix(1 0 0 1 9.9072 51.9461)" class="st4 st5">172.16.45.x</text>
<text transform="matrix(1 0 0 1 482.9072 29.9461)" class="st4 st5">128.122.112.45</text>
<text transform="matrix(1 0 0 1 646.9072 21.9461)" class="st4 st5">128.122.112.12</text>
<text transform="matrix(1 0 0 1 646.9072 45.9461)" class="st4 st5">172.22.15.x</text>
<text transform="matrix(1 0 0 1 30.9072 211.9461)" class="st4 st5">172.16.34.x</text>
<text transform="matrix(1 0 0 1 307.9072 155.9461)"><tspan x="0" y="0" class="st4 st5">172.16.x.x</tspan><tspan x="0" y="21.6" class="st4 st5">128.122.151.23</tspan></text>
<text transform="matrix(1 0 0 1 632.9072 167.9461)" class="st4 st5">128.122.112.x</text>
<text transform="matrix(1 0 0 1 601.9072 406.9461)" class="st4 st5">128.122.6.x</text>
<text transform="matrix(1 0 0 1 366.9072 425.9461)" class="st4 st5">128.122.23.x</text>
<text transform="matrix(1 0 0 1 505.9072 290.9461)" class="st4 st5">128.122.x.x</text>
<g>
	<rect x="151.8" y="49.8" class="st1" width="54.1" height="59.5"/>
	<g>
		<rect x="196.9" y="56.4" class="st0" width="5.8" height="42.9"/>
		<rect x="182.9" y="56.4" class="st0" width="5.8" height="42.9"/>
		<rect x="168.9" y="56.4" class="st0" width="5.8" height="42.9"/>
		<rect x="154.8" y="56.4" class="st0" width="5.8" height="42.9"/>
	</g>
	<rect x="149" y="102.5" class="st0" width="59.5" height="3.5"/>
	<rect x="145.3" y="110.1" class="st0" width="67.7" height="3.5"/>
	<polygon class="st2" points="209.4,51.6 148.1,51.6 178.8,29.9 	"/>
</g>
<g>
	<rect x="61.7" y="84" class="st1" width="54.1" height="59.5"/>
	<g>
		<rect x="106.8" y="90.6" class="st0" width="5.8" height="42.9"/>
		<rect x="92.8" y="90.6" class="st0" width="5.8" height="42.9"/>
		<rect x="78.8" y="90.6" class="st0" width="5.8" height="42.9"/>
		<rect x="64.8" y="90.6" class="st0" width="5.8" height="42.9"/>
	</g>
	<rect x="58.9" y="136.7" class="st0" width="59.5" height="3.5"/>
	<rect x="55.2" y="144.4" class="st0" width="67.7" height="3.5"/>
	<polygon class="st2" points="119.3,85.8 58.1,85.8 88.7,64.2 	"/>
</g>
<g>
	<rect x="140.9" y="170.5" class="st1" width="54.1" height="59.5"/>
	<g>
		<rect x="186.1" y="177.1" class="st0" width="5.8" height="42.9"/>
		<rect x="172.1" y="177.1" class="st0" width="5.8" height="42.9"/>
		<rect x="158" y="177.1" class="st0" width="5.8" height="42.9"/>
		<rect x="144" y="177.1" class="st0" width="5.8" height="42.9"/>
	</g>
	<rect x="138.2" y="223.2" class="st0" width="59.5" height="3.5"/>
	<rect x="134.5" y="230.8" class="st0" width="67.7" height="3.5"/>
	<polygon class="st2" points="198.6,172.3 137.3,172.3 168,150.7 	"/>
</g>
<g>
	<rect x="170.5" y="366.3" class="st1" width="54.1" height="59.5"/>
	<g>
		<rect x="215.6" y="372.9" class="st0" width="5.8" height="42.9"/>
		<rect x="201.6" y="372.9" class="st0" width="5.8" height="42.9"/>
		<rect x="187.6" y="372.9" class="st0" width="5.8" height="42.9"/>
		<rect x="173.6" y="372.9" class="st0" width="5.8" height="42.9"/>
	</g>
	<rect x="167.7" y="419" class="st0" width="59.5" height="3.5"/>
	<rect x="164.1" y="426.6" class="st0" width="67.7" height="3.5"/>
	<polygon class="st2" points="228.1,368.1 166.9,368.1 197.5,346.5 	"/>
</g>
<g>
	<rect x="197.5" y="467.2" class="st1" width="54.1" height="59.5"/>
	<g>
		<rect x="242.6" y="473.8" class="st0" width="5.8" height="42.9"/>
		<rect x="228.6" y="473.8" class="st0" width="5.8" height="42.9"/>
		<rect x="214.6" y="473.8" class="st0" width="5.8" height="42.9"/>
		<rect x="200.6" y="473.8" class="st0" width="5.8" height="42.9"/>
	</g>
	<rect x="194.8" y="519.9" class="st0" width="59.5" height="3.5"/>
	<rect x="191.1" y="527.5" class="st0" width="67.7" height="3.5"/>
	<polygon class="st2" points="255.2,469 193.9,469 224.5,447.4 	"/>
</g>
</svg>
