<?xml version="1.0" encoding="utf-8"?>
<!-- Generator: Adobe Illustrator 21.1.0, SVG Export Plug-In . SVG Version: 6.00 Build 0)  -->
<svg version="1.1" id="Layer_1" xmlns="http://www.w3.org/2000/svg" xmlns:xlink="http://www.w3.org/1999/xlink" x="0px" y="0px"
	 viewBox="0 0 792 612" style="enable-background:new 0 0 792 612;" xml:space="preserve">
<style type="text/css">
	.st0{fill:none;stroke:#231F20;stroke-width:1.25;stroke-linecap:round;stroke-miterlimit:10;}
	.st1{fill:none;stroke:#000000;}
	.st2{fill:#FFFFFF;stroke:#000000;stroke-width:1.0489;}
	.st3{fill:none;stroke:#000000;stroke-width:0.7899;}
	.st4{fill:#FFFFFF;stroke:#000000;stroke-width:0.5223;stroke-linecap:round;}
	.st5{fill:#FFFFFF;stroke:#231F20;stroke-width:1.25;stroke-linecap:round;stroke-miterlimit:10;}
	.st6{fill:#231F20;stroke:#FFFFFF;stroke-width:1.25;stroke-linecap:round;stroke-miterlimit:10;}
	.st7{fill:#231F20;stroke:#FFFFFF;stroke-linecap:round;stroke-miterlimit:10;}
	.st8{fill:none;stroke:#231F20;stroke-width:1.25;stroke-linecap:round;}
	.st9{fill:none;stroke:#231F20;stroke-miterlimit:10;}
	.st10{fill:#231F20;}
	.st11{fill:none;stroke:#231F20;stroke-width:0.5;stroke-miterlimit:10;}
	.st12{fill:#FFFFFF;}
	.st13{fill:none;stroke:#000000;stroke-miterlimit:10;}
	.st14{fill:#FFFFFF;stroke:#000000;stroke-miterlimit:10;}
	.st15{font-family:'Helvetica';}
	.st16{font-size:18px;}
</style>
<line class="st0" x1="190.2" y1="359.1" x2="267.3" y2="286.6"/>
<line class="st0" x1="435.1" y1="280.1" x2="350.9" y2="217.9"/>
<line class="st0" x1="361.3" y1="385.1" x2="435.1" y2="280.1"/>
<line class="st0" x1="270.6" y1="309.9" x2="361.3" y2="385.1"/>
<line class="st0" x1="349" y1="221.8" x2="270.6" y2="309.9"/>
<line class="st0" x1="433.2" y1="282" x2="554.4" y2="316.4"/>
<line class="st0" x1="449.4" y1="433.7" x2="554.4" y2="316.4"/>
<line class="st0" x1="361.3" y1="385.1" x2="449.4" y2="433.7"/>
<line class="st0" x1="553.7" y1="319" x2="627.6" y2="258.7"/>
<line class="st0" x1="627.6" y1="371.5" x2="553.7" y2="319"/>
<line class="st0" x1="678.1" y1="388.3" x2="627.6" y2="369.5"/>
<line class="st0" x1="716.4" y1="425.9" x2="627.6" y2="369.5"/>
<line class="st0" x1="671.7" y1="474.5" x2="627.6" y2="369.5"/>
<line class="st0" x1="83.9" y1="263.9" x2="133.2" y2="298.2"/>
<line class="st0" x1="38.6" y1="262.6" x2="133.2" y2="298.2"/>
<line class="st0" x1="81.3" y1="307.3" x2="133.2" y2="298.2"/>
<line class="st0" x1="37.9" y1="344.9" x2="97.5" y2="359.1"/>
<line class="st0" x1="50.9" y1="394.1" x2="97.5" y2="359.1"/>
<line class="st0" x1="95.6" y1="457" x2="123.5" y2="423.9"/>
<line class="st0" x1="138.4" y1="463.5" x2="123.5" y2="423.9"/>
<line class="st1" x1="630.8" y1="258.7" x2="643.2" y2="217.9"/>
<line class="st1" x1="682" y1="225" x2="630.8" y2="258.7"/>
<line class="st1" x1="691.8" y1="295.6" x2="630.8" y2="258.7"/>
<line class="st0" x1="130.6" y1="298.2" x2="192.8" y2="357.8"/>
<line class="st0" x1="97.5" y1="359.1" x2="196" y2="359.1"/>
<line class="st0" x1="123.5" y1="423.9" x2="196" y2="359.1"/>
<line class="st0" x1="476" y1="126.5" x2="435.1" y2="156.3"/>
<line class="st0" x1="500.6" y1="144" x2="435.1" y2="156.3"/>
<line class="st0" x1="473.4" y1="188.7" x2="435.1" y2="156.3"/>
<line class="st0" x1="268.4" y1="188.4" x2="347" y2="223.7"/>
<line class="st0" x1="356.7" y1="134.9" x2="347" y2="223.7"/>
<line class="st0" x1="413.1" y1="162.8" x2="347" y2="223.7"/>
<line class="st0" x1="388.5" y1="70.1" x2="356.7" y2="92.2"/>
<line class="st0" x1="400.2" y1="99.9" x2="356.7" y2="92.2"/>
<g>
	<path class="st2" d="M260.3,91.8c0,0.8-0.9,1.5-2,1.5h-9.6c-1.1,0-2-0.7-2-1.5V71.3c0-0.8,0.9-1.5,2-1.5h9.6c1.1,0,2,0.7,2,1.5
		V91.8z"/>
	<rect x="248.6" y="72.7" class="st3" width="9.9" height="16.6"/>
	<g>
		<g>
			<ellipse class="st4" cx="253.5" cy="91.2" rx="1" ry="0.9"/>
		</g>
	</g>
</g>
<g>
	<path class="st5" d="M233.1,122.1h-26.8c-2.1,0-3.9-1.7-3.9-3.9v-0.5c0-2.1,1.7-3.9,3.9-3.9h26.8c2.1,0,3.9,1.7,3.9,3.9v0.5
		C237,120.4,235.2,122.1,233.1,122.1z"/>
	<ellipse class="st6" cx="205.3" cy="118" rx="1" ry="1.1"/>
	<ellipse class="st6" cx="208.7" cy="118" rx="1" ry="1.1"/>
	<ellipse class="st6" cx="211.8" cy="118" rx="1" ry="1.1"/>
	<circle class="st7" cx="230.5" cy="102.4" r="1.6"/>
	<line class="st0" x1="230.5" y1="113.5" x2="230.5" y2="102.5"/>
</g>
<path class="st8" d="M244.7,72.5c-0.2-0.6-0.2-1.2-0.2-1.9c0-0.6,0.1-1.3,0.2-1.9"/>
<path class="st8" d="M241.6,73.3c-0.2-0.8-0.3-1.7-0.3-2.7s0.1-1.8,0.3-2.7"/>
<path class="st8" d="M238.3,74.2c-0.3-1.1-0.5-2.3-0.5-3.6c0-1.2,0.2-2.4,0.5-3.6"/>
<path class="st8" d="M235.3,75c-0.4-1.4-0.6-2.8-0.6-4.3c0-1.5,0.2-3,0.6-4.3"/>
<g>
	<g>
		<path class="st2" d="M759.2,190.9c0,0.8-0.9,1.5-2,1.5h-9.6c-1.1,0-2-0.7-2-1.5v-20.5c0-0.8,0.9-1.5,2-1.5h9.6c1.1,0,2,0.7,2,1.5
			V190.9z"/>
		<rect x="747.5" y="171.9" class="st3" width="9.9" height="16.6"/>
		<g>
			<g>
				<ellipse class="st4" cx="752.5" cy="190.4" rx="1" ry="0.9"/>
			</g>
		</g>
	</g>
	<path class="st8" d="M743.6,171.7c-0.2-0.6-0.2-1.2-0.2-1.9c0-0.6,0.1-1.3,0.2-1.9"/>
	<path class="st8" d="M740.6,172.5c-0.2-0.8-0.3-1.7-0.3-2.7c0-0.9,0.1-1.8,0.3-2.7"/>
	<path class="st8" d="M737.3,173.4c-0.3-1.1-0.5-2.3-0.5-3.6c0-1.2,0.2-2.4,0.5-3.6"/>
	<path class="st8" d="M734.3,174.1c-0.4-1.4-0.6-2.8-0.6-4.3c0-1.5,0.2-3,0.6-4.3"/>
</g>
<g>
	<g>
		<path class="st2" d="M756.7,229.2c0,0.8-0.9,1.5-2,1.5h-9.6c-1.1,0-2-0.7-2-1.5v-20.5c0-0.8,0.9-1.5,2-1.5h9.6c1.1,0,2,0.7,2,1.5
			V229.2z"/>
		<rect x="744.9" y="210.1" class="st3" width="9.9" height="16.6"/>
		<g>
			<g>
				<ellipse class="st4" cx="749.9" cy="228.6" rx="1" ry="0.9"/>
			</g>
		</g>
	</g>
	<path class="st8" d="M741,209.9c-0.2-0.6-0.2-1.2-0.2-1.9c0-0.6,0.1-1.3,0.2-1.9"/>
	<path class="st8" d="M738,210.7c-0.2-0.8-0.3-1.7-0.3-2.7s0.1-1.8,0.3-2.7"/>
	<path class="st8" d="M734.7,211.6c-0.3-1.1-0.5-2.3-0.5-3.6c0-1.2,0.2-2.4,0.5-3.6"/>
	<path class="st8" d="M731.7,212.4c-0.4-1.4-0.6-2.8-0.6-4.3c0-1.5,0.2-3,0.6-4.3"/>
</g>
<g>
	<g>
		<path class="st2" d="M744.3,286.2c0,0.8-0.9,1.5-2,1.5h-9.6c-1.1,0-2-0.7-2-1.5v-20.5c0-0.8,0.9-1.5,2-1.5h9.6c1.1,0,2,0.7,2,1.5
			V286.2z"/>
		<rect x="732.6" y="267.1" class="st3" width="9.9" height="16.6"/>
		<g>
			<g>
				<ellipse class="st4" cx="737.6" cy="285.6" rx="1" ry="0.9"/>
			</g>
		</g>
	</g>
	<path class="st8" d="M728.7,266.9c-0.2-0.6-0.2-1.2-0.2-1.9c0-0.6,0.1-1.3,0.2-1.9"/>
	<path class="st8" d="M725.7,267.7c-0.2-0.8-0.3-1.7-0.3-2.7s0.1-1.8,0.3-2.7"/>
	<path class="st8" d="M722.4,268.6c-0.3-1.1-0.5-2.3-0.5-3.6c0-1.2,0.2-2.4,0.5-3.6"/>
	<path class="st8" d="M719.4,269.4c-0.4-1.4-0.6-2.8-0.6-4.3c0-1.5,0.2-3,0.6-4.3"/>
</g>
<g>
	<g>
		<path class="st2" d="M741.7,317.9c0,0.8-0.9,1.5-2,1.5h-9.6c-1.1,0-2-0.7-2-1.5v-20.5c0-0.8,0.9-1.5,2-1.5h9.6c1.1,0,2,0.7,2,1.5
			V317.9z"/>
		<rect x="730" y="298.9" class="st3" width="9.9" height="16.6"/>
		<g>
			<g>
				<ellipse class="st4" cx="735" cy="317.4" rx="1" ry="0.9"/>
			</g>
		</g>
	</g>
	<path class="st8" d="M726.1,298.7c-0.2-0.6-0.2-1.2-0.2-1.9c0-0.6,0.1-1.3,0.2-1.9"/>
	<path class="st8" d="M723.1,299.5c-0.2-0.8-0.3-1.7-0.3-2.7c0-0.9,0.1-1.8,0.3-2.7"/>
	<path class="st8" d="M719.8,300.4c-0.3-1.1-0.5-2.3-0.5-3.6c0-1.2,0.2-2.4,0.5-3.6"/>
	<path class="st8" d="M716.8,301.2c-0.4-1.4-0.6-2.8-0.6-4.3c0-1.5,0.2-3,0.6-4.3"/>
</g>
<g>
	<g>
		<path class="st2" d="M770.9,358.1c0,0.8-0.9,1.5-2,1.5h-9.6c-1.1,0-2-0.7-2-1.5v-20.5c0-0.8,0.9-1.5,2-1.5h9.6c1.1,0,2,0.7,2,1.5
			V358.1z"/>
		<rect x="759.2" y="339.1" class="st3" width="9.9" height="16.6"/>
		<g>
			<g>
				<ellipse class="st4" cx="764.1" cy="357.5" rx="1" ry="0.9"/>
			</g>
		</g>
	</g>
	<path class="st8" d="M755.3,338.8c-0.2-0.6-0.2-1.2-0.2-1.9c0-0.6,0.1-1.3,0.2-1.9"/>
	<path class="st8" d="M752.3,339.6c-0.2-0.8-0.3-1.7-0.3-2.7s0.1-1.8,0.3-2.7"/>
	<path class="st8" d="M748.9,340.5c-0.3-1.1-0.5-2.3-0.5-3.6c0-1.2,0.2-2.4,0.5-3.6"/>
	<path class="st8" d="M746,341.3c-0.4-1.4-0.6-2.8-0.6-4.3c0-1.5,0.2-3,0.6-4.3"/>
</g>
<g>
	<g>
		<path class="st2" d="M768.3,389.9c0,0.8-0.9,1.5-2,1.5h-9.6c-1.1,0-2-0.7-2-1.5v-20.5c0-0.8,0.9-1.5,2-1.5h9.6c1.1,0,2,0.7,2,1.5
			V389.9z"/>
		<rect x="756.6" y="370.8" class="st3" width="9.9" height="16.6"/>
		<g>
			<g>
				<ellipse class="st4" cx="761.5" cy="389.3" rx="1" ry="0.9"/>
			</g>
		</g>
	</g>
	<path class="st8" d="M752.7,370.6c-0.2-0.6-0.2-1.2-0.2-1.9c0-0.6,0.1-1.3,0.2-1.9"/>
	<path class="st8" d="M749.7,371.4c-0.2-0.8-0.3-1.7-0.3-2.7c0-0.9,0.1-1.8,0.3-2.7"/>
	<path class="st8" d="M746.3,372.3c-0.3-1.1-0.5-2.3-0.5-3.6c0-1.2,0.2-2.4,0.5-3.6"/>
	<path class="st8" d="M743.4,373.1c-0.4-1.4-0.6-2.8-0.6-4.3c0-1.5,0.2-3,0.6-4.3"/>
</g>
<g>
	<g>
		<path class="st2" d="M757.3,444.9c0,0.8-0.9,1.5-2,1.5h-9.6c-1.1,0-2-0.7-2-1.5v-20.5c0-0.8,0.9-1.5,2-1.5h9.6c1.1,0,2,0.7,2,1.5
			V444.9z"/>
		<rect x="745.6" y="425.9" class="st3" width="9.9" height="16.6"/>
		<g>
			<g>
				<ellipse class="st4" cx="750.5" cy="444.4" rx="1" ry="0.9"/>
			</g>
		</g>
	</g>
	<path class="st8" d="M741.7,425.7c-0.2-0.6-0.2-1.2-0.2-1.9c0-0.6,0.1-1.3,0.2-1.9"/>
	<path class="st8" d="M738.7,426.5c-0.2-0.8-0.3-1.7-0.3-2.7s0.1-1.8,0.3-2.7"/>
	<path class="st8" d="M735.3,427.4c-0.3-1.1-0.5-2.3-0.5-3.6c0-1.2,0.2-2.4,0.5-3.6"/>
	<path class="st8" d="M732.4,428.2c-0.4-1.4-0.6-2.8-0.6-4.3c0-1.5,0.2-3,0.6-4.3"/>
</g>
<g>
	<g>
		<path class="st2" d="M754.7,476.7c0,0.8-0.9,1.5-2,1.5h-9.6c-1.1,0-2-0.7-2-1.5v-20.5c0-0.8,0.9-1.5,2-1.5h9.6c1.1,0,2,0.7,2,1.5
			V476.7z"/>
		<rect x="743" y="457.7" class="st3" width="9.9" height="16.6"/>
		<g>
			<g>
				<ellipse class="st4" cx="747.9" cy="476.1" rx="1" ry="0.9"/>
			</g>
		</g>
	</g>
	<path class="st8" d="M739.1,457.4c-0.2-0.6-0.2-1.2-0.2-1.9c0-0.6,0.1-1.3,0.2-1.9"/>
	<path class="st8" d="M736.1,458.2c-0.2-0.8-0.3-1.7-0.3-2.7s0.1-1.8,0.3-2.7"/>
	<path class="st8" d="M732.7,459.1c-0.3-1.1-0.5-2.3-0.5-3.6c0-1.2,0.2-2.4,0.5-3.6"/>
	<path class="st8" d="M729.8,459.9c-0.4-1.4-0.6-2.8-0.6-4.3c0-1.5,0.2-3,0.6-4.3"/>
</g>
<g>
	<g>
		<path class="st2" d="M712.6,487.7c0,0.8-0.9,1.5-2,1.5H701c-1.1,0-2-0.7-2-1.5v-20.5c0-0.8,0.9-1.5,2-1.5h9.6c1.1,0,2,0.7,2,1.5
			V487.7z"/>
		<rect x="700.9" y="468.7" class="st3" width="9.9" height="16.6"/>
		<g>
			<g>
				<ellipse class="st4" cx="705.8" cy="487.1" rx="1" ry="0.9"/>
			</g>
		</g>
	</g>
	<path class="st8" d="M697,468.4c-0.2-0.6-0.2-1.2-0.2-1.9c0-0.6,0.1-1.3,0.2-1.9"/>
	<path class="st8" d="M694,469.3c-0.2-0.8-0.3-1.7-0.3-2.7s0.1-1.8,0.3-2.7"/>
	<path class="st8" d="M690.6,470.1c-0.3-1.1-0.5-2.3-0.5-3.6c0-1.2,0.2-2.4,0.5-3.6"/>
	<path class="st8" d="M687.7,470.9c-0.4-1.4-0.6-2.8-0.6-4.3c0-1.5,0.2-3,0.6-4.3"/>
</g>
<g>
	<g>
		<path class="st2" d="M710,519.5c0,0.8-0.9,1.5-2,1.5h-9.6c-1.1,0-2-0.7-2-1.5V499c0-0.8,0.9-1.5,2-1.5h9.6c1.1,0,2,0.7,2,1.5
			V519.5z"/>
		<rect x="698.3" y="500.4" class="st3" width="9.9" height="16.6"/>
		<g>
			<g>
				<ellipse class="st4" cx="703.2" cy="518.9" rx="1" ry="0.9"/>
			</g>
		</g>
	</g>
	<path class="st8" d="M694.4,500.2c-0.2-0.6-0.2-1.2-0.2-1.9c0-0.6,0.1-1.3,0.2-1.9"/>
	<path class="st8" d="M691.4,501c-0.2-0.8-0.3-1.7-0.3-2.7s0.1-1.8,0.3-2.7"/>
	<path class="st8" d="M688,501.9c-0.3-1.1-0.5-2.3-0.5-3.6c0-1.2,0.2-2.4,0.5-3.6"/>
	<path class="st8" d="M685.1,502.7c-0.4-1.4-0.6-2.8-0.6-4.3c0-1.5,0.2-3,0.6-4.3"/>
</g>
<g>
	<g>
		<path class="st9" d="M198,97.7h-33.8c-2,0-3.5-1.6-3.5-3.5V72c0-2,1.6-3.5,3.5-3.5H198c2,0,3.5,1.6,3.5,3.5v22.1
			C201.5,96.1,200,97.7,198,97.7z"/>
		<g>
			<path class="st9" d="M201.1,109h-38.5c-2.4,0-3.9-1.7-3.4-3.8l0.9-3.5c0.5-2.1,2.7-3.8,4.7-3.8h33.3c2.1,0,4.3,1.7,5,3.8l1.1,3.5
				C204.9,107.3,203.5,109,201.1,109z"/>
		</g>
		<path class="st9" d="M195,95.7h-27.8c-1.6,0-2.9-1.3-2.9-2.9V74.7c0-1.6,1.3-2.9,2.9-2.9H195c1.6,0,2.9,1.3,2.9,2.9v18.2
			C197.9,94.4,196.6,95.7,195,95.7z"/>
		<circle class="st10" cx="181.4" cy="70.5" r="0.6"/>
		<path class="st11" d="M164,99.9h-0.7c-0.2,0-0.3-0.1-0.3-0.3v0c0-0.2,0.1-0.3,0.3-0.3h0.7c0.2,0,0.3,0.1,0.3,0.3v0
			C164.3,99.8,164.1,99.9,164,99.9z"/>
		<path class="st11" d="M197.7,99.9H197c-0.2,0-0.3-0.1-0.3-0.3v0c0-0.2,0.1-0.3,0.3-0.3h0.7c0.2,0,0.3,0.1,0.3,0.3v0
			C198,99.8,197.8,99.9,197.7,99.9z"/>
		<path class="st11" d="M195.1,99.9h-0.7c-0.2,0-0.3-0.1-0.3-0.3v0c0-0.2,0.1-0.3,0.3-0.3h0.7c0.2,0,0.3,0.1,0.3,0.3v0
			C195.4,99.8,195.2,99.9,195.1,99.9z"/>
		<path class="st11" d="M192.5,99.9h-0.7c-0.2,0-0.3-0.1-0.3-0.3v0c0-0.2,0.1-0.3,0.3-0.3h0.7c0.2,0,0.3,0.1,0.3,0.3v0
			C192.8,99.8,192.7,99.9,192.5,99.9z"/>
		<path class="st11" d="M189.9,99.9h-0.7c-0.2,0-0.3-0.1-0.3-0.3v0c0-0.2,0.1-0.3,0.3-0.3h0.7c0.2,0,0.3,0.1,0.3,0.3v0
			C190.2,99.8,190.1,99.9,189.9,99.9z"/>
		<path class="st11" d="M187.3,99.9h-0.7c-0.2,0-0.3-0.1-0.3-0.3v0c0-0.2,0.1-0.3,0.3-0.3h0.7c0.2,0,0.3,0.1,0.3,0.3v0
			C187.6,99.8,187.5,99.9,187.3,99.9z"/>
		<path class="st11" d="M184.7,99.9H184c-0.2,0-0.3-0.1-0.3-0.3v0c0-0.2,0.1-0.3,0.3-0.3h0.7c0.2,0,0.3,0.1,0.3,0.3v0
			C185,99.8,184.9,99.9,184.7,99.9z"/>
		<path class="st11" d="M182.1,99.9h-0.7c-0.2,0-0.3-0.1-0.3-0.3v0c0-0.2,0.1-0.3,0.3-0.3h0.7c0.2,0,0.3,0.1,0.3,0.3v0
			C182.4,99.8,182.3,99.9,182.1,99.9z"/>
		<path class="st11" d="M179.5,99.9h-0.7c-0.2,0-0.3-0.1-0.3-0.3v0c0-0.2,0.1-0.3,0.3-0.3h0.7c0.2,0,0.3,0.1,0.3,0.3v0
			C179.8,99.8,179.7,99.9,179.5,99.9z"/>
		<path class="st11" d="M176.9,99.9h-0.7c-0.2,0-0.3-0.1-0.3-0.3v0c0-0.2,0.1-0.3,0.3-0.3h0.7c0.2,0,0.3,0.1,0.3,0.3v0
			C177.2,99.8,177.1,99.9,176.9,99.9z"/>
		<path class="st11" d="M174.3,99.9h-0.7c-0.2,0-0.3-0.1-0.3-0.3v0c0-0.2,0.1-0.3,0.3-0.3h0.7c0.2,0,0.3,0.1,0.3,0.3v0
			C174.6,99.8,174.5,99.9,174.3,99.9z"/>
		<path class="st11" d="M171.7,99.9h-0.7c-0.2,0-0.3-0.1-0.3-0.3v0c0-0.2,0.1-0.3,0.3-0.3h0.7c0.2,0,0.3,0.1,0.3,0.3v0
			C172.1,99.8,171.9,99.9,171.7,99.9z"/>
		<path class="st11" d="M169.2,99.9h-0.7c-0.2,0-0.3-0.1-0.3-0.3v0c0-0.2,0.1-0.3,0.3-0.3h0.7c0.2,0,0.3,0.1,0.3,0.3v0
			C169.5,99.8,169.3,99.9,169.2,99.9z"/>
		<path class="st11" d="M166.6,99.9h-0.7c-0.2,0-0.3-0.1-0.3-0.3v0c0-0.2,0.1-0.3,0.3-0.3h0.7c0.2,0,0.3,0.1,0.3,0.3v0
			C166.9,99.8,166.7,99.9,166.6,99.9z"/>
		<path class="st11" d="M200.3,99.9h-0.7c-0.2,0-0.3-0.1-0.3-0.3v0c0-0.2,0.1-0.3,0.3-0.3h0.7c0.2,0,0.3,0.1,0.3,0.3v0
			C200.6,99.8,200.4,99.9,200.3,99.9z"/>
		<path class="st11" d="M164.6,101.2h-0.7c-0.2,0-0.3-0.1-0.3-0.3v0c0-0.2,0.1-0.3,0.3-0.3h0.7c0.2,0,0.3,0.1,0.3,0.3v0
			C164.9,101.1,164.8,101.2,164.6,101.2z"/>
		<path class="st11" d="M198.3,101.2h-0.7c-0.2,0-0.3-0.1-0.3-0.3v0c0-0.2,0.1-0.3,0.3-0.3h0.7c0.2,0,0.3,0.1,0.3,0.3v0
			C198.6,101.1,198.5,101.2,198.3,101.2z"/>
		<path class="st11" d="M195.7,101.2H195c-0.2,0-0.3-0.1-0.3-0.3v0c0-0.2,0.1-0.3,0.3-0.3h0.7c0.2,0,0.3,0.1,0.3,0.3v0
			C196,101.1,195.9,101.2,195.7,101.2z"/>
		<path class="st11" d="M193.1,101.2h-0.7c-0.2,0-0.3-0.1-0.3-0.3v0c0-0.2,0.1-0.3,0.3-0.3h0.7c0.2,0,0.3,0.1,0.3,0.3v0
			C193.4,101.1,193.3,101.2,193.1,101.2z"/>
		<path class="st11" d="M190.5,101.2h-0.7c-0.2,0-0.3-0.1-0.3-0.3v0c0-0.2,0.1-0.3,0.3-0.3h0.7c0.2,0,0.3,0.1,0.3,0.3v0
			C190.8,101.1,190.7,101.2,190.5,101.2z"/>
		<path class="st11" d="M187.9,101.2h-0.7c-0.2,0-0.3-0.1-0.3-0.3v0c0-0.2,0.1-0.3,0.3-0.3h0.7c0.2,0,0.3,0.1,0.3,0.3v0
			C188.3,101.1,188.1,101.2,187.9,101.2z"/>
		<path class="st11" d="M185.4,101.2h-0.7c-0.2,0-0.3-0.1-0.3-0.3v0c0-0.2,0.1-0.3,0.3-0.3h0.7c0.2,0,0.3,0.1,0.3,0.3v0
			C185.7,101.1,185.5,101.2,185.4,101.2z"/>
		<path class="st11" d="M182.8,101.2h-0.7c-0.2,0-0.3-0.1-0.3-0.3v0c0-0.2,0.1-0.3,0.3-0.3h0.7c0.2,0,0.3,0.1,0.3,0.3v0
			C183.1,101.1,182.9,101.2,182.8,101.2z"/>
		<path class="st11" d="M180.2,101.2h-0.7c-0.2,0-0.3-0.1-0.3-0.3v0c0-0.2,0.1-0.3,0.3-0.3h0.7c0.2,0,0.3,0.1,0.3,0.3v0
			C180.5,101.1,180.3,101.2,180.2,101.2z"/>
		<path class="st11" d="M177.6,101.2h-0.7c-0.2,0-0.3-0.1-0.3-0.3v0c0-0.2,0.1-0.3,0.3-0.3h0.7c0.2,0,0.3,0.1,0.3,0.3v0
			C177.9,101.1,177.7,101.2,177.6,101.2z"/>
		<path class="st11" d="M175,101.2h-0.7c-0.2,0-0.3-0.1-0.3-0.3v0c0-0.2,0.1-0.3,0.3-0.3h0.7c0.2,0,0.3,0.1,0.3,0.3v0
			C175.3,101.1,175.2,101.2,175,101.2z"/>
		<path class="st11" d="M172.4,101.2h-0.7c-0.2,0-0.3-0.1-0.3-0.3v0c0-0.2,0.1-0.3,0.3-0.3h0.7c0.2,0,0.3,0.1,0.3,0.3v0
			C172.7,101.1,172.6,101.2,172.4,101.2z"/>
		<path class="st11" d="M169.8,101.2h-0.7c-0.2,0-0.3-0.1-0.3-0.3v0c0-0.2,0.1-0.3,0.3-0.3h0.7c0.2,0,0.3,0.1,0.3,0.3v0
			C170.1,101.1,170,101.2,169.8,101.2z"/>
		<path class="st11" d="M167.2,101.2h-0.7c-0.2,0-0.3-0.1-0.3-0.3v0c0-0.2,0.1-0.3,0.3-0.3h0.7c0.2,0,0.3,0.1,0.3,0.3v0
			C167.5,101.1,167.4,101.2,167.2,101.2z"/>
		<path class="st11" d="M200.9,101.2h-0.7c-0.2,0-0.3-0.1-0.3-0.3v0c0-0.2,0.1-0.3,0.3-0.3h0.7c0.2,0,0.3,0.1,0.3,0.3v0
			C201.2,101.1,201.1,101.2,200.9,101.2z"/>
		<path class="st11" d="M164,102.5h-0.7c-0.2,0-0.3-0.1-0.3-0.3v0c0-0.2,0.1-0.3,0.3-0.3h0.7c0.2,0,0.3,0.1,0.3,0.3v0
			C164.3,102.4,164.1,102.5,164,102.5z"/>
		<path class="st11" d="M197.7,102.5H197c-0.2,0-0.3-0.1-0.3-0.3v0c0-0.2,0.1-0.3,0.3-0.3h0.7c0.2,0,0.3,0.1,0.3,0.3v0
			C198,102.4,197.8,102.5,197.7,102.5z"/>
		<path class="st11" d="M195.1,102.5h-0.7c-0.2,0-0.3-0.1-0.3-0.3v0c0-0.2,0.1-0.3,0.3-0.3h0.7c0.2,0,0.3,0.1,0.3,0.3v0
			C195.4,102.4,195.2,102.5,195.1,102.5z"/>
		<path class="st11" d="M192.5,102.5h-0.7c-0.2,0-0.3-0.1-0.3-0.3v0c0-0.2,0.1-0.3,0.3-0.3h0.7c0.2,0,0.3,0.1,0.3,0.3v0
			C192.8,102.4,192.7,102.5,192.5,102.5z"/>
		<path class="st11" d="M189.9,102.5h-0.7c-0.2,0-0.3-0.1-0.3-0.3v0c0-0.2,0.1-0.3,0.3-0.3h0.7c0.2,0,0.3,0.1,0.3,0.3v0
			C190.2,102.4,190.1,102.5,189.9,102.5z"/>
		<path class="st11" d="M187.3,102.5h-0.7c-0.2,0-0.3-0.1-0.3-0.3v0c0-0.2,0.1-0.3,0.3-0.3h0.7c0.2,0,0.3,0.1,0.3,0.3v0
			C187.6,102.4,187.5,102.5,187.3,102.5z"/>
		<path class="st11" d="M184.7,102.5H184c-0.2,0-0.3-0.1-0.3-0.3v0c0-0.2,0.1-0.3,0.3-0.3h0.7c0.2,0,0.3,0.1,0.3,0.3v0
			C185,102.4,184.9,102.5,184.7,102.5z"/>
		<path class="st11" d="M182.1,102.5h-0.7c-0.2,0-0.3-0.1-0.3-0.3v0c0-0.2,0.1-0.3,0.3-0.3h0.7c0.2,0,0.3,0.1,0.3,0.3v0
			C182.4,102.4,182.3,102.5,182.1,102.5z"/>
		<path class="st11" d="M179.5,102.5h-0.7c-0.2,0-0.3-0.1-0.3-0.3v0c0-0.2,0.1-0.3,0.3-0.3h0.7c0.2,0,0.3,0.1,0.3,0.3v0
			C179.8,102.4,179.7,102.5,179.5,102.5z"/>
		<path class="st11" d="M176.9,102.5h-0.7c-0.2,0-0.3-0.1-0.3-0.3v0c0-0.2,0.1-0.3,0.3-0.3h0.7c0.2,0,0.3,0.1,0.3,0.3v0
			C177.2,102.4,177.1,102.5,176.9,102.5z"/>
		<path class="st11" d="M174.3,102.5h-0.7c-0.2,0-0.3-0.1-0.3-0.3v0c0-0.2,0.1-0.3,0.3-0.3h0.7c0.2,0,0.3,0.1,0.3,0.3v0
			C174.6,102.4,174.5,102.5,174.3,102.5z"/>
		<path class="st11" d="M171.7,102.5h-0.7c-0.2,0-0.3-0.1-0.3-0.3v0c0-0.2,0.1-0.3,0.3-0.3h0.7c0.2,0,0.3,0.1,0.3,0.3v0
			C172.1,102.4,171.9,102.5,171.7,102.5z"/>
		<path class="st11" d="M169.2,102.5h-0.7c-0.2,0-0.3-0.1-0.3-0.3v0c0-0.2,0.1-0.3,0.3-0.3h0.7c0.2,0,0.3,0.1,0.3,0.3v0
			C169.5,102.4,169.3,102.5,169.2,102.5z"/>
		<path class="st11" d="M166.6,102.5h-0.7c-0.2,0-0.3-0.1-0.3-0.3v0c0-0.2,0.1-0.3,0.3-0.3h0.7c0.2,0,0.3,0.1,0.3,0.3v0
			C166.9,102.4,166.7,102.5,166.6,102.5z"/>
		<path class="st11" d="M200.3,102.5h-0.7c-0.2,0-0.3-0.1-0.3-0.3v0c0-0.2,0.1-0.3,0.3-0.3h0.7c0.2,0,0.3,0.1,0.3,0.3v0
			C200.6,102.4,200.4,102.5,200.3,102.5z"/>
		<path class="st11" d="M164.6,103.8h-0.7c-0.2,0-0.3-0.1-0.3-0.3v0c0-0.2,0.1-0.3,0.3-0.3h0.7c0.2,0,0.3,0.1,0.3,0.3v0
			C164.9,103.7,164.8,103.8,164.6,103.8z"/>
		<path class="st11" d="M198.3,103.8h-0.7c-0.2,0-0.3-0.1-0.3-0.3v0c0-0.2,0.1-0.3,0.3-0.3h0.7c0.2,0,0.3,0.1,0.3,0.3v0
			C198.6,103.7,198.5,103.8,198.3,103.8z"/>
		<path class="st11" d="M195.7,103.8H195c-0.2,0-0.3-0.1-0.3-0.3v0c0-0.2,0.1-0.3,0.3-0.3h0.7c0.2,0,0.3,0.1,0.3,0.3v0
			C196,103.7,195.9,103.8,195.7,103.8z"/>
		<path class="st11" d="M193.1,103.8h-0.7c-0.2,0-0.3-0.1-0.3-0.3v0c0-0.2,0.1-0.3,0.3-0.3h0.7c0.2,0,0.3,0.1,0.3,0.3v0
			C193.4,103.7,193.3,103.8,193.1,103.8z"/>
		<path class="st11" d="M190.5,103.8h-0.7c-0.2,0-0.3-0.1-0.3-0.3v0c0-0.2,0.1-0.3,0.3-0.3h0.7c0.2,0,0.3,0.1,0.3,0.3v0
			C190.8,103.7,190.7,103.8,190.5,103.8z"/>
		<path class="st11" d="M187.9,103.8h-0.7c-0.2,0-0.3-0.1-0.3-0.3v0c0-0.2,0.1-0.3,0.3-0.3h0.7c0.2,0,0.3,0.1,0.3,0.3v0
			C188.3,103.7,188.1,103.8,187.9,103.8z"/>
		<path class="st11" d="M185.4,103.8h-0.7c-0.2,0-0.3-0.1-0.3-0.3v0c0-0.2,0.1-0.3,0.3-0.3h0.7c0.2,0,0.3,0.1,0.3,0.3v0
			C185.7,103.7,185.5,103.8,185.4,103.8z"/>
		<path class="st11" d="M182.8,103.8h-0.7c-0.2,0-0.3-0.1-0.3-0.3v0c0-0.2,0.1-0.3,0.3-0.3h0.7c0.2,0,0.3,0.1,0.3,0.3v0
			C183.1,103.7,182.9,103.8,182.8,103.8z"/>
		<path class="st11" d="M180.2,103.8h-0.7c-0.2,0-0.3-0.1-0.3-0.3v0c0-0.2,0.1-0.3,0.3-0.3h0.7c0.2,0,0.3,0.1,0.3,0.3v0
			C180.5,103.7,180.3,103.8,180.2,103.8z"/>
		<path class="st11" d="M177.6,103.8h-0.7c-0.2,0-0.3-0.1-0.3-0.3v0c0-0.2,0.1-0.3,0.3-0.3h0.7c0.2,0,0.3,0.1,0.3,0.3v0
			C177.9,103.7,177.7,103.8,177.6,103.8z"/>
		<path class="st11" d="M175,103.8h-0.7c-0.2,0-0.3-0.1-0.3-0.3v0c0-0.2,0.1-0.3,0.3-0.3h0.7c0.2,0,0.3,0.1,0.3,0.3v0
			C175.3,103.7,175.2,103.8,175,103.8z"/>
		<path class="st11" d="M172.4,103.8h-0.7c-0.2,0-0.3-0.1-0.3-0.3v0c0-0.2,0.1-0.3,0.3-0.3h0.7c0.2,0,0.3,0.1,0.3,0.3v0
			C172.7,103.7,172.6,103.8,172.4,103.8z"/>
		<path class="st11" d="M169.8,103.8h-0.7c-0.2,0-0.3-0.1-0.3-0.3v0c0-0.2,0.1-0.3,0.3-0.3h0.7c0.2,0,0.3,0.1,0.3,0.3v0
			C170.1,103.7,170,103.8,169.8,103.8z"/>
		<path class="st11" d="M167.2,103.8h-0.7c-0.2,0-0.3-0.1-0.3-0.3v0c0-0.2,0.1-0.3,0.3-0.3h0.7c0.2,0,0.3,0.1,0.3,0.3v0
			C167.5,103.7,167.4,103.8,167.2,103.8z"/>
		<path class="st11" d="M200.9,103.8h-0.7c-0.2,0-0.3-0.1-0.3-0.3v0c0-0.2,0.1-0.3,0.3-0.3h0.7c0.2,0,0.3,0.1,0.3,0.3v0
			C201.2,103.7,201.1,103.8,200.9,103.8z"/>
		<path class="st11" d="M164,105.1h-0.7c-0.2,0-0.3-0.1-0.3-0.3v0c0-0.2,0.1-0.3,0.3-0.3h0.7c0.2,0,0.3,0.1,0.3,0.3v0
			C164.3,105,164.1,105.1,164,105.1z"/>
		<path class="st11" d="M197.7,105.1H197c-0.2,0-0.3-0.1-0.3-0.3v0c0-0.2,0.1-0.3,0.3-0.3h0.7c0.2,0,0.3,0.1,0.3,0.3v0
			C198,105,197.8,105.1,197.7,105.1z"/>
		<path class="st11" d="M195.1,105.1h-0.7c-0.2,0-0.3-0.1-0.3-0.3v0c0-0.2,0.1-0.3,0.3-0.3h0.7c0.2,0,0.3,0.1,0.3,0.3v0
			C195.4,105,195.2,105.1,195.1,105.1z"/>
		<path class="st11" d="M193.1,105.1h-24c-0.2,0-0.3-0.1-0.3-0.3v0c0-0.2,0.1-0.3,0.3-0.3h24c0.2,0,0.3,0.1,0.3,0.3v0
			C193.4,105,193.3,105.1,193.1,105.1z"/>
		<path class="st11" d="M166.6,105.1h-0.7c-0.2,0-0.3-0.1-0.3-0.3v0c0-0.2,0.1-0.3,0.3-0.3h0.7c0.2,0,0.3,0.1,0.3,0.3v0
			C166.9,105,166.7,105.1,166.6,105.1z"/>
		<path class="st11" d="M200.3,105.1h-0.7c-0.2,0-0.3-0.1-0.3-0.3v0c0-0.2,0.1-0.3,0.3-0.3h0.7c0.2,0,0.3,0.1,0.3,0.3v0
			C200.6,105,200.4,105.1,200.3,105.1z"/>
		<g>
			<path class="st11" d="M184.9,107.7h-6.8c-0.4,0-0.7-0.3-0.6-0.7l0.2-0.6c0.1-0.4,0.5-0.7,0.8-0.7h5.9c0.4,0,0.8,0.3,0.9,0.7
				l0.2,0.6C185.6,107.4,185.3,107.7,184.9,107.7z"/>
		</g>
	</g>
	<path class="st8" d="M203.7,68.2c0.2,0.6,0.2,1.2,0.2,1.9c0,0.6-0.1,1.3-0.2,1.9"/>
	<path class="st8" d="M206.7,67.3c0.2,0.8,0.3,1.7,0.3,2.7c0,0.9-0.1,1.8-0.3,2.7"/>
	<path class="st8" d="M210.1,66.5c0.3,1.1,0.5,2.3,0.5,3.6c0,1.2-0.2,2.4-0.5,3.6"/>
	<path class="st8" d="M213,65.7c0.4,1.4,0.6,2.8,0.6,4.3c0,1.5-0.2,3-0.6,4.3"/>
</g>
<path class="st8" d="M228.8,99.6c0.6-0.2,1.2-0.2,1.9-0.2c0.6,0,1.3,0.1,1.9,0.2"/>
<path class="st8" d="M228,96.5c0.8-0.2,1.7-0.3,2.7-0.3s1.8,0.1,2.7,0.3"/>
<path class="st8" d="M227.1,93.2c1.1-0.3,2.3-0.5,3.6-0.5c1.2,0,2.4,0.2,3.6,0.5"/>
<path class="st8" d="M226.3,90.3c1.4-0.4,2.8-0.6,4.3-0.6c1.5,0,3,0.2,4.3,0.6"/>
<g>
	<g>
		<path class="st12" d="M457.1,185.3c0,1.5-1.3,2.8-2.8,2.8h-38.2c-1.5,0-2.8-1.3-2.8-2.8V140c0-1.5,1.3-2.8,2.8-2.8h38.2
			c1.5,0,2.8,1.3,2.8,2.8V185.3z"/>
		<path class="st0" d="M457.1,185.3c0,1.5-1.3,2.8-2.8,2.8h-38.2c-1.5,0-2.8-1.3-2.8-2.8V140c0-1.5,1.3-2.8,2.8-2.8h38.2
			c1.5,0,2.8,1.3,2.8,2.8V185.3z"/>
	</g>
	<g>
		<rect x="417.9" y="140.1" class="st5" width="34.6" height="8.2"/>
		<ellipse class="st6" cx="420.8" cy="144.2" rx="1" ry="1.1"/>
		<ellipse class="st6" cx="424.2" cy="144.2" rx="1" ry="1.1"/>
		<ellipse class="st6" cx="427.3" cy="144.2" rx="1" ry="1.1"/>
	</g>
	<g>
		<rect x="417.9" y="152.2" class="st5" width="34.6" height="8.2"/>
		<ellipse class="st6" cx="420.8" cy="156.3" rx="1" ry="1.1"/>
		<ellipse class="st6" cx="424.2" cy="156.3" rx="1" ry="1.1"/>
		<ellipse class="st6" cx="427.3" cy="156.3" rx="1" ry="1.1"/>
	</g>
	<g>
		<rect x="417.9" y="163.4" class="st5" width="34.6" height="8.2"/>
		<ellipse class="st6" cx="420.8" cy="167.5" rx="1" ry="1.1"/>
		<ellipse class="st6" cx="424.2" cy="167.5" rx="1" ry="1.1"/>
		<ellipse class="st6" cx="427.3" cy="167.5" rx="1" ry="1.1"/>
	</g>
	<g>
		<rect x="417.9" y="174.5" class="st5" width="34.6" height="8.2"/>
		<ellipse class="st6" cx="420.8" cy="178.7" rx="1" ry="1.1"/>
		<ellipse class="st6" cx="424.2" cy="178.7" rx="1" ry="1.1"/>
		<ellipse class="st6" cx="427.3" cy="178.7" rx="1" ry="1.1"/>
	</g>
</g>
<line class="st0" x1="210.8" y1="5.7" x2="277.7" y2="57.8"/>
<line class="st0" x1="210.8" y1="5.7" x2="144.5" y2="57.4"/>
<line class="st0" x1="156.5" y1="57.4" x2="156.5" y2="134.6"/>
<line class="st0" x1="264.1" y1="57.4" x2="264.1" y2="134.6"/>
<line class="st0" x1="156.5" y1="134.6" x2="264.1" y2="134.6"/>
<line class="st0" x1="144.5" y1="57.4" x2="156.5" y2="57.4"/>
<line class="st0" x1="277.1" y1="57.4" x2="264.1" y2="57.4"/>
<g>
	<line class="st0" x1="388.7" y1="32.2" x2="408.3" y2="47.5"/>
	<line class="st0" x1="388.7" y1="32.2" x2="369.4" y2="47.3"/>
	<line class="st0" x1="372.9" y1="47.3" x2="372.9" y2="69.9"/>
	<line class="st0" x1="404.3" y1="47.3" x2="404.3" y2="69.9"/>
	<line class="st0" x1="372.9" y1="69.9" x2="404.3" y2="69.9"/>
	<line class="st0" x1="369.4" y1="47.3" x2="372.9" y2="47.3"/>
	<line class="st0" x1="408.1" y1="47.3" x2="404.3" y2="47.3"/>
</g>
<g>
	<line class="st0" x1="415.9" y1="65.9" x2="435.5" y2="81.2"/>
	<line class="st0" x1="415.9" y1="65.9" x2="396.6" y2="81"/>
	<line class="st0" x1="400.1" y1="81" x2="400.1" y2="103.6"/>
	<line class="st0" x1="431.5" y1="81" x2="431.5" y2="103.6"/>
	<line class="st0" x1="400.1" y1="103.6" x2="431.5" y2="103.6"/>
	<line class="st0" x1="396.6" y1="81" x2="400.1" y2="81"/>
	<line class="st0" x1="435.3" y1="81" x2="431.5" y2="81"/>
</g>
<g>
	<line class="st0" x1="337.5" y1="25.7" x2="357.1" y2="41"/>
	<line class="st0" x1="337.5" y1="25.7" x2="318.2" y2="40.9"/>
	<line class="st0" x1="321.7" y1="40.9" x2="321.7" y2="63.4"/>
	<line class="st0" x1="353.1" y1="40.9" x2="353.1" y2="63.4"/>
	<line class="st0" x1="321.7" y1="63.4" x2="353.1" y2="63.4"/>
	<line class="st0" x1="318.2" y1="40.9" x2="321.7" y2="40.9"/>
	<line class="st0" x1="356.9" y1="40.9" x2="353.1" y2="40.9"/>
</g>
<path class="st0" d="M236.9,116.1c0,0,8.4-1.3,13.6,1.9c5.2,3.2-14.9,5.8-8.4,9.7c6.5,3.9,22,0,22,0"/>
<line class="st0" x1="264.1" y1="127.8" x2="356.1" y2="110.3"/>
<line class="st5" x1="337.3" y1="64.3" x2="356.7" y2="92.2"/>
<g>
	<line class="st0" x1="476.2" y1="88.6" x2="495.7" y2="103.8"/>
	<line class="st0" x1="476.2" y1="88.6" x2="456.9" y2="103.7"/>
	<line class="st0" x1="460.3" y1="103.7" x2="460.3" y2="126.2"/>
	<line class="st0" x1="491.8" y1="103.7" x2="491.8" y2="126.2"/>
	<line class="st0" x1="460.3" y1="126.2" x2="491.8" y2="126.2"/>
	<line class="st0" x1="456.9" y1="103.7" x2="460.3" y2="103.7"/>
	<line class="st0" x1="495.6" y1="103.7" x2="491.8" y2="103.7"/>
</g>
<g>
	<line class="st0" x1="516.4" y1="115.2" x2="535.9" y2="130.4"/>
	<line class="st0" x1="516.4" y1="115.2" x2="497" y2="130.3"/>
	<line class="st0" x1="500.5" y1="130.3" x2="500.5" y2="152.8"/>
	<line class="st0" x1="531.9" y1="130.3" x2="531.9" y2="152.8"/>
	<line class="st0" x1="500.5" y1="152.8" x2="531.9" y2="152.8"/>
	<line class="st0" x1="497" y1="130.3" x2="500.5" y2="130.3"/>
	<line class="st0" x1="535.8" y1="130.3" x2="531.9" y2="130.3"/>
</g>
<g>
	<line class="st0" x1="489.2" y1="158.6" x2="508.7" y2="173.8"/>
	<line class="st0" x1="489.2" y1="158.6" x2="469.8" y2="173.7"/>
	<line class="st0" x1="473.3" y1="173.7" x2="473.3" y2="196.2"/>
	<line class="st0" x1="504.7" y1="173.7" x2="504.7" y2="196.2"/>
	<line class="st0" x1="473.3" y1="196.2" x2="504.7" y2="196.2"/>
	<line class="st0" x1="469.8" y1="173.7" x2="473.3" y2="173.7"/>
	<line class="st0" x1="508.5" y1="173.7" x2="504.7" y2="173.7"/>
</g>
<line class="st0" x1="212.4" y1="163.4" x2="268.7" y2="188.1"/>
<line class="st0" x1="173.4" y1="195.4" x2="269.4" y2="186.4"/>
<line class="st0" x1="196.4" y1="232.4" x2="269.5" y2="186.8"/>
<g>
	<polyline class="st5" points="192.3,157.5 196.1,157.5 196.1,180 227.5,180 227.5,157.5 231,157.5 211.7,142.4 192.1,157.6 	"/>
</g>
<g>
	<polyline class="st5" points="154.3,192.5 158.1,192.5 158.1,215 189.5,215 189.5,192.5 193,192.5 173.7,177.4 154.1,192.6 	"/>
</g>
<g>
	<polyline class="st5" points="177.3,228.5 181.1,228.5 181.1,251 212.5,251 212.5,228.5 216,228.5 196.7,213.4 177.1,228.6 	"/>
</g>
<g>
	<path class="st12" d="M378.7,132.2c0,1.5-1.3,2.8-2.8,2.8h-38.2c-1.5,0-2.8-1.3-2.8-2.8V86.9c0-1.5,1.3-2.8,2.8-2.8h38.2
		c1.5,0,2.8,1.3,2.8,2.8V132.2z"/>
	<path class="st0" d="M378.7,132.2c0,1.5-1.3,2.8-2.8,2.8h-38.2c-1.5,0-2.8-1.3-2.8-2.8V86.9c0-1.5,1.3-2.8,2.8-2.8h38.2
		c1.5,0,2.8,1.3,2.8,2.8V132.2z"/>
</g>
<g>
	<rect x="339.5" y="87" class="st5" width="34.6" height="8.2"/>
	<ellipse class="st6" cx="342.4" cy="91.1" rx="1" ry="1.1"/>
	<ellipse class="st6" cx="345.8" cy="91.1" rx="1" ry="1.1"/>
	<ellipse class="st6" cx="348.9" cy="91.1" rx="1" ry="1.1"/>
</g>
<g>
	<rect x="339.5" y="99" class="st5" width="34.6" height="8.2"/>
	<ellipse class="st6" cx="342.4" cy="103.2" rx="1" ry="1.1"/>
	<ellipse class="st6" cx="345.8" cy="103.2" rx="1" ry="1.1"/>
	<ellipse class="st6" cx="348.9" cy="103.2" rx="1" ry="1.1"/>
</g>
<g>
	<rect x="339.5" y="110.2" class="st5" width="34.6" height="8.2"/>
	<ellipse class="st6" cx="342.4" cy="114.3" rx="1" ry="1.1"/>
	<ellipse class="st6" cx="345.8" cy="114.3" rx="1" ry="1.1"/>
	<ellipse class="st6" cx="348.9" cy="114.3" rx="1" ry="1.1"/>
</g>
<g>
	<rect x="339.5" y="121.4" class="st5" width="34.6" height="8.2"/>
	<ellipse class="st6" cx="342.4" cy="125.5" rx="1" ry="1.1"/>
	<ellipse class="st6" cx="345.8" cy="125.5" rx="1" ry="1.1"/>
	<ellipse class="st6" cx="348.9" cy="125.5" rx="1" ry="1.1"/>
</g>
<g>
	<g>
		<path class="st12" d="M369,241.7c0,1.5-1.3,2.8-2.8,2.8H328c-1.5,0-2.8-1.3-2.8-2.8v-45.3c0-1.5,1.3-2.8,2.8-2.8h38.2
			c1.5,0,2.8,1.3,2.8,2.8V241.7z"/>
		<path class="st0" d="M369,241.7c0,1.5-1.3,2.8-2.8,2.8H328c-1.5,0-2.8-1.3-2.8-2.8v-45.3c0-1.5,1.3-2.8,2.8-2.8h38.2
			c1.5,0,2.8,1.3,2.8,2.8V241.7z"/>
	</g>
	<g>
		<rect x="329.8" y="196.5" class="st5" width="34.6" height="8.2"/>
		<ellipse class="st6" cx="332.7" cy="200.6" rx="1" ry="1.1"/>
		<ellipse class="st6" cx="336.1" cy="200.6" rx="1" ry="1.1"/>
		<ellipse class="st6" cx="339.2" cy="200.6" rx="1" ry="1.1"/>
	</g>
	<g>
		<rect x="329.8" y="208.6" class="st5" width="34.6" height="8.2"/>
		<ellipse class="st6" cx="332.7" cy="212.7" rx="1" ry="1.1"/>
		<ellipse class="st6" cx="336.1" cy="212.7" rx="1" ry="1.1"/>
		<ellipse class="st6" cx="339.2" cy="212.7" rx="1" ry="1.1"/>
	</g>
	<g>
		<rect x="329.8" y="219.7" class="st5" width="34.6" height="8.2"/>
		<ellipse class="st6" cx="332.7" cy="223.9" rx="1" ry="1.1"/>
		<ellipse class="st6" cx="336.1" cy="223.9" rx="1" ry="1.1"/>
		<ellipse class="st6" cx="339.2" cy="223.9" rx="1" ry="1.1"/>
	</g>
	<g>
		<rect x="329.8" y="230.9" class="st5" width="34.6" height="8.2"/>
		<ellipse class="st6" cx="332.7" cy="235" rx="1" ry="1.1"/>
		<ellipse class="st6" cx="336.1" cy="235" rx="1" ry="1.1"/>
		<ellipse class="st6" cx="339.2" cy="235" rx="1" ry="1.1"/>
	</g>
	<line class="st0" x1="350.3" y1="196.5" x2="353.5" y2="196.5"/>
</g>
<g>
	<g>
		<path class="st12" d="M214.8,383c0,1.5-1.3,2.8-2.8,2.8h-38.2c-1.5,0-2.8-1.3-2.8-2.8v-45.3c0-1.5,1.3-2.8,2.8-2.8H212
			c1.5,0,2.8,1.3,2.8,2.8V383z"/>
		<path class="st0" d="M214.8,383c0,1.5-1.3,2.8-2.8,2.8h-38.2c-1.5,0-2.8-1.3-2.8-2.8v-45.3c0-1.5,1.3-2.8,2.8-2.8H212
			c1.5,0,2.8,1.3,2.8,2.8V383z"/>
	</g>
	<g>
		<rect x="175.6" y="337.8" class="st5" width="34.6" height="8.2"/>
		<ellipse class="st6" cx="178.4" cy="341.9" rx="1" ry="1.1"/>
		<ellipse class="st6" cx="181.8" cy="341.9" rx="1" ry="1.1"/>
		<ellipse class="st6" cx="185" cy="341.9" rx="1" ry="1.1"/>
	</g>
	<g>
		<rect x="175.6" y="349.8" class="st5" width="34.6" height="8.2"/>
		<ellipse class="st6" cx="178.4" cy="353.9" rx="1" ry="1.1"/>
		<ellipse class="st6" cx="181.8" cy="353.9" rx="1" ry="1.1"/>
		<ellipse class="st6" cx="185" cy="353.9" rx="1" ry="1.1"/>
	</g>
	<g>
		<rect x="175.6" y="361" class="st5" width="34.6" height="8.2"/>
		<ellipse class="st6" cx="178.4" cy="365.1" rx="1" ry="1.1"/>
		<ellipse class="st6" cx="181.8" cy="365.1" rx="1" ry="1.1"/>
		<ellipse class="st6" cx="185" cy="365.1" rx="1" ry="1.1"/>
	</g>
	<g>
		<rect x="175.6" y="372.2" class="st5" width="34.6" height="8.2"/>
		<ellipse class="st6" cx="178.4" cy="376.3" rx="1" ry="1.1"/>
		<ellipse class="st6" cx="181.8" cy="376.3" rx="1" ry="1.1"/>
		<ellipse class="st6" cx="185" cy="376.3" rx="1" ry="1.1"/>
	</g>
	<line class="st0" x1="196" y1="337.8" x2="199.3" y2="337.8"/>
</g>
<g>
	<g>
		<path class="st12" d="M289.3,331.8c0,1.5-1.3,2.8-2.8,2.8h-38.2c-1.5,0-2.8-1.3-2.8-2.8v-45.3c0-1.5,1.3-2.8,2.8-2.8h38.2
			c1.5,0,2.8,1.3,2.8,2.8V331.8z"/>
		<path class="st0" d="M289.3,331.8c0,1.5-1.3,2.8-2.8,2.8h-38.2c-1.5,0-2.8-1.3-2.8-2.8v-45.3c0-1.5,1.3-2.8,2.8-2.8h38.2
			c1.5,0,2.8,1.3,2.8,2.8V331.8z"/>
	</g>
	<g>
		<rect x="250.1" y="286.6" class="st5" width="34.6" height="8.2"/>
		<ellipse class="st6" cx="253" cy="290.7" rx="1" ry="1.1"/>
		<ellipse class="st6" cx="256.4" cy="290.7" rx="1" ry="1.1"/>
		<ellipse class="st6" cx="259.5" cy="290.7" rx="1" ry="1.1"/>
	</g>
	<g>
		<rect x="250.1" y="298.6" class="st5" width="34.6" height="8.2"/>
		<ellipse class="st6" cx="253" cy="302.7" rx="1" ry="1.1"/>
		<ellipse class="st6" cx="256.4" cy="302.7" rx="1" ry="1.1"/>
		<ellipse class="st6" cx="259.5" cy="302.7" rx="1" ry="1.1"/>
	</g>
	<g>
		<rect x="250.1" y="309.8" class="st5" width="34.6" height="8.2"/>
		<ellipse class="st6" cx="253" cy="313.9" rx="1" ry="1.1"/>
		<ellipse class="st6" cx="256.4" cy="313.9" rx="1" ry="1.1"/>
		<ellipse class="st6" cx="259.5" cy="313.9" rx="1" ry="1.1"/>
	</g>
	<g>
		<rect x="250.1" y="321" class="st5" width="34.6" height="8.2"/>
		<ellipse class="st6" cx="253" cy="325.1" rx="1" ry="1.1"/>
		<ellipse class="st6" cx="256.4" cy="325.1" rx="1" ry="1.1"/>
		<ellipse class="st6" cx="259.5" cy="325.1" rx="1" ry="1.1"/>
	</g>
	<line class="st0" x1="270.6" y1="286.6" x2="273.8" y2="286.6"/>
</g>
<g>
	<g>
		<path class="st12" d="M456.5,304.5c0,1.5-1.3,2.8-2.8,2.8h-38.2c-1.5,0-2.8-1.3-2.8-2.8v-45.3c0-1.5,1.3-2.8,2.8-2.8h38.2
			c1.5,0,2.8,1.3,2.8,2.8V304.5z"/>
		<path class="st0" d="M456.5,304.5c0,1.5-1.3,2.8-2.8,2.8h-38.2c-1.5,0-2.8-1.3-2.8-2.8v-45.3c0-1.5,1.3-2.8,2.8-2.8h38.2
			c1.5,0,2.8,1.3,2.8,2.8V304.5z"/>
	</g>
	<g>
		<rect x="417.3" y="259.3" class="st5" width="34.6" height="8.2"/>
		<ellipse class="st6" cx="420.2" cy="263.5" rx="1" ry="1.1"/>
		<ellipse class="st6" cx="423.6" cy="263.5" rx="1" ry="1.1"/>
		<ellipse class="st6" cx="426.7" cy="263.5" rx="1" ry="1.1"/>
	</g>
	<g>
		<rect x="417.3" y="271.4" class="st5" width="34.6" height="8.2"/>
		<ellipse class="st6" cx="420.2" cy="275.5" rx="1" ry="1.1"/>
		<ellipse class="st6" cx="423.6" cy="275.5" rx="1" ry="1.1"/>
		<ellipse class="st6" cx="426.7" cy="275.5" rx="1" ry="1.1"/>
	</g>
	<g>
		<rect x="417.3" y="282.6" class="st5" width="34.6" height="8.2"/>
		<ellipse class="st6" cx="420.2" cy="286.7" rx="1" ry="1.1"/>
		<ellipse class="st6" cx="423.6" cy="286.7" rx="1" ry="1.1"/>
		<ellipse class="st6" cx="426.7" cy="286.7" rx="1" ry="1.1"/>
	</g>
	<g>
		<rect x="417.3" y="293.8" class="st5" width="34.6" height="8.2"/>
		<ellipse class="st6" cx="420.2" cy="297.9" rx="1" ry="1.1"/>
		<ellipse class="st6" cx="423.6" cy="297.9" rx="1" ry="1.1"/>
		<ellipse class="st6" cx="426.7" cy="297.9" rx="1" ry="1.1"/>
	</g>
	<line class="st0" x1="437.7" y1="259.3" x2="441" y2="259.3"/>
</g>
<g>
	<g>
		<path class="st12" d="M383.3,410.2c0,1.5-1.3,2.8-2.8,2.8h-38.2c-1.5,0-2.8-1.3-2.8-2.8v-45.3c0-1.5,1.3-2.8,2.8-2.8h38.2
			c1.5,0,2.8,1.3,2.8,2.8V410.2z"/>
		<path class="st0" d="M383.3,410.2c0,1.5-1.3,2.8-2.8,2.8h-38.2c-1.5,0-2.8-1.3-2.8-2.8v-45.3c0-1.5,1.3-2.8,2.8-2.8h38.2
			c1.5,0,2.8,1.3,2.8,2.8V410.2z"/>
	</g>
	<g>
		<rect x="344.1" y="365" class="st5" width="34.6" height="8.2"/>
		<ellipse class="st6" cx="346.9" cy="369.1" rx="1" ry="1.1"/>
		<ellipse class="st6" cx="350.3" cy="369.1" rx="1" ry="1.1"/>
		<ellipse class="st6" cx="353.5" cy="369.1" rx="1" ry="1.1"/>
	</g>
	<g>
		<rect x="344.1" y="377" class="st5" width="34.6" height="8.2"/>
		<ellipse class="st6" cx="346.9" cy="381.2" rx="1" ry="1.1"/>
		<ellipse class="st6" cx="350.3" cy="381.2" rx="1" ry="1.1"/>
		<ellipse class="st6" cx="353.5" cy="381.2" rx="1" ry="1.1"/>
	</g>
	<g>
		<rect x="344.1" y="388.2" class="st5" width="34.6" height="8.2"/>
		<ellipse class="st6" cx="346.9" cy="392.3" rx="1" ry="1.1"/>
		<ellipse class="st6" cx="350.3" cy="392.3" rx="1" ry="1.1"/>
		<ellipse class="st6" cx="353.5" cy="392.3" rx="1" ry="1.1"/>
	</g>
	<g>
		<rect x="344.1" y="399.4" class="st5" width="34.6" height="8.2"/>
		<ellipse class="st6" cx="346.9" cy="403.5" rx="1" ry="1.1"/>
		<ellipse class="st6" cx="350.3" cy="403.5" rx="1" ry="1.1"/>
		<ellipse class="st6" cx="353.5" cy="403.5" rx="1" ry="1.1"/>
	</g>
	<line class="st0" x1="364.5" y1="365" x2="367.8" y2="365"/>
</g>
<g>
	<g>
		<path class="st12" d="M290.5,211.2c0,1.5-1.3,2.8-2.8,2.8h-38.2c-1.5,0-2.8-1.3-2.8-2.8V166c0-1.5,1.3-2.8,2.8-2.8h38.2
			c1.5,0,2.8,1.3,2.8,2.8V211.2z"/>
		<path class="st0" d="M290.5,211.2c0,1.5-1.3,2.8-2.8,2.8h-38.2c-1.5,0-2.8-1.3-2.8-2.8V166c0-1.5,1.3-2.8,2.8-2.8h38.2
			c1.5,0,2.8,1.3,2.8,2.8V211.2z"/>
	</g>
	<g>
		<rect x="251.3" y="166" class="st5" width="34.6" height="8.2"/>
		<ellipse class="st6" cx="254.2" cy="170.1" rx="1" ry="1.1"/>
		<ellipse class="st6" cx="257.6" cy="170.1" rx="1" ry="1.1"/>
		<ellipse class="st6" cx="260.7" cy="170.1" rx="1" ry="1.1"/>
	</g>
	<g>
		<rect x="251.3" y="178.1" class="st5" width="34.6" height="8.2"/>
		<ellipse class="st6" cx="254.2" cy="182.2" rx="1" ry="1.1"/>
		<ellipse class="st6" cx="257.6" cy="182.2" rx="1" ry="1.1"/>
		<ellipse class="st6" cx="260.7" cy="182.2" rx="1" ry="1.1"/>
	</g>
	<g>
		<rect x="251.3" y="189.3" class="st5" width="34.6" height="8.2"/>
		<ellipse class="st6" cx="254.2" cy="193.4" rx="1" ry="1.1"/>
		<ellipse class="st6" cx="257.6" cy="193.4" rx="1" ry="1.1"/>
		<ellipse class="st6" cx="260.7" cy="193.4" rx="1" ry="1.1"/>
	</g>
	<g>
		<rect x="251.3" y="200.5" class="st5" width="34.6" height="8.2"/>
		<ellipse class="st6" cx="254.2" cy="204.6" rx="1" ry="1.1"/>
		<ellipse class="st6" cx="257.6" cy="204.6" rx="1" ry="1.1"/>
		<ellipse class="st6" cx="260.7" cy="204.6" rx="1" ry="1.1"/>
	</g>
	<line class="st0" x1="271.8" y1="166" x2="275" y2="166"/>
</g>
<g>
	<g>
		<path class="st12" d="M152.6,320.7c0,1.5-1.3,2.8-2.8,2.8h-38.2c-1.5,0-2.8-1.3-2.8-2.8v-45.3c0-1.5,1.3-2.8,2.8-2.8h38.2
			c1.5,0,2.8,1.3,2.8,2.8V320.7z"/>
		<path class="st0" d="M152.6,320.7c0,1.5-1.3,2.8-2.8,2.8h-38.2c-1.5,0-2.8-1.3-2.8-2.8v-45.3c0-1.5,1.3-2.8,2.8-2.8h38.2
			c1.5,0,2.8,1.3,2.8,2.8V320.7z"/>
	</g>
	<g>
		<rect x="113.4" y="275.5" class="st5" width="34.6" height="8.2"/>
		<ellipse class="st6" cx="116.2" cy="279.7" rx="1" ry="1.1"/>
		<ellipse class="st6" cx="119.6" cy="279.7" rx="1" ry="1.1"/>
		<ellipse class="st6" cx="122.8" cy="279.7" rx="1" ry="1.1"/>
	</g>
	<g>
		<rect x="113.4" y="287.6" class="st5" width="34.6" height="8.2"/>
		<ellipse class="st6" cx="116.2" cy="291.7" rx="1" ry="1.1"/>
		<ellipse class="st6" cx="119.6" cy="291.7" rx="1" ry="1.1"/>
		<ellipse class="st6" cx="122.8" cy="291.7" rx="1" ry="1.1"/>
	</g>
	<g>
		<rect x="113.4" y="298.8" class="st5" width="34.6" height="8.2"/>
		<ellipse class="st6" cx="116.2" cy="302.9" rx="1" ry="1.1"/>
		<ellipse class="st6" cx="119.6" cy="302.9" rx="1" ry="1.1"/>
		<ellipse class="st6" cx="122.8" cy="302.9" rx="1" ry="1.1"/>
	</g>
	<g>
		<rect x="113.4" y="310" class="st5" width="34.6" height="8.2"/>
		<ellipse class="st6" cx="116.2" cy="314.1" rx="1" ry="1.1"/>
		<ellipse class="st6" cx="119.6" cy="314.1" rx="1" ry="1.1"/>
		<ellipse class="st6" cx="122.8" cy="314.1" rx="1" ry="1.1"/>
	</g>
	<line class="st0" x1="133.8" y1="275.5" x2="137.1" y2="275.5"/>
</g>
<g>
	<g>
		<path class="st12" d="M119.5,383c0,1.5-1.3,2.8-2.8,2.8H78.5c-1.5,0-2.8-1.3-2.8-2.8v-45.3c0-1.5,1.3-2.8,2.8-2.8h38.2
			c1.5,0,2.8,1.3,2.8,2.8V383z"/>
		<path class="st0" d="M119.5,383c0,1.5-1.3,2.8-2.8,2.8H78.5c-1.5,0-2.8-1.3-2.8-2.8v-45.3c0-1.5,1.3-2.8,2.8-2.8h38.2
			c1.5,0,2.8,1.3,2.8,2.8V383z"/>
	</g>
	<g>
		<rect x="80.3" y="337.8" class="st5" width="34.6" height="8.2"/>
		<ellipse class="st6" cx="83.2" cy="341.9" rx="1" ry="1.1"/>
		<ellipse class="st6" cx="86.6" cy="341.9" rx="1" ry="1.1"/>
		<ellipse class="st6" cx="89.7" cy="341.9" rx="1" ry="1.1"/>
	</g>
	<g>
		<rect x="80.3" y="349.8" class="st5" width="34.6" height="8.2"/>
		<ellipse class="st6" cx="83.2" cy="353.9" rx="1" ry="1.1"/>
		<ellipse class="st6" cx="86.6" cy="353.9" rx="1" ry="1.1"/>
		<ellipse class="st6" cx="89.7" cy="353.9" rx="1" ry="1.1"/>
	</g>
	<g>
		<rect x="80.3" y="361" class="st5" width="34.6" height="8.2"/>
		<ellipse class="st6" cx="83.2" cy="365.1" rx="1" ry="1.1"/>
		<ellipse class="st6" cx="86.6" cy="365.1" rx="1" ry="1.1"/>
		<ellipse class="st6" cx="89.7" cy="365.1" rx="1" ry="1.1"/>
	</g>
	<g>
		<rect x="80.3" y="372.2" class="st5" width="34.6" height="8.2"/>
		<ellipse class="st6" cx="83.2" cy="376.3" rx="1" ry="1.1"/>
		<ellipse class="st6" cx="86.6" cy="376.3" rx="1" ry="1.1"/>
		<ellipse class="st6" cx="89.7" cy="376.3" rx="1" ry="1.1"/>
	</g>
	<line class="st0" x1="100.8" y1="337.8" x2="104" y2="337.8"/>
</g>
<g>
	<g>
		<path class="st12" d="M143.5,446.5c0,1.5-1.3,2.8-2.8,2.8h-38.2c-1.5,0-2.8-1.3-2.8-2.8v-45.3c0-1.5,1.3-2.8,2.8-2.8h38.2
			c1.5,0,2.8,1.3,2.8,2.8V446.5z"/>
		<path class="st0" d="M143.5,446.5c0,1.5-1.3,2.8-2.8,2.8h-38.2c-1.5,0-2.8-1.3-2.8-2.8v-45.3c0-1.5,1.3-2.8,2.8-2.8h38.2
			c1.5,0,2.8,1.3,2.8,2.8V446.5z"/>
	</g>
	<g>
		<rect x="104.3" y="401.3" class="st5" width="34.6" height="8.2"/>
		<ellipse class="st6" cx="107.2" cy="405.4" rx="1" ry="1.1"/>
		<ellipse class="st6" cx="110.6" cy="405.4" rx="1" ry="1.1"/>
		<ellipse class="st6" cx="113.7" cy="405.4" rx="1" ry="1.1"/>
	</g>
	<g>
		<rect x="104.3" y="413.3" class="st5" width="34.6" height="8.2"/>
		<ellipse class="st6" cx="107.2" cy="417.4" rx="1" ry="1.1"/>
		<ellipse class="st6" cx="110.6" cy="417.4" rx="1" ry="1.1"/>
		<ellipse class="st6" cx="113.7" cy="417.4" rx="1" ry="1.1"/>
	</g>
	<g>
		<rect x="104.3" y="424.5" class="st5" width="34.6" height="8.2"/>
		<ellipse class="st6" cx="107.2" cy="428.6" rx="1" ry="1.1"/>
		<ellipse class="st6" cx="110.6" cy="428.6" rx="1" ry="1.1"/>
		<ellipse class="st6" cx="113.7" cy="428.6" rx="1" ry="1.1"/>
	</g>
	<g>
		<rect x="104.3" y="435.7" class="st5" width="34.6" height="8.2"/>
		<ellipse class="st6" cx="107.2" cy="439.8" rx="1" ry="1.1"/>
		<ellipse class="st6" cx="110.6" cy="439.8" rx="1" ry="1.1"/>
		<ellipse class="st6" cx="113.7" cy="439.8" rx="1" ry="1.1"/>
	</g>
	<line class="st0" x1="124.7" y1="401.3" x2="128" y2="401.3"/>
</g>
<g>
	<g>
		<path class="st12" d="M575.7,342.1c0,1.5-1.3,2.8-2.8,2.8h-38.2c-1.5,0-2.8-1.3-2.8-2.8v-45.3c0-1.5,1.3-2.8,2.8-2.8h38.2
			c1.5,0,2.8,1.3,2.8,2.8V342.1z"/>
		<path class="st0" d="M575.7,342.1c0,1.5-1.3,2.8-2.8,2.8h-38.2c-1.5,0-2.8-1.3-2.8-2.8v-45.3c0-1.5,1.3-2.8,2.8-2.8h38.2
			c1.5,0,2.8,1.3,2.8,2.8V342.1z"/>
	</g>
	<g>
		<rect x="536.5" y="296.9" class="st5" width="34.6" height="8.2"/>
		<ellipse class="st6" cx="539.4" cy="301" rx="1" ry="1.1"/>
		<ellipse class="st6" cx="542.8" cy="301" rx="1" ry="1.1"/>
		<ellipse class="st6" cx="545.9" cy="301" rx="1" ry="1.1"/>
	</g>
	<g>
		<rect x="536.5" y="309" class="st5" width="34.6" height="8.2"/>
		<ellipse class="st6" cx="539.4" cy="313.1" rx="1" ry="1.1"/>
		<ellipse class="st6" cx="542.8" cy="313.1" rx="1" ry="1.1"/>
		<ellipse class="st6" cx="545.9" cy="313.1" rx="1" ry="1.1"/>
	</g>
	<g>
		<rect x="536.5" y="320.2" class="st5" width="34.6" height="8.2"/>
		<ellipse class="st6" cx="539.4" cy="324.3" rx="1" ry="1.1"/>
		<ellipse class="st6" cx="542.8" cy="324.3" rx="1" ry="1.1"/>
		<ellipse class="st6" cx="545.9" cy="324.3" rx="1" ry="1.1"/>
	</g>
	<g>
		<rect x="536.5" y="331.4" class="st5" width="34.6" height="8.2"/>
		<ellipse class="st6" cx="539.4" cy="335.5" rx="1" ry="1.1"/>
		<ellipse class="st6" cx="542.8" cy="335.5" rx="1" ry="1.1"/>
		<ellipse class="st6" cx="545.9" cy="335.5" rx="1" ry="1.1"/>
	</g>
	<line class="st0" x1="557" y1="296.9" x2="560.2" y2="296.9"/>
</g>
<g>
	<g>
		<path class="st12" d="M649.6,281.9c0,1.5-1.3,2.8-2.8,2.8h-38.2c-1.5,0-2.8-1.3-2.8-2.8v-45.3c0-1.5,1.3-2.8,2.8-2.8h38.2
			c1.5,0,2.8,1.3,2.8,2.8V281.9z"/>
		<path class="st0" d="M649.6,281.9c0,1.5-1.3,2.8-2.8,2.8h-38.2c-1.5,0-2.8-1.3-2.8-2.8v-45.3c0-1.5,1.3-2.8,2.8-2.8h38.2
			c1.5,0,2.8,1.3,2.8,2.8V281.9z"/>
	</g>
	<g>
		<rect x="610.4" y="236.7" class="st5" width="34.6" height="8.2"/>
		<ellipse class="st6" cx="613.3" cy="240.8" rx="1" ry="1.1"/>
		<ellipse class="st6" cx="616.7" cy="240.8" rx="1" ry="1.1"/>
		<ellipse class="st6" cx="619.8" cy="240.8" rx="1" ry="1.1"/>
	</g>
	<g>
		<rect x="610.4" y="248.7" class="st5" width="34.6" height="8.2"/>
		<ellipse class="st6" cx="613.3" cy="252.8" rx="1" ry="1.1"/>
		<ellipse class="st6" cx="616.7" cy="252.8" rx="1" ry="1.1"/>
		<ellipse class="st6" cx="619.8" cy="252.8" rx="1" ry="1.1"/>
	</g>
	<g>
		<rect x="610.4" y="259.9" class="st5" width="34.6" height="8.2"/>
		<ellipse class="st6" cx="613.3" cy="264" rx="1" ry="1.1"/>
		<ellipse class="st6" cx="616.7" cy="264" rx="1" ry="1.1"/>
		<ellipse class="st6" cx="619.8" cy="264" rx="1" ry="1.1"/>
	</g>
	<g>
		<rect x="610.4" y="271.1" class="st5" width="34.6" height="8.2"/>
		<ellipse class="st6" cx="613.3" cy="275.2" rx="1" ry="1.1"/>
		<ellipse class="st6" cx="616.7" cy="275.2" rx="1" ry="1.1"/>
		<ellipse class="st6" cx="619.8" cy="275.2" rx="1" ry="1.1"/>
	</g>
	<line class="st0" x1="630.8" y1="236.7" x2="634.1" y2="236.7"/>
</g>
<g>
	<g>
		<path class="st12" d="M649.6,393.3c0,1.5-1.3,2.8-2.8,2.8h-38.2c-1.5,0-2.8-1.3-2.8-2.8V348c0-1.5,1.3-2.8,2.8-2.8h38.2
			c1.5,0,2.8,1.3,2.8,2.8V393.3z"/>
		<path class="st0" d="M649.6,393.3c0,1.5-1.3,2.8-2.8,2.8h-38.2c-1.5,0-2.8-1.3-2.8-2.8V348c0-1.5,1.3-2.8,2.8-2.8h38.2
			c1.5,0,2.8,1.3,2.8,2.8V393.3z"/>
	</g>
	<g>
		<rect x="610.4" y="348.1" class="st5" width="34.6" height="8.2"/>
		<ellipse class="st6" cx="613.3" cy="352.2" rx="1" ry="1.1"/>
		<ellipse class="st6" cx="616.7" cy="352.2" rx="1" ry="1.1"/>
		<ellipse class="st6" cx="619.8" cy="352.2" rx="1" ry="1.1"/>
	</g>
	<g>
		<rect x="610.4" y="360.2" class="st5" width="34.6" height="8.2"/>
		<ellipse class="st6" cx="613.3" cy="364.3" rx="1" ry="1.1"/>
		<ellipse class="st6" cx="616.7" cy="364.3" rx="1" ry="1.1"/>
		<ellipse class="st6" cx="619.8" cy="364.3" rx="1" ry="1.1"/>
	</g>
	<g>
		<rect x="610.4" y="371.4" class="st5" width="34.6" height="8.2"/>
		<ellipse class="st6" cx="613.3" cy="375.5" rx="1" ry="1.1"/>
		<ellipse class="st6" cx="616.7" cy="375.5" rx="1" ry="1.1"/>
		<ellipse class="st6" cx="619.8" cy="375.5" rx="1" ry="1.1"/>
	</g>
	<g>
		<rect x="610.4" y="382.6" class="st5" width="34.6" height="8.2"/>
		<ellipse class="st6" cx="613.3" cy="386.7" rx="1" ry="1.1"/>
		<ellipse class="st6" cx="616.7" cy="386.7" rx="1" ry="1.1"/>
		<ellipse class="st6" cx="619.8" cy="386.7" rx="1" ry="1.1"/>
	</g>
	<line class="st0" x1="630.8" y1="348.1" x2="634.1" y2="348.1"/>
</g>
<g>
	<path class="st13" d="M691.8,295.5L691.8,295.5C691.8,295.5,691.8,295.5,691.8,295.5l0-64.2c0,0,0,0,0,0h0c0,0,0,0,0,0L691.8,295.5
		C691.8,295.5,691.8,295.5,691.8,295.5z"/>
	<path class="st14" d="M683,260.3h-2.8c-1,0-1.8-0.8-1.8-1.8v-21.1c0-1,0.8-1.8,1.8-1.8h2.8c1,0,1.8,0.8,1.8,1.8v21.1
		C684.8,259.4,684,260.3,683,260.3z"/>
	<path class="st14" d="M703.6,260.3h-2.8c-1,0-1.8-0.8-1.8-1.8v-21.1c0-1,0.8-1.8,1.8-1.8h2.8c1,0,1.8,0.8,1.8,1.8v21.1
		C705.4,259.4,704.6,260.3,703.6,260.3z"/>
	<line class="st13" x1="698.9" y1="247.9" x2="691.9" y2="252.6"/>
	<line class="st13" x1="691.9" y1="252.6" x2="684.8" y2="247.9"/>
	<path class="st14" d="M693.2,268.8h-2.8c-1,0-1.8-0.8-1.8-1.8v-21.1c0-1,0.8-1.8,1.8-1.8h2.8c1,0,1.8,0.8,1.8,1.8v21.1
		C695,267.9,694.2,268.8,693.2,268.8z"/>
</g>
<g>
	<path class="st13" d="M678.2,388.2L678.2,388.2C678.2,388.2,678.2,388.2,678.2,388.2l0-64.2c0,0,0,0,0,0h0c0,0,0,0,0,0L678.2,388.2
		C678.1,388.2,678.2,388.2,678.2,388.2z"/>
	<path class="st14" d="M669.4,352.9h-2.8c-1,0-1.8-0.8-1.8-1.8V330c0-1,0.8-1.8,1.8-1.8h2.8c1,0,1.8,0.8,1.8,1.8v21.1
		C671.2,352.1,670.4,352.9,669.4,352.9z"/>
	<path class="st14" d="M690,352.9h-2.8c-1,0-1.8-0.8-1.8-1.8V330c0-1,0.8-1.8,1.8-1.8h2.8c1,0,1.8,0.8,1.8,1.8v21.1
		C691.8,352.1,691,352.9,690,352.9z"/>
	<line class="st13" x1="685.3" y1="340.5" x2="678.3" y2="345.3"/>
	<line class="st13" x1="678.3" y1="345.3" x2="671.2" y2="340.5"/>
	<path class="st14" d="M679.6,361.4h-2.8c-1,0-1.8-0.8-1.8-1.8v-21.1c0-1,0.8-1.8,1.8-1.8h2.8c1,0,1.8,0.8,1.8,1.8v21.1
		C681.4,360.6,680.6,361.4,679.6,361.4z"/>
</g>
<g>
	<path class="st13" d="M643.2,217.7L643.2,217.7C643.2,217.7,643.2,217.7,643.2,217.7l0-64.2c0,0,0,0,0,0h0c0,0,0,0,0,0L643.2,217.7
		C643.2,217.7,643.2,217.7,643.2,217.7z"/>
	<path class="st14" d="M634.4,182.5h-2.8c-1,0-1.8-0.8-1.8-1.8v-21.1c0-1,0.8-1.8,1.8-1.8h2.8c1,0,1.8,0.8,1.8,1.8v21.1
		C636.2,181.7,635.4,182.5,634.4,182.5z"/>
	<path class="st14" d="M655,182.5h-2.8c-1,0-1.8-0.8-1.8-1.8v-21.1c0-1,0.8-1.8,1.8-1.8h2.8c1,0,1.8,0.8,1.8,1.8v21.1
		C656.8,181.7,656,182.5,655,182.5z"/>
	<line class="st13" x1="650.3" y1="170.1" x2="643.3" y2="174.9"/>
	<line class="st13" x1="643.3" y1="174.9" x2="636.2" y2="170.1"/>
	<path class="st14" d="M644.6,191h-2.8c-1,0-1.8-0.8-1.8-1.8v-21.1c0-1,0.8-1.8,1.8-1.8h2.8c1,0,1.8,0.8,1.8,1.8v21.1
		C646.4,190.2,645.6,191,644.6,191z"/>
</g>
<g>
	<path class="st13" d="M682.1,224.9L682.1,224.9C682.1,224.9,682.1,224.9,682.1,224.9l0-64.2c0,0,0,0,0,0h0c0,0,0,0,0,0L682.1,224.9
		C682,224.9,682,224.9,682.1,224.9z"/>
	<path class="st14" d="M673.3,189.6h-2.8c-1,0-1.8-0.8-1.8-1.8v-21.1c0-1,0.8-1.8,1.8-1.8h2.8c1,0,1.8,0.8,1.8,1.8v21.1
		C675.1,188.8,674.3,189.6,673.3,189.6z"/>
	<path class="st14" d="M693.9,189.6H691c-1,0-1.8-0.8-1.8-1.8v-21.1c0-1,0.8-1.8,1.8-1.8h2.8c1,0,1.8,0.8,1.8,1.8v21.1
		C695.7,188.8,694.9,189.6,693.9,189.6z"/>
	<line class="st13" x1="689.2" y1="177.2" x2="682.2" y2="182"/>
	<line class="st13" x1="682.2" y1="182" x2="675.1" y2="177.2"/>
	<path class="st14" d="M683.5,198.1h-2.8c-1,0-1.8-0.8-1.8-1.8v-21.1c0-1,0.8-1.8,1.8-1.8h2.8c1,0,1.8,0.8,1.8,1.8v21.1
		C685.3,197.3,684.5,198.1,683.5,198.1z"/>
</g>
<g>
	<path class="st13" d="M716.4,425.8L716.4,425.8C716.4,425.8,716.4,425.7,716.4,425.8l0-64.2c0,0,0,0,0,0h0c0,0,0,0,0,0L716.4,425.8
		C716.4,425.7,716.4,425.8,716.4,425.8z"/>
	<path class="st14" d="M707.6,390.5h-2.8c-1,0-1.8-0.8-1.8-1.8v-21.1c0-1,0.8-1.8,1.8-1.8h2.8c1,0,1.8,0.8,1.8,1.8v21.1
		C709.4,389.7,708.6,390.5,707.6,390.5z"/>
	<path class="st14" d="M728.2,390.5h-2.8c-1,0-1.8-0.8-1.8-1.8v-21.1c0-1,0.8-1.8,1.8-1.8h2.8c1,0,1.8,0.8,1.8,1.8v21.1
		C730,389.7,729.2,390.5,728.2,390.5z"/>
	<line class="st13" x1="723.5" y1="378.1" x2="716.6" y2="382.9"/>
	<line class="st13" x1="716.6" y1="382.9" x2="709.4" y2="378.1"/>
	<path class="st14" d="M717.8,399H715c-1,0-1.8-0.8-1.8-1.8v-21.1c0-1,0.8-1.8,1.8-1.8h2.8c1,0,1.8,0.8,1.8,1.8v21.1
		C719.7,398.2,718.8,399,717.8,399z"/>
</g>
<g>
	<path class="st13" d="M671.7,474.4L671.7,474.4C671.7,474.4,671.7,474.3,671.7,474.4l0-64.2c0,0,0,0,0,0h0c0,0,0,0,0,0L671.7,474.4
		C671.7,474.3,671.7,474.4,671.7,474.4z"/>
	<path class="st14" d="M662.9,439.1h-2.8c-1,0-1.8-0.8-1.8-1.8v-21.1c0-1,0.8-1.8,1.8-1.8h2.8c1,0,1.8,0.8,1.8,1.8v21.1
		C664.7,438.3,663.9,439.1,662.9,439.1z"/>
	<path class="st14" d="M683.5,439.1h-2.8c-1,0-1.8-0.8-1.8-1.8v-21.1c0-1,0.8-1.8,1.8-1.8h2.8c1,0,1.8,0.8,1.8,1.8v21.1
		C685.3,438.3,684.5,439.1,683.5,439.1z"/>
	<line class="st13" x1="678.8" y1="426.7" x2="671.8" y2="431.5"/>
	<line class="st13" x1="671.8" y1="431.5" x2="664.7" y2="426.7"/>
	<path class="st14" d="M673.1,447.6h-2.8c-1,0-1.8-0.8-1.8-1.8v-21.1c0-1,0.8-1.8,1.8-1.8h2.8c1,0,1.8,0.8,1.8,1.8v21.1
		C675,446.8,674.1,447.6,673.1,447.6z"/>
</g>
<g>
	<line class="st0" x1="460.4" y1="556.4" x2="449.4" y2="515.3"/>
	<rect x="450.6" y="550.3" class="st5" width="18.8" height="54.4"/>
	<rect x="453" y="574.9" class="st5" width="3.2" height="5.2"/>
	<rect x="458.6" y="574.9" class="st5" width="3.2" height="5.2"/>
	<rect x="464.2" y="574.9" class="st5" width="3.2" height="5.2"/>
	<rect x="453" y="582.1" class="st5" width="3.2" height="5.2"/>
	<rect x="458.6" y="582.1" class="st5" width="3.2" height="5.2"/>
	<rect x="464.2" y="582.1" class="st5" width="3.2" height="5.2"/>
	<rect x="453" y="589.2" class="st5" width="3.2" height="5.2"/>
	<rect x="458.6" y="589.2" class="st5" width="3.2" height="5.2"/>
	<rect x="464.2" y="589.2" class="st5" width="3.2" height="5.2"/>
	<rect x="453" y="553.5" class="st5" width="3.2" height="5.2"/>
	<rect x="458.6" y="553.5" class="st5" width="3.2" height="5.2"/>
	<rect x="464.2" y="553.5" class="st5" width="3.2" height="5.2"/>
	<rect x="453" y="560.7" class="st5" width="3.2" height="5.2"/>
	<rect x="458.6" y="560.7" class="st5" width="3.2" height="5.2"/>
	<rect x="464.2" y="560.7" class="st5" width="3.2" height="5.2"/>
	<rect x="453" y="567.8" class="st5" width="3.2" height="5.2"/>
	<rect x="458.6" y="567.8" class="st5" width="3.2" height="5.2"/>
	<rect x="464.2" y="567.8" class="st5" width="3.2" height="5.2"/>
	<rect x="453" y="596.3" class="st5" width="3.2" height="5.2"/>
	<rect x="458.6" y="596.3" class="st5" width="3.2" height="5.2"/>
	<rect x="464.2" y="596.3" class="st5" width="3.2" height="5.2"/>
	<line class="st0" x1="394.3" y1="486.2" x2="449.4" y2="433.7"/>
	<line class="st0" x1="452" y1="513.4" x2="449.4" y2="433.7"/>
	<line class="st0" x1="513.6" y1="471.2" x2="449.4" y2="433.7"/>
	<line class="st0" x1="315.4" y1="487.4" x2="393" y2="487.4"/>
	<line class="st0" x1="358.7" y1="531.5" x2="393" y2="487.4"/>
	<line class="st0" x1="378.8" y1="547.7" x2="393" y2="487.4"/>
	<line class="st0" x1="410.5" y1="573" x2="449.4" y2="515.3"/>
	<line class="st0" x1="499.9" y1="563.9" x2="449.4" y2="515.3"/>
	<line class="st0" x1="531.4" y1="532.4" x2="513.6" y2="471.2"/>
	<line class="st0" x1="573.2" y1="517.3" x2="513.6" y2="471.2"/>
	<g>
		<g>
			<path class="st12" d="M415,510c0,1.5-1.3,2.8-2.8,2.8H374c-1.5,0-2.8-1.3-2.8-2.8v-45.3c0-1.5,1.3-2.8,2.8-2.8h38.2
				c1.5,0,2.8,1.3,2.8,2.8V510z"/>
			<path class="st0" d="M415,510c0,1.5-1.3,2.8-2.8,2.8H374c-1.5,0-2.8-1.3-2.8-2.8v-45.3c0-1.5,1.3-2.8,2.8-2.8h38.2
				c1.5,0,2.8,1.3,2.8,2.8V510z"/>
		</g>
		<g>
			<rect x="375.8" y="464.8" class="st5" width="34.6" height="8.2"/>
			<ellipse class="st6" cx="378.7" cy="468.9" rx="1" ry="1.1"/>
			<ellipse class="st6" cx="382.1" cy="468.9" rx="1" ry="1.1"/>
			<ellipse class="st6" cx="385.2" cy="468.9" rx="1" ry="1.1"/>
		</g>
		<g>
			<rect x="375.8" y="476.8" class="st5" width="34.6" height="8.2"/>
			<ellipse class="st6" cx="378.7" cy="480.9" rx="1" ry="1.1"/>
			<ellipse class="st6" cx="382.1" cy="480.9" rx="1" ry="1.1"/>
			<ellipse class="st6" cx="385.2" cy="480.9" rx="1" ry="1.1"/>
		</g>
		<g>
			<rect x="375.8" y="488" class="st5" width="34.6" height="8.2"/>
			<ellipse class="st6" cx="378.7" cy="492.1" rx="1" ry="1.1"/>
			<ellipse class="st6" cx="382.1" cy="492.1" rx="1" ry="1.1"/>
			<ellipse class="st6" cx="385.2" cy="492.1" rx="1" ry="1.1"/>
		</g>
		<g>
			<rect x="375.8" y="499.2" class="st5" width="34.6" height="8.2"/>
			<ellipse class="st6" cx="378.7" cy="503.3" rx="1" ry="1.1"/>
			<ellipse class="st6" cx="382.1" cy="503.3" rx="1" ry="1.1"/>
			<ellipse class="st6" cx="385.2" cy="503.3" rx="1" ry="1.1"/>
		</g>
		<line class="st0" x1="396.3" y1="464.8" x2="399.5" y2="464.8"/>
	</g>
	<g>
		<g>
			<path class="st12" d="M535.6,496.4c0,1.5-1.3,2.8-2.8,2.8h-38.2c-1.5,0-2.8-1.3-2.8-2.8v-45.3c0-1.5,1.3-2.8,2.8-2.8h38.2
				c1.5,0,2.8,1.3,2.8,2.8V496.4z"/>
			<path class="st0" d="M535.6,496.4c0,1.5-1.3,2.8-2.8,2.8h-38.2c-1.5,0-2.8-1.3-2.8-2.8v-45.3c0-1.5,1.3-2.8,2.8-2.8h38.2
				c1.5,0,2.8,1.3,2.8,2.8V496.4z"/>
		</g>
		<g>
			<rect x="496.3" y="451.2" class="st5" width="34.6" height="8.2"/>
			<ellipse class="st6" cx="499.2" cy="455.3" rx="1" ry="1.1"/>
			<ellipse class="st6" cx="502.6" cy="455.3" rx="1" ry="1.1"/>
			<ellipse class="st6" cx="505.8" cy="455.3" rx="1" ry="1.1"/>
		</g>
		<g>
			<rect x="496.3" y="463.2" class="st5" width="34.6" height="8.2"/>
			<ellipse class="st6" cx="499.2" cy="467.3" rx="1" ry="1.1"/>
			<ellipse class="st6" cx="502.6" cy="467.3" rx="1" ry="1.1"/>
			<ellipse class="st6" cx="505.8" cy="467.3" rx="1" ry="1.1"/>
		</g>
		<g>
			<rect x="496.3" y="474.4" class="st5" width="34.6" height="8.2"/>
			<ellipse class="st6" cx="499.2" cy="478.5" rx="1" ry="1.1"/>
			<ellipse class="st6" cx="502.6" cy="478.5" rx="1" ry="1.1"/>
			<ellipse class="st6" cx="505.8" cy="478.5" rx="1" ry="1.1"/>
		</g>
		<g>
			<rect x="496.3" y="485.6" class="st5" width="34.6" height="8.2"/>
			<ellipse class="st6" cx="499.2" cy="489.7" rx="1" ry="1.1"/>
			<ellipse class="st6" cx="502.6" cy="489.7" rx="1" ry="1.1"/>
			<ellipse class="st6" cx="505.8" cy="489.7" rx="1" ry="1.1"/>
		</g>
		<line class="st0" x1="516.8" y1="451.2" x2="520" y2="451.2"/>
	</g>
	<g>
		<g>
			<path class="st12" d="M472.7,537.8c0,1.5-1.3,2.8-2.8,2.8h-38.2c-1.5,0-2.8-1.3-2.8-2.8v-45.3c0-1.5,1.3-2.8,2.8-2.8h38.2
				c1.5,0,2.8,1.3,2.8,2.8V537.8z"/>
			<path class="st0" d="M472.7,537.8c0,1.5-1.3,2.8-2.8,2.8h-38.2c-1.5,0-2.8-1.3-2.8-2.8v-45.3c0-1.5,1.3-2.8,2.8-2.8h38.2
				c1.5,0,2.8,1.3,2.8,2.8V537.8z"/>
		</g>
		<g>
			<rect x="433.5" y="492.6" class="st5" width="34.6" height="8.2"/>
			<ellipse class="st6" cx="436.4" cy="496.7" rx="1" ry="1.1"/>
			<ellipse class="st6" cx="439.8" cy="496.7" rx="1" ry="1.1"/>
			<ellipse class="st6" cx="442.9" cy="496.7" rx="1" ry="1.1"/>
		</g>
		<g>
			<rect x="433.5" y="504.7" class="st5" width="34.6" height="8.2"/>
			<ellipse class="st6" cx="436.4" cy="508.8" rx="1" ry="1.1"/>
			<ellipse class="st6" cx="439.8" cy="508.8" rx="1" ry="1.1"/>
			<ellipse class="st6" cx="442.9" cy="508.8" rx="1" ry="1.1"/>
		</g>
		<g>
			<rect x="433.5" y="515.9" class="st5" width="34.6" height="8.2"/>
			<ellipse class="st6" cx="436.4" cy="520" rx="1" ry="1.1"/>
			<ellipse class="st6" cx="439.8" cy="520" rx="1" ry="1.1"/>
			<ellipse class="st6" cx="442.9" cy="520" rx="1" ry="1.1"/>
		</g>
		<g>
			<rect x="433.5" y="527.1" class="st5" width="34.6" height="8.2"/>
			<ellipse class="st6" cx="436.4" cy="531.2" rx="1" ry="1.1"/>
			<ellipse class="st6" cx="439.8" cy="531.2" rx="1" ry="1.1"/>
			<ellipse class="st6" cx="442.9" cy="531.2" rx="1" ry="1.1"/>
		</g>
		<line class="st0" x1="453.9" y1="492.6" x2="457.2" y2="492.6"/>
	</g>
	<g>
		<g>
			<path class="st12" d="M470.1,456.2c0,1.5-1.3,2.8-2.8,2.8h-38.2c-1.5,0-2.8-1.3-2.8-2.8v-45.3c0-1.5,1.3-2.8,2.8-2.8h38.2
				c1.5,0,2.8,1.3,2.8,2.8V456.2z"/>
			<path class="st0" d="M470.1,456.2c0,1.5-1.3,2.8-2.8,2.8h-38.2c-1.5,0-2.8-1.3-2.8-2.8v-45.3c0-1.5,1.3-2.8,2.8-2.8h38.2
				c1.5,0,2.8,1.3,2.8,2.8V456.2z"/>
		</g>
		<g>
			<rect x="430.9" y="411" class="st5" width="34.6" height="8.2"/>
			<ellipse class="st6" cx="433.8" cy="415.1" rx="1" ry="1.1"/>
			<ellipse class="st6" cx="437.2" cy="415.1" rx="1" ry="1.1"/>
			<ellipse class="st6" cx="440.3" cy="415.1" rx="1" ry="1.1"/>
		</g>
		<g>
			<rect x="430.9" y="423" class="st5" width="34.6" height="8.2"/>
			<ellipse class="st6" cx="433.8" cy="427.2" rx="1" ry="1.1"/>
			<ellipse class="st6" cx="437.2" cy="427.2" rx="1" ry="1.1"/>
			<ellipse class="st6" cx="440.3" cy="427.2" rx="1" ry="1.1"/>
		</g>
		<g>
			<rect x="430.9" y="434.2" class="st5" width="34.6" height="8.2"/>
			<ellipse class="st6" cx="433.8" cy="438.3" rx="1" ry="1.1"/>
			<ellipse class="st6" cx="437.2" cy="438.3" rx="1" ry="1.1"/>
			<ellipse class="st6" cx="440.3" cy="438.3" rx="1" ry="1.1"/>
		</g>
		<g>
			<rect x="430.9" y="445.4" class="st5" width="34.6" height="8.2"/>
			<ellipse class="st6" cx="433.8" cy="449.5" rx="1" ry="1.1"/>
			<ellipse class="st6" cx="437.2" cy="449.5" rx="1" ry="1.1"/>
			<ellipse class="st6" cx="440.3" cy="449.5" rx="1" ry="1.1"/>
		</g>
		<line class="st0" x1="451.3" y1="411" x2="454.6" y2="411"/>
	</g>
	<rect x="334.1" y="510.8" class="st5" width="24.6" height="40.8"/>
	<rect x="336.6" y="513.4" class="st0" width="3.2" height="5.2"/>
	<rect x="342.3" y="513.4" class="st0" width="3.2" height="5.2"/>
	<rect x="347.9" y="513.4" class="st0" width="3.2" height="5.2"/>
	<rect x="353.5" y="513.4" class="st0" width="3.2" height="5.2"/>
	<rect x="336.6" y="520.5" class="st0" width="3.2" height="5.2"/>
	<rect x="342.3" y="520.5" class="st0" width="3.2" height="5.2"/>
	<rect x="347.9" y="520.5" class="st0" width="3.2" height="5.2"/>
	<rect x="353.5" y="520.5" class="st0" width="3.2" height="5.2"/>
	<rect x="336.6" y="527.6" class="st0" width="3.2" height="5.2"/>
	<rect x="342.3" y="527.6" class="st0" width="3.2" height="5.2"/>
	<rect x="347.9" y="527.6" class="st0" width="3.2" height="5.2"/>
	<rect x="353.5" y="527.6" class="st0" width="3.2" height="5.2"/>
	<rect x="336.6" y="534.8" class="st0" width="3.2" height="5.2"/>
	<rect x="342.3" y="534.8" class="st0" width="3.2" height="5.2"/>
	<rect x="347.9" y="534.8" class="st0" width="3.2" height="5.2"/>
	<rect x="353.5" y="534.8" class="st0" width="3.2" height="5.2"/>
	<g>
		<rect x="301.4" y="472.2" class="st0" width="24.6" height="32.4"/>
		<rect x="304" y="474.8" class="st0" width="3.2" height="5.2"/>
		<rect x="309.6" y="474.8" class="st0" width="3.2" height="5.2"/>
		<rect x="315.3" y="474.8" class="st0" width="3.2" height="5.2"/>
		<rect x="320.9" y="474.8" class="st0" width="3.2" height="5.2"/>
		<rect x="304" y="481.9" class="st0" width="3.2" height="5.2"/>
		<rect x="309.6" y="481.9" class="st0" width="3.2" height="5.2"/>
		<rect x="315.3" y="481.9" class="st0" width="3.2" height="5.2"/>
		<rect x="320.9" y="481.9" class="st0" width="3.2" height="5.2"/>
		<rect x="304" y="489.1" class="st0" width="3.2" height="5.2"/>
		<rect x="309.6" y="489.1" class="st0" width="3.2" height="5.2"/>
		<rect x="315.3" y="489.1" class="st0" width="3.2" height="5.2"/>
		<rect x="320.9" y="489.1" class="st0" width="3.2" height="5.2"/>
		<rect x="304" y="496.2" class="st0" width="3.2" height="5.2"/>
		<rect x="309.6" y="496.2" class="st0" width="3.2" height="5.2"/>
		<rect x="315.3" y="496.2" class="st0" width="3.2" height="5.2"/>
		<rect x="320.9" y="496.2" class="st0" width="3.2" height="5.2"/>
	</g>
	<rect x="396.3" y="572.3" class="st0" width="34.3" height="32.4"/>
	<rect x="408.6" y="574.9" class="st0" width="3.2" height="5.2"/>
	<rect x="414.2" y="574.9" class="st0" width="3.2" height="5.2"/>
	<rect x="419.8" y="574.9" class="st0" width="3.2" height="5.2"/>
	<rect x="425.4" y="574.9" class="st0" width="3.2" height="5.2"/>
	<rect x="408.6" y="582.1" class="st0" width="3.2" height="5.2"/>
	<rect x="414.2" y="582.1" class="st0" width="3.2" height="5.2"/>
	<rect x="419.8" y="582.1" class="st0" width="3.2" height="5.2"/>
	<rect x="425.4" y="582.1" class="st0" width="3.2" height="5.2"/>
	<rect x="408.6" y="589.2" class="st0" width="3.2" height="5.2"/>
	<rect x="414.2" y="589.2" class="st0" width="3.2" height="5.2"/>
	<rect x="419.8" y="589.2" class="st0" width="3.2" height="5.2"/>
	<rect x="425.4" y="589.2" class="st0" width="3.2" height="5.2"/>
	<rect x="408.6" y="596.3" class="st0" width="3.2" height="5.2"/>
	<rect x="403.4" y="574.9" class="st0" width="3.2" height="5.2"/>
	<rect x="403.4" y="582.1" class="st0" width="3.2" height="5.2"/>
	<rect x="403.4" y="589.2" class="st0" width="3.2" height="5.2"/>
	<rect x="403.4" y="596.3" class="st0" width="3.2" height="5.2"/>
	<rect x="398.2" y="574.9" class="st0" width="3.2" height="5.2"/>
	<rect x="398.2" y="582.1" class="st0" width="3.2" height="5.2"/>
	<rect x="398.2" y="589.2" class="st0" width="3.2" height="5.2"/>
	<rect x="398.2" y="596.3" class="st0" width="3.2" height="5.2"/>
	<rect x="414.2" y="596.3" class="st0" width="3.2" height="5.2"/>
	<rect x="419.8" y="596.3" class="st0" width="3.2" height="5.2"/>
	<rect x="425.4" y="596.3" class="st0" width="3.2" height="5.2"/>
	<rect x="566" y="517.9" class="st0" width="13.6" height="25.3"/>
	<rect x="568.6" y="520.5" class="st0" width="3.2" height="5.2"/>
	<rect x="574.3" y="520.5" class="st0" width="3.2" height="5.2"/>
	<rect x="568.6" y="527.6" class="st0" width="3.2" height="5.2"/>
	<rect x="574.3" y="527.6" class="st0" width="3.2" height="5.2"/>
	<rect x="568.6" y="534.8" class="st0" width="3.2" height="5.2"/>
	<rect x="574.3" y="534.8" class="st0" width="3.2" height="5.2"/>
	<rect x="371" y="547.7" class="st0" width="13.6" height="25.3"/>
	<rect x="373.6" y="550.3" class="st0" width="3.2" height="5.2"/>
	<rect x="379.2" y="550.3" class="st0" width="3.2" height="5.2"/>
	<rect x="373.6" y="557.4" class="st0" width="3.2" height="5.2"/>
	<rect x="379.2" y="557.4" class="st0" width="3.2" height="5.2"/>
	<rect x="373.6" y="564.6" class="st0" width="3.2" height="5.2"/>
	<rect x="379.2" y="564.6" class="st0" width="3.2" height="5.2"/>
	<rect x="336.6" y="541.9" class="st0" width="3.2" height="5.2"/>
	<rect x="342.3" y="541.9" class="st0" width="3.2" height="5.2"/>
	<rect x="347.9" y="541.9" class="st0" width="3.2" height="5.2"/>
	<rect x="353.5" y="541.9" class="st0" width="3.2" height="5.2"/>
	<rect x="487.6" y="563.9" class="st0" width="24.6" height="40.8"/>
	<rect x="490.2" y="566.5" class="st0" width="3.2" height="5.2"/>
	<rect x="495.8" y="566.5" class="st0" width="3.2" height="5.2"/>
	<rect x="501.5" y="566.5" class="st0" width="3.2" height="5.2"/>
	<rect x="507.1" y="566.5" class="st0" width="3.2" height="5.2"/>
	<rect x="490.2" y="573.6" class="st0" width="3.2" height="5.2"/>
	<rect x="495.8" y="573.6" class="st0" width="3.2" height="5.2"/>
	<rect x="501.5" y="573.6" class="st0" width="3.2" height="5.2"/>
	<rect x="507.1" y="573.6" class="st0" width="3.2" height="5.2"/>
	<rect x="508.7" y="525" class="st5" width="47.3" height="18.1"/>
	<rect x="511.3" y="527.6" class="st5" width="3.2" height="5.2"/>
	<rect x="516.9" y="527.6" class="st5" width="3.2" height="5.2"/>
	<rect x="522.6" y="527.6" class="st5" width="3.2" height="5.2"/>
	<rect x="528.2" y="527.6" class="st5" width="3.2" height="5.2"/>
	<rect x="511.3" y="534.8" class="st5" width="3.2" height="5.2"/>
	<rect x="516.9" y="534.8" class="st5" width="3.2" height="5.2"/>
	<rect x="522.6" y="534.8" class="st5" width="3.2" height="5.2"/>
	<rect x="528.2" y="534.8" class="st5" width="3.2" height="5.2"/>
	<rect x="533.4" y="527.6" class="st5" width="3.2" height="5.2"/>
	<rect x="539" y="527.6" class="st5" width="3.2" height="5.2"/>
	<rect x="544.6" y="527.6" class="st5" width="3.2" height="5.2"/>
	<rect x="550.2" y="527.6" class="st5" width="3.2" height="5.2"/>
	<rect x="533.4" y="534.8" class="st5" width="3.2" height="5.2"/>
	<rect x="539" y="534.8" class="st5" width="3.2" height="5.2"/>
	<rect x="544.6" y="534.8" class="st5" width="3.2" height="5.2"/>
	<rect x="550.2" y="534.8" class="st5" width="3.2" height="5.2"/>
	<rect x="490.2" y="580.8" class="st0" width="3.2" height="5.2"/>
	<rect x="495.8" y="580.8" class="st0" width="3.2" height="5.2"/>
	<rect x="501.5" y="580.8" class="st0" width="3.2" height="5.2"/>
	<rect x="507.1" y="580.8" class="st0" width="3.2" height="5.2"/>
	<rect x="490.2" y="587.9" class="st0" width="3.2" height="5.2"/>
	<rect x="495.8" y="587.9" class="st0" width="3.2" height="5.2"/>
	<rect x="501.5" y="587.9" class="st0" width="3.2" height="5.2"/>
	<rect x="507.1" y="587.9" class="st0" width="3.2" height="5.2"/>
	<rect x="490.2" y="595" class="st0" width="3.2" height="5.2"/>
	<rect x="495.8" y="595" class="st0" width="3.2" height="5.2"/>
	<rect x="501.5" y="595" class="st0" width="3.2" height="5.2"/>
	<rect x="507.1" y="595" class="st0" width="3.2" height="5.2"/>
</g>
<text transform="matrix(1 0 0 1 17.9072 535.9461)" class="st15 st16">Academic Networks</text>
<text transform="matrix(1 0 0 1 266.9072 577.9461)"><tspan x="0" y="0" class="st15 st16">Business</tspan><tspan x="0" y="21.6" class="st15 st16">Networks</tspan></text>
<text transform="matrix(1 0 0 1 686.9072 124.9461)"><tspan x="0" y="0" class="st15 st16">Mobile</tspan><tspan x="0" y="21.6" class="st15 st16">Networks</tspan></text>
<text transform="matrix(1 0 0 1 63.9072 112.9461)"><tspan x="0" y="0" class="st15 st16">Home</tspan><tspan x="0" y="21.6" class="st15 st16">Networks</tspan></text>
<text transform="matrix(1 0 0 1 309.9072 292.9461)"><tspan x="0" y="0" class="st15 st16">Network</tspan><tspan x="0" y="21.6" class="st15 st16">Providers</tspan></text>
<g>
	<rect x="67.4" y="228.4" class="st12" width="30" height="33"/>
	<g>
		<rect x="92.5" y="232.1" class="st0" width="3.2" height="23.8"/>
		<rect x="84.7" y="232.1" class="st0" width="3.2" height="23.8"/>
		<rect x="76.9" y="232.1" class="st0" width="3.2" height="23.8"/>
		<rect x="69.1" y="232.1" class="st0" width="3.2" height="23.8"/>
	</g>
	<rect x="65.9" y="257.7" class="st0" width="33" height="1.9"/>
	<rect x="63.8" y="261.9" class="st0" width="37.6" height="1.9"/>
	<polygon class="st5" points="99.4,229.4 65.4,229.4 82.4,217.4 	"/>
</g>
<g>
	<rect x="17.4" y="247.4" class="st12" width="30" height="33"/>
	<g>
		<rect x="42.5" y="251.1" class="st0" width="3.2" height="23.8"/>
		<rect x="34.7" y="251.1" class="st0" width="3.2" height="23.8"/>
		<rect x="26.9" y="251.1" class="st0" width="3.2" height="23.8"/>
		<rect x="19.1" y="251.1" class="st0" width="3.2" height="23.8"/>
	</g>
	<rect x="15.9" y="276.7" class="st0" width="33" height="1.9"/>
	<rect x="13.8" y="280.9" class="st0" width="37.6" height="1.9"/>
	<polygon class="st5" points="49.4,248.4 15.4,248.4 32.4,236.4 	"/>
</g>
<g>
	<rect x="61.4" y="295.4" class="st12" width="30" height="33"/>
	<g>
		<rect x="86.5" y="299.1" class="st0" width="3.2" height="23.8"/>
		<rect x="78.7" y="299.1" class="st0" width="3.2" height="23.8"/>
		<rect x="70.9" y="299.1" class="st0" width="3.2" height="23.8"/>
		<rect x="63.1" y="299.1" class="st0" width="3.2" height="23.8"/>
	</g>
	<rect x="59.9" y="324.7" class="st0" width="33" height="1.9"/>
	<rect x="57.8" y="328.9" class="st0" width="37.6" height="1.9"/>
	<polygon class="st5" points="93.4,296.4 59.4,296.4 76.4,284.4 	"/>
</g>
<g>
	<rect x="14.4" y="330.4" class="st12" width="30" height="33"/>
	<g>
		<rect x="39.5" y="334.1" class="st0" width="3.2" height="23.8"/>
		<rect x="31.7" y="334.1" class="st0" width="3.2" height="23.8"/>
		<rect x="23.9" y="334.1" class="st0" width="3.2" height="23.8"/>
		<rect x="16.1" y="334.1" class="st0" width="3.2" height="23.8"/>
	</g>
	<rect x="12.9" y="359.7" class="st0" width="33" height="1.9"/>
	<rect x="10.8" y="363.9" class="st0" width="37.6" height="1.9"/>
	<polygon class="st5" points="46.4,331.4 12.4,331.4 29.4,319.4 	"/>
</g>
<g>
	<rect x="29.4" y="386.4" class="st12" width="30" height="33"/>
	<g>
		<rect x="54.5" y="390.1" class="st0" width="3.2" height="23.8"/>
		<rect x="46.7" y="390.1" class="st0" width="3.2" height="23.8"/>
		<rect x="38.9" y="390.1" class="st0" width="3.2" height="23.8"/>
		<rect x="31.1" y="390.1" class="st0" width="3.2" height="23.8"/>
	</g>
	<rect x="27.9" y="415.7" class="st0" width="33" height="1.9"/>
	<rect x="25.8" y="419.9" class="st0" width="37.6" height="1.9"/>
	<polygon class="st5" points="61.4,387.4 27.4,387.4 44.4,375.4 	"/>
</g>
<g>
	<rect x="72.4" y="457.4" class="st12" width="30" height="33"/>
	<g>
		<rect x="97.5" y="461.1" class="st0" width="3.2" height="23.8"/>
		<rect x="89.7" y="461.1" class="st0" width="3.2" height="23.8"/>
		<rect x="81.9" y="461.1" class="st0" width="3.2" height="23.8"/>
		<rect x="74.1" y="461.1" class="st0" width="3.2" height="23.8"/>
	</g>
	<rect x="70.9" y="486.7" class="st0" width="33" height="1.9"/>
	<rect x="68.8" y="490.9" class="st0" width="37.6" height="1.9"/>
	<polygon class="st5" points="104.4,458.4 70.4,458.4 87.4,446.4 	"/>
</g>
</svg>
