<?xml version="1.0" encoding="utf-8"?>
<!-- Generator: Adobe Illustrator 21.1.0, SVG Export Plug-In . SVG Version: 6.00 Build 0)  -->
<svg version="1.1" id="Layer_1" xmlns="http://www.w3.org/2000/svg" xmlns:xlink="http://www.w3.org/1999/xlink" x="0px" y="0px"
	 viewBox="0 0 708.5 567.2" style="enable-background:new 0 0 708.5 567.2;" xml:space="preserve">
<style type="text/css">
	.st0{fill:#FFFFFF;}
	.st1{fill:none;stroke:#000000;stroke-miterlimit:10;}
	.st2{fill:none;stroke:#FF0006;stroke-width:2;stroke-miterlimit:10;}
	.st3{fill:none;stroke:#FF0006;stroke-width:2;stroke-miterlimit:10;stroke-dasharray:11.6537,11.6537;}
	.st4{fill:none;stroke:#FF0006;stroke-width:2;stroke-miterlimit:10;stroke-dasharray:12.724,12.724;}
	.st5{fill:none;stroke:#FF0006;stroke-width:2;stroke-miterlimit:10;stroke-dasharray:11.0467,11.0467;}
	.st6{fill:none;stroke:#FF0006;stroke-width:2;stroke-miterlimit:10;stroke-dasharray:15.0068,15.0068;}
	.st7{fill:none;stroke:#FF0006;stroke-width:2;stroke-miterlimit:10;stroke-dasharray:11.2007,11.2007;}
	.st8{fill:none;stroke:#FF0006;stroke-width:2;stroke-miterlimit:10;stroke-dasharray:9.973,9.973;}
	.st9{fill:none;stroke:#FF0000;stroke-width:2;stroke-miterlimit:10;}
	.st10{fill:none;stroke:#FF0000;stroke-width:2;stroke-miterlimit:10;stroke-dasharray:12.2837,12.2837;}
	.st11{fill:none;stroke:#FF0006;stroke-width:2;stroke-miterlimit:10;stroke-dasharray:8.2521,8.2521;}
	.st12{fill:none;stroke:#FF0006;stroke-width:2;stroke-miterlimit:10;stroke-dasharray:12.1374,12.1374;}
	.st13{fill:none;stroke:#000000;stroke-linecap:round;stroke-linejoin:round;stroke-miterlimit:1.5;}
	.st14{fill:none;stroke:#000000;stroke-width:0.98;stroke-linecap:round;stroke-linejoin:round;stroke-miterlimit:1.5;}
	.st15{fill:none;stroke:#FF0000;stroke-width:2;stroke-linecap:round;stroke-linejoin:round;}
	.st16{fill:none;stroke:#FF0000;stroke-width:2;stroke-linecap:round;stroke-linejoin:round;stroke-dasharray:12.0402,12.0402;}
	.st17{fill:none;stroke:#FF0006;stroke-width:2;stroke-linecap:round;stroke-linejoin:round;}
	.st18{fill:none;stroke:#FF0006;stroke-width:2;stroke-linecap:round;stroke-linejoin:round;stroke-dasharray:7.5559,7.5559;}
	.st19{fill:none;stroke:#FF0000;stroke-width:2;stroke-linecap:round;stroke-linejoin:round;stroke-dasharray:9.4657,9.4657;}
	.st20{fill:none;stroke:#FF0006;stroke-width:2;stroke-linecap:round;stroke-linejoin:round;stroke-dasharray:8.1698,8.1698;}
	.st21{font-family:'Helvetica';}
	.st22{font-size:18px;}
</style>
<g transform="matrix(1,0,0,1,-330,0)">
	<path class="st0" d="M364.9,393.6c-1.7,0-3.3,0.8-4.4,2.3c-1.6,2.4-1,5.7,1.4,7.3c0.9,0.6,1.9,0.9,3,0.9c1.7,0,3.3-0.8,4.4-2.3
		c1.6-2.4,1-5.7-1.4-7.3C366.9,393.9,365.9,393.6,364.9,393.6 M364.9,394.6c0.9,0,1.7,0.3,2.4,0.8c2,1.3,2.5,4,1.1,6
		c-0.8,1.2-2.1,1.9-3.6,1.9c-0.9,0-1.7-0.3-2.4-0.8c-2-1.3-2.5-4-1.1-6C362.1,395.3,363.5,394.6,364.9,394.6"/>
</g>
<path d="M429.4,530.4c-1,0-1.9-0.3-2.7-0.8c-1.1-0.7-1.8-1.8-2-3.1c-0.2-1.3,0-2.5,0.8-3.6c0.9-1.3,2.4-2.1,4-2.1
	c1,0,1.9,0.3,2.7,0.8c1.1,0.7,1.8,1.8,2,3.1c0.2,1.3,0,2.5-0.8,3.6C432.5,529.6,431,530.4,429.4,530.4"/>
<g transform="matrix(1,0,0,1,-371.842,-105.841)">
	<path d="M444.3,534.7c-1,0-1.9-0.3-2.7-0.8c-1.1-0.7-1.8-1.8-2-3.1c-0.2-1.3,0-2.5,0.8-3.6c0.9-1.3,2.4-2.1,4-2.1
		c1,0,1.9,0.3,2.7,0.8c1.1,0.7,1.8,1.8,2,3.1c0.2,1.3,0,2.5-0.8,3.6C447.4,533.9,445.9,534.7,444.3,534.7"/>
</g>
<path class="st0" d="M429.4,520.3c-1.7,0-3.3,0.8-4.4,2.3c-1.6,2.4-1,5.7,1.4,7.3c0.9,0.6,1.9,0.9,3,0.9c1.7,0,3.3-0.8,4.4-2.3
	c1.6-2.4,1-5.7-1.4-7.3C431.5,520.6,430.5,520.3,429.4,520.3 M429.4,521.3c0.9,0,1.7,0.3,2.4,0.8c2,1.3,2.5,4,1.1,6
	c-0.8,1.2-2.1,1.9-3.6,1.9c-0.9,0-1.7-0.3-2.4-0.8c-2-1.3-2.5-4-1.1-6C426.7,522,428,521.3,429.4,521.3"/>
<g transform="matrix(1,0,0,1,-371.842,-105.841)">
	<path class="st0" d="M444.3,524.6c-1.7,0-3.3,0.8-4.4,2.3c-1.6,2.4-1,5.7,1.4,7.3c0.9,0.6,1.9,0.9,3,0.9c1.7,0,3.3-0.8,4.4-2.3
		c1.6-2.4,1-5.7-1.4-7.3C446.4,524.9,445.3,524.6,444.3,524.6 M444.3,525.5c0.9,0,1.7,0.3,2.4,0.8c2,1.3,2.5,4,1.1,6
		c-0.8,1.2-2.1,1.9-3.6,1.9c-0.9,0-1.7-0.3-2.4-0.8c-2-1.3-2.5-4-1.1-6C441.6,526.2,442.9,525.5,444.3,525.5"/>
</g>
<path d="M459.2,483.4c-1,0-1.9-0.3-2.7-0.8c-1.1-0.7-1.8-1.8-2-3.1c-0.2-1.3,0-2.5,0.8-3.6c0.9-1.3,2.4-2.1,4-2.1
	c1,0,1.9,0.3,2.7,0.8c1.1,0.7,1.8,1.8,2,3.1c0.2,1.3,0,2.5-0.8,3.6C462.3,482.6,460.8,483.4,459.2,483.4"/>
<g transform="matrix(1,0,0,1,-371.842,-105.841)">
	<path d="M474.1,487.6c-1,0-1.9-0.3-2.7-0.8c-1.1-0.7-1.8-1.8-2-3.1c-0.2-1.3,0-2.5,0.8-3.6c0.9-1.3,2.4-2.1,4-2.1
		c1,0,1.9,0.3,2.7,0.8c1.1,0.7,1.8,1.8,2,3.1c0.2,1.3,0,2.5-0.8,3.6C477.1,486.8,475.7,487.6,474.1,487.6"/>
</g>
<path class="st0" d="M459.2,473.3c-1.7,0-3.3,0.8-4.4,2.3c-1.6,2.4-1,5.7,1.4,7.3c0.9,0.6,1.9,0.9,3,0.9c1.7,0,3.3-0.8,4.4-2.3
	c1.6-2.4,1-5.7-1.4-7.3C461.3,473.6,460.2,473.3,459.2,473.3 M459.2,474.3c0.9,0,1.7,0.3,2.4,0.8c2,1.3,2.5,4,1.1,6
	c-0.8,1.2-2.1,1.9-3.6,1.9c-0.9,0-1.7-0.3-2.4-0.8c-2-1.3-2.5-4-1.1-6C456.4,475,457.8,474.3,459.2,474.3"/>
<g transform="matrix(1,0,0,1,-371.842,-105.841)">
	<path class="st0" d="M474.1,477.5c-1.7,0-3.3,0.8-4.4,2.3c-1.6,2.4-1,5.7,1.4,7.3c0.9,0.6,1.9,0.9,3,0.9c1.7,0,3.3-0.8,4.4-2.3
		c1.6-2.4,1-5.7-1.4-7.3C476.1,477.8,475.1,477.5,474.1,477.5 M474.1,478.5c0.9,0,1.7,0.3,2.4,0.8c2,1.3,2.5,4,1.1,6
		c-0.8,1.2-2.1,1.9-3.6,1.9c-0.9,0-1.7-0.3-2.4-0.8c-2-1.3-2.5-4-1.1-6C471.3,479.2,472.6,478.5,474.1,478.5"/>
</g>
<path d="M501.4,481.5c-1,0-1.9-0.3-2.7-0.8c-1.1-0.7-1.8-1.8-2-3.1c-0.2-1.3,0-2.5,0.8-3.6c0.9-1.3,2.4-2.1,4-2.1
	c1,0,1.9,0.3,2.7,0.8c1.1,0.7,1.8,1.8,2,3.1c0.2,1.3,0,2.5-0.8,3.6C504.5,480.7,503,481.5,501.4,481.5"/>
<g transform="matrix(1,0,0,1,-371.842,-105.841)">
	<path d="M516.3,485.7c-1,0-1.9-0.3-2.7-0.8c-1.1-0.7-1.8-1.8-2-3.1c-0.2-1.3,0-2.5,0.8-3.6c0.9-1.3,2.4-2.1,4-2.1
		c1,0,1.9,0.3,2.7,0.8c1.1,0.7,1.8,1.8,2,3.1c0.2,1.3,0,2.5-0.8,3.6C519.4,484.9,517.9,485.7,516.3,485.7"/>
</g>
<path class="st0" d="M501.4,471.4c-1.7,0-3.3,0.8-4.4,2.3c-1.6,2.4-1,5.7,1.4,7.3c0.9,0.6,1.9,0.9,3,0.9c1.7,0,3.3-0.8,4.4-2.3
	c1.6-2.4,1-5.7-1.4-7.3C503.5,471.7,502.5,471.4,501.4,471.4 M501.4,472.3c0.9,0,1.7,0.3,2.4,0.8c2,1.3,2.5,4,1.1,6
	c-0.8,1.2-2.1,1.9-3.6,1.9c-0.9,0-1.7-0.3-2.4-0.8c-2-1.3-2.5-4-1.1-6C498.7,473,500,472.3,501.4,472.3"/>
<g transform="matrix(1,0,0,1,-371.842,-105.841)">
	<path class="st0" d="M516.3,475.6c-1.7,0-3.3,0.8-4.4,2.3c-1.6,2.4-1,5.7,1.4,7.3c0.9,0.6,1.9,0.9,3,0.9c1.7,0,3.3-0.8,4.4-2.3
		c1.6-2.4,1-5.7-1.4-7.3C518.4,475.9,517.3,475.6,516.3,475.6 M516.3,476.6c0.9,0,1.7,0.3,2.4,0.8c2,1.3,2.5,4,1.1,6
		c-0.8,1.2-2.1,1.9-3.6,1.9c-0.9,0-1.7-0.3-2.4-0.8c-2-1.3-2.5-4-1.1-6C513.6,477.3,514.9,476.6,516.3,476.6"/>
</g>
<path d="M508.1,535.2c-1,0-1.9-0.3-2.7-0.8c-1.1-0.7-1.8-1.8-2-3.1c-0.2-1.3,0-2.5,0.8-3.6c0.9-1.3,2.4-2.1,4-2.1
	c1,0,1.9,0.3,2.7,0.8c1.1,0.7,1.8,1.8,2,3.1c0.2,1.3,0,2.5-0.8,3.6C511.2,534.4,509.7,535.2,508.1,535.2"/>
<g transform="matrix(1,0,0,1,-371.842,-105.841)">
	<path d="M523,539.5c-1,0-1.9-0.3-2.7-0.8c-1.1-0.7-1.8-1.8-2-3.1c-0.2-1.3,0-2.5,0.8-3.6c0.9-1.3,2.4-2.1,4-2.1
		c1,0,1.9,0.3,2.7,0.8c1.1,0.7,1.8,1.8,2,3.1c0.2,1.3,0,2.5-0.8,3.6C526.1,538.7,524.6,539.5,523,539.5"/>
</g>
<path class="st0" d="M508.2,525.1c-1.7,0-3.3,0.8-4.4,2.3c-1.6,2.4-1,5.7,1.4,7.3c0.9,0.6,1.9,0.9,3,0.9c1.7,0,3.3-0.8,4.4-2.3
	c1.6-2.4,1-5.7-1.4-7.3C510.2,525.4,509.2,525.1,508.2,525.1 M508.2,526.1c0.9,0,1.7,0.3,2.4,0.8c2,1.3,2.5,4,1.1,6
	c-0.8,1.2-2.1,1.9-3.6,1.9c-0.9,0-1.7-0.3-2.4-0.8c-2-1.3-2.5-4-1.1-6C505.4,526.8,506.7,526.1,508.2,526.1"/>
<g transform="matrix(1,0,0,1,-371.842,-105.841)">
	<path class="st0" d="M523,529.4c-1.7,0-3.3,0.8-4.4,2.3c-1.6,2.4-1,5.7,1.4,7.3c0.9,0.6,1.9,0.9,3,0.9c1.7,0,3.3-0.8,4.4-2.3
		c1.6-2.4,1-5.7-1.4-7.3C525.1,529.7,524.1,529.4,523,529.4 M523,530.3c0.9,0,1.7,0.3,2.4,0.8c2,1.3,2.5,4,1.1,6
		c-0.8,1.2-2.1,1.9-3.6,1.9c-0.9,0-1.7-0.3-2.4-0.8c-2-1.3-2.5-4-1.1-6C520.3,531,521.6,530.3,523,530.3"/>
</g>
<path d="M593.6,510.3c-1,0-1.9-0.3-2.7-0.8c-1.1-0.7-1.8-1.8-2-3.1c-0.2-1.3,0-2.5,0.8-3.6c0.9-1.3,2.4-2.1,4-2.1
	c1,0,1.9,0.3,2.7,0.8c1.1,0.7,1.8,1.8,2,3.1c0.2,1.3,0,2.5-0.8,3.6C596.7,509.5,595.2,510.3,593.6,510.3"/>
<g transform="matrix(1,0,0,1,-371.842,-105.841)">
	<path d="M608.5,514.5c-1,0-1.9-0.3-2.7-0.8c-1.1-0.7-1.8-1.8-2-3.1c-0.2-1.3,0-2.5,0.8-3.6c0.9-1.3,2.4-2.1,4-2.1
		c1,0,1.9,0.3,2.7,0.8c1.1,0.7,1.8,1.8,2,3.1c0.2,1.3,0,2.5-0.8,3.6C611.5,513.7,610.1,514.5,608.5,514.5"/>
</g>
<path class="st0" d="M593.6,500.2c-1.7,0-3.3,0.8-4.4,2.3c-1.6,2.4-1,5.7,1.4,7.3c0.9,0.6,1.9,0.9,3,0.9c1.7,0,3.3-0.8,4.4-2.3
	c1.6-2.4,1-5.7-1.4-7.3C595.7,500.5,594.6,500.2,593.6,500.2 M593.6,501.1c0.9,0,1.7,0.3,2.4,0.8c2,1.3,2.5,4,1.1,6
	c-0.8,1.2-2.1,1.9-3.6,1.9c-0.9,0-1.7-0.3-2.4-0.8c-2-1.3-2.5-4-1.1-6C590.8,501.8,592.2,501.1,593.6,501.1"/>
<g transform="matrix(1,0,0,1,-371.842,-105.841)">
	<path class="st0" d="M608.5,504.4c-1.7,0-3.3,0.8-4.4,2.3c-1.6,2.4-1,5.7,1.4,7.3c0.9,0.6,1.9,0.9,3,0.9c1.7,0,3.3-0.8,4.4-2.3
		c1.6-2.4,1-5.7-1.4-7.3C610.5,504.7,609.5,504.4,608.5,504.4 M608.5,505.4c0.9,0,1.7,0.3,2.4,0.8c2,1.3,2.5,4,1.1,6
		c-0.8,1.2-2.1,1.9-3.6,1.9c-0.9,0-1.7-0.3-2.4-0.8c-2-1.3-2.5-4-1.1-6C605.7,506.1,607,505.4,608.5,505.4"/>
</g>
<path d="M552.3,479.5c-1,0-1.9-0.3-2.7-0.8c-1.1-0.7-1.8-1.8-2-3.1c-0.2-1.3,0-2.5,0.8-3.6c0.9-1.3,2.4-2.1,4-2.1
	c1,0,1.9,0.3,2.7,0.8c1.1,0.7,1.8,1.8,2,3.1c0.2,1.3,0,2.5-0.8,3.6C555.4,478.8,553.9,479.5,552.3,479.5"/>
<g transform="matrix(1,0,0,1,-371.842,-105.841)">
	<path d="M567.2,483.8c-1,0-1.9-0.3-2.7-0.8c-1.1-0.7-1.8-1.8-2-3.1c-0.2-1.3,0-2.5,0.8-3.6c0.9-1.3,2.4-2.1,4-2.1
		c1,0,1.9,0.3,2.7,0.8c1.1,0.7,1.8,1.8,2,3.1c0.2,1.3,0,2.5-0.8,3.6C570.3,483,568.8,483.8,567.2,483.8"/>
</g>
<path class="st0" d="M552.3,469.5c-1.7,0-3.3,0.8-4.4,2.3c-1.6,2.4-1,5.7,1.4,7.3c0.9,0.6,1.9,0.9,3,0.9c1.7,0,3.3-0.8,4.4-2.3
	c1.6-2.4,1-5.7-1.4-7.3C554.4,469.8,553.3,469.5,552.3,469.5 M552.3,470.4c0.9,0,1.7,0.3,2.4,0.8c2,1.3,2.5,4,1.1,6
	c-0.8,1.2-2.1,1.9-3.6,1.9c-0.9,0-1.7-0.3-2.4-0.8c-2-1.3-2.5-4-1.1-6C549.6,471.1,550.9,470.4,552.3,470.4"/>
<g transform="matrix(1,0,0,1,-371.842,-105.841)">
	<path class="st0" d="M567.2,473.7c-1.7,0-3.3,0.8-4.4,2.3c-1.6,2.4-1,5.7,1.4,7.3c0.9,0.6,1.9,0.9,3,0.9c1.7,0,3.3-0.8,4.4-2.3
		c1.6-2.4,1-5.7-1.4-7.3C569.3,474,568.2,473.7,567.2,473.7 M567.2,474.6c0.9,0,1.7,0.3,2.4,0.8c2,1.3,2.5,4,1.1,6
		c-0.8,1.2-2.1,1.9-3.6,1.9c-0.9,0-1.7-0.3-2.4-0.8c-2-1.3-2.5-4-1.1-6C564.4,475.4,565.8,474.6,567.2,474.6"/>
</g>
<path d="M551.3,402.7c-1,0-1.9-0.3-2.7-0.8c-1.1-0.7-1.8-1.8-2-3.1c-0.2-1.3,0-2.5,0.8-3.6c0.9-1.3,2.4-2.1,4-2.1
	c1,0,1.9,0.3,2.7,0.8c1.1,0.7,1.8,1.8,2,3.1c0.2,1.3,0,2.5-0.8,3.6C554.4,402,552.9,402.7,551.3,402.7"/>
<g transform="matrix(1,0,0,1,-371.842,-105.841)">
	<path d="M566.2,407c-1,0-1.9-0.3-2.7-0.8c-1.1-0.7-1.8-1.8-2-3.1c-0.2-1.3,0-2.5,0.8-3.6c0.9-1.3,2.4-2.1,4-2.1
		c1,0,1.9,0.3,2.7,0.8c1.1,0.7,1.8,1.8,2,3.1c0.2,1.3,0,2.5-0.8,3.6C569.3,406.2,567.8,407,566.2,407"/>
</g>
<path class="st0" d="M551.4,392.7c-1.7,0-3.3,0.8-4.4,2.3c-1.6,2.4-1,5.7,1.4,7.3c0.9,0.6,1.9,0.9,3,0.9c1.7,0,3.3-0.8,4.4-2.3
	c1.6-2.4,1-5.7-1.4-7.3C553.4,393,552.4,392.7,551.4,392.7 M551.4,393.6c0.9,0,1.7,0.3,2.4,0.8c2,1.3,2.5,4,1.1,6
	c-0.8,1.2-2.1,1.9-3.6,1.9c-0.9,0-1.7-0.3-2.4-0.8c-2-1.3-2.5-4-1.1-6C548.6,394.3,549.9,393.6,551.4,393.6"/>
<g transform="matrix(1,0,0,1,-371.842,-105.841)">
	<path class="st0" d="M566.2,396.9c-1.7,0-3.3,0.8-4.4,2.3c-1.6,2.4-1,5.7,1.4,7.3c0.9,0.6,1.9,0.9,3,0.9c1.7,0,3.3-0.8,4.4-2.3
		c1.6-2.4,1-5.7-1.4-7.3C568.3,397.2,567.3,396.9,566.2,396.9 M566.2,397.9c0.9,0,1.7,0.3,2.4,0.8c2,1.3,2.5,4,1.1,6
		c-0.8,1.2-2.1,1.9-3.6,1.9c-0.9,0-1.7-0.3-2.4-0.8c-2-1.3-2.5-4-1.1-6C563.5,398.6,564.8,397.9,566.2,397.9"/>
</g>
<path d="M518.7,380.7c-1,0-1.9-0.3-2.7-0.8c-1.1-0.7-1.8-1.8-2-3.1c-0.2-1.3,0-2.5,0.8-3.6c0.9-1.3,2.4-2.1,4-2.1
	c1,0,1.9,0.3,2.7,0.8c1.1,0.7,1.8,1.8,2,3.1c0.2,1.3,0,2.5-0.8,3.6C521.8,379.9,520.3,380.7,518.7,380.7"/>
<g transform="matrix(1,0,0,1,-371.842,-105.841)">
	<path d="M533.6,384.9c-1,0-1.9-0.3-2.7-0.8c-1.1-0.7-1.8-1.8-2-3.1c-0.2-1.3,0-2.5,0.8-3.6c0.9-1.3,2.4-2.1,4-2.1
		c1,0,1.9,0.3,2.7,0.8c1.1,0.7,1.8,1.8,2,3.1c0.2,1.3,0,2.5-0.8,3.6C536.7,384.1,535.2,384.9,533.6,384.9"/>
</g>
<path class="st0" d="M518.7,370.6c-1.7,0-3.3,0.8-4.4,2.3c-1.6,2.4-1,5.7,1.4,7.3c0.9,0.6,1.9,0.9,3,0.9c1.7,0,3.3-0.8,4.4-2.3
	c1.6-2.4,1-5.7-1.4-7.3C520.8,370.9,519.7,370.6,518.7,370.6 M518.7,371.5c0.9,0,1.7,0.3,2.4,0.8c2,1.3,2.5,4,1.1,6
	c-0.8,1.2-2.1,1.9-3.6,1.9c-0.9,0-1.7-0.3-2.4-0.8c-2-1.3-2.5-4-1.1-6C516,372.2,517.3,371.5,518.7,371.5"/>
<g transform="matrix(1,0,0,1,-371.842,-105.841)">
	<path class="st0" d="M533.6,374.8c-1.7,0-3.3,0.8-4.4,2.3c-1.6,2.4-1,5.7,1.4,7.3c0.9,0.6,1.9,0.9,3,0.9c1.7,0,3.3-0.8,4.4-2.3
		c1.6-2.4,1-5.7-1.4-7.3C535.7,375.1,534.6,374.8,533.6,374.8 M533.6,375.8c0.9,0,1.7,0.3,2.4,0.8c2,1.3,2.5,4,1.1,6
		c-0.8,1.2-2.1,1.9-3.6,1.9c-0.9,0-1.7-0.3-2.4-0.8c-2-1.3-2.5-4-1.1-6C530.8,376.5,532.2,375.8,533.6,375.8"/>
</g>
<path d="M494.7,444c-1,0-1.9-0.3-2.7-0.8c-1.1-0.7-1.8-1.8-2-3.1c-0.2-1.3,0-2.5,0.8-3.6c0.9-1.3,2.4-2.1,4-2.1c1,0,1.9,0.3,2.7,0.8
	c1.1,0.7,1.8,1.8,2,3.1c0.2,1.3,0,2.5-0.8,3.6C497.8,443.2,496.3,444,494.7,444"/>
<g transform="matrix(1,0,0,1,-371.842,-105.841)">
	<path d="M509.6,448.3c-1,0-1.9-0.3-2.7-0.8c-1.1-0.7-1.8-1.8-2-3.1c-0.2-1.3,0-2.5,0.8-3.6c0.9-1.3,2.4-2.1,4-2.1
		c1,0,1.9,0.3,2.7,0.8c1.1,0.7,1.8,1.8,2,3.1c0.2,1.3,0,2.5-0.8,3.6C512.7,447.5,511.2,448.3,509.6,448.3"/>
</g>
<path class="st0" d="M494.7,433.9c-1.7,0-3.3,0.8-4.4,2.3c-1.6,2.4-1,5.7,1.4,7.3c0.9,0.6,1.9,0.9,3,0.9c1.7,0,3.3-0.8,4.4-2.3
	c1.6-2.4,1-5.7-1.4-7.3C496.8,434.2,495.7,433.9,494.7,433.9 M494.7,434.9c0.9,0,1.7,0.3,2.4,0.8c2,1.3,2.5,4,1.1,6
	c-0.8,1.2-2.1,1.9-3.6,1.9c-0.9,0-1.7-0.3-2.4-0.8c-2-1.3-2.5-4-1.1-6C492,435.6,493.3,434.9,494.7,434.9"/>
<g transform="matrix(1,0,0,1,-371.842,-105.841)">
	<path class="st0" d="M509.6,438.2c-1.7,0-3.3,0.8-4.4,2.3c-1.6,2.4-1,5.7,1.4,7.3c0.9,0.6,1.9,0.9,3,0.9c1.7,0,3.3-0.8,4.4-2.3
		c1.6-2.4,1-5.7-1.4-7.3C511.7,438.5,510.6,438.2,509.6,438.2 M509.6,439.1c0.9,0,1.7,0.3,2.4,0.8c2,1.3,2.5,4,1.1,6
		c-0.8,1.2-2.1,1.9-3.6,1.9c-0.9,0-1.7-0.3-2.4-0.8c-2-1.3-2.5-4-1.1-6C506.8,439.8,508.2,439.1,509.6,439.1"/>
</g>
<path d="M579.2,371.1c-1,0-1.9-0.3-2.7-0.8c-1.1-0.7-1.8-1.8-2-3.1c-0.2-1.3,0-2.5,0.8-3.6c0.9-1.3,2.4-2.1,4-2.1
	c1,0,1.9,0.3,2.7,0.8c1.1,0.7,1.8,1.8,2,3.1c0.2,1.3,0,2.5-0.8,3.6C582.3,370.3,580.8,371.1,579.2,371.1"/>
<g transform="matrix(1,0,0,1,-371.842,-105.841)">
	<path d="M594.1,375.3c-1,0-1.9-0.3-2.7-0.8c-1.1-0.7-1.8-1.8-2-3.1c-0.2-1.3,0-2.5,0.8-3.6c0.9-1.3,2.4-2.1,4-2.1
		c1,0,1.9,0.3,2.7,0.8c1.1,0.7,1.8,1.8,2,3.1c0.2,1.3,0,2.5-0.8,3.6C597.1,374.5,595.7,375.3,594.1,375.3"/>
</g>
<path class="st0" d="M579.2,361c-1.7,0-3.3,0.8-4.4,2.3c-1.6,2.4-1,5.7,1.4,7.3c0.9,0.6,1.9,0.9,3,0.9c1.7,0,3.3-0.8,4.4-2.3
	c1.6-2.4,1-5.7-1.4-7.3C581.3,361.3,580.2,361,579.2,361 M579.2,361.9c0.9,0,1.7,0.3,2.4,0.8c2,1.3,2.5,4,1.1,6
	c-0.8,1.2-2.1,1.9-3.6,1.9c-0.9,0-1.7-0.3-2.4-0.8c-2-1.3-2.5-4-1.1-6C576.4,362.6,577.8,361.9,579.2,361.9"/>
<g transform="matrix(1,0,0,1,-371.842,-105.841)">
	<path class="st0" d="M594.1,365.2c-1.7,0-3.3,0.8-4.4,2.3c-1.6,2.4-1,5.7,1.4,7.3c0.9,0.6,1.9,0.9,3,0.9c1.7,0,3.3-0.8,4.4-2.3
		c1.6-2.4,1-5.7-1.4-7.3C596.1,365.5,595.1,365.2,594.1,365.2 M594.1,366.2c0.9,0,1.7,0.3,2.4,0.8c2,1.3,2.5,4,1.1,6
		c-0.8,1.2-2.1,1.9-3.6,1.9c-0.9,0-1.7-0.3-2.4-0.8c-2-1.3-2.5-4-1.1-6C591.3,366.9,592.6,366.2,594.1,366.2"/>
</g>
<path d="M628.1,417.1c-1,0-1.9-0.3-2.7-0.8c-1.1-0.7-1.8-1.8-2-3.1c-0.2-1.3,0-2.5,0.8-3.6c0.9-1.3,2.4-2.1,4-2.1
	c1,0,1.9,0.3,2.7,0.8c1.1,0.7,1.8,1.8,2,3.1c0.2,1.3,0,2.5-0.8,3.6C631.2,416.4,629.7,417.1,628.1,417.1"/>
<g transform="matrix(1,0,0,1,-371.842,-105.841)">
	<path d="M643,421.4c-1,0-1.9-0.3-2.7-0.8c-1.1-0.7-1.8-1.8-2-3.1c-0.2-1.3,0-2.5,0.8-3.6c0.9-1.3,2.4-2.1,4-2.1
		c1,0,1.9,0.3,2.7,0.8c1.1,0.7,1.8,1.8,2,3.1c0.2,1.3,0,2.5-0.8,3.6C646.1,420.6,644.6,421.4,643,421.4"/>
</g>
<path class="st0" d="M628.2,407.1c-1.7,0-3.3,0.8-4.4,2.3c-1.6,2.4-1,5.7,1.4,7.3c0.9,0.6,1.9,0.9,3,0.9c1.7,0,3.3-0.8,4.4-2.3
	c1.6-2.4,1-5.7-1.4-7.3C630.2,407.4,629.2,407.1,628.2,407.1 M628.2,408c0.9,0,1.7,0.3,2.4,0.8c2,1.3,2.5,4,1.1,6
	c-0.8,1.2-2.1,1.9-3.6,1.9c-0.9,0-1.7-0.3-2.4-0.8c-2-1.3-2.5-4-1.1-6C625.4,408.7,626.7,408,628.2,408"/>
<g transform="matrix(1,0,0,1,-371.842,-105.841)">
	<path class="st0" d="M643,411.3c-1.7,0-3.3,0.8-4.4,2.3c-1.6,2.4-1,5.7,1.4,7.3c0.9,0.6,1.9,0.9,3,0.9c1.7,0,3.3-0.8,4.4-2.3
		c1.6-2.4,1-5.7-1.4-7.3C645.1,411.6,644.1,411.3,643,411.3 M643,412.2c0.9,0,1.7,0.3,2.4,0.8c2,1.3,2.5,4,1.1,6
		c-0.8,1.2-2.1,1.9-3.6,1.9c-0.9,0-1.7-0.3-2.4-0.8c-2-1.3-2.5-4-1.1-6C640.3,413,641.6,412.3,643,412.2"/>
</g>
<path d="M607,462.3c-1,0-1.9-0.3-2.7-0.8c-1.1-0.7-1.8-1.8-2-3.1c-0.2-1.3,0-2.5,0.8-3.6c0.9-1.3,2.4-2.1,4-2.1c1,0,1.9,0.3,2.7,0.8
	c1.1,0.7,1.8,1.8,2,3.1c0.2,1.3,0,2.5-0.8,3.6C610.1,461.5,608.6,462.3,607,462.3"/>
<g transform="matrix(1,0,0,1,-371.842,-105.841)">
	<path d="M621.9,466.5c-1,0-1.9-0.3-2.7-0.8c-1.1-0.7-1.8-1.8-2-3.1c-0.2-1.3,0-2.5,0.8-3.6c0.9-1.3,2.4-2.1,4-2.1
		c1,0,1.9,0.3,2.7,0.8c1.1,0.7,1.8,1.8,2,3.1c0.2,1.3,0,2.5-0.8,3.6C625,465.7,623.5,466.5,621.9,466.5"/>
</g>
<path class="st0" d="M607,452.2c-1.7,0-3.3,0.8-4.4,2.3c-1.6,2.4-1,5.7,1.4,7.3c0.9,0.6,1.9,0.9,3,0.9c1.7,0,3.3-0.8,4.4-2.3
	c1.6-2.4,1-5.7-1.4-7.3C609.1,452.5,608.1,452.2,607,452.2 M607,453.1c0.9,0,1.7,0.3,2.4,0.8c2,1.3,2.5,4,1.1,6
	c-0.8,1.2-2.1,1.9-3.6,1.9c-0.9,0-1.7-0.3-2.4-0.8c-2-1.3-2.5-4-1.1-6C604.3,453.8,605.6,453.1,607,453.1"/>
<g transform="matrix(1,0,0,1,-371.842,-105.841)">
	<path class="st0" d="M621.9,456.4c-1.7,0-3.3,0.8-4.4,2.3c-1.6,2.4-1,5.7,1.4,7.3c0.9,0.6,1.9,0.9,3,0.9c1.7,0,3.3-0.8,4.4-2.3
		c1.6-2.4,1-5.7-1.4-7.3C624,456.7,622.9,456.4,621.9,456.4 M621.9,457.4c0.9,0,1.7,0.3,2.4,0.8c2,1.3,2.5,4,1.1,6
		c-0.8,1.2-2.1,1.9-3.6,1.9c-0.9,0-1.7-0.3-2.4-0.8c-2-1.3-2.5-4-1.1-6C619.1,458.1,620.5,457.4,621.9,457.4"/>
</g>
<path d="M658.9,452.7c-1,0-1.9-0.3-2.7-0.8c-1.1-0.7-1.8-1.8-2-3.1c-0.2-1.3,0-2.5,0.8-3.6c0.9-1.3,2.4-2.1,4-2.1
	c1,0,1.9,0.3,2.7,0.8c1.1,0.7,1.8,1.8,2,3.1c0.2,1.3,0,2.5-0.8,3.6C661.9,451.9,660.5,452.7,658.9,452.7"/>
<g transform="matrix(1,0,0,1,-371.842,-105.841)">
	<path d="M673.7,456.9c-1,0-1.9-0.3-2.7-0.8c-1.1-0.7-1.8-1.8-2-3.1c-0.2-1.3,0-2.5,0.8-3.6c0.9-1.3,2.4-2.1,4-2.1
		c1,0,1.9,0.3,2.7,0.8c1.1,0.7,1.8,1.8,2,3.1c0.2,1.3,0,2.5-0.8,3.6C676.8,456.1,675.3,456.9,673.7,456.9"/>
</g>
<path class="st0" d="M658.9,442.6c-1.7,0-3.3,0.8-4.4,2.3c-1.6,2.4-1,5.7,1.4,7.3c0.9,0.6,1.9,0.9,3,0.9c1.7,0,3.3-0.8,4.4-2.3
	c1.6-2.4,1-5.7-1.4-7.3C660.9,442.9,659.9,442.6,658.9,442.6 M658.9,443.5c0.9,0,1.7,0.3,2.4,0.8c2,1.3,2.5,4,1.1,6
	c-0.8,1.2-2.1,1.9-3.6,1.9c-0.9,0-1.7-0.3-2.4-0.8c-2-1.3-2.5-4-1.1-6C656.1,444.2,657.4,443.5,658.9,443.5"/>
<g transform="matrix(1,0,0,1,-371.842,-105.841)">
	<path class="st0" d="M673.8,446.8c-1.7,0-3.3,0.8-4.4,2.3c-1.6,2.4-1,5.7,1.4,7.3c0.9,0.6,1.9,0.9,3,0.9c1.7,0,3.3-0.8,4.4-2.3
		c1.6-2.4,1-5.7-1.4-7.3C675.8,447.1,674.8,446.8,673.8,446.8 M673.8,447.8c0.9,0,1.7,0.3,2.4,0.8c2,1.3,2.5,4,1.1,6
		c-0.8,1.2-2.1,1.9-3.6,1.9c-0.9,0-1.7-0.3-2.4-0.8c-2-1.3-2.5-4-1.1-6C671,448.5,672.3,447.8,673.8,447.8"/>
</g>
<path d="M672.3,406.6c-1,0-1.9-0.3-2.7-0.8c-1.1-0.7-1.8-1.8-2-3.1c-0.2-1.3,0-2.5,0.8-3.6c0.9-1.3,2.4-2.1,4-2.1
	c1,0,1.9,0.3,2.7,0.8c1.1,0.7,1.8,1.8,2,3.1c0.2,1.3,0,2.5-0.8,3.6C675.4,405.8,673.9,406.6,672.3,406.6"/>
<path class="st0" d="M672.3,396.5c-1.7,0-3.3,0.8-4.4,2.3c-1.6,2.4-1,5.7,1.4,7.3c0.9,0.6,1.9,0.9,3,0.9c1.7,0,3.3-0.8,4.4-2.3
	c1.6-2.4,1-5.7-1.4-7.3C674.4,396.8,673.3,396.5,672.3,396.5 M672.3,397.5c0.9,0,1.7,0.3,2.4,0.8c2,1.3,2.5,4,1.1,6
	c-0.8,1.2-2.1,1.9-3.6,1.9c-0.9,0-1.7-0.3-2.4-0.8c-2-1.3-2.5-4-1.1-6C669.6,398.2,670.9,397.5,672.3,397.5"/>
<path d="M610.9,341.3c-1,0-1.9-0.3-2.7-0.8c-1.1-0.7-1.8-1.8-2-3.1c-0.2-1.3,0-2.5,0.8-3.6c0.9-1.3,2.4-2.1,4-2.1
	c1,0,1.9,0.3,2.7,0.8c1.1,0.7,1.8,1.8,2,3.1c0.2,1.3,0,2.5-0.8,3.6C613.9,340.5,612.5,341.3,610.9,341.3"/>
<g transform="matrix(1,0,0,1,-371.842,-105.841)">
	<path d="M625.7,345.5c-1,0-1.9-0.3-2.7-0.8c-1.1-0.7-1.8-1.8-2-3.1c-0.2-1.3,0-2.5,0.8-3.6c0.9-1.3,2.4-2.1,4-2.1
		c1,0,1.9,0.3,2.7,0.8c1.1,0.7,1.8,1.8,2,3.1c0.2,1.3,0,2.5-0.8,3.6C628.8,344.8,627.3,345.5,625.7,345.5"/>
</g>
<path class="st0" d="M610.9,331.2c-1.7,0-3.3,0.8-4.4,2.3c-1.6,2.4-1,5.7,1.4,7.3c0.9,0.6,1.9,0.9,3,0.9c1.7,0,3.3-0.8,4.4-2.3
	c1.6-2.4,1-5.7-1.4-7.3C612.9,331.5,611.9,331.2,610.9,331.2 M610.9,332.2c0.9,0,1.7,0.3,2.4,0.8c2,1.3,2.5,4,1.1,6
	c-0.8,1.2-2.1,1.9-3.6,1.9c-0.9,0-1.7-0.3-2.4-0.8c-2-1.3-2.5-4-1.1-6C608.1,332.9,609.4,332.2,610.9,332.2"/>
<g transform="matrix(1,0,0,1,-371.842,-105.841)">
	<path class="st0" d="M625.8,335.5c-1.7,0-3.3,0.8-4.4,2.3c-1.6,2.4-1,5.7,1.4,7.3c0.9,0.6,1.9,0.9,3,0.9c1.7,0,3.3-0.8,4.4-2.3
		c1.6-2.4,1-5.7-1.4-7.3C627.8,335.8,626.8,335.5,625.8,335.5 M625.8,336.4c0.9,0,1.7,0.3,2.4,0.8c2,1.3,2.5,4,1.1,6
		c-0.8,1.2-2.1,1.9-3.6,1.9c-0.9,0-1.7-0.3-2.4-0.8c-2-1.3-2.5-4-1.1-6C623,337.1,624.3,336.4,625.8,336.4"/>
</g>
<path d="M658.9,296.2c-1,0-1.9-0.3-2.7-0.8c-1.1-0.7-1.8-1.8-2-3.1c-0.2-1.3,0-2.5,0.8-3.6c0.9-1.3,2.4-2.1,4-2.1
	c1,0,1.9,0.3,2.7,0.8c1.1,0.7,1.8,1.8,2,3.1c0.2,1.3,0,2.5-0.8,3.6C661.9,295.4,660.5,296.2,658.9,296.2"/>
<g transform="matrix(1,0,0,1,-371.842,-105.841)">
	<path d="M673.7,300.4c-1,0-1.9-0.3-2.7-0.8c-1.1-0.7-1.8-1.8-2-3.1c-0.2-1.3,0-2.5,0.8-3.6c0.9-1.3,2.4-2.1,4-2.1
		c1,0,1.9,0.3,2.7,0.8c1.1,0.7,1.8,1.8,2,3.1c0.2,1.3,0,2.5-0.8,3.6C676.8,299.6,675.3,300.4,673.7,300.4"/>
</g>
<path class="st0" d="M658.9,286.1c-1.7,0-3.3,0.8-4.4,2.3c-1.6,2.4-1,5.7,1.4,7.3c0.9,0.6,1.9,0.9,3,0.9c1.7,0,3.3-0.8,4.4-2.3
	c1.6-2.4,1-5.7-1.4-7.3C660.9,286.4,659.9,286.1,658.9,286.1 M658.9,287.1c0.9,0,1.7,0.3,2.4,0.8c2,1.3,2.5,4,1.1,6
	c-0.8,1.2-2.1,1.9-3.6,1.9c-0.9,0-1.7-0.3-2.4-0.8c-2-1.3-2.5-4-1.1-6C656.1,287.8,657.4,287.1,658.9,287.1"/>
<g transform="matrix(1,0,0,1,-371.842,-105.841)">
	<path class="st0" d="M673.8,290.3c-1.7,0-3.3,0.8-4.4,2.3c-1.6,2.4-1,5.7,1.4,7.3c0.9,0.6,1.9,0.9,3,0.9c1.7,0,3.3-0.8,4.4-2.3
		c1.6-2.4,1-5.7-1.4-7.3C675.8,290.6,674.8,290.3,673.8,290.3 M673.8,291.3c0.9,0,1.7,0.3,2.4,0.8c2,1.3,2.5,4,1.1,6
		c-0.8,1.2-2.1,1.9-3.6,1.9c-0.9,0-1.7-0.3-2.4-0.8c-2-1.3-2.5-4-1.1-6C671,292,672.3,291.3,673.8,291.3"/>
</g>
<path d="M632,259.7c-1,0-1.9-0.3-2.7-0.8c-1.1-0.7-1.8-1.8-2-3.1c-0.2-1.3,0-2.5,0.8-3.6c0.9-1.3,2.4-2.1,4-2.1c1,0,1.9,0.3,2.7,0.8
	c1.1,0.7,1.8,1.8,2,3.1c0.2,1.3,0,2.5-0.8,3.6C635.1,258.9,633.6,259.7,632,259.7"/>
<path class="st0" d="M632,249.6c-1.7,0-3.3,0.8-4.4,2.3c-1.6,2.4-1,5.7,1.4,7.3c0.9,0.6,1.9,0.9,3,0.9c1.7,0,3.3-0.8,4.4-2.3
	c1.6-2.4,1-5.7-1.4-7.3C634.1,249.9,633,249.6,632,249.6 M632,250.6c0.9,0,1.7,0.3,2.4,0.8c2,1.3,2.5,4,1.1,6
	c-0.8,1.2-2.1,1.9-3.6,1.9c-0.9,0-1.7-0.3-2.4-0.8c-2-1.3-2.5-4-1.1-6C629.2,251.3,630.6,250.6,632,250.6"/>
<path d="M666.5,243.4c-1,0-1.9-0.3-2.7-0.8c-1.1-0.7-1.8-1.8-2-3.1c-0.2-1.3,0-2.5,0.8-3.6c0.9-1.3,2.4-2.1,4-2.1
	c1,0,1.9,0.3,2.7,0.8c1.1,0.7,1.8,1.8,2,3.1c0.2,1.3,0,2.5-0.8,3.6C669.6,242.6,668.1,243.4,666.5,243.4"/>
<path class="st0" d="M666.6,233.3c-1.7,0-3.3,0.8-4.4,2.3c-1.6,2.4-1,5.7,1.4,7.3c0.9,0.6,1.9,0.9,3,0.9c1.7,0,3.3-0.8,4.4-2.3
	c1.6-2.4,1-5.7-1.4-7.3C668.6,233.6,667.6,233.3,666.6,233.3 M666.6,234.3c0.9,0,1.7,0.3,2.4,0.8c2,1.3,2.5,4,1.1,6
	c-0.8,1.2-2.1,1.9-3.6,1.9c-0.9,0-1.7-0.3-2.4-0.8c-2-1.3-2.5-4-1.1-6C663.8,235,665.1,234.3,666.6,234.3"/>
<path d="M596.5,292.3c-1,0-1.9-0.3-2.7-0.8c-1.1-0.7-1.8-1.8-2-3.1c-0.2-1.3,0-2.5,0.8-3.6c0.9-1.3,2.4-2.1,4-2.1
	c1,0,1.9,0.3,2.7,0.8c1.1,0.7,1.8,1.8,2,3.1c0.2,1.3,0,2.5-0.8,3.6C599.5,291.6,598.1,292.3,596.5,292.3"/>
<g transform="matrix(1,0,0,1,-371.842,-105.841)">
	<path d="M611.3,296.6c-1,0-1.9-0.3-2.7-0.8c-1.1-0.7-1.8-1.8-2-3.1c-0.2-1.3,0-2.5,0.8-3.6c0.9-1.3,2.4-2.1,4-2.1
		c1,0,1.9,0.3,2.7,0.8c1.1,0.7,1.8,1.8,2,3.1c0.2,1.3,0,2.5-0.8,3.6C614.4,295.8,612.9,296.6,611.3,296.6"/>
</g>
<path class="st0" d="M596.5,282.3c-1.7,0-3.3,0.8-4.4,2.3c-1.6,2.4-1,5.7,1.4,7.3c0.9,0.6,1.9,0.9,3,0.9c1.7,0,3.3-0.8,4.4-2.3
	c1.6-2.4,1-5.7-1.4-7.3C598.5,282.6,597.5,282.3,596.5,282.3 M596.5,283.2c0.9,0,1.7,0.3,2.4,0.8c2,1.3,2.5,4,1.1,6
	c-0.8,1.2-2.1,1.9-3.6,1.9c-0.9,0-1.7-0.3-2.4-0.8c-2-1.3-2.5-4-1.1-6C593.7,283.9,595,283.2,596.5,283.2"/>
<g transform="matrix(1,0,0,1,-371.842,-105.841)">
	<path class="st0" d="M611.4,286.5c-1.7,0-3.3,0.8-4.4,2.3c-1.6,2.4-1,5.7,1.4,7.3c0.9,0.6,1.9,0.9,3,0.9c1.7,0,3.3-0.8,4.4-2.3
		c1.6-2.4,1-5.7-1.4-7.3C613.4,286.8,612.4,286.5,611.4,286.5 M611.4,287.5c0.9,0,1.7,0.3,2.4,0.8c2,1.3,2.5,4,1.1,6
		c-0.8,1.2-2.1,1.9-3.6,1.9c-0.9,0-1.7-0.3-2.4-0.8c-2-1.3-2.5-4-1.1-6C608.6,288.2,609.9,287.5,611.4,287.5"/>
</g>
<path d="M593.6,260.7c-1,0-1.9-0.3-2.7-0.8c-1.1-0.7-1.8-1.8-2-3.1c-0.2-1.3,0-2.5,0.8-3.6c0.9-1.3,2.4-2.1,4-2.1
	c1,0,1.9,0.3,2.7,0.8c1.1,0.7,1.8,1.8,2,3.1c0.2,1.3,0,2.5-0.8,3.6C596.7,259.9,595.2,260.7,593.6,260.7"/>
<path class="st0" d="M593.6,250.6c-1.7,0-3.3,0.8-4.4,2.3c-1.6,2.4-1,5.7,1.4,7.3c0.9,0.6,1.9,0.9,3,0.9c1.7,0,3.3-0.8,4.4-2.3
	c1.6-2.4,1-5.7-1.4-7.3C595.7,250.9,594.6,250.6,593.6,250.6 M593.6,251.5c0.9,0,1.7,0.3,2.4,0.8c2,1.3,2.5,4,1.1,6
	c-0.8,1.2-2.1,1.9-3.6,1.9c-0.9,0-1.7-0.3-2.4-0.8c-2-1.3-2.5-4-1.1-6C590.8,252.2,592.2,251.5,593.6,251.5"/>
<path d="M540.8,271.2c-1,0-1.9-0.3-2.7-0.8c-1.1-0.7-1.8-1.8-2-3.1c-0.2-1.3,0-2.5,0.8-3.6c0.9-1.3,2.4-2.1,4-2.1
	c1,0,1.9,0.3,2.7,0.8c1.1,0.7,1.8,1.8,2,3.1c0.2,1.3,0,2.5-0.8,3.6C543.9,270.4,542.4,271.2,540.8,271.2"/>
<g transform="matrix(1,0,0,1,-371.842,-105.841)">
	<path d="M555.7,275.5c-1,0-1.9-0.3-2.7-0.8c-1.1-0.7-1.8-1.8-2-3.1c-0.2-1.3,0-2.5,0.8-3.6c0.9-1.3,2.4-2.1,4-2.1
		c1,0,1.9,0.3,2.7,0.8c1.1,0.7,1.8,1.8,2,3.1c0.2,1.3,0,2.5-0.8,3.6C558.7,274.7,557.3,275.5,555.7,275.5"/>
</g>
<path class="st0" d="M540.8,261.1c-1.7,0-3.3,0.8-4.4,2.3c-1.6,2.4-1,5.7,1.4,7.3c0.9,0.6,1.9,0.9,3,0.9c1.7,0,3.3-0.8,4.4-2.3
	c1.6-2.4,1-5.7-1.4-7.3C542.9,261.4,541.8,261.1,540.8,261.1 M540.8,262.1c0.9,0,1.7,0.3,2.4,0.8c2,1.3,2.5,4,1.1,6
	c-0.8,1.2-2.1,1.9-3.6,1.9c-0.9,0-1.7-0.3-2.4-0.8c-2-1.3-2.5-4-1.1-6C538,262.8,539.4,262.1,540.8,262.1"/>
<g transform="matrix(1,0,0,1,-371.842,-105.841)">
	<path class="st0" d="M555.7,265.4c-1.7,0-3.3,0.8-4.4,2.3c-1.6,2.4-1,5.7,1.4,7.3c0.9,0.6,1.9,0.9,3,0.9c1.7,0,3.3-0.8,4.4-2.3
		c1.6-2.4,1-5.7-1.4-7.3C557.7,265.7,556.7,265.4,555.7,265.4 M555.7,266.3c0.9,0,1.7,0.3,2.4,0.8c2,1.3,2.5,4,1.1,6
		c-0.8,1.2-2.1,1.9-3.6,1.9c-0.9,0-1.7-0.3-2.4-0.8c-2-1.3-2.5-4-1.1-6C552.9,267,554.2,266.3,555.7,266.3"/>
</g>
<path d="M538.9,330.7c-1,0-1.9-0.3-2.7-0.8c-1.1-0.7-1.8-1.8-2-3.1c-0.2-1.3,0-2.5,0.8-3.6c0.9-1.3,2.4-2.1,4-2.1
	c1,0,1.9,0.3,2.7,0.8c1.1,0.7,1.8,1.8,2,3.1c0.2,1.3,0,2.5-0.8,3.6C541.9,330,540.5,330.7,538.9,330.7"/>
<g transform="matrix(1,0,0,1,-371.842,-105.841)">
	<path d="M553.7,335c-1,0-1.9-0.3-2.7-0.8c-1.1-0.7-1.8-1.8-2-3.1c-0.2-1.3,0-2.5,0.8-3.6c0.9-1.3,2.4-2.1,4-2.1
		c1,0,1.9,0.3,2.7,0.8c1.1,0.7,1.8,1.8,2,3.1c0.2,1.3,0,2.5-0.8,3.6C556.8,334.2,555.3,335,553.7,335"/>
</g>
<path class="st0" d="M538.9,320.7c-1.7,0-3.3,0.8-4.4,2.3c-1.6,2.4-1,5.7,1.4,7.3c0.9,0.6,1.9,0.9,3,0.9c1.7,0,3.3-0.8,4.4-2.3
	c1.6-2.4,1-5.7-1.4-7.3C540.9,321,539.9,320.7,538.9,320.7 M538.9,321.6c0.9,0,1.7,0.3,2.4,0.8c2,1.3,2.5,4,1.1,6
	c-0.8,1.2-2.1,1.9-3.6,1.9c-0.9,0-1.7-0.3-2.4-0.8c-2-1.3-2.5-4-1.1-6C536.1,322.3,537.4,321.6,538.9,321.6"/>
<g transform="matrix(1,0,0,1,-371.842,-105.841)">
	<path class="st0" d="M553.8,324.9c-1.7,0-3.3,0.8-4.4,2.3c-1.6,2.4-1,5.7,1.4,7.3c0.9,0.6,1.9,0.9,3,0.9c1.7,0,3.3-0.8,4.4-2.3
		c1.6-2.4,1-5.7-1.4-7.3C555.8,325.2,554.8,324.9,553.8,324.9 M553.8,325.9c0.9,0,1.7,0.3,2.4,0.8c2,1.3,2.5,4,1.1,6
		c-0.8,1.2-2.1,1.9-3.6,1.9c-0.9,0-1.7-0.3-2.4-0.8c-2-1.3-2.5-4-1.1-6C551,326.6,552.3,325.9,553.8,325.9"/>
</g>
<path d="M476.5,365.3c-1,0-1.9-0.3-2.7-0.8c-1.1-0.7-1.8-1.8-2-3.1c-0.2-1.3,0-2.5,0.8-3.6c0.9-1.3,2.4-2.1,4-2.1
	c1,0,1.9,0.3,2.7,0.8c1.1,0.7,1.8,1.8,2,3.1c0.2,1.3,0,2.5-0.8,3.6C479.5,364.5,478.1,365.3,476.5,365.3"/>
<g transform="matrix(1,0,0,1,-94.9153,-2.55541)">
	<path d="M480.3,365.4c-1,0-1.9-0.3-2.7-0.8c-1.1-0.7-1.8-1.8-2-3.1c-0.2-1.3,0-2.5,0.8-3.6c0.9-1.3,2.4-2.1,4-2.1
		c1,0,1.9,0.3,2.7,0.8c1.1,0.7,1.8,1.8,2,3.1c0.2,1.3,0,2.5-0.8,3.6C483.3,364.6,481.9,365.4,480.3,365.4"/>
</g>
<g transform="matrix(1,0,0,1,-371.842,-105.841)">
	<path d="M491.3,369.5c-1,0-1.9-0.3-2.7-0.8c-1.1-0.7-1.8-1.8-2-3.1c-0.2-1.3,0-2.5,0.8-3.6c0.9-1.3,2.4-2.1,4-2.1
		c1,0,1.9,0.3,2.7,0.8c1.1,0.7,1.8,1.8,2,3.1c0.2,1.3,0,2.5-0.8,3.6C494.4,368.8,492.9,369.5,491.3,369.5"/>
</g>
<path class="st0" d="M476.5,355.2c-1.7,0-3.3,0.8-4.4,2.3c-1.6,2.4-1,5.7,1.4,7.3c0.9,0.6,1.9,0.9,3,0.9c1.7,0,3.3-0.8,4.4-2.3
	c1.6-2.4,1-5.7-1.4-7.3C478.5,355.5,477.5,355.2,476.5,355.2 M476.5,356.2c0.9,0,1.7,0.3,2.4,0.8c2,1.3,2.5,4,1.1,6
	c-0.8,1.2-2.1,1.9-3.6,1.9c-0.9,0-1.7-0.3-2.4-0.8c-2-1.3-2.5-4-1.1-6C473.7,356.9,475,356.2,476.5,356.2"/>
<g transform="matrix(1,0,0,1,-94.9153,-2.55541)">
	<path class="st0" d="M480.3,355.3c-1.7,0-3.3,0.8-4.4,2.3c-1.6,2.4-1,5.7,1.4,7.3c0.9,0.6,1.9,0.9,3,0.9c1.7,0,3.3-0.8,4.4-2.3
		c1.6-2.4,1-5.7-1.4-7.3C482.3,355.6,481.3,355.3,480.3,355.3 M480.3,356.3c0.9,0,1.7,0.3,2.4,0.8c2,1.3,2.5,4,1.1,6
		c-0.8,1.2-2.1,1.9-3.6,1.9c-0.9,0-1.7-0.3-2.4-0.8c-2-1.3-2.5-4-1.1-6C477.5,357,478.8,356.3,480.3,356.3"/>
</g>
<g transform="matrix(1,0,0,1,-371.842,-105.841)">
	<path class="st0" d="M491.4,359.5c-1.7,0-3.3,0.8-4.4,2.3c-1.6,2.4-1,5.7,1.4,7.3c0.9,0.6,1.9,0.9,3,0.9c1.7,0,3.3-0.8,4.4-2.3
		c1.6-2.4,1-5.7-1.4-7.3C493.4,359.8,492.4,359.5,491.4,359.5 M491.4,360.4c0.9,0,1.7,0.3,2.4,0.8c2,1.3,2.5,4,1.1,6
		c-0.8,1.2-2.1,1.9-3.6,1.9c-0.9,0-1.7-0.3-2.4-0.8c-2-1.3-2.5-4-1.1-6C488.6,361.1,489.9,360.4,491.4,360.4"/>
</g>
<path d="M427.5,397c-1,0-1.9-0.3-2.7-0.8c-1.1-0.7-1.8-1.8-2-3.1c-0.2-1.3,0-2.5,0.8-3.6c0.9-1.3,2.4-2.1,4-2.1c1,0,1.9,0.3,2.7,0.8
	c1.1,0.7,1.8,1.8,2,3.1c0.2,1.3,0,2.5-0.8,3.6C430.6,396.2,429.1,397,427.5,397"/>
<g transform="matrix(1,0,0,1,-94.9153,-2.55541)">
	<path d="M431.3,397.1c-1,0-1.9-0.3-2.7-0.8c-1.1-0.7-1.8-1.8-2-3.1c-0.2-1.3,0-2.5,0.8-3.6c0.9-1.3,2.4-2.1,4-2.1
		c1,0,1.9,0.3,2.7,0.8c1.1,0.7,1.8,1.8,2,3.1c0.2,1.3,0,2.5-0.8,3.6C434.4,396.3,432.9,397.1,431.3,397.1"/>
</g>
<g transform="matrix(1,0,0,1,-371.842,-105.841)">
	<path d="M442.4,401.2c-1,0-1.9-0.3-2.7-0.8c-1.1-0.7-1.8-1.8-2-3.1c-0.2-1.3,0-2.5,0.8-3.6c0.9-1.3,2.4-2.1,4-2.1
		c1,0,1.9,0.3,2.7,0.8c1.1,0.7,1.8,1.8,2,3.1c0.2,1.3,0,2.5-0.8,3.6C445.5,400.4,444,401.2,442.4,401.2"/>
</g>
<path class="st0" d="M427.5,386.9c-1.7,0-3.3,0.8-4.4,2.3c-1.6,2.4-1,5.7,1.4,7.3c0.9,0.6,1.9,0.9,3,0.9c1.7,0,3.3-0.8,4.4-2.3
	c1.6-2.4,1-5.7-1.4-7.3C429.6,387.2,428.5,386.9,427.5,386.9 M427.5,387.9c0.9,0,1.7,0.3,2.4,0.8c2,1.3,2.5,4,1.1,6
	c-0.8,1.2-2.1,1.9-3.6,1.9c-0.9,0-1.7-0.3-2.4-0.8c-2-1.3-2.5-4-1.1-6C424.8,388.6,426.1,387.9,427.5,387.9"/>
<g transform="matrix(1,0,0,1,-94.9153,-2.55541)">
	<path class="st0" d="M431.3,387c-1.7,0-3.3,0.8-4.4,2.3c-1.6,2.4-1,5.7,1.4,7.3c0.9,0.6,1.9,0.9,3,0.9c1.7,0,3.3-0.8,4.4-2.3
		c1.6-2.4,1-5.7-1.4-7.3C433.4,387.3,432.3,387,431.3,387 M431.3,388c0.9,0,1.7,0.3,2.4,0.8c2,1.3,2.5,4,1.1,6
		c-0.8,1.2-2.1,1.9-3.6,1.9c-0.9,0-1.7-0.3-2.4-0.8c-2-1.3-2.5-4-1.1-6C428.6,388.7,429.9,388,431.3,388"/>
</g>
<g transform="matrix(1,0,0,1,-371.842,-105.841)">
	<path class="st0" d="M442.4,391.1c-1.7,0-3.3,0.8-4.4,2.3c-1.6,2.4-1,5.7,1.4,7.3c0.9,0.6,1.9,0.9,3,0.9c1.7,0,3.3-0.8,4.4-2.3
		c1.6-2.4,1-5.7-1.4-7.3C444.5,391.4,443.4,391.1,442.4,391.1 M442.4,392.1c0.9,0,1.7,0.3,2.4,0.8c2,1.3,2.5,4,1.1,6
		c-0.8,1.2-2.1,1.9-3.6,1.9c-0.9,0-1.7-0.3-2.4-0.8c-2-1.3-2.5-4-1.1-6C439.6,392.8,441,392.1,442.4,392.1"/>
</g>
<path d="M434.2,292.3c-1,0-1.9-0.3-2.7-0.8c-1.1-0.7-1.8-1.8-2-3.1c-0.2-1.3,0-2.5,0.8-3.6c0.9-1.3,2.4-2.1,4-2.1
	c1,0,1.9,0.3,2.7,0.8c1.1,0.7,1.8,1.8,2,3.1c0.2,1.3,0,2.5-0.8,3.6C437.3,291.6,435.8,292.3,434.2,292.3"/>
<g transform="matrix(1,0,0,1,-94.9153,-2.55541)">
	<path d="M438,292.4c-1,0-1.9-0.3-2.7-0.8c-1.1-0.7-1.8-1.8-2-3.1c-0.2-1.3,0-2.5,0.8-3.6c0.9-1.3,2.4-2.1,4-2.1
		c1,0,1.9,0.3,2.7,0.8c1.1,0.7,1.8,1.8,2,3.1c0.2,1.3,0,2.5-0.8,3.6C441.1,291.7,439.6,292.4,438,292.4"/>
</g>
<g transform="matrix(1,0,0,1,-371.842,-105.841)">
	<path d="M449.1,296.6c-1,0-1.9-0.3-2.7-0.8c-1.1-0.7-1.8-1.8-2-3.1c-0.2-1.3,0-2.5,0.8-3.6c0.9-1.3,2.4-2.1,4-2.1
		c1,0,1.9,0.3,2.7,0.8c1.1,0.7,1.8,1.8,2,3.1c0.2,1.3,0,2.5-0.8,3.6C452.2,295.8,450.7,296.6,449.1,296.6"/>
</g>
<path class="st0" d="M434.2,282.3c-1.7,0-3.3,0.8-4.4,2.3c-1.6,2.4-1,5.7,1.4,7.3c0.9,0.6,1.9,0.9,3,0.9c1.7,0,3.3-0.8,4.4-2.3
	c1.6-2.4,1-5.7-1.4-7.3C436.3,282.6,435.3,282.3,434.2,282.3 M434.2,283.2c0.9,0,1.7,0.3,2.4,0.8c2,1.3,2.5,4,1.1,6
	c-0.8,1.2-2.1,1.9-3.6,1.9c-0.9,0-1.7-0.3-2.4-0.8c-2-1.3-2.5-4-1.1-6C431.5,283.9,432.8,283.2,434.2,283.2"/>
<g transform="matrix(1,0,0,1,-94.9153,-2.55541)">
	<path class="st0" d="M438,282.4c-1.7,0-3.3,0.8-4.4,2.3c-1.6,2.4-1,5.7,1.4,7.3c0.9,0.6,1.9,0.9,3,0.9c1.7,0,3.3-0.8,4.4-2.3
		c1.6-2.4,1-5.7-1.4-7.3C440.1,282.7,439.1,282.4,438,282.4 M438,283.3c0.9,0,1.7,0.3,2.4,0.8c2,1.3,2.5,4,1.1,6
		c-0.8,1.2-2.1,1.9-3.6,1.9c-0.9,0-1.7-0.3-2.4-0.8c-2-1.3-2.5-4-1.1-6C435.3,284,436.6,283.3,438,283.3"/>
</g>
<g transform="matrix(1,0,0,1,-371.842,-105.841)">
	<path class="st0" d="M449.1,286.5c-1.7,0-3.3,0.8-4.4,2.3c-1.6,2.4-1,5.7,1.4,7.3c0.9,0.6,1.9,0.9,3,0.9c1.7,0,3.3-0.8,4.4-2.3
		c1.6-2.4,1-5.7-1.4-7.3C451.2,286.8,450.1,286.5,449.1,286.5 M449.1,287.5c0.9,0,1.7,0.3,2.4,0.8c2,1.3,2.5,4,1.1,6
		c-0.8,1.2-2.1,1.9-3.6,1.9c-0.9,0-1.7-0.3-2.4-0.8c-2-1.3-2.5-4-1.1-6C446.4,288.2,447.7,287.5,449.1,287.5"/>
</g>
<path d="M498.5,270.3c-1,0-1.9-0.3-2.7-0.8c-1.1-0.7-1.8-1.8-2-3.1c-0.2-1.3,0-2.5,0.8-3.6c0.9-1.3,2.4-2.1,4-2.1
	c1,0,1.9,0.3,2.7,0.8c1.1,0.7,1.8,1.8,2,3.1c0.2,1.3,0,2.5-0.8,3.6C501.6,269.5,500.1,270.3,498.5,270.3"/>
<g transform="matrix(1,0,0,1,-94.9153,-2.55541)">
	<path d="M502.3,270.4c-1,0-1.9-0.3-2.7-0.8c-1.1-0.7-1.8-1.8-2-3.1c-0.2-1.3,0-2.5,0.8-3.6c0.9-1.3,2.4-2.1,4-2.1
		c1,0,1.9,0.3,2.7,0.8c1.1,0.7,1.8,1.8,2,3.1c0.2,1.3,0,2.5-0.8,3.6C505.4,269.6,503.9,270.4,502.3,270.4"/>
</g>
<g transform="matrix(1,0,0,1,-371.842,-105.841)">
	<path d="M513.4,274.5c-1,0-1.9-0.3-2.7-0.8c-1.1-0.7-1.8-1.8-2-3.1c-0.2-1.3,0-2.5,0.8-3.6c0.9-1.3,2.4-2.1,4-2.1
		c1,0,1.9,0.3,2.7,0.8c1.1,0.7,1.8,1.8,2,3.1c0.2,1.3,0,2.5-0.8,3.6C516.5,273.7,515,274.5,513.4,274.5"/>
</g>
<path class="st0" d="M498.6,260.2c-1.7,0-3.3,0.8-4.4,2.3c-1.6,2.4-1,5.7,1.4,7.3c0.9,0.6,1.9,0.9,3,0.9c1.7,0,3.3-0.8,4.4-2.3
	c1.6-2.4,1-5.7-1.4-7.3C500.6,260.5,499.6,260.2,498.6,260.2 M498.6,261.1c0.9,0,1.7,0.3,2.4,0.8c2,1.3,2.5,4,1.1,6
	c-0.8,1.2-2.1,1.9-3.6,1.9c-0.9,0-1.7-0.3-2.4-0.8c-2-1.3-2.5-4-1.1-6C495.8,261.8,497.1,261.1,498.6,261.1"/>
<g transform="matrix(1,0,0,1,-94.9153,-2.55541)">
	<path class="st0" d="M502.4,260.3c-1.7,0-3.3,0.8-4.4,2.3c-1.6,2.4-1,5.7,1.4,7.3c0.9,0.6,1.9,0.9,3,0.9c1.7,0,3.3-0.8,4.4-2.3
		c1.6-2.4,1-5.7-1.4-7.3C504.4,260.6,503.4,260.3,502.4,260.3 M502.4,261.2c0.9,0,1.7,0.3,2.4,0.8c2,1.3,2.5,4,1.1,6
		c-0.8,1.2-2.1,1.9-3.6,1.9c-0.9,0-1.7-0.3-2.4-0.8c-2-1.3-2.5-4-1.1-6C499.6,261.9,500.9,261.2,502.4,261.2"/>
</g>
<g transform="matrix(1,0,0,1,-371.842,-105.841)">
	<path class="st0" d="M513.4,264.4c-1.7,0-3.3,0.8-4.4,2.3c-1.6,2.4-1,5.7,1.4,7.3c0.9,0.6,1.9,0.9,3,0.9c1.7,0,3.3-0.8,4.4-2.3
		c1.6-2.4,1-5.7-1.4-7.3C515.5,264.7,514.5,264.4,513.4,264.4 M513.4,265.4c0.9,0,1.7,0.3,2.4,0.8c2,1.3,2.5,4,1.1,6
		c-0.8,1.2-2.1,1.9-3.6,1.9c-0.9,0-1.7-0.3-2.4-0.8c-2-1.3-2.5-4-1.1-6C510.7,266.1,512,265.4,513.4,265.4"/>
</g>
<path d="M474.5,242.4c-1,0-1.9-0.3-2.7-0.8c-1.1-0.7-1.8-1.8-2-3.1c-0.2-1.3,0-2.5,0.8-3.6c0.9-1.3,2.4-2.1,4-2.1
	c1,0,1.9,0.3,2.7,0.8c1.1,0.7,1.8,1.8,2,3.1c0.2,1.3,0,2.5-0.8,3.6C477.6,241.6,476.1,242.4,474.5,242.4"/>
<g transform="matrix(1,0,0,1,-94.9153,-2.55541)">
	<path d="M478.3,242.5c-1,0-1.9-0.3-2.7-0.8c-1.1-0.7-1.8-1.8-2-3.1c-0.2-1.3,0-2.5,0.8-3.6c0.9-1.3,2.4-2.1,4-2.1
		c1,0,1.9,0.3,2.7,0.8c1.1,0.7,1.8,1.8,2,3.1c0.2,1.3,0,2.5-0.8,3.6C481.4,241.7,479.9,242.5,478.3,242.5"/>
</g>
<path class="st0" d="M474.6,232.3c-1.7,0-3.3,0.8-4.4,2.3c-1.6,2.4-1,5.7,1.4,7.3c0.9,0.6,1.9,0.9,3,0.9c1.7,0,3.3-0.8,4.4-2.3
	c1.6-2.4,1-5.7-1.4-7.3C476.6,232.6,475.6,232.3,474.6,232.3 M474.6,233.3c0.9,0,1.7,0.3,2.4,0.8c2,1.3,2.5,4,1.1,6
	c-0.8,1.2-2.1,1.9-3.6,1.9c-0.9,0-1.7-0.3-2.4-0.8c-2-1.3-2.5-4-1.1-6C471.8,234,473.1,233.3,474.6,233.3"/>
<g transform="matrix(1,0,0,1,-94.9153,-2.55541)">
	<path class="st0" d="M478.4,232.4c-1.7,0-3.3,0.8-4.4,2.3c-1.6,2.4-1,5.7,1.4,7.3c0.9,0.6,1.9,0.9,3,0.9c1.7,0,3.3-0.8,4.4-2.3
		c1.6-2.4,1-5.7-1.4-7.3C480.4,232.7,479.4,232.4,478.4,232.4 M478.4,233.4c0.9,0,1.7,0.3,2.4,0.8c2,1.3,2.5,4,1.1,6
		c-0.8,1.2-2.1,1.9-3.6,1.9c-0.9,0-1.7-0.3-2.4-0.8c-2-1.3-2.5-4-1.1-6C475.6,234.1,476.9,233.4,478.4,233.4"/>
</g>
<path d="M540.8,218.4c-1,0-1.9-0.3-2.7-0.8c-1.1-0.7-1.8-1.8-2-3.1c-0.2-1.3,0-2.5,0.8-3.6c0.9-1.3,2.4-2.1,4-2.1
	c1,0,1.9,0.3,2.7,0.8c1.1,0.7,1.8,1.8,2,3.1c0.2,1.3,0,2.5-0.8,3.6C543.9,217.6,542.4,218.4,540.8,218.4"/>
<path class="st0" d="M540.8,208.3c-1.7,0-3.3,0.8-4.4,2.3c-1.6,2.4-1,5.7,1.4,7.3c0.9,0.6,1.9,0.9,3,0.9c1.7,0,3.3-0.8,4.4-2.3
	c1.6-2.4,1-5.7-1.4-7.3C542.9,208.6,541.8,208.3,540.8,208.3 M540.8,209.3c0.9,0,1.7,0.3,2.4,0.8c2,1.3,2.5,4,1.1,6
	c-0.8,1.2-2.1,1.9-3.6,1.9c-0.9,0-1.7-0.3-2.4-0.8c-2-1.3-2.5-4-1.1-6C538,210,539.4,209.3,540.8,209.3"/>
<path d="M610.9,188.7c-1,0-1.9-0.3-2.7-0.8c-1.1-0.7-1.8-1.8-2-3.1c-0.2-1.3,0-2.5,0.8-3.6c0.9-1.3,2.4-2.1,4-2.1
	c1,0,1.9,0.3,2.7,0.8c1.1,0.7,1.8,1.8,2,3.1c0.2,1.3,0,2.5-0.8,3.6C613.9,187.9,612.5,188.7,610.9,188.7"/>
<path class="st0" d="M610.9,178.6c-1.7,0-3.3,0.8-4.4,2.3c-1.6,2.4-1,5.7,1.4,7.3c0.9,0.6,1.9,0.9,3,0.9c1.7,0,3.3-0.8,4.4-2.3
	c1.6-2.4,1-5.7-1.4-7.3C612.9,178.9,611.9,178.6,610.9,178.6 M610.9,179.5c0.9,0,1.7,0.3,2.4,0.8c2,1.3,2.5,4,1.1,6
	c-0.8,1.2-2.1,1.9-3.6,1.9c-0.9,0-1.7-0.3-2.4-0.8c-2-1.3-2.5-4-1.1-6C608.1,180.2,609.4,179.5,610.9,179.5"/>
<path d="M662.7,205.9c-1,0-1.9-0.3-2.7-0.8c-1.1-0.7-1.8-1.8-2-3.1c-0.2-1.3,0-2.5,0.8-3.6c0.9-1.3,2.4-2.1,4-2.1
	c1,0,1.9,0.3,2.7,0.8c1.1,0.7,1.8,1.8,2,3.1c0.2,1.3,0,2.5-0.8,3.6C665.8,205.2,664.3,205.9,662.7,205.9"/>
<path class="st0" d="M662.7,195.9c-1.7,0-3.3,0.8-4.4,2.3c-1.6,2.4-1,5.7,1.4,7.3c0.9,0.6,1.9,0.9,3,0.9c1.7,0,3.3-0.8,4.4-2.3
	c1.6-2.4,1-5.7-1.4-7.3C664.8,196.2,663.7,195.9,662.7,195.9 M662.7,196.8c0.9,0,1.7,0.3,2.4,0.8c2,1.3,2.5,4,1.1,6
	c-0.8,1.2-2.1,1.9-3.6,1.9c-0.9,0-1.7-0.3-2.4-0.8c-2-1.3-2.5-4-1.1-6C660,197.5,661.3,196.8,662.7,196.8"/>
<path d="M661.7,113.8c-1,0-1.9-0.3-2.7-0.8c-1.1-0.7-1.8-1.8-2-3.1c-0.2-1.3,0-2.5,0.8-3.6c0.9-1.3,2.4-2.1,4-2.1
	c1,0,1.9,0.3,2.7,0.8c1.1,0.7,1.8,1.8,2,3.1c0.2,1.3,0,2.5-0.8,3.6C664.8,113,663.3,113.8,661.7,113.8"/>
<path class="st0" d="M661.8,103.7c-1.7,0-3.3,0.8-4.4,2.3c-1.6,2.4-1,5.7,1.4,7.3c0.9,0.6,1.9,0.9,3,0.9c1.7,0,3.3-0.8,4.4-2.3
	c1.6-2.4,1-5.7-1.4-7.3C663.8,104,662.8,103.7,661.8,103.7 M661.8,104.7c0.9,0,1.7,0.3,2.4,0.8c1,0.7,1.6,1.6,1.8,2.8
	c0.2,1.1,0,2.3-0.7,3.2c-0.8,1.2-2.1,1.9-3.6,1.9c-0.9,0-1.7-0.3-2.4-0.8c-1-0.7-1.6-1.6-1.8-2.8c-0.2-1.1,0-2.3,0.7-3.2
	C659,105.4,660.3,104.7,661.8,104.7"/>
<path d="M589.7,156c-1,0-1.9-0.3-2.7-0.8c-1.1-0.7-1.8-1.8-2-3.1c-0.2-1.3,0-2.5,0.8-3.6c0.9-1.3,2.4-2.1,4-2.1c1,0,1.9,0.3,2.7,0.8
	c1.1,0.7,1.8,1.8,2,3.1c0.2,1.3,0,2.5-0.8,3.6C592.8,155.2,591.3,156,589.7,156"/>
<path class="st0" d="M589.8,145.9c-1.7,0-3.3,0.8-4.4,2.3c-1.6,2.4-1,5.7,1.4,7.3c0.9,0.6,1.9,0.9,3,0.9c1.7,0,3.3-0.8,4.4-2.3
	c1.6-2.4,1-5.7-1.4-7.3C591.8,146.2,590.8,145.9,589.8,145.9 M589.8,146.9c0.9,0,1.7,0.3,2.4,0.8c1,0.7,1.6,1.6,1.8,2.8
	c0.2,1.1,0,2.3-0.7,3.2c-0.8,1.2-2.1,1.9-3.6,1.9c-0.9,0-1.7-0.3-2.4-0.8c-1-0.7-1.6-1.6-1.8-2.8c-0.2-1.1,0-2.3,0.7-3.2
	C587,147.6,588.3,146.9,589.8,146.9"/>
<path d="M545.6,154.1c-1,0-1.9-0.3-2.7-0.8c-1.1-0.7-1.8-1.8-2-3.1c-0.2-1.3,0-2.5,0.8-3.6c0.9-1.3,2.4-2.1,4-2.1
	c1,0,1.9,0.3,2.7,0.8c1.1,0.7,1.8,1.8,2,3.1c0.2,1.3,0,2.5-0.8,3.6C548.7,153.3,547.2,154.1,545.6,154.1"/>
<path class="st0" d="M545.6,144c-1.7,0-3.3,0.8-4.4,2.3c-1.6,2.4-1,5.7,1.4,7.3c0.9,0.6,1.9,0.9,3,0.9c1.7,0,3.3-0.8,4.4-2.3
	c1.6-2.4,1-5.7-1.4-7.3C547.7,144.3,546.6,144,545.6,144 M545.6,145c0.9,0,1.7,0.3,2.4,0.8c1,0.7,1.6,1.6,1.8,2.8
	c0.2,1.1,0,2.3-0.7,3.2c-0.8,1.2-2.1,1.9-3.6,1.9c-0.9,0-1.7-0.3-2.4-0.8c-1-0.7-1.6-1.6-1.8-2.8c-0.2-1.1,0-2.3,0.7-3.2
	C542.8,145.7,544.2,145,545.6,145"/>
<path d="M496.6,157c-1,0-1.9-0.3-2.7-0.8c-1.1-0.7-1.8-1.8-2-3.1c-0.2-1.3,0-2.5,0.8-3.6c0.9-1.3,2.4-2.1,4-2.1c1,0,1.9,0.3,2.7,0.8
	c1.1,0.7,1.8,1.8,2,3.1c0.2,1.3,0,2.5-0.8,3.6C499.7,156.2,498.2,157,496.6,157"/>
<path class="st0" d="M496.6,146.9c-1.7,0-3.3,0.8-4.4,2.3c-1.6,2.4-1,5.7,1.4,7.3c0.9,0.6,1.9,0.9,3,0.9c1.7,0,3.3-0.8,4.4-2.3
	c1.6-2.4,1-5.7-1.4-7.3C498.7,147.2,497.7,146.9,496.6,146.9 M496.6,147.9c0.9,0,1.7,0.3,2.4,0.8c1,0.7,1.6,1.6,1.8,2.8
	c0.2,1.1,0,2.3-0.7,3.2c-0.8,1.2-2.1,1.9-3.6,1.9c-0.9,0-1.7-0.3-2.4-0.8c-1-0.7-1.6-1.6-1.8-2.8c-0.2-1.1,0-2.3,0.7-3.2
	C493.9,148.6,495.2,147.9,496.6,147.9"/>
<path d="M460.1,178.1c-1,0-1.9-0.3-2.7-0.8c-1.1-0.7-1.8-1.8-2-3.1c-0.2-1.3,0-2.5,0.8-3.6c0.9-1.3,2.4-2.1,4-2.1
	c1,0,1.9,0.3,2.7,0.8c1.1,0.7,1.8,1.8,2,3.1c0.2,1.3,0,2.5-0.8,3.6C463.2,177.3,461.7,178.1,460.1,178.1"/>
<g transform="matrix(1,0,0,1,-94.9153,-2.55541)">
	<path d="M463.9,178.2c-1,0-1.9-0.3-2.7-0.8c-1.1-0.7-1.8-1.8-2-3.1c-0.2-1.3,0-2.5,0.8-3.6c0.9-1.3,2.4-2.1,4-2.1
		c1,0,1.9,0.3,2.7,0.8c1.1,0.7,1.8,1.8,2,3.1c0.2,1.3,0,2.5-0.8,3.6C467,177.4,465.5,178.2,463.9,178.2"/>
</g>
<path class="st0" d="M460.2,168c-1.7,0-3.3,0.8-4.4,2.3c-1.6,2.4-1,5.7,1.4,7.3c0.9,0.6,1.9,0.9,3,0.9c1.7,0,3.3-0.8,4.4-2.3
	c1.6-2.4,1-5.7-1.4-7.3C462.2,168.3,461.2,168,460.2,168 M460.2,169c0.9,0,1.7,0.3,2.4,0.8c2,1.3,2.5,4,1.1,6
	c-0.8,1.2-2.1,1.9-3.6,1.9c-0.9,0-1.7-0.3-2.4-0.8c-2-1.3-2.5-4-1.1-6C457.4,169.7,458.7,169,460.2,169"/>
<g transform="matrix(1,0,0,1,-94.9153,-2.55541)">
	<path class="st0" d="M464,168.1c-1.7,0-3.3,0.8-4.4,2.3c-1.6,2.4-1,5.7,1.4,7.3c0.9,0.6,1.9,0.9,3,0.9c1.7,0,3.3-0.8,4.4-2.3
		c1.6-2.4,1-5.7-1.4-7.3C466,168.4,465,168.1,464,168.1 M464,169.1c0.9,0,1.7,0.3,2.4,0.8c2,1.3,2.5,4,1.1,6
		c-0.8,1.2-2.1,1.9-3.6,1.9c-0.9,0-1.7-0.3-2.4-0.8c-2-1.3-2.5-4-1.1-6C461.2,169.8,462.5,169.1,464,169.1"/>
</g>
<path d="M428.5,201.1c-1,0-1.9-0.3-2.7-0.8c-1.1-0.7-1.8-1.8-2-3.1c-0.2-1.3,0-2.5,0.8-3.6c0.9-1.3,2.4-2.1,4-2.1
	c1,0,1.9,0.3,2.7,0.8c1.1,0.7,1.8,1.8,2,3.1c0.2,1.3,0,2.5-0.8,3.6C431.5,200.4,430.1,201.1,428.5,201.1"/>
<g transform="matrix(1,0,0,1,-94.9153,-2.55541)">
	<path d="M432.3,201.2c-1,0-1.9-0.3-2.7-0.8c-1.1-0.7-1.8-1.8-2-3.1c-0.2-1.3,0-2.5,0.8-3.6c0.9-1.3,2.4-2.1,4-2.1
		c1,0,1.9,0.3,2.7,0.8c1.1,0.7,1.8,1.8,2,3.1c0.2,1.3,0,2.5-0.8,3.6C435.3,200.5,433.9,201.2,432.3,201.2"/>
</g>
<path class="st0" d="M428.5,191.1c-1.7,0-3.3,0.8-4.4,2.3c-1.6,2.4-1,5.7,1.4,7.3c0.9,0.6,1.9,0.9,3,0.9c1.7,0,3.3-0.8,4.4-2.3
	c1.6-2.4,1-5.7-1.4-7.3C430.5,191.4,429.5,191.1,428.5,191.1 M428.5,192c0.9,0,1.7,0.3,2.4,0.8c2,1.3,2.5,4,1.1,6
	c-0.8,1.2-2.1,1.9-3.6,1.9c-0.9,0-1.7-0.3-2.4-0.8c-2-1.3-2.5-4-1.1-6C425.7,192.7,427,192,428.5,192"/>
<g transform="matrix(1,0,0,1,-94.9153,-2.55541)">
	<path class="st0" d="M432.3,191.2c-1.7,0-3.3,0.8-4.4,2.3c-1.6,2.4-1,5.7,1.4,7.3c0.9,0.6,1.9,0.9,3,0.9c1.7,0,3.3-0.8,4.4-2.3
		c1.6-2.4,1-5.7-1.4-7.3C434.3,191.5,433.3,191.2,432.3,191.2 M432.3,192.1c0.9,0,1.7,0.3,2.4,0.8c2,1.3,2.5,4,1.1,6
		c-0.8,1.2-2.1,1.9-3.6,1.9c-0.9,0-1.7-0.3-2.4-0.8c-2-1.3-2.5-4-1.1-6C429.5,192.8,430.8,192.1,432.3,192.1"/>
</g>
<path d="M414.1,125.3c-1,0-1.9-0.3-2.7-0.8c-1.1-0.7-1.8-1.8-2-3.1c-0.2-1.3,0-2.5,0.8-3.6c0.9-1.3,2.4-2.1,4-2.1
	c1,0,1.9,0.3,2.7,0.8c1.1,0.7,1.8,1.8,2,3.1c0.2,1.3,0,2.5-0.8,3.6C417.1,124.5,415.7,125.3,414.1,125.3"/>
<g transform="matrix(1,0,0,1,-395.081,48.9798)">
	<path d="M429.9,123.3c-1,0-1.9-0.3-2.7-0.8c-1.1-0.7-1.8-1.8-2-3.1c-0.2-1.3,0-2.5,0.8-3.6c0.9-1.3,2.4-2.1,4-2.1
		c1,0,1.9,0.3,2.7,0.8c1.1,0.7,1.8,1.8,2,3.1c0.2,1.3,0,2.5-0.8,3.6C432.9,122.6,431.5,123.3,429.9,123.3"/>
</g>
<g transform="matrix(1,0,0,1,-194.922,424.224)">
	<path d="M421.9,108.3c-1,0-1.9-0.3-2.7-0.8c-1.1-0.7-1.8-1.8-2-3.1c-0.2-1.3,0-2.5,0.8-3.6c0.9-1.3,2.4-2.1,4-2.1
		c1,0,1.9,0.3,2.7,0.8c1.1,0.7,1.8,1.8,2,3.1c0.2,1.3,0,2.5-0.8,3.6C424.9,107.5,423.5,108.3,421.9,108.3"/>
</g>
<path class="st0" d="M414.1,115.2c-1.7,0-3.3,0.8-4.4,2.3c-1.6,2.4-1,5.7,1.4,7.3c0.9,0.6,1.9,0.9,3,0.9c1.7,0,3.3-0.8,4.4-2.3
	c1.6-2.4,1-5.7-1.4-7.3C416.1,115.5,415.1,115.2,414.1,115.2 M414.1,116.2c0.9,0,1.7,0.3,2.4,0.8c1,0.7,1.6,1.6,1.8,2.8
	c0.2,1.1,0,2.3-0.7,3.2c-0.8,1.2-2.1,1.9-3.6,1.9c-0.9,0-1.7-0.3-2.4-0.8c-1-0.7-1.6-1.6-1.8-2.8c-0.2-1.1,0-2.3,0.7-3.2
	C411.3,116.9,412.6,116.2,414.1,116.2"/>
<g transform="matrix(1,0,0,1,-395.081,48.9798)">
	<path class="st0" d="M429.9,113.3c-1.7,0-3.3,0.8-4.4,2.3c-1.6,2.4-1,5.7,1.4,7.3c0.9,0.6,1.9,0.9,3,0.9c1.7,0,3.3-0.8,4.4-2.3
		c1.6-2.4,1-5.7-1.4-7.3C432,113.6,430.9,113.3,429.9,113.3 M429.9,114.2c0.9,0,1.7,0.3,2.4,0.8c1,0.7,1.6,1.6,1.8,2.8
		c0.2,1.1,0,2.3-0.7,3.2c-0.8,1.2-2.1,1.9-3.6,1.9c-0.9,0-1.7-0.3-2.4-0.8c-1-0.7-1.6-1.6-1.8-2.8c-0.2-1.1,0-2.3,0.7-3.2
		C427.1,114.9,428.5,114.2,429.9,114.2"/>
</g>
<g transform="matrix(1,0,0,1,-194.922,424.224)">
	<path class="st0" d="M421.9,98.2c-1.7,0-3.3,0.8-4.4,2.3c-1.6,2.4-1,5.7,1.4,7.3c0.9,0.6,1.9,0.9,3,0.9c1.7,0,3.3-0.8,4.4-2.3
		c1.6-2.4,1-5.7-1.4-7.3C423.9,98.5,422.9,98.2,421.9,98.2 M421.9,99.2c0.9,0,1.7,0.3,2.4,0.8c1,0.7,1.6,1.6,1.8,2.8
		c0.2,1.1,0,2.3-0.7,3.2c-0.8,1.2-2.1,1.9-3.6,1.9c-0.9,0-1.7-0.3-2.4-0.8c-1-0.7-1.6-1.6-1.8-2.8c-0.2-1.1,0-2.3,0.7-3.2
		C419.1,99.9,420.4,99.2,421.9,99.2"/>
</g>
<path d="M459.2,135.9c-1,0-1.9-0.3-2.7-0.8c-1.1-0.7-1.8-1.8-2-3.1c-0.2-1.3,0-2.5,0.8-3.6c0.9-1.3,2.4-2.1,4-2.1
	c1,0,1.9,0.3,2.7,0.8c1.1,0.7,1.8,1.8,2,3.1c0.2,1.3,0,2.5-0.8,3.6C462.3,135.1,460.8,135.9,459.2,135.9"/>
<g transform="matrix(1,0,0,1,-194.922,424.224)">
	<path d="M467,118.9c-1,0-1.9-0.3-2.7-0.8c-1.1-0.7-1.8-1.8-2-3.1c-0.2-1.3,0-2.5,0.8-3.6c0.9-1.3,2.4-2.1,4-2.1
		c1,0,1.9,0.3,2.7,0.8c1.1,0.7,1.8,1.8,2,3.1c0.2,1.3,0,2.5-0.8,3.6C470.1,118.1,468.6,118.9,467,118.9"/>
</g>
<path class="st0" d="M459.2,125.8c-1.7,0-3.3,0.8-4.4,2.3c-1.6,2.4-1,5.7,1.4,7.3c0.9,0.6,1.9,0.9,3,0.9c1.7,0,3.3-0.8,4.4-2.3
	c1.6-2.4,1-5.7-1.4-7.3C461.3,126.1,460.2,125.8,459.2,125.8 M459.2,126.7c0.9,0,1.7,0.3,2.4,0.8c1,0.7,1.6,1.6,1.8,2.8
	c0.2,1.1,0,2.3-0.7,3.2c-0.8,1.2-2.1,1.9-3.6,1.9c-0.9,0-1.7-0.3-2.4-0.8c-1-0.7-1.6-1.6-1.8-2.8c-0.2-1.1,0-2.3,0.7-3.2
	C456.4,127.4,457.8,126.7,459.2,126.7"/>
<g transform="matrix(1,0,0,1,-194.922,424.224)">
	<path class="st0" d="M467,108.8c-1.7,0-3.3,0.8-4.4,2.3c-1.6,2.4-1,5.7,1.4,7.3c0.9,0.6,1.9,0.9,3,0.9c1.7,0,3.3-0.8,4.4-2.3
		c1.6-2.4,1-5.7-1.4-7.3C469.1,109.1,468,108.8,467,108.8 M467,109.8c0.9,0,1.7,0.3,2.4,0.8c1,0.7,1.6,1.6,1.8,2.8
		c0.2,1.1,0,2.3-0.7,3.2c-0.8,1.2-2.1,1.9-3.6,1.9c-0.9,0-1.7-0.3-2.4-0.8c-1-0.7-1.6-1.6-1.8-2.8c-0.2-1.1,0-2.3,0.7-3.2
		C464.2,110.5,465.6,109.8,467,109.8"/>
</g>
<path d="M485.1,92.7c-1,0-1.9-0.3-2.7-0.8c-1.1-0.7-1.8-1.8-2-3.1c-0.2-1.3,0-2.5,0.8-3.6c0.9-1.3,2.4-2.1,4-2.1
	c1,0,1.9,0.3,2.7,0.8c1.1,0.7,1.8,1.8,2,3.1c0.2,1.3,0,2.5-0.8,3.6C488.2,91.9,486.7,92.7,485.1,92.7"/>
<g transform="matrix(1,0,0,1,-395.081,48.9798)">
	<path d="M500.9,90.7c-1,0-1.9-0.3-2.7-0.8c-1.1-0.7-1.8-1.8-2-3.1c-0.2-1.3,0-2.5,0.8-3.6c0.9-1.3,2.4-2.1,4-2.1
		c1,0,1.9,0.3,2.7,0.8c1.1,0.7,1.8,1.8,2,3.1c0.2,1.3,0,2.5-0.8,3.6C504,89.9,502.5,90.7,500.9,90.7"/>
</g>
<g transform="matrix(1,0,0,1,-194.922,424.224)">
	<path d="M492.9,75.7c-1,0-1.9-0.3-2.7-0.8c-1.1-0.7-1.8-1.8-2-3.1c-0.2-1.3,0-2.5,0.8-3.6c0.9-1.3,2.4-2.1,4-2.1
		c1,0,1.9,0.3,2.7,0.8c1.1,0.7,1.8,1.8,2,3.1c0.2,1.3,0,2.5-0.8,3.6C496,74.9,494.5,75.7,492.9,75.7"/>
</g>
<g transform="matrix(1,0,0,1,-246.411,35.3292)">
	<path d="M495,91.2c-1,0-1.9-0.3-2.7-0.8c-1.1-0.7-1.8-1.8-2-3.1c-0.2-1.3,0-2.5,0.8-3.6c0.9-1.3,2.4-2.1,4-2.1c1,0,1.9,0.3,2.7,0.8
		c1.1,0.7,1.8,1.8,2,3.1c0.2,1.3,0,2.5-0.8,3.6C498,90.5,496.6,91.2,495,91.2"/>
</g>
<path class="st0" d="M485.1,82.6c-1.7,0-3.3,0.8-4.4,2.3c-1.6,2.4-1,5.7,1.4,7.3c0.9,0.6,1.9,0.9,3,0.9c1.7,0,3.3-0.8,4.4-2.3
	c1.6-2.4,1-5.7-1.4-7.3C487.2,82.9,486.1,82.6,485.1,82.6 M485.1,83.5c0.9,0,1.7,0.3,2.4,0.8c1,0.7,1.6,1.6,1.8,2.8
	c0.2,1.1,0,2.3-0.7,3.2c-0.8,1.2-2.1,1.9-3.6,1.9c-0.9,0-1.7-0.3-2.4-0.8c-1-0.7-1.6-1.6-1.8-2.8c-0.2-1.1,0-2.3,0.7-3.2
	C482.4,84.2,483.7,83.5,485.1,83.5"/>
<g transform="matrix(1,0,0,1,-395.081,48.9798)">
	<path class="st0" d="M500.9,80.6c-1.7,0-3.3,0.8-4.4,2.3c-1.6,2.4-1,5.7,1.4,7.3c0.9,0.6,1.9,0.9,3,0.9c1.7,0,3.3-0.8,4.4-2.3
		c1.6-2.4,1-5.7-1.4-7.3C503,80.9,502,80.6,500.9,80.6 M500.9,81.6c0.9,0,1.7,0.3,2.4,0.8c1,0.7,1.6,1.6,1.8,2.8
		c0.2,1.1,0,2.3-0.7,3.2c-0.8,1.2-2.1,1.9-3.6,1.9c-0.9,0-1.7-0.3-2.4-0.8c-1-0.7-1.6-1.6-1.8-2.8c-0.2-1.1,0-2.3,0.7-3.2
		C498.2,82.3,499.5,81.6,500.9,81.6"/>
</g>
<g transform="matrix(1,0,0,1,-194.922,424.224)">
	<path class="st0" d="M492.9,65.6c-1.7,0-3.3,0.8-4.4,2.3c-1.6,2.4-1,5.7,1.4,7.3c0.9,0.6,1.9,0.9,3,0.9c1.7,0,3.3-0.8,4.4-2.3
		c1.6-2.4,1-5.7-1.4-7.3C495,65.9,493.9,65.6,492.9,65.6 M492.9,66.6c0.9,0,1.7,0.3,2.4,0.8c1,0.7,1.6,1.6,1.8,2.8
		c0.2,1.1,0,2.3-0.7,3.2c-0.8,1.2-2.1,1.9-3.6,1.9c-0.9,0-1.7-0.3-2.4-0.8c-1-0.7-1.6-1.6-1.8-2.8c-0.2-1.1,0-2.3,0.7-3.2
		C490.2,67.3,491.5,66.6,492.9,66.6"/>
</g>
<g transform="matrix(1,0,0,1,-246.411,35.3292)">
	<path class="st0" d="M495,81.2c-1.7,0-3.3,0.8-4.4,2.3c-1.6,2.4-1,5.7,1.4,7.3c0.9,0.6,1.9,0.9,3,0.9c1.7,0,3.3-0.8,4.4-2.3
		c1.6-2.4,1-5.7-1.4-7.3C497,81.5,496,81.2,495,81.2 M495,82.1c0.9,0,1.7,0.3,2.4,0.8c1,0.7,1.6,1.6,1.8,2.8c0.2,1.1,0,2.3-0.7,3.2
		c-0.8,1.2-2.1,1.9-3.6,1.9c-0.9,0-1.7-0.3-2.4-0.8c-1-0.7-1.6-1.6-1.8-2.8c-0.2-1.1,0-2.3,0.7-3.2C492.2,82.8,493.5,82.1,495,82.1"
		/>
</g>
<g transform="matrix(1,0,0,1,-395.081,48.9798)">
	<path d="M450,56.1c-1,0-1.9-0.3-2.7-0.8c-1.1-0.7-1.8-1.8-2-3.1c-0.2-1.3,0-2.5,0.8-3.6c0.9-1.3,2.4-2.1,4-2.1c1,0,1.9,0.3,2.7,0.8
		c1.1,0.7,1.8,1.8,2,3.1c0.2,1.3,0,2.5-0.8,3.6C453.1,55.4,451.6,56.1,450,56.1"/>
</g>
<g transform="matrix(1,0,0,1,-194.922,424.224)">
	<path d="M442,41.1c-1,0-1.9-0.3-2.7-0.8c-1.1-0.7-1.8-1.8-2-3.1c-0.2-1.3,0-2.5,0.8-3.6c0.9-1.3,2.4-2.1,4-2.1c1,0,1.9,0.3,2.7,0.8
		c1.1,0.7,1.8,1.8,2,3.1c0.2,1.3,0,2.5-0.8,3.6C445.1,40.3,443.6,41.1,442,41.1"/>
</g>
<g transform="matrix(1,0,0,1,-395.081,48.9798)">
	<path class="st0" d="M450,46.1c-1.7,0-3.3,0.8-4.4,2.3c-1.6,2.4-1,5.7,1.4,7.3c0.9,0.6,1.9,0.9,3,0.9c1.7,0,3.3-0.8,4.4-2.3
		c1.6-2.4,1-5.7-1.4-7.3C452.1,46.4,451.1,46.1,450,46.1 M450,47c0.9,0,1.7,0.3,2.4,0.8c1,0.7,1.6,1.6,1.8,2.8
		c0.2,1.1,0,2.3-0.7,3.2c-0.8,1.2-2.1,1.9-3.6,1.9c-0.9,0-1.7-0.3-2.4-0.8c-1-0.7-1.6-1.6-1.8-2.8c-0.2-1.1,0-2.3,0.7-3.2
		C447.3,47.7,448.6,47,450,47"/>
</g>
<g transform="matrix(1,0,0,1,-194.922,424.224)">
	<path class="st0" d="M442,31c-1.7,0-3.3,0.8-4.4,2.3c-1.6,2.4-1,5.7,1.4,7.3c0.9,0.6,1.9,0.9,3,0.9c1.7,0,3.3-0.8,4.4-2.3
		c1.6-2.4,1-5.7-1.4-7.3C444.1,31.3,443.1,31,442,31 M442,32c0.9,0,1.7,0.3,2.4,0.8c1,0.7,1.6,1.6,1.8,2.8c0.2,1.1,0,2.3-0.7,3.2
		c-0.8,1.2-2.1,1.9-3.6,1.9c-0.9,0-1.7-0.3-2.4-0.8c-1-0.7-1.6-1.6-1.8-2.8c-0.2-1.1,0-2.3,0.7-3.2C439.3,32.7,440.6,32,442,32"/>
</g>
<g transform="matrix(1,0,0,1,-395.081,48.9798)">
	<path d="M452,8.1c-1,0-1.9-0.3-2.7-0.8c-1.1-0.7-1.8-1.8-2-3.1c-0.2-1.3,0-2.5,0.8-3.6c0.9-1.3,2.4-2.1,4-2.1c1,0,1.9,0.3,2.7,0.8
		c1.1,0.7,1.8,1.8,2,3.1c0.2,1.3,0,2.5-0.8,3.6C455,7.4,453.5,8.1,452,8.1"/>
</g>
<g transform="matrix(1,0,0,1,-395.081,48.9798)">
	<path class="st0" d="M452-1.9c-1.7,0-3.3,0.8-4.4,2.3c-1.6,2.4-1,5.7,1.4,7.3c0.9,0.6,1.9,0.9,3,0.9c1.7,0,3.3-0.8,4.4-2.3
		c1.6-2.4,1-5.7-1.4-7.3C454-1.6,453-1.9,452-1.9 M452-1c0.9,0,1.7,0.3,2.4,0.8c1,0.7,1.6,1.6,1.8,2.8c0.2,1.1,0,2.3-0.7,3.2
		c-0.8,1.2-2.1,1.9-3.6,1.9c-0.9,0-1.7-0.3-2.4-0.8c-1-0.7-1.6-1.6-1.8-2.8c-0.2-1.1,0-2.3,0.7-3.2C449.2-0.3,450.5-1,452-1"/>
</g>
<g transform="matrix(1,0,0,1,-395.081,48.9798)">
	<path d="M523,34.1c-1,0-1.9-0.3-2.7-0.8c-1.1-0.7-1.8-1.8-2-3.1c-0.2-1.3,0-2.5,0.8-3.6c0.9-1.3,2.4-2.1,4-2.1c1,0,1.9,0.3,2.7,0.8
		c1.1,0.7,1.8,1.8,2,3.1c0.2,1.3,0,2.5-0.8,3.6C526.1,33.3,524.6,34.1,523,34.1"/>
</g>
<g transform="matrix(1,0,0,1,-246.411,35.3292)">
	<path d="M517,34.6c-1,0-1.9-0.3-2.7-0.8c-1.1-0.7-1.8-1.8-2-3.1c-0.2-1.3,0-2.5,0.8-3.6c0.9-1.3,2.4-2.1,4-2.1c1,0,1.9,0.3,2.7,0.8
		c1.1,0.7,1.8,1.8,2,3.1c0.2,1.3,0,2.5-0.8,3.6C520.1,33.8,518.6,34.6,517,34.6"/>
</g>
<g transform="matrix(1,0,0,1,-395.081,48.9798)">
	<path class="st0" d="M523,24c-1.7,0-3.3,0.8-4.4,2.3c-1.6,2.4-1,5.7,1.4,7.3c0.9,0.6,1.9,0.9,3,0.9c1.7,0,3.3-0.8,4.4-2.3
		c1.6-2.4,1-5.7-1.4-7.3C525.1,24.3,524,24,523,24 M523,24.9c0.9,0,1.7,0.3,2.4,0.8c1,0.7,1.6,1.6,1.8,2.8c0.2,1.1,0,2.3-0.7,3.2
		c-0.8,1.2-2.1,1.9-3.6,1.9c-0.9,0-1.7-0.3-2.4-0.8c-1-0.7-1.6-1.6-1.8-2.8c-0.2-1.1,0-2.3,0.7-3.2C520.2,25.6,521.6,24.9,523,24.9"
		/>
</g>
<g transform="matrix(1,0,0,1,-246.411,35.3292)">
	<path class="st0" d="M517.1,24.5c-1.7,0-3.3,0.8-4.4,2.3c-1.6,2.4-1,5.7,1.4,7.3c0.9,0.6,1.9,0.9,3,0.9c1.7,0,3.3-0.8,4.4-2.3
		c1.6-2.4,1-5.7-1.4-7.3C519.1,24.8,518.1,24.5,517.1,24.5 M517.1,25.5c0.9,0,1.7,0.3,2.4,0.8c1,0.7,1.6,1.6,1.8,2.8
		c0.2,1.1,0,2.3-0.7,3.2c-0.8,1.2-2.1,1.9-3.6,1.9c-0.9,0-1.7-0.3-2.4-0.8c-1-0.7-1.6-1.6-1.8-2.8c-0.2-1.1,0-2.3,0.7-3.2
		C514.3,26.2,515.6,25.5,517.1,25.5"/>
</g>
<g transform="matrix(1,0,0,1,-246.411,35.3292)">
	<path d="M550.6,99.9c-1,0-1.9-0.3-2.7-0.8c-1.1-0.7-1.8-1.8-2-3.1c-0.2-1.3,0-2.5,0.8-3.6c0.9-1.3,2.4-2.1,4-2.1
		c1,0,1.9,0.3,2.7,0.8c1.1,0.7,1.8,1.8,2,3.1c0.2,1.3,0,2.5-0.8,3.6C553.7,99.1,552.2,99.9,550.6,99.9"/>
</g>
<g transform="matrix(1,0,0,1,-246.411,35.3292)">
	<path class="st0" d="M550.7,89.8c-1.7,0-3.3,0.8-4.4,2.3c-1.6,2.4-1,5.7,1.4,7.3c0.9,0.6,1.9,0.9,3,0.9c1.7,0,3.3-0.8,4.4-2.3
		c1.6-2.4,1-5.7-1.4-7.3C552.7,90.1,551.7,89.8,550.7,89.8 M550.7,90.8c0.9,0,1.7,0.3,2.4,0.8c1,0.7,1.6,1.6,1.8,2.8
		c0.2,1.1,0,2.3-0.7,3.2c-0.8,1.2-2.1,1.9-3.6,1.9c-0.9,0-1.7-0.3-2.4-0.8c-1-0.7-1.6-1.6-1.8-2.8c-0.2-1.1,0-2.3,0.7-3.2
		C547.9,91.5,549.2,90.8,550.7,90.8"/>
</g>
<g transform="matrix(1,0,0,1,-246.411,35.3292)">
	<path d="M588.1,35.6c-1,0-1.9-0.3-2.7-0.8c-1.1-0.7-1.8-1.8-2-3.1c-0.2-1.3,0-2.5,0.8-3.6c0.9-1.3,2.4-2.1,4-2.1
		c1,0,1.9,0.3,2.7,0.8c1.1,0.7,1.8,1.8,2,3.1c0.2,1.3,0,2.5-0.8,3.6C591.2,34.8,589.7,35.6,588.1,35.6"/>
</g>
<g transform="matrix(1,0,0,1,-246.411,35.3292)">
	<path class="st0" d="M588.1,25.5c-1.7,0-3.3,0.8-4.4,2.3c-1.6,2.4-1,5.7,1.4,7.3c0.9,0.6,1.9,0.9,3,0.9c1.7,0,3.3-0.8,4.4-2.3
		c1.6-2.4,1-5.7-1.4-7.3C590.2,25.8,589.1,25.5,588.1,25.5 M588.1,26.4c0.9,0,1.7,0.3,2.4,0.8c1,0.7,1.6,1.6,1.8,2.8
		c0.2,1.1,0,2.3-0.7,3.2c-0.8,1.2-2.1,1.9-3.6,1.9c-0.9,0-1.7-0.3-2.4-0.8c-1-0.7-1.6-1.6-1.8-2.8c-0.2-1.1,0-2.3,0.7-3.2
		C585.3,27.2,586.7,26.4,588.1,26.4"/>
</g>
<path class="st1" d="M429.4,525.6l29.8-47"/>
<g transform="matrix(1,0,0,1,-371.842,-105.841)">
	<path class="st1" d="M444.3,529.8l29.8-47"/>
</g>
<path class="st1" d="M508.2,530.4l-78.7-4.8"/>
<g transform="matrix(1,0,0,1,-371.842,-105.841)">
	<path class="st1" d="M523,534.6l-78.7-4.8"/>
</g>
<path class="st1" d="M552.3,474.7l-1-76.8"/>
<g transform="matrix(1,0,0,1,-371.842,-105.841)">
	<path class="st1" d="M567.2,479l-1-76.8"/>
</g>
<path class="st1" d="M628.2,412.3l-76.8-14.4"/>
<path class="st1" d="M672.3,401.8l-44.2,10.6"/>
<g>
	<g>
		<line class="st2" x1="658.9" y1="447.9" x2="654.9" y2="443.3"/>
		<line class="st3" x1="647.3" y1="434.5" x2="635.9" y2="421.3"/>
		<line class="st2" x1="632.1" y1="416.9" x2="628.2" y2="412.3"/>
	</g>
</g>
<g transform="matrix(1,0,0,1,-371.842,-105.841)">
	<path class="st1" d="M673.7,452.1L643,416.6"/>
</g>
<g transform="matrix(1,0,0,1,-371.842,-105.841)">
	<path class="st1" d="M508.6,442.5l57.6-40.3"/>
</g>
<path class="st1" d="M459.2,478.6l-31.7-86.4"/>
<g transform="matrix(1,0,0,1,-371.842,-105.841)">
	<path class="st1" d="M474.1,482.8l-31.7-86.4"/>
</g>
<path class="st1" d="M508.2,530.4l85.4-25"/>
<g transform="matrix(1,0,0,1,-371.842,-105.841)">
	<path class="st1" d="M523,534.6l85.4-25"/>
</g>
<path class="st1" d="M658.9,447.9l-51.8,9.6"/>
<g transform="matrix(1,0,0,1,-371.842,-105.841)">
	<path class="st1" d="M673.7,452.1l-51.8,9.6"/>
</g>
<path class="st1" d="M593.6,505.5l13.4-48"/>
<g transform="matrix(1,0,0,1,-371.842,-105.841)">
	<path class="st1" d="M608.5,509.7l13.4-48"/>
</g>
<path class="st1" d="M427.5,392.2l6.7-104.6"/>
<g transform="matrix(1,0,0,1,-94.9153,-2.55541)">
	<path class="st1" d="M431.3,392.3l6.7-104.6"/>
</g>
<g transform="matrix(1,0,0,1,-371.842,-105.841)">
	<path class="st1" d="M442.4,396.4l6.7-104.6"/>
</g>
<path class="st1" d="M428.5,196.3l5.8,91.2"/>
<g transform="matrix(1,0,0,1,-94.9153,-2.55541)">
	<path class="st1" d="M432.3,196.4l5.8,91.2"/>
</g>
<g transform="matrix(1,0,0,1,-395.081,48.9798)">
	<path class="st1" d="M450,51.3l-20.2,67.2"/>
</g>
<g transform="matrix(1,0,0,1,-194.922,424.224)">
	<path class="st1" d="M442,36.3l-20.2,67.2"/>
</g>
<g transform="matrix(1,0,0,1,-395.081,48.9798)">
	<path class="st1" d="M452,3.3l-1.9,48"/>
</g>
<g transform="matrix(1,0,0,1,-395.081,48.9798)">
	<g>
		<g>
			<line class="st2" x1="523" y1="29.3" x2="517.4" y2="27.2"/>
			<line class="st4" x1="505.4" y1="22.8" x2="463.6" y2="7.6"/>
			<line class="st2" x1="457.6" y1="5.4" x2="452" y2="3.3"/>
		</g>
	</g>
</g>
<g transform="matrix(1,0,0,1,-246.411,35.3292)">
	<path class="st1" d="M588.1,30.8l-71-1"/>
</g>
<path class="st1" d="M662.7,201.1l-1-92.2"/>
<path class="st1" d="M666.6,238.6l-3.8-37.4"/>
<path class="st1" d="M658.9,291.4l7.7-52.8"/>
<path class="st1" d="M672.3,401.8l-13.4-110.4"/>
<path class="st1" d="M459.2,478.6l35.5-39.4"/>
<g transform="matrix(1,0,0,1,-371.842,-105.841)">
	<path class="st1" d="M474.1,482.8l35.5-39.4"/>
</g>
<path class="st1" d="M551.4,397.9l27.8-31.7"/>
<g transform="matrix(1,0,0,1,-371.842,-105.841)">
	<path class="st1" d="M566.2,402.2l27.8-31.7"/>
</g>
<path class="st1" d="M610.9,336.5l-31.7,29.8"/>
<g transform="matrix(1,0,0,1,-371.842,-105.841)">
	<path class="st1" d="M625.7,340.7l-31.7,29.8"/>
</g>
<path class="st1" d="M658.9,291.4l-48,45.1"/>
<path class="st1" d="M459.2,478.6l42.2-1.9"/>
<g transform="matrix(1,0,0,1,-371.842,-105.841)">
	<path class="st1" d="M474.1,482.8l42.2-1.9"/>
</g>
<path class="st1" d="M552.3,474.7l-50.9,1.9"/>
<g transform="matrix(1,0,0,1,-371.842,-105.841)">
	<path class="st1" d="M567.2,479l-50.9,1.9"/>
</g>
<path class="st1" d="M607,457.5l-54.7,17.3"/>
<g transform="matrix(1,0,0,1,-371.842,-105.841)">
	<path class="st1" d="M621.9,461.7L567.2,479"/>
</g>
<path class="st1" d="M501.4,476.7l6.7,53.8"/>
<g transform="matrix(1,0,0,1,-371.842,-105.841)">
	<path class="st1" d="M516.3,480.9l6.7,53.8"/>
</g>
<path class="st1" d="M552.3,474.7l41.3,30.7"/>
<g transform="matrix(1,0,0,1,-371.842,-105.841)">
	<path class="st1" d="M567.2,479l41.3,30.7"/>
</g>
<path class="st1" d="M494.7,439.2l6.7,37.4"/>
<g transform="matrix(1,0,0,1,-371.842,-105.841)">
	<path class="st1" d="M509.6,443.5l6.7,37.4"/>
</g>
<path class="st1" d="M607,457.5l21.1-45.1"/>
<g transform="matrix(1,0,0,1,-371.842,-105.841)">
	<path class="st1" d="M621.9,461.7l21.1-45.1"/>
</g>
<path class="st1" d="M610.9,336.5l17.3,75.8"/>
<g transform="matrix(1,0,0,1,-371.842,-105.841)">
	<path class="st1" d="M625.7,340.7l17.3,75.8"/>
</g>
<g>
	<g>
		<line class="st2" x1="579.2" y1="366.3" x2="583.6" y2="370.4"/>
		<line class="st5" x1="591.6" y1="377.9" x2="619.8" y2="404.4"/>
		<line class="st2" x1="623.8" y1="408.2" x2="628.2" y2="412.3"/>
	</g>
</g>
<g transform="matrix(1,0,0,1,-371.842,-105.841)">
	<path class="st1" d="M594.1,370.5l49,46.1"/>
</g>
<path class="st1" d="M658.9,447.9l13.4-46.1"/>
<g transform="matrix(1,0,0,1,-371.842,-105.841)">
	<path class="st1" d="M533.6,380.1l-24,63.4"/>
</g>
<path class="st1" d="M551.4,397.9l-32.6-22.1"/>
<g transform="matrix(1,0,0,1,-371.842,-105.841)">
	<path class="st1" d="M566.2,402.2l-32.6-22.1"/>
</g>
<path class="st1" d="M427.5,392.2l67.2,47"/>
<path class="st1" d="M476.5,360.5l-49,31.7"/>
<g transform="matrix(1,0,0,1,-94.9153,-2.55541)">
	<path class="st1" d="M480.3,360.6l-49,31.7"/>
</g>
<path class="st1" d="M538.9,325.9l-62.4,34.6"/>
<path class="st1" d="M596.5,287.5l-57.6,38.4"/>
<path class="st1" d="M658.9,291.4l-62.4-3.8"/>
<path class="st1" d="M610.9,336.5l-14.4-49"/>
<g transform="matrix(1,0,0,1,-371.842,-105.841)">
	<path class="st1" d="M625.7,340.7l-14.4-49"/>
</g>
<path class="st1" d="M518.7,375.9l-42.2-15.4"/>
<g transform="matrix(1,0,0,1,-371.842,-105.841)">
	<path class="st1" d="M533.6,380.1l-42.2-15.4"/>
</g>
<g transform="matrix(1,0,0,1,-371.842,-105.841)">
	<path class="st1" d="M553.8,330.2l-20.2,49.9"/>
</g>
<path class="st1" d="M579.2,366.3l-65.3,10.6"/>
<g transform="matrix(1,0,0,1,-371.842,-105.841)">
	<path class="st1" d="M594.1,370.5l-65.3,10.6"/>
</g>
<g>
	<g>
		<line class="st2" x1="538.9" y1="325.9" x2="543.1" y2="330.2"/>
		<line class="st6" x1="553.7" y1="340.8" x2="569.6" y2="356.7"/>
		<line class="st2" x1="574.9" y1="362" x2="579.2" y2="366.3"/>
	</g>
</g>
<g transform="matrix(1,0,0,1,-371.842,-105.841)">
	<path class="st1" d="M553.8,330.2l40.3,40.3"/>
</g>
<g>
	<g>
		<line class="st2" x1="434.2" y1="287.5" x2="439.9" y2="285.6"/>
		<line class="st7" x1="450.5" y1="282" x2="487.6" y2="269.2"/>
		<line class="st2" x1="492.9" y1="267.4" x2="498.6" y2="265.5"/>
	</g>
</g>
<g transform="matrix(1,0,0,1,-94.9153,-2.55541)">
	<path class="st1" d="M438,287.6l64.3-22.1"/>
</g>
<g transform="matrix(1,0,0,1,-371.842,-105.841)">
	<path class="st1" d="M449.1,291.8l64.3-22.1"/>
</g>
<path class="st1" d="M540.8,266.4l-42.2-1"/>
<g transform="matrix(1,0,0,1,-371.842,-105.841)">
	<path class="st1" d="M555.7,270.7l-42.2-1"/>
</g>
<path class="st1" d="M593.6,255.9l-52.8,10.6"/>
<path class="st1" d="M632,254.9l-38.4,1"/>
<path class="st1" d="M666.6,238.6L632,254.9"/>
<g transform="matrix(1,0,0,1,-94.9153,-2.55541)">
	<path class="st1" d="M478.4,237.7L438,287.6"/>
</g>
<path class="st1" d="M540.8,213.6l-66.2,24"/>
<path class="st1" d="M662.7,201.1l-51.8-17.3"/>
<path class="st1" d="M460.2,173.3l-31.7,23"/>
<g transform="matrix(1,0,0,1,-94.9153,-2.55541)">
	<path class="st1" d="M464,173.4l-31.7,23"/>
</g>
<path class="st1" d="M496.6,152.2l-36.5,21.1"/>
<path class="st1" d="M545.6,149.3l-49,2.9"/>
<path class="st1" d="M661.8,109l-72,42.2"/>
<g transform="matrix(1,0,0,1,-246.411,35.3292)">
	<path class="st1" d="M495,86.4l55.7,8.6"/>
</g>
<path class="st1" d="M459.2,131.1l25.9-43.2"/>
<g transform="matrix(1,0,0,1,-194.922,424.224)">
	<path class="st1" d="M467,114.1l25.9-43.2"/>
</g>
<path class="st1" d="M414.1,120.5l45.1,10.6"/>
<g transform="matrix(1,0,0,1,-194.922,424.224)">
	<path class="st1" d="M421.9,103.5l45.1,10.6"/>
</g>
<g transform="matrix(1,0,0,1,-395.081,48.9798)">
	<path class="st1" d="M450,51.3l50.9,34.6"/>
</g>
<g transform="matrix(1,0,0,1,-194.922,424.224)">
	<path class="st1" d="M442,36.3l50.9,34.6"/>
</g>
<path class="st1" d="M428.5,196.3l46.1,41.3"/>
<g transform="matrix(1,0,0,1,-94.9153,-2.55541)">
	<g>
		<g>
			<line class="st2" x1="432.3" y1="196.4" x2="436.7" y2="200.4"/>
			<line class="st8" x1="444.2" y1="207.1" x2="470.2" y2="230.4"/>
			<line class="st2" x1="473.9" y1="233.7" x2="478.4" y2="237.7"/>
		</g>
	</g>
</g>
<g transform="matrix(1,0,0,1,-94.9153,-2.55541)">
	<path class="st1" d="M464,173.4l14.4,64.3"/>
</g>
<path class="st1" d="M545.6,149.3l-4.8,64.3"/>
<path class="st1" d="M589.8,151.2l21.1,32.6"/>
<path class="st1" d="M661.8,109l-50.9,74.9"/>
<g transform="matrix(1,0,0,1,-246.411,35.3292)">
	<g>
		<g>
			<line class="st9" x1="517.1" y1="29.8" x2="519.8" y2="35.1"/>
			<line class="st10" x1="525.4" y1="46.1" x2="545.1" y2="84.3"/>
			<line class="st9" x1="547.9" y1="89.8" x2="550.7" y2="95.1"/>
		</g>
	</g>
</g>
<path class="st1" d="M485.1,87.9l11.5,64.3"/>
<path class="st1" d="M459.2,131.1l1,42.2"/>
<path class="st1" d="M496.6,152.2l-37.4-21.1"/>
<g transform="matrix(1,0,0,1,-395.081,48.9798)">
	<path class="st1" d="M450,51.3l50.9,34.6"/>
</g>
<g transform="matrix(1,0,0,1,-194.922,424.224)">
	<path class="st1" d="M442,36.3l50.9,34.6"/>
</g>
<g transform="matrix(1,0,0,1,-395.081,48.9798)">
	<path class="st1" d="M523,29.3l-22.1,56.6"/>
</g>
<g transform="matrix(1,0,0,1,-246.411,35.3292)">
	<path class="st1" d="M517.1,29.8L495,86.4"/>
</g>
<g transform="matrix(1,0,0,1,-246.411,35.3292)">
	<path class="st1" d="M588.1,30.8l-37.4,64.3"/>
</g>
<path class="st1" d="M474.6,237.6l24,27.8"/>
<g transform="matrix(1,0,0,1,-94.9153,-2.55541)">
	<g>
		<g>
			<line class="st2" x1="478.4" y1="237.7" x2="482.3" y2="242.3"/>
			<line class="st11" x1="487.7" y1="248.5" x2="495.7" y2="257.9"/>
			<line class="st2" x1="498.4" y1="261" x2="502.4" y2="265.6"/>
		</g>
	</g>
</g>
<path class="st1" d="M610.9,183.9l-17.3,72"/>
<path class="st1" d="M632,254.9l-21.1-68.2"/>
<path class="st1" d="M434.2,287.5l42.2,73"/>
<g transform="matrix(1,0,0,1,-94.9153,-2.55541)">
	<path class="st1" d="M438,287.6l42.2,73"/>
</g>
<g transform="matrix(1,0,0,1,-371.842,-105.841)">
	<path class="st1" d="M449.1,291.8l42.2,73"/>
</g>
<path class="st1" d="M498.6,265.5l-22.1,95"/>
<g transform="matrix(1,0,0,1,-94.9153,-2.55541)">
	<path class="st1" d="M502.4,265.6l-22.1,95"/>
</g>
<g transform="matrix(1,0,0,1,-371.842,-105.841)">
	<path class="st1" d="M513.4,269.7l-22.1,95"/>
</g>
<g>
	<g>
		<line class="st2" x1="538.9" y1="325.9" x2="535.5" y2="320.9"/>
		<line class="st12" x1="528.8" y1="310.8" x2="505.2" y2="275.5"/>
		<line class="st2" x1="501.9" y1="270.4" x2="498.6" y2="265.5"/>
	</g>
</g>
<g transform="matrix(1,0,0,1,-371.842,-105.841)">
	<path class="st1" d="M553.8,330.2l-40.3-60.5"/>
</g>
<path class="st1" d="M540.8,266.4l-1.9,59.5"/>
<g transform="matrix(1,0,0,1,-371.842,-105.841)">
	<path class="st1" d="M555.7,270.7l-1.9,59.5"/>
</g>
<path class="st1" d="M596.5,287.5l-55.7-21.1"/>
<g transform="matrix(1,0,0,1,-371.842,-105.841)">
	<path class="st1" d="M611.3,291.8l-55.7-21.1"/>
</g>
<path class="st1" d="M593.6,255.9l2.9,31.7"/>
<path class="st1" d="M632,254.9l-38.4,1"/>
<path class="st1" d="M658.9,291.4L632,254.9"/>
<path class="st13" d="M35.4,167.6l44,18.8"/>
<g transform="matrix(1.01464,0,0,1.02854,-7.92728,-8.57239)">
	<path class="st14" d="M112.4,139.1C86,188.9,83.8,189,83.8,189"/>
</g>
<g transform="matrix(1,0,0,1,-1,0)">
	<path class="st13" d="M106.4,135l36.6,28.2"/>
</g>
<path class="st13" d="M127.7,78.6l56.6,85.8l64.6-43.5l-8.8,65.7l-72.8-70L127.7,78.6z"/>
<g>
	<g>
		<line class="st15" x1="271.5" y1="65" x2="265.5" y2="65.5"/>
		<line class="st16" x1="253.5" y1="66.7" x2="139.7" y2="77.5"/>
		<line class="st15" x1="133.7" y1="78.1" x2="127.7" y2="78.6"/>
	</g>
</g>
<g>
	<g>
		<line class="st17" x1="303.4" y1="190" x2="309.3" y2="190.8"/>
		<line class="st18" x1="316.8" y1="191.7" x2="328.1" y2="193.1"/>
		<line class="st17" x1="331.8" y1="193.6" x2="337.8" y2="194.3"/>
	</g>
</g>
<g>
	<g>
		<line class="st15" x1="304.8" y1="130.7" x2="304.7" y2="136.7"/>
		<line class="st19" x1="304.4" y1="146.2" x2="303.6" y2="179.3"/>
		<line class="st15" x1="303.5" y1="184" x2="303.4" y2="190"/>
	</g>
</g>
<path class="st13" d="M370,170.8L342.9,66.1"/>
<path class="st13" d="M415.2,120.2L370,170.8"/>
<path class="st13" d="M428.6,196.6L370,170.8"/>
<path class="st13" d="M384.2,236l44.3-39.4"/>
<g>
	<g>
		<line class="st17" x1="408.1" y1="263.3" x2="412.5" y2="267.3"/>
		<line class="st20" x1="418.6" y1="272.8" x2="427.6" y2="281.1"/>
		<line class="st17" x1="430.6" y1="283.8" x2="435.1" y2="287.9"/>
	</g>
</g>
<path class="st13" d="M386.2,358.5l41.6,33.9"/>
<path class="st13" d="M337.2,389.7l-37.7,106.2"/>
<path class="st13" d="M237.7,404l11.2,57.5"/>
<path class="st13" d="M302.6,346.4l34.2,42.8"/>
<path class="st13" d="M337,390.1l93.6,136.1"/>
<path class="st13" d="M428.7,392.6l-91.6-2.5"/>
<path class="st13" d="M298.6,495.8l131.3,30.3"/>
<path class="st13" d="M272.9,311.4l72.2-26.6"/>
<path class="st13" d="M302.9,189.3l-30.1,122.1"/>
<path class="st13" d="M336.9,194.1l-64,117.3"/>
<text transform="matrix(1 0 0 1 44.8808 39.0894)" class="st21 st22">A</text>
<text transform="matrix(1 0 0 1 124.79 61.2954)" class="st21 st22">B</text>
<text transform="matrix(1 0 0 1 262.5475 52.3205)" class="st21 st22">C</text>
<text transform="matrix(1 0 0 1 667.9913 466.0951)" class="st21 st22">Z</text>
</svg>
