<?xml version="1.0" encoding="utf-8"?>
<!-- Generator: Adobe Illustrator 21.1.0, SVG Export Plug-In . SVG Version: 6.00 Build 0)  -->
<svg version="1.1" id="Layer_1" xmlns="http://www.w3.org/2000/svg" xmlns:xlink="http://www.w3.org/1999/xlink" x="0px" y="0px"
	 viewBox="0 0 792 612" style="enable-background:new 0 0 792 612;" xml:space="preserve">
<style type="text/css">
	.st0{fill:none;stroke:#231F20;stroke-width:1.25;stroke-linecap:round;stroke-miterlimit:10;}
	.st1{fill:#FFFFFF;stroke:#000000;stroke-width:1.0489;}
	.st2{fill:none;stroke:#000000;stroke-width:0.7899;}
	.st3{fill:#FFFFFF;stroke:#000000;stroke-width:0.5223;stroke-linecap:round;}
	.st4{fill:#FFFFFF;stroke:#231F20;stroke-width:1.25;stroke-linecap:round;stroke-miterlimit:10;}
	.st5{fill:#231F20;stroke:#FFFFFF;stroke-width:1.25;stroke-linecap:round;stroke-miterlimit:10;}
	.st6{fill:#231F20;stroke:#FFFFFF;stroke-linecap:round;stroke-miterlimit:10;}
	.st7{fill:none;stroke:#231F20;stroke-width:1.25;stroke-linecap:round;}
	.st8{fill:none;stroke:#231F20;stroke-miterlimit:10;}
	.st9{fill:#231F20;}
	.st10{fill:none;stroke:#231F20;stroke-width:0.5;stroke-miterlimit:10;}
	.st11{fill:#FFFFFF;}
	.st12{font-family:'Helvetica';}
	.st13{font-size:24px;}
</style>
<line class="st0" x1="426.5" y1="477.5" x2="620.5" y2="459.5"/>
<g>
	<path class="st1" d="M413.1,353.8c0,2.8-3,5.1-6.7,5.1h-32.9c-3.7,0-6.7-2.3-6.7-5.1v-70.1c0-2.8,3-5.1,6.7-5.1h32.9
		c3.7,0,6.7,2.3,6.7,5.1V353.8z"/>
	<rect x="373" y="288.6" class="st2" width="33.9" height="56.9"/>
	<g>
		<g>
			<ellipse class="st3" cx="389.9" cy="351.9" rx="3.6" ry="3.1"/>
		</g>
	</g>
</g>
<g>
	<path class="st4" d="M329.5,457.6H218.9c-2.1,0-3.9-1.7-3.9-3.9v-20.4c0-2.1,1.7-3.9,3.9-3.9h110.5c2.1,0,3.9,1.7,3.9,3.9v20.4
		C333.4,455.8,331.6,457.6,329.5,457.6z"/>
	<ellipse class="st5" cx="224.9" cy="443.5" rx="3.3" ry="3.7"/>
	<ellipse class="st5" cx="236.5" cy="443.5" rx="3.3" ry="3.7"/>
	<ellipse class="st5" cx="247.3" cy="443.5" rx="3.3" ry="3.7"/>
	<circle class="st6" cx="311.2" cy="390.3" r="5.5"/>
	<line class="st0" x1="311.2" y1="428.3" x2="311.2" y2="390.6"/>
</g>
<path class="st7" d="M359.7,287.9c-0.5-2-0.8-4.2-0.8-6.3c0-2.2,0.3-4.3,0.8-6.3"/>
<path class="st7" d="M349.3,290.6c-0.8-2.9-1.2-6-1.2-9.1c0-3.1,0.4-6.2,1.2-9.1"/>
<path class="st7" d="M337.8,293.7c-1-3.9-1.6-8-1.6-12.2c0-4.2,0.5-8.3,1.6-12.2"/>
<path class="st7" d="M327.8,296.4c-1.3-4.7-1.9-9.7-1.9-14.9c0-5.1,0.7-10.1,1.9-14.9"/>
<g>
	<g>
		<path class="st8" d="M208.5,374H75.8c-2,0-3.5-1.6-3.5-3.5v-92.8c0-2,1.6-3.5,3.5-3.5h132.7c2,0,3.5,1.6,3.5,3.5v92.8
			C212,372.4,210.5,374,208.5,374z"/>
		<g>
			<path class="st8" d="M221.1,412.8h-153c-2.4,0-3.9-1.7-3.4-3.8l7.7-30.2c0.5-2.1,2.7-3.8,4.7-3.8h132.2c2.1,0,4.3,1.7,5,3.8
				l9.9,30.2C225,411.1,223.5,412.8,221.1,412.8z"/>
		</g>
		<path class="st8" d="M196.7,367.3H87.6c-1.6,0-2.9-1.3-2.9-2.9v-76.3c0-1.6,1.3-2.9,2.9-2.9h109.1c1.6,0,2.9,1.3,2.9,2.9v76.3
			C199.6,366,198.3,367.3,196.7,367.3z"/>
		<circle class="st9" cx="143.3" cy="280.8" r="2.2"/>
		<path class="st10" d="M84.2,381.8h-3.8c-0.2,0-0.3-0.1-0.3-0.3v-1.6c0-0.2,0.1-0.3,0.3-0.3h3.8c0.2,0,0.3,0.1,0.3,0.3v1.6
			C84.5,381.6,84.4,381.8,84.2,381.8z"/>
		<path class="st10" d="M199.5,381.8h-3.8c-0.2,0-0.3-0.1-0.3-0.3v-1.6c0-0.2,0.1-0.3,0.3-0.3h3.8c0.2,0,0.3,0.1,0.3,0.3v1.6
			C199.8,381.6,199.7,381.8,199.5,381.8z"/>
		<path class="st10" d="M190.7,381.8h-3.8c-0.2,0-0.3-0.1-0.3-0.3v-1.6c0-0.2,0.1-0.3,0.3-0.3h3.8c0.2,0,0.3,0.1,0.3,0.3v1.6
			C191,381.6,190.8,381.8,190.7,381.8z"/>
		<path class="st10" d="M181.8,381.8H178c-0.2,0-0.3-0.1-0.3-0.3v-1.6c0-0.2,0.1-0.3,0.3-0.3h3.8c0.2,0,0.3,0.1,0.3,0.3v1.6
			C182.1,381.6,182,381.8,181.8,381.8z"/>
		<path class="st10" d="M172.9,381.8h-3.8c-0.2,0-0.3-0.1-0.3-0.3v-1.6c0-0.2,0.1-0.3,0.3-0.3h3.8c0.2,0,0.3,0.1,0.3,0.3v1.6
			C173.2,381.6,173.1,381.8,172.9,381.8z"/>
		<path class="st10" d="M164,381.8h-3.8c-0.2,0-0.3-0.1-0.3-0.3v-1.6c0-0.2,0.1-0.3,0.3-0.3h3.8c0.2,0,0.3,0.1,0.3,0.3v1.6
			C164.3,381.6,164.2,381.8,164,381.8z"/>
		<path class="st10" d="M155.2,381.8h-3.8c-0.2,0-0.3-0.1-0.3-0.3v-1.6c0-0.2,0.1-0.3,0.3-0.3h3.8c0.2,0,0.3,0.1,0.3,0.3v1.6
			C155.5,381.6,155.3,381.8,155.2,381.8z"/>
		<path class="st10" d="M146.3,381.8h-3.8c-0.2,0-0.3-0.1-0.3-0.3v-1.6c0-0.2,0.1-0.3,0.3-0.3h3.8c0.2,0,0.3,0.1,0.3,0.3v1.6
			C146.6,381.6,146.5,381.8,146.3,381.8z"/>
		<path class="st10" d="M137.4,381.8h-3.8c-0.2,0-0.3-0.1-0.3-0.3v-1.6c0-0.2,0.1-0.3,0.3-0.3h3.8c0.2,0,0.3,0.1,0.3,0.3v1.6
			C137.7,381.6,137.6,381.8,137.4,381.8z"/>
		<path class="st10" d="M128.5,381.8h-3.8c-0.2,0-0.3-0.1-0.3-0.3v-1.6c0-0.2,0.1-0.3,0.3-0.3h3.8c0.2,0,0.3,0.1,0.3,0.3v1.6
			C128.9,381.6,128.7,381.8,128.5,381.8z"/>
		<path class="st10" d="M119.7,381.8h-3.8c-0.2,0-0.3-0.1-0.3-0.3v-1.6c0-0.2,0.1-0.3,0.3-0.3h3.8c0.2,0,0.3,0.1,0.3,0.3v1.6
			C120,381.6,119.8,381.8,119.7,381.8z"/>
		<path class="st10" d="M110.8,381.8H107c-0.2,0-0.3-0.1-0.3-0.3v-1.6c0-0.2,0.1-0.3,0.3-0.3h3.8c0.2,0,0.3,0.1,0.3,0.3v1.6
			C111.1,381.6,111,381.8,110.8,381.8z"/>
		<path class="st10" d="M101.9,381.8h-3.8c-0.2,0-0.3-0.1-0.3-0.3l0-1.6c0-0.2,0.1-0.3,0.3-0.3h3.8c0.2,0,0.3,0.1,0.3,0.3v1.6
			C102.2,381.6,102.1,381.8,101.9,381.8z"/>
		<path class="st10" d="M93.1,381.8h-3.8c-0.2,0-0.3-0.1-0.3-0.3v-1.6c0-0.2,0.1-0.3,0.3-0.3h3.8c0.2,0,0.3,0.1,0.3,0.3v1.6
			C93.4,381.6,93.2,381.8,93.1,381.8z"/>
		<path class="st10" d="M208.4,381.8h-3.8c-0.2,0-0.3-0.1-0.3-0.3v-1.6c0-0.2,0.1-0.3,0.3-0.3h3.8c0.2,0,0.3,0.1,0.3,0.3v1.6
			C208.7,381.6,208.6,381.8,208.4,381.8z"/>
		<path class="st10" d="M86.4,386.2h-3.8c-0.2,0-0.3-0.1-0.3-0.3v-1.6c0-0.2,0.1-0.3,0.3-0.3h3.8c0.2,0,0.3,0.1,0.3,0.3v1.6
			C86.7,386.1,86.6,386.2,86.4,386.2z"/>
		<path class="st10" d="M201.7,386.2h-3.8c-0.2,0-0.3-0.1-0.3-0.3v-1.6c0-0.2,0.1-0.3,0.3-0.3h3.8c0.2,0,0.3,0.1,0.3,0.3v1.6
			C202.1,386.1,201.9,386.2,201.7,386.2z"/>
		<path class="st10" d="M192.9,386.2h-3.8c-0.2,0-0.3-0.1-0.3-0.3v-1.6c0-0.2,0.1-0.3,0.3-0.3h3.8c0.2,0,0.3,0.1,0.3,0.3v1.6
			C193.2,386.1,193,386.2,192.9,386.2z"/>
		<path class="st10" d="M184,386.2h-3.8c-0.2,0-0.3-0.1-0.3-0.3v-1.6c0-0.2,0.1-0.3,0.3-0.3h3.8c0.2,0,0.3,0.1,0.3,0.3v1.6
			C184.3,386.1,184.2,386.2,184,386.2z"/>
		<path class="st10" d="M175.1,386.2h-3.8c-0.2,0-0.3-0.1-0.3-0.3v-1.6c0-0.2,0.1-0.3,0.3-0.3h3.8c0.2,0,0.3,0.1,0.3,0.3v1.6
			C175.4,386.1,175.3,386.2,175.1,386.2z"/>
		<path class="st10" d="M166.3,386.2h-3.8c-0.2,0-0.3-0.1-0.3-0.3v-1.6c0-0.2,0.1-0.3,0.3-0.3h3.8c0.2,0,0.3,0.1,0.3,0.3v1.6
			C166.6,386.1,166.4,386.2,166.3,386.2z"/>
		<path class="st10" d="M157.4,386.2h-3.8c-0.2,0-0.3-0.1-0.3-0.3v-1.6c0-0.2,0.1-0.3,0.3-0.3h3.8c0.2,0,0.3,0.1,0.3,0.3v1.6
			C157.7,386.1,157.6,386.2,157.4,386.2z"/>
		<path class="st10" d="M148.5,386.2h-3.8c-0.2,0-0.3-0.1-0.3-0.3v-1.6c0-0.2,0.1-0.3,0.3-0.3h3.8c0.2,0,0.3,0.1,0.3,0.3v1.6
			C148.8,386.1,148.7,386.2,148.5,386.2z"/>
		<path class="st10" d="M139.6,386.2h-3.8c-0.2,0-0.3-0.1-0.3-0.3v-1.6c0-0.2,0.1-0.3,0.3-0.3h3.8c0.2,0,0.3,0.1,0.3,0.3v1.6
			C139.9,386.1,139.8,386.2,139.6,386.2z"/>
		<path class="st10" d="M130.8,386.2h-3.8c-0.2,0-0.3-0.1-0.3-0.3v-1.6c0-0.2,0.1-0.3,0.3-0.3h3.8c0.2,0,0.3,0.1,0.3,0.3v1.6
			C131.1,386.1,130.9,386.2,130.8,386.2z"/>
		<path class="st10" d="M121.9,386.2h-3.8c-0.2,0-0.3-0.1-0.3-0.3v-1.6c0-0.2,0.1-0.3,0.3-0.3h3.8c0.2,0,0.3,0.1,0.3,0.3v1.6
			C122.2,386.1,122.1,386.2,121.9,386.2z"/>
		<path class="st10" d="M113,386.2h-3.8c-0.2,0-0.3-0.1-0.3-0.3v-1.6c0-0.2,0.1-0.3,0.3-0.3h3.8c0.2,0,0.3,0.1,0.3,0.3v1.6
			C113.3,386.1,113.2,386.2,113,386.2z"/>
		<path class="st10" d="M104.1,386.2h-3.8c-0.2,0-0.3-0.1-0.3-0.3v-1.6c0-0.2,0.1-0.3,0.3-0.3h3.8c0.2,0,0.3,0.1,0.3,0.3v1.6
			C104.5,386.1,104.3,386.2,104.1,386.2z"/>
		<path class="st10" d="M95.3,386.2h-3.8c-0.2,0-0.3-0.1-0.3-0.3v-1.6c0-0.2,0.1-0.3,0.3-0.3h3.8c0.2,0,0.3,0.1,0.3,0.3v1.6
			C95.6,386.1,95.4,386.2,95.3,386.2z"/>
		<path class="st10" d="M210.6,386.2h-3.8c-0.2,0-0.3-0.1-0.3-0.3v-1.6c0-0.2,0.1-0.3,0.3-0.3h3.8c0.2,0,0.3,0.1,0.3,0.3v1.6
			C210.9,386.1,210.8,386.2,210.6,386.2z"/>
		<path class="st10" d="M84.2,390.6h-3.8c-0.2,0-0.3-0.1-0.3-0.3v-1.6c0-0.2,0.1-0.3,0.3-0.3h3.8c0.2,0,0.3,0.1,0.3,0.3v1.6
			C84.5,390.5,84.4,390.6,84.2,390.6z"/>
		<path class="st10" d="M199.5,390.6h-3.8c-0.2,0-0.3-0.1-0.3-0.3v-1.6c0-0.2,0.1-0.3,0.3-0.3h3.8c0.2,0,0.3,0.1,0.3,0.3v1.6
			C199.8,390.5,199.7,390.6,199.5,390.6z"/>
		<path class="st10" d="M190.7,390.6h-3.8c-0.2,0-0.3-0.1-0.3-0.3v-1.6c0-0.2,0.1-0.3,0.3-0.3h3.8c0.2,0,0.3,0.1,0.3,0.3v1.6
			C191,390.5,190.8,390.6,190.7,390.6z"/>
		<path class="st10" d="M181.8,390.6H178c-0.2,0-0.3-0.1-0.3-0.3v-1.6c0-0.2,0.1-0.3,0.3-0.3h3.8c0.2,0,0.3,0.1,0.3,0.3v1.6
			C182.1,390.5,182,390.6,181.8,390.6z"/>
		<path class="st10" d="M172.9,390.6h-3.8c-0.2,0-0.3-0.1-0.3-0.3v-1.6c0-0.2,0.1-0.3,0.3-0.3h3.8c0.2,0,0.3,0.1,0.3,0.3v1.6
			C173.2,390.5,173.1,390.6,172.9,390.6z"/>
		<path class="st10" d="M164,390.6h-3.8c-0.2,0-0.3-0.1-0.3-0.3v-1.6c0-0.2,0.1-0.3,0.3-0.3h3.8c0.2,0,0.3,0.1,0.3,0.3v1.6
			C164.3,390.5,164.2,390.6,164,390.6z"/>
		<path class="st10" d="M155.2,390.6h-3.8c-0.2,0-0.3-0.1-0.3-0.3v-1.6c0-0.2,0.1-0.3,0.3-0.3h3.8c0.2,0,0.3,0.1,0.3,0.3v1.6
			C155.5,390.5,155.3,390.6,155.2,390.6z"/>
		<path class="st10" d="M146.3,390.6h-3.8c-0.2,0-0.3-0.1-0.3-0.3v-1.6c0-0.2,0.1-0.3,0.3-0.3h3.8c0.2,0,0.3,0.1,0.3,0.3v1.6
			C146.6,390.5,146.5,390.6,146.3,390.6z"/>
		<path class="st10" d="M137.4,390.6h-3.8c-0.2,0-0.3-0.1-0.3-0.3v-1.6c0-0.2,0.1-0.3,0.3-0.3h3.8c0.2,0,0.3,0.1,0.3,0.3v1.6
			C137.7,390.5,137.6,390.6,137.4,390.6z"/>
		<path class="st10" d="M128.5,390.6h-3.8c-0.2,0-0.3-0.1-0.3-0.3v-1.6c0-0.2,0.1-0.3,0.3-0.3h3.8c0.2,0,0.3,0.1,0.3,0.3v1.6
			C128.9,390.5,128.7,390.6,128.5,390.6z"/>
		<path class="st10" d="M119.7,390.6h-3.8c-0.2,0-0.3-0.1-0.3-0.3v-1.6c0-0.2,0.1-0.3,0.3-0.3h3.8c0.2,0,0.3,0.1,0.3,0.3v1.6
			C120,390.5,119.8,390.6,119.7,390.6z"/>
		<path class="st10" d="M110.8,390.6H107c-0.2,0-0.3-0.1-0.3-0.3v-1.6c0-0.2,0.1-0.3,0.3-0.3h3.8c0.2,0,0.3,0.1,0.3,0.3v1.6
			C111.1,390.5,111,390.6,110.8,390.6z"/>
		<path class="st10" d="M101.9,390.6h-3.8c-0.2,0-0.3-0.1-0.3-0.3l0-1.6c0-0.2,0.1-0.3,0.3-0.3h3.8c0.2,0,0.3,0.1,0.3,0.3v1.6
			C102.2,390.5,102.1,390.6,101.9,390.6z"/>
		<path class="st10" d="M93.1,390.6h-3.8c-0.2,0-0.3-0.1-0.3-0.3v-1.6c0-0.2,0.1-0.3,0.3-0.3h3.8c0.2,0,0.3,0.1,0.3,0.3v1.6
			C93.4,390.5,93.2,390.6,93.1,390.6z"/>
		<path class="st10" d="M208.4,390.6h-3.8c-0.2,0-0.3-0.1-0.3-0.3v-1.6c0-0.2,0.1-0.3,0.3-0.3h3.8c0.2,0,0.3,0.1,0.3,0.3v1.6
			C208.7,390.5,208.6,390.6,208.4,390.6z"/>
		<path class="st10" d="M86.4,395.1h-3.8c-0.2,0-0.3-0.1-0.3-0.3v-1.6c0-0.2,0.1-0.3,0.3-0.3h3.8c0.2,0,0.3,0.1,0.3,0.3v1.6
			C86.7,394.9,86.6,395.1,86.4,395.1z"/>
		<path class="st10" d="M201.7,395.1h-3.8c-0.2,0-0.3-0.1-0.3-0.3v-1.6c0-0.2,0.1-0.3,0.3-0.3h3.8c0.2,0,0.3,0.1,0.3,0.3v1.6
			C202.1,394.9,201.9,395.1,201.7,395.1z"/>
		<path class="st10" d="M192.9,395.1h-3.8c-0.2,0-0.3-0.1-0.3-0.3v-1.6c0-0.2,0.1-0.3,0.3-0.3h3.8c0.2,0,0.3,0.1,0.3,0.3v1.6
			C193.2,394.9,193,395.1,192.9,395.1z"/>
		<path class="st10" d="M184,395.1h-3.8c-0.2,0-0.3-0.1-0.3-0.3v-1.6c0-0.2,0.1-0.3,0.3-0.3h3.8c0.2,0,0.3,0.1,0.3,0.3v1.6
			C184.3,394.9,184.2,395.1,184,395.1z"/>
		<path class="st10" d="M175.1,395.1h-3.8c-0.2,0-0.3-0.1-0.3-0.3v-1.6c0-0.2,0.1-0.3,0.3-0.3h3.8c0.2,0,0.3,0.1,0.3,0.3v1.6
			C175.4,394.9,175.3,395.1,175.1,395.1z"/>
		<path class="st10" d="M166.3,395.1h-3.8c-0.2,0-0.3-0.1-0.3-0.3v-1.6c0-0.2,0.1-0.3,0.3-0.3h3.8c0.2,0,0.3,0.1,0.3,0.3v1.6
			C166.6,394.9,166.4,395.1,166.3,395.1z"/>
		<path class="st10" d="M157.4,395.1h-3.8c-0.2,0-0.3-0.1-0.3-0.3v-1.6c0-0.2,0.1-0.3,0.3-0.3h3.8c0.2,0,0.3,0.1,0.3,0.3v1.6
			C157.7,394.9,157.6,395.1,157.4,395.1z"/>
		<path class="st10" d="M148.5,395.1h-3.8c-0.2,0-0.3-0.1-0.3-0.3v-1.6c0-0.2,0.1-0.3,0.3-0.3h3.8c0.2,0,0.3,0.1,0.3,0.3v1.6
			C148.8,394.9,148.7,395.1,148.5,395.1z"/>
		<path class="st10" d="M139.6,395.1h-3.8c-0.2,0-0.3-0.1-0.3-0.3v-1.6c0-0.2,0.1-0.3,0.3-0.3h3.8c0.2,0,0.3,0.1,0.3,0.3v1.6
			C139.9,394.9,139.8,395.1,139.6,395.1z"/>
		<path class="st10" d="M130.8,395.1h-3.8c-0.2,0-0.3-0.1-0.3-0.3v-1.6c0-0.2,0.1-0.3,0.3-0.3h3.8c0.2,0,0.3,0.1,0.3,0.3v1.6
			C131.1,394.9,130.9,395.1,130.8,395.1z"/>
		<path class="st10" d="M121.9,395.1h-3.8c-0.2,0-0.3-0.1-0.3-0.3v-1.6c0-0.2,0.1-0.3,0.3-0.3h3.8c0.2,0,0.3,0.1,0.3,0.3v1.6
			C122.2,394.9,122.1,395.1,121.9,395.1z"/>
		<path class="st10" d="M113,395.1h-3.8c-0.2,0-0.3-0.1-0.3-0.3v-1.6c0-0.2,0.1-0.3,0.3-0.3h3.8c0.2,0,0.3,0.1,0.3,0.3v1.6
			C113.3,394.9,113.2,395.1,113,395.1z"/>
		<path class="st10" d="M104.1,395.1h-3.8c-0.2,0-0.3-0.1-0.3-0.3v-1.6c0-0.2,0.1-0.3,0.3-0.3h3.8c0.2,0,0.3,0.1,0.3,0.3v1.6
			C104.5,394.9,104.3,395.1,104.1,395.1z"/>
		<path class="st10" d="M95.3,395.1h-3.8c-0.2,0-0.3-0.1-0.3-0.3v-1.6c0-0.2,0.1-0.3,0.3-0.3h3.8c0.2,0,0.3,0.1,0.3,0.3v1.6
			C95.6,394.9,95.4,395.1,95.3,395.1z"/>
		<path class="st10" d="M210.6,395.1h-3.8c-0.2,0-0.3-0.1-0.3-0.3v-1.6c0-0.2,0.1-0.3,0.3-0.3h3.8c0.2,0,0.3,0.1,0.3,0.3v1.6
			C210.9,394.9,210.8,395.1,210.6,395.1z"/>
		<path class="st10" d="M84.2,399.5h-3.8c-0.2,0-0.3-0.1-0.3-0.3v-1.6c0-0.2,0.1-0.3,0.3-0.3h3.8c0.2,0,0.3,0.1,0.3,0.3v1.6
			C84.5,399.4,84.4,399.5,84.2,399.5z"/>
		<path class="st10" d="M199.5,399.5h-3.8c-0.2,0-0.3-0.1-0.3-0.3v-1.6c0-0.2,0.1-0.3,0.3-0.3h3.8c0.2,0,0.3,0.1,0.3,0.3v1.6
			C199.8,399.4,199.7,399.5,199.5,399.5z"/>
		<path class="st10" d="M190.7,399.5h-3.8c-0.2,0-0.3-0.1-0.3-0.3v-1.6c0-0.2,0.1-0.3,0.3-0.3h3.8c0.2,0,0.3,0.1,0.3,0.3v1.6
			C191,399.4,190.8,399.5,190.7,399.5z"/>
		<path class="st10" d="M184,399.5h-83.7c-0.2,0-0.3-0.1-0.3-0.3v-1.6c0-0.2,0.1-0.3,0.3-0.3H184c0.2,0,0.3,0.1,0.3,0.3v1.6
			C184.3,399.4,184.2,399.5,184,399.5z"/>
		<path class="st10" d="M93.1,399.5h-3.8c-0.2,0-0.3-0.1-0.3-0.3v-1.6c0-0.2,0.1-0.3,0.3-0.3h3.8c0.2,0,0.3,0.1,0.3,0.3v1.6
			C93.4,399.4,93.2,399.5,93.1,399.5z"/>
		<path class="st10" d="M208.4,399.5h-3.8c-0.2,0-0.3-0.1-0.3-0.3v-1.6c0-0.2,0.1-0.3,0.3-0.3h3.8c0.2,0,0.3,0.1,0.3,0.3v1.6
			C208.7,399.4,208.6,399.5,208.4,399.5z"/>
		<g>
			<path class="st10" d="M157,408.4h-27c-0.4,0-0.7-0.3-0.6-0.7l1.4-5.3c0.1-0.4,0.5-0.7,0.8-0.7h23.3c0.4,0,0.8,0.3,0.9,0.7
				l1.7,5.3C157.7,408.1,157.4,408.4,157,408.4z"/>
		</g>
	</g>
	<path class="st7" d="M219.4,272.9c0.5,2,0.8,4.2,0.8,6.3c0,2.2-0.3,4.3-0.8,6.3"/>
	<path class="st7" d="M229.7,270.2c0.8,2.9,1.2,6,1.2,9.1s-0.4,6.2-1.2,9.1"/>
	<path class="st7" d="M241.2,267.1c1,3.9,1.6,8,1.6,12.2c0,4.2-0.5,8.3-1.6,12.2"/>
	<path class="st7" d="M251.3,264.4c1.3,4.7,1.9,9.7,1.9,14.9c0,5.1-0.7,10.1-1.9,14.9"/>
</g>
<path class="st7" d="M305.3,380.5c2-0.5,4.2-0.8,6.3-0.8c2.2,0,4.3,0.3,6.3,0.8"/>
<path class="st7" d="M302.6,370.2c2.9-0.8,6-1.2,9.1-1.2s6.2,0.4,9.1,1.2"/>
<path class="st7" d="M299.5,358.7c3.9-1,8-1.6,12.2-1.6c4.2,0,8.3,0.5,12.2,1.6"/>
<path class="st7" d="M296.8,348.6c4.7-1.3,9.7-1.9,14.9-1.9c5.1,0,10.1,0.7,14.9,1.9"/>
<line class="st0" x1="243.8" y1="59" x2="472.7" y2="237.6"/>
<line class="st0" x1="243.8" y1="59" x2="16.8" y2="236.2"/>
<line class="st0" x1="57.8" y1="236.2" x2="57.8" y2="500.4"/>
<line class="st0" x1="426.2" y1="236.2" x2="426.2" y2="500.4"/>
<line class="st0" x1="57.8" y1="500.4" x2="426.2" y2="500.4"/>
<line class="st0" x1="16.8" y1="236.2" x2="57.8" y2="236.2"/>
<line class="st0" x1="470.8" y1="236.2" x2="426.2" y2="236.2"/>
<path class="st0" d="M332.9,437.2c0,0,28.8-4.4,46.6,6.7c17.7,11.1-51,20-28.8,33.3s75.4,0,75.4,0"/>
<g>
	<g>
		<path class="st11" d="M718.6,567.2c0,1.5-1.3,2.8-2.8,2.8H540.4c-1.5,0-2.8-1.3-2.8-2.8V362.9c0-1.5,1.3-2.8,2.8-2.8h175.3
			c1.5,0,2.8,1.3,2.8,2.8V567.2z"/>
		<path class="st0" d="M718.6,567.2c0,1.5-1.3,2.8-2.8,2.8H540.4c-1.5,0-2.8-1.3-2.8-2.8V362.9c0-1.5,1.3-2.8,2.8-2.8h175.3
			c1.5,0,2.8,1.3,2.8,2.8V567.2z"/>
	</g>
	<g>
		<rect x="556.8" y="372" class="st4" width="142.5" height="34"/>
		<ellipse class="st5" cx="568.6" cy="389" rx="4" ry="4.4"/>
		<ellipse class="st5" cx="582.6" cy="389" rx="4" ry="4.4"/>
		<ellipse class="st5" cx="595.6" cy="389" rx="4" ry="4.4"/>
	</g>
	<g>
		<rect x="556.8" y="421.8" class="st4" width="142.5" height="34"/>
		<ellipse class="st5" cx="568.6" cy="438.7" rx="4" ry="4.4"/>
		<ellipse class="st5" cx="582.6" cy="438.7" rx="4" ry="4.4"/>
		<ellipse class="st5" cx="595.6" cy="438.7" rx="4" ry="4.4"/>
	</g>
	<g>
		<rect x="556.8" y="467.9" class="st4" width="142.5" height="34"/>
		<ellipse class="st5" cx="568.6" cy="484.9" rx="4" ry="4.4"/>
		<ellipse class="st5" cx="582.6" cy="484.9" rx="4" ry="4.4"/>
		<ellipse class="st5" cx="595.6" cy="484.9" rx="4" ry="4.4"/>
	</g>
	<g>
		<rect x="556.8" y="514" class="st4" width="142.5" height="34"/>
		<ellipse class="st5" cx="568.6" cy="531" rx="4" ry="4.4"/>
		<ellipse class="st5" cx="582.6" cy="531" rx="4" ry="4.4"/>
		<ellipse class="st5" cx="595.6" cy="531" rx="4" ry="4.4"/>
	</g>
	<line class="st0" x1="641.2" y1="372" x2="654.5" y2="372"/>
</g>
<line class="st0" x1="564.5" y1="107.5" x2="564.5" y2="107.5"/>
<text transform="matrix(1 0 0 1 79.9951 243.9949)" class="st12 st13">192.168.0.2</text>
<text transform="matrix(1 0 0 1 289.9951 243.9949)" class="st12 st13">192.168.0.3</text>
<text transform="matrix(1 0 0 1 208.9951 488.9949)" class="st12 st13">192.168.0.1</text>
<text transform="matrix(1 0 0 1 219.9951 534.9949)" class="st12 st13">207.34.18.43</text>
<text transform="matrix(1 0 0 1 586.9951 305.9949)"><tspan x="0" y="0" class="st12 st13">ISP’s router:</tspan><tspan x="0" y="28.8" class="st12 st13">207.34.x.1</tspan></text>
</svg>
