<?xml version="1.0" encoding="utf-8"?>
<!-- Generator: Adobe Illustrator 21.1.0, SVG Export Plug-In . SVG Version: 6.00 Build 0)  -->
<svg version="1.1" id="Layer_1" xmlns="http://www.w3.org/2000/svg" xmlns:xlink="http://www.w3.org/1999/xlink" x="0px" y="0px"
	 viewBox="0 0 792 612" style="enable-background:new 0 0 792 612;" xml:space="preserve">
<style type="text/css">
	.st0{fill:none;stroke:#000000;stroke-linecap:round;stroke-linejoin:round;stroke-miterlimit:1.5;}
	.st1{stroke:#FF0000;stroke-width:2;stroke-linecap:round;stroke-linejoin:round;stroke-miterlimit:1.5;stroke-dasharray:12;}
	.st2{font-family:'Helvetica';}
	.st3{font-size:18px;}
</style>
<g transform="matrix(1,0,0,1,-163.018,-2.54602)">
	<g>
		<path d="M558.6,81.3c-2.4,0-4.7-0.7-6.7-2.1c-2.6-1.8-4.4-4.5-5-7.6c-0.6-3.1,0.1-6.3,1.9-8.9c2.2-3.3,5.9-5.2,9.8-5.2
			c2.4,0,4.7,0.7,6.7,2.1c2.6,1.8,4.4,4.5,5,7.6c0.6,3.1-0.1,6.3-1.9,8.9C566.2,79.3,562.6,81.3,558.6,81.3"/>
	</g>
</g>
<g transform="matrix(1,0,0,1,-62.0896,98.021)">
	<g>
		<path d="M698.3,220.4c-2.4,0-4.7-0.7-6.7-2.1c-2.6-1.8-4.4-4.5-5-7.6c-0.6-3.1,0.1-6.3,1.9-8.9c2.2-3.3,5.9-5.2,9.8-5.2
			c2.4,0,4.7,0.7,6.7,2.1c2.6,1.8,4.4,4.5,5,7.6c0.6,3.1-0.1,6.3-1.9,8.9C705.9,218.5,702.2,220.4,698.3,220.4"/>
	</g>
</g>
<g transform="matrix(1,0,0,1,-233.807,168.861)">
	<g>
		<path d="M460.7,318.4c-2.4,0-4.7-0.7-6.7-2.1c-2.6-1.8-4.4-4.5-5-7.6c-0.6-3.1,0.1-6.3,1.9-8.9c2.2-3.3,5.9-5.2,9.8-5.2
			c2.4,0,4.7,0.7,6.7,2.1c2.6,1.8,4.4,4.5,5,7.6c0.6,3.1-0.1,6.3-1.9,8.9C468.3,316.5,464.6,318.4,460.7,318.4"/>
	</g>
</g>
<g transform="matrix(1,0,0,1,-234.472,26.2743)">
	<g>
		<path d="M459.7,121.2c-2.4,0-4.7-0.7-6.7-2.1c-2.6-1.8-4.4-4.5-5-7.6c-0.6-3.1,0.1-6.3,1.9-8.9c2.2-3.3,5.9-5.2,9.8-5.2
			c2.4,0,4.7,0.7,6.7,2.1c2.6,1.8,4.4,4.5,5,7.6c0.6,3.1-0.1,6.3-1.9,8.9C467.4,119.2,463.7,121.2,459.7,121.2"/>
	</g>
</g>
<g transform="matrix(1,0,0,1,-91.8074,168.861)">
	<g>
		<path d="M657.1,318.4c-2.4,0-4.7-0.7-6.7-2.1c-2.6-1.8-4.4-4.5-5-7.6c-0.6-3.1,0.1-6.3,1.9-8.9c2.2-3.3,5.9-5.2,9.8-5.2
			c2.4,0,4.7,0.7,6.7,2.1c2.6,1.8,4.4,4.5,5,7.6c0.6,3.1-0.1,6.3-1.9,8.9C664.8,316.5,661.1,318.4,657.1,318.4"/>
	</g>
</g>
<g transform="matrix(1,0,0,1,-163.018,198.146)">
	<g>
		<path d="M558.6,359c-2.4,0-4.7-0.7-6.7-2.1c-2.6-1.8-4.4-4.5-5-7.6c-0.6-3.1,0.1-6.3,1.9-8.9c2.2-3.3,5.9-5.2,9.8-5.2
			c2.4,0,4.7,0.7,6.7,2.1c2.6,1.8,4.4,4.5,5,7.6c0.6,3.1-0.1,6.3-1.9,8.9C566.2,357,562.6,359,558.6,359"/>
	</g>
</g>
<g transform="matrix(1,0,0,1,-91.8933,26.7206)">
	<g>
		<path d="M657,121.8c-2.4,0-4.7-0.7-6.7-2.1c-2.6-1.8-4.4-4.5-5-7.6c-0.6-3.1,0.1-6.3,1.9-8.9c2.2-3.3,5.9-5.2,9.8-5.2
			c2.4,0,4.7,0.7,6.7,2.1c2.6,1.8,4.4,4.5,5,7.6c0.6,3.1-0.1,6.3-1.9,8.9C664.6,119.8,661,121.8,657,121.8"/>
	</g>
</g>
<g transform="matrix(0.965926,0.258819,-0.258819,0.965926,-124.899,-31.9651)">
	<g>
		<path d="M421.4,373.1c-2.4,0-4.7-0.7-6.7-2.1c-2.6-1.8-4.4-4.5-5-7.6c-0.6-3.1,0.1-6.3,1.9-8.9c2.2-3.3,5.9-5.2,9.8-5.2
			c2.4,0,4.7,0.7,6.7,2.1c2.6,1.8,4.4,4.5,5,7.6c0.6,3.1-0.1,6.3-1.9,8.9C429,371.2,425.3,373.1,421.4,373.1"/>
	</g>
</g>
<g transform="matrix(0.965926,0.258819,-0.258819,0.965926,-88.6373,-169.866)">
	<g>
		<path d="M420.4,175.8c-2.4,0-4.7-0.7-6.7-2.1c-2.6-1.8-4.4-4.5-5-7.6c-0.6-3.1,0.1-6.3,1.9-8.9c2.2-3.3,5.9-5.2,9.8-5.2
			c2.4,0,4.7,0.7,6.7,2.1c2.6,1.8,4.4,4.5,5,7.6c0.6,3.1-0.1,6.3-1.9,8.9C428.1,173.9,424.4,175.8,420.4,175.8"/>
	</g>
</g>
<g transform="matrix(0.965926,0.258819,-0.258819,0.965926,12.2623,4.78725)">
	<g>
		<path d="M617.8,373.1c-2.4,0-4.7-0.7-6.7-2.1c-2.6-1.8-4.4-4.5-5-7.6c-0.6-3.1,0.1-6.3,1.9-8.9c2.2-3.3,5.9-5.2,9.8-5.2
			c2.4,0,4.7,0.7,6.7,2.1c2.6,1.8,4.4,4.5,5,7.6c0.6,3.1-0.1,6.3-1.9,8.9C625.5,371.2,621.8,373.1,617.8,373.1"/>
	</g>
</g>
<g transform="matrix(0.965926,0.258819,-0.258819,0.965926,48.968,-132.532)">
	<g>
		<path d="M617.7,176.5c-2.4,0-4.7-0.7-6.7-2.1c-2.6-1.8-4.4-4.5-5-7.6c-0.6-3.1,0.1-6.3,1.9-8.9c2.2-3.3,5.9-5.2,9.8-5.2
			c2.4,0,4.7,0.7,6.7,2.1c2.6,1.8,4.4,4.5,5,7.6c0.6,3.1-0.1,6.3-1.9,8.9C625.3,174.5,621.7,176.5,617.7,176.5"/>
	</g>
</g>
<g transform="matrix(0.866025,0.5,-0.5,0.866025,32.2758,-197.761)">
	<g>
		<path d="M397.5,436.1c-2.4,0-4.7-0.7-6.7-2.1c-2.6-1.8-4.4-4.5-5-7.6c-0.6-3.1,0.1-6.3,1.9-8.9c2.2-3.3,5.9-5.2,9.8-5.2
			c2.4,0,4.7,0.7,6.7,2.1c2.6,1.8,4.4,4.5,5,7.6c0.6,3.1-0.1,6.3-1.9,8.9C405.2,434.2,401.5,436.1,397.5,436.1"/>
	</g>
</g>
<g transform="matrix(0.866025,0.5,-0.5,0.866025,102.993,-321.577)">
	<g>
		<path d="M396.6,238.8c-2.4,0-4.7-0.7-6.7-2.1c-2.6-1.8-4.4-4.5-5-7.6c-0.6-3.1,0.1-6.3,1.9-8.9c2.2-3.3,5.9-5.2,9.8-5.2
			c2.4,0,4.7,0.7,6.7,2.1c2.6,1.8,4.4,4.5,5,7.6c0.6,3.1-0.1,6.3-1.9,8.9C404.2,236.9,400.6,238.8,396.6,238.8"/>
	</g>
</g>
<g transform="matrix(0.866025,0.5,-0.5,0.866025,155.251,-126.761)">
	<g>
		<path d="M594,436.1c-2.4,0-4.7-0.7-6.7-2.1c-2.6-1.8-4.4-4.5-5-7.6c-0.6-3.1,0.1-6.3,1.9-8.9c2.2-3.3,5.9-5.2,9.8-5.2
			c2.4,0,4.7,0.7,6.7,2.1c2.6,1.8,4.4,4.5,5,7.6c0.6,3.1-0.1,6.3-1.9,8.9C601.6,434.2,598,436.1,594,436.1"/>
	</g>
</g>
<g transform="matrix(0.866025,0.5,-0.5,0.866025,226.247,-249.901)">
	<g>
		<path d="M593.9,239.5c-2.4,0-4.7-0.7-6.7-2.1c-2.6-1.8-4.4-4.5-5-7.6c-0.6-3.1,0.1-6.3,1.9-8.9c2.2-3.3,5.9-5.2,9.8-5.2
			c2.4,0,4.7,0.7,6.7,2.1c2.6,1.8,4.4,4.5,5,7.6c0.6,3.1-0.1,6.3-1.9,8.9C601.5,237.5,597.8,239.5,593.9,239.5"/>
	</g>
</g>
<g transform="matrix(0.965926,-0.258819,0.258819,0.965926,-287.027,391.032)">
	<g>
		<path d="M512.8,275.8c-2.4,0-4.7-0.7-6.7-2.1c-2.6-1.8-4.4-4.5-5-7.6c-0.6-3.1,0.1-6.3,1.9-8.9c2.2-3.3,5.9-5.2,9.8-5.2
			c2.4,0,4.7,0.7,6.7,2.1c2.6,1.8,4.4,4.5,5,7.6c0.6,3.1-0.1,6.3-1.9,8.9C520.4,273.9,516.7,275.8,512.8,275.8"/>
	</g>
</g>
<g transform="matrix(0.965926,-0.258819,0.258819,0.965926,-324.574,253.476)">
	<g>
		<path d="M511.9,78.5c-2.4,0-4.7-0.7-6.7-2.1c-2.6-1.8-4.4-4.5-5-7.6c-0.6-3.1,0.1-6.3,1.9-8.9c2.2-3.3,5.9-5.2,9.8-5.2
			c2.4,0,4.7,0.7,6.7,2.1c2.6,1.8,4.4,4.5,5,7.6c0.6,3.1-0.1,6.3-1.9,8.9C519.5,76.6,515.8,78.5,511.9,78.5"/>
	</g>
</g>
<g transform="matrix(0.965926,-0.258819,0.258819,0.965926,-149.866,354.28)">
	<g>
		<path d="M709.3,275.8c-2.4,0-4.7-0.7-6.7-2.1c-2.6-1.8-4.4-4.5-5-7.6c-0.6-3.1,0.1-6.3,1.9-8.9c2.2-3.3,5.9-5.2,9.8-5.2
			c2.4,0,4.7,0.7,6.7,2.1c2.6,1.8,4.4,4.5,5,7.6c0.6,3.1-0.1,6.3-1.9,8.9C716.9,273.9,713.2,275.8,709.3,275.8"/>
	</g>
</g>
<g transform="matrix(0.965926,-0.258819,0.258819,0.965926,-186.737,217.005)">
	<g>
		<path d="M709.1,79.1c-2.4,0-4.7-0.7-6.7-2.1c-2.6-1.8-4.4-4.5-5-7.6c-0.6-3.1,0.1-6.3,1.9-8.9c2.2-3.3,5.9-5.2,9.8-5.2
			c2.4,0,4.7,0.7,6.7,2.1c2.6,1.8,4.4,4.5,5,7.6c0.6,3.1-0.1,6.3-1.9,8.9C716.8,77.2,713.1,79.1,709.1,79.1"/>
	</g>
</g>
<g transform="matrix(0.866025,-0.5,0.5,0.866025,-280.931,619.407)">
	<g>
		<path d="M574.2,248.1c-2.4,0-4.7-0.7-6.7-2.1c-2.6-1.8-4.4-4.5-5-7.6c-0.6-3.1,0.1-6.3,1.9-8.9c2.2-3.3,5.9-5.2,9.8-5.2
			c2.4,0,4.7,0.7,6.7,2.1c2.6,1.8,4.4,4.5,5,7.6c0.6,3.1-0.1,6.3-1.9,8.9C581.8,246.1,578.1,248.1,574.2,248.1"/>
	</g>
</g>
<g transform="matrix(0.866025,-0.5,0.5,0.866025,-352.801,496.255)">
	<g>
		<path d="M573.2,50.8c-2.4,0-4.7-0.7-6.7-2.1c-2.6-1.8-4.4-4.5-5-7.6c-0.6-3.1,0.1-6.3,1.9-8.9c2.2-3.3,5.9-5.2,9.8-5.2
			c2.4,0,4.7,0.7,6.7,2.1c2.6,1.8,4.4,4.5,5,7.6c0.6,3.1-0.1,6.3-1.9,8.9C580.9,48.8,577.2,50.8,573.2,50.8"/>
	</g>
</g>
<g transform="matrix(0.866025,-0.5,0.5,0.866025,-157.956,548.407)">
	<g>
		<path d="M770.6,248.1c-2.4,0-4.7-0.7-6.7-2.1c-2.6-1.8-4.4-4.5-5-7.6c-0.6-3.1,0.1-6.3,1.9-8.9c2.2-3.3,5.9-5.2,9.8-5.2
			c2.4,0,4.7,0.7,6.7,2.1c2.6,1.8,4.4,4.5,5,7.6c0.6,3.1-0.1,6.3-1.9,8.9C778.3,246.1,774.6,248.1,770.6,248.1"/>
	</g>
</g>
<g transform="matrix(0.866025,-0.5,0.5,0.866025,-229.1,425.352)">
	<g>
		<path d="M770.5,51.4c-2.4,0-4.7-0.7-6.7-2.1c-2.6-1.8-4.4-4.5-5-7.6c-0.6-3.1,0.1-6.3,1.9-8.9c2.2-3.3,5.9-5.2,9.8-5.2
			c2.4,0,4.7,0.7,6.7,2.1c2.6,1.8,4.4,4.5,5,7.6c0.6,3.1-0.1,6.3-1.9,8.9C778.1,49.5,774.5,51.4,770.5,51.4"/>
	</g>
</g>
<g transform="matrix(1,0,0,1,-263.612,98.021)">
	<g>
		<path d="M419.4,220.4c-2.4,0-4.7-0.7-6.7-2.1c-2.6-1.8-4.4-4.5-5-7.6c-0.6-3.1,0.1-6.3,1.9-8.9c2.2-3.3,5.9-5.2,9.8-5.2
			c2.4,0,4.7,0.7,6.7,2.1c2.6,1.8,4.4,4.5,5,7.6c0.6,3.1-0.1,6.3-1.9,8.9C427,218.5,423.4,220.4,419.4,220.4"/>
	</g>
</g>
<circle class="st0" cx="395.6" cy="306.5" r="240.3"/>
<g transform="matrix(1,0,0,1,-13.0723,50.7773)">
	<path class="st0" d="M169.5,256.4c0,0,34.2-16,42.7-50.7c9-37-11.4-70.9-11.4-70.7"/>
</g>
<g transform="matrix(0.965926,0.258819,-0.258819,0.965926,118.784,-88.0941)">
	<path class="st0" d="M130.4,312.1c0,0,34.2-16,42.7-50.7c9-37-11.4-70.9-11.4-70.7"/>
</g>
<g transform="matrix(0.866025,0.5,-0.5,0.866025,283.346,-190.409)">
	<path class="st0" d="M106.9,372.5c0,0,34.2-16,42.7-50.7c9-37-11.4-70.9-11.4-70.7"/>
</g>
<g transform="matrix(0.707107,0.707107,-0.707107,0.707107,467.214,-245.568)">
	<path class="st0" d="M99.4,439.5c0,0,34.2-16,42.7-50.7c9-37-11.4-70.9-11.4-70.7"/>
</g>
<g transform="matrix(0.5,0.866025,-0.866025,0.5,660.292,-250.224)">
	<path class="st0" d="M111.6,505.5c0,0,34.2-16,42.7-50.7c9-37-11.4-70.9-11.4-70.7"/>
</g>
<g transform="matrix(0.258819,0.965926,-0.965926,0.258819,846.551,-205.436)">
	<path class="st0" d="M138.9,567.7c0,0,34.2-16,42.7-50.7c9-37-11.4-70.9-11.4-70.7"/>
</g>
<g transform="matrix(1.11022e-16,1,-1,1.11022e-16,1017.13,-114.074)">
	<path class="st0" d="M181.3,617.6c0,0,34.2-16,42.7-50.7c9-37-11.4-70.9-11.4-70.7"/>
</g>
<g transform="matrix(-0.258819,0.965926,-0.965926,-0.258819,1155.5,17.2919)">
	<path class="st0" d="M234.8,658.9c0,0,34.2-16,42.7-50.7c9-37-11.4-70.9-11.4-70.7"/>
</g>
<g transform="matrix(0.965926,-0.258819,0.258819,0.965926,-104.475,220.458)">
	<path class="st0" d="M221.3,214.5c0,0,34.2-16,42.7-50.7c9-37-11.4-70.9-11.4-70.7"/>
</g>
<g transform="matrix(0.866025,-0.5,0.5,0.866025,-149.361,406.725)">
	<path class="st0" d="M282.4,185.5c0,0,34.2-16,42.7-50.7c9-37-11.4-70.9-11.4-70.7"/>
</g>
<g transform="matrix(0.707107,-0.707107,0.707107,0.707107,-142.778,600.57)">
	<path class="st0" d="M348.4,177.4c0,0,34.2-16,42.7-50.7c9-37-11.4-70.9-11.4-70.7"/>
</g>
<g transform="matrix(0.5,-0.866025,0.866025,0.5,-88.279,784.315)">
	<path class="st0" d="M414.9,182.9c0,0,34.2-16,42.7-50.7c9-37-11.4-70.9-11.4-70.7"/>
</g>
<g transform="matrix(0.258819,-0.965926,0.965926,0.258819,11.3805,947.745)">
	<path class="st0" d="M477.5,204.7c0,0,34.2-16,42.7-50.7c9-37-11.4-70.9-11.4-70.7"/>
</g>
<g transform="matrix(-1.11022e-16,-1,1,-1.11022e-16,153.105,1080.16)">
	<path class="st0" d="M531.9,246.4c0,0,34.2-16,42.7-50.7c9-37-11.4-70.9-11.4-70.7"/>
</g>
<g transform="matrix(-0.258819,-0.965926,0.965926,-0.258819,321.568,1171.55)">
	<path class="st0" d="M574.4,297c0,0,34.2-16,42.7-50.7c9-37-11.4-70.9-11.4-70.7"/>
</g>
<g transform="matrix(-1,1.22465e-16,-1.22465e-16,-1,1180.83,914.646)">
	<path class="st0" d="M544.2,607.8c0,0,34.2-16,42.7-50.7c9-37-11.4-70.9-11.4-70.7"/>
</g>
<g transform="matrix(-0.965926,-0.258819,0.258819,-0.965926,1048.97,1053.52)">
	<path class="st0" d="M583.2,554.7c0,0,34.2-16,42.7-50.7c9-37-11.4-70.9-11.4-70.7"/>
</g>
<g transform="matrix(-0.866025,-0.5,0.5,-0.866025,884.412,1155.83)">
	<path class="st0" d="M607.1,489.6c0,0,34.2-16,42.7-50.7c9-37-11.4-70.9-11.4-70.7"/>
</g>
<g transform="matrix(-0.707107,-0.707107,0.707107,-0.707107,700.544,1210.99)">
	<path class="st0" d="M612.9,423.1c0,0,34.2-16,42.7-50.7c9-37-11.4-70.9-11.4-70.7"/>
</g>
<g transform="matrix(-0.5,-0.866025,0.866025,-0.5,507.466,1215.65)">
	<path class="st0" d="M603.3,356.7c0,0,34.2-16,42.7-50.7c9-37-11.4-70.9-11.4-70.7"/>
</g>
<g transform="matrix(-0.965926,0.258819,-0.258819,-0.965926,1272.23,744.965)">
	<path class="st0" d="M492.2,650.9c0,0,34.2-16,42.7-50.7c9-37-11.4-70.9-11.4-70.7"/>
</g>
<g transform="matrix(-0.866025,0.5,-0.5,-0.866025,1317.12,558.699)">
	<path class="st0" d="M431.1,677.3c0,0,34.2-16,42.7-50.7c9-37-11.4-70.9-11.4-70.7"/>
</g>
<g transform="matrix(-0.707107,0.707107,-0.707107,-0.707107,1310.54,364.854)">
	<path class="st0" d="M364.8,690.8c0,0,34.2-16,42.7-50.7c9-37-11.4-70.9-11.4-70.7"/>
</g>
<g transform="matrix(-0.5,0.866025,-0.866025,-0.5,1256.04,181.109)">
	<path class="st0" d="M297.9,683.1c0,0,34.2-16,42.7-50.7c9-37-11.4-70.9-11.4-70.7"/>
</g>
<path class="st1" d="M187.8,186.7l147.4,352.4"/>
<path class="st1" d="M186.4,428.7L636.8,309"/>
<path class="st1" d="M457.7,74.7l57.4,439.3"/>
<text transform="matrix(1 0 0 1 155.8208 173.3841)" class="st2 st3">A</text>
<text transform="matrix(1 0 0 1 327.8208 572.384)" class="st2 st3">B</text>
<text transform="matrix(1 0 0 1 459.7962 47.3576)" class="st2 st3">C</text>
<text transform="matrix(1 0 0 1 515.6434 548.4045)" class="st2 st3">D</text>
<text transform="matrix(1 0 0 1 655.399 313.4045)" class="st2 st3">E</text>
<text transform="matrix(1 0 0 1 154.8225 439.5291)" class="st2 st3">F</text>
</svg>
